<?xml version="1.0" encoding="UTF-8" standalone="no"?><!-- Generator: Gravit.io --><svg xmlns="http://www.w3.org/2000/svg" xmlns:xlink="http://www.w3.org/1999/xlink" style="isolation:isolate" viewBox="0 0 1119.609 699" width="1119.609pt" height="699pt"><defs><clipPath id="_clipPath_gMdK9he3GpRwc3uqQfFaiL9cYZdVtwIn"><rect width="1119.609" height="699"/></clipPath></defs><g clip-path="url(#_clipPath_gMdK9he3GpRwc3uqQfFaiL9cYZdVtwIn)"><clipPath id="_clipPath_xC1TJOkkJqafAwscdDYRi0e6Y3U7Yd5p"><rect x="-6.832" y="0" width="1119.609" height="699" transform="matrix(1,0,0,1,0,0)" fill="rgb(255,255,255)"/></clipPath><g clip-path="url(#_clipPath_xC1TJOkkJqafAwscdDYRi0e6Y3U7Yd5p)"><g><path d=" M 79.001 192.339 C 79.001 192.339 94.416 191.864 99.062 188.556 C 99.062 188.556 122.775 181.298 123.928 186.603 C 123.928 186.603 147.095 212.991 129.69 213.132 C 129.69 213.132 89.251 210.421 84.614 207.596 C 79.977 204.772 79.001 192.339 79.001 192.339 Z " fill="rgb(168,168,168)"/><g style="opacity:0.2;"><g opacity="0.2"><path d=" M 130.001 211.285 C 112.597 211.425 89.562 208.574 84.925 205.749 C 81.394 203.598 79.986 195.88 79.516 192.319 C 79.19 192.333 79.001 192.339 79.001 192.339 C 79.001 192.339 79.977 204.772 84.614 207.596 C 89.251 210.421 112.286 213.272 129.691 213.132 C 134.714 213.091 136.45 211.304 136.354 208.656 C 135.656 210.256 133.74 211.255 130.001 211.285 Z " fill="rgb(0,0,0)"/></g></g><ellipse vector-effect="non-scaling-stroke" cx="191.77748306338754" cy="424.5" rx="187" ry="25.439930000000004" fill="rgb(162,162,162)"/><g style="opacity:0.1;"><g opacity="0.1"><ellipse vector-effect="non-scaling-stroke" cx="191.77748306338754" cy="424.5" rx="157" ry="21.358659999999986" fill="rgb(162,162,162)"/></g></g><ellipse vector-effect="non-scaling-stroke" cx="829.3598370143995" cy="659.5885" rx="282.99999999999994" ry="38.5" fill="rgb(139,139,139)"/><path d=" M 423.777 626 C 523.99 649 716.621 596 737.777 536" fill="none"/><path d=" M 303.777 265.278 C 303.777 265.278 433.777 213.746 441.777 379.793 C 442.524 379.312 335.534 592.606 424.777 626" fill="none"/><path d=" M 771.873 563.24 L 763.995 613.535 C 763.995 613.535 725.213 634.138 752.482 634.744 C 752.482 634.744 908.215 634.744 908.215 634.744 C 908.215 634.744 933.06 634.744 893.672 612.929 L 885.794 560.21 L 771.873 563.24 Z " fill="rgb(232,232,232)"/><g style="opacity:0.1;"><g opacity="0.1"><path d=" M 746.996 634.198 C 753.189 628.688 763.995 622.946 763.995 622.946 L 771.873 572.651 L 885.794 572.758 L 893.672 622.34 C 902.857 627.427 908.547 631.327 911.875 634.318 C 916.934 633.164 922.463 628.875 893.672 612.929 L 885.794 560.21 L 771.873 563.24 L 763.995 613.535 C 763.995 613.535 731.407 630.85 746.996 634.198 Z " fill="rgb(0,0,0)"/></g></g><path d=" M 589.644 212.69 L 1066.812 212.69 C 1076.772 212.69 1084.858 220.776 1084.858 230.736 L 1084.858 552.164 C 1084.858 562.124 1076.772 570.21 1066.812 570.21 L 589.644 570.21 C 579.684 570.21 571.598 562.124 571.598 552.164 L 571.598 230.736 C 571.598 220.776 579.684 212.69 589.644 212.69 Z " fill="rgb(232,232,232)"/><rect x="588.871" y="231.777" width="478.713" height="267.837" transform="matrix(1,0,0,1,0,0)" fill="rgb(63,61,86)"/><circle vector-effect="non-scaling-stroke" cx="828.2278530633876" cy="223.29299" r="3.029829999999947" fill="rgb(242,242,242)"/><path d=" M 1084.854 520.822 L 1084.854 552.163 C 1084.855 556.949 1082.954 561.539 1079.569 564.924 C 1076.185 568.308 1071.595 570.209 1066.808 570.208 L 589.647 570.208 C 584.86 570.209 580.27 568.308 576.886 564.924 C 573.501 561.539 571.6 556.949 571.601 552.163 L 571.601 520.822 L 1084.854 520.822 Z " fill="rgb(232,232,232)"/><path d=" M 962.146 667.466 L 962.146 673.526 L 636.136 673.526 L 636.136 668.678 L 636.585 667.466 L 644.62 645.651 L 955.48 645.651 L 962.146 667.466 L 962.146 667.466 Z " fill="rgb(232,232,232)"/><path d=" M 1087.605 661.534 C 1087.011 664.073 1084.769 666.751 1079.703 669.284 C 1061.524 678.373 1024.56 666.86 1024.56 666.86 C 1024.56 666.86 996.08 662.012 996.08 649.287 C 996.88 648.739 997.714 648.244 998.577 647.802 C 1006.22 643.759 1031.561 633.781 1076.494 648.225 C 1079.805 649.264 1082.761 651.202 1085.035 653.822 C 1086.856 655.954 1088.284 658.657 1087.605 661.534 Z " fill="rgb(232,232,232)"/><g style="opacity:0.1;"><g opacity="0.1"><path d=" M 1084.682 661.412 C 1067.565 667.932 1051.879 669.811 1036.286 663.933 C 1033.947 663.051 1031.611 661.995 1029.272 660.754 C 1026.933 659.513 1024.592 658.087 1022.243 656.466 C 1011.978 649.381 1002.652 647.628 995.654 647.761 C 1003.296 643.741 1028.638 633.821 1073.571 648.181 C 1076.882 649.214 1079.838 651.14 1082.112 653.745 C 1083.933 655.864 1085.361 658.552 1084.682 661.412 Z " fill="rgb(232,232,232)"/></g></g><ellipse vector-effect="non-scaling-stroke" cx="1059.7068330633874" cy="654.13477" rx="7.877559999999903" ry="2.4238599999999906" fill="rgb(242,242,242)"/><circle vector-effect="non-scaling-stroke" cx="828.2278530633876" cy="545.66686" r="11.513349999999946" fill="rgb(242,242,242)"/><g style="opacity:0.1;"><g opacity="0.1"><path d=" M 962.146 667.466 L 962.146 673.526 L 636.136 673.526 L 636.136 668.678 L 636.585 667.466 L 962.146 667.466 L 962.146 667.466 Z " fill="rgb(0,0,0)"/></g></g><rect x="101.777" y="159" width="208" height="242" transform="matrix(1,0,0,1,0,0)" fill="rgb(232,232,232)"/><rect x="80.777" y="135" width="250" height="86" transform="matrix(1,0,0,1,0,0)" fill="rgb(232,232,232)"/><rect x="80.777" y="237" width="250" height="86" transform="matrix(1,0,0,1,0,0)" fill="rgb(232,232,232)"/><rect x="80.777" y="339" width="250" height="86" transform="matrix(1,0,0,1,0,0)" fill="rgb(232,232,232)"/><g style="opacity:0.4;"><g opacity="0.4"><rect x="264.777" y="150" width="16" height="16" transform="matrix(1,0,0,1,0,0)" fill="rgb(255,153,0)"/></g></g><g style="opacity:0.8;"><g opacity="0.8"><rect x="287.777" y="150" width="16" height="16" transform="matrix(1,0,0,1,0,0)" fill="rgb(255,153,0)"/></g></g><rect x="310.777" y="150" width="16" height="16" transform="matrix(1,0,0,1,0,0)" fill="rgb(255,153,0)"/><g style="opacity:0.4;"><g opacity="0.4"><rect x="264.777" y="251" width="16" height="16" transform="matrix(1,0,0,1,0,0)" fill="rgb(255,153,0)"/></g></g><g style="opacity:0.8;"><g opacity="0.8"><rect x="287.777" y="251" width="16" height="16" transform="matrix(1,0,0,1,0,0)" fill="rgb(255,153,0)"/></g></g><rect x="310.777" y="251" width="16" height="16" transform="matrix(1,0,0,1,0,0)" fill="rgb(255,153,0)"/><g style="opacity:0.4;"><g opacity="0.4"><rect x="264.777" y="352" width="16" height="16" transform="matrix(1,0,0,1,0,0)" fill="rgb(255,153,0)"/></g></g><g style="opacity:0.8;"><g opacity="0.8"><rect x="287.777" y="352" width="16" height="16" transform="matrix(1,0,0,1,0,0)" fill="rgb(255,153,0)"/></g></g><rect x="310.777" y="352" width="16" height="16" transform="matrix(1,0,0,1,0,0)" fill="rgb(255,153,0)"/></g></g></g></svg>