<?xml version="1.0" encoding="UTF-8" standalone="no"?><!-- Generator: Gravit.io --><svg xmlns="http://www.w3.org/2000/svg" xmlns:xlink="http://www.w3.org/1999/xlink" style="isolation:isolate" viewBox="0 0 727.893 637.36" width="727.893pt" height="637.36pt"><defs><clipPath id="_clipPath_l8QG7ehlIX21HzGCaWFbTXGqqaBBYmiF"><rect width="727.893" height="637.36"/></clipPath></defs><g clip-path="url(#_clipPath_l8QG7ehlIX21HzGCaWFbTXGqqaBBYmiF)"><path d=" M 163.63 120.483 C 162.125 120.485 160.905 121.705 160.903 123.21 L 160.903 216.222 C 160.905 217.728 162.125 218.948 163.63 218.949 L 480.786 218.949 C 482.291 218.948 483.511 217.728 483.513 216.222 L 483.513 123.21 C 483.511 121.705 482.291 120.485 480.786 120.483 L 163.63 120.483 Z " fill="rgb(230,230,230)"/><path d=" M 167.736 212.116 L 476.678 212.116 L 476.678 127.316 L 167.736 127.316 L 167.736 212.116 Z " fill="rgb(255,255,255)"/><path d=" M 437.682 194.523 C 436.068 194.523 434.577 195.385 433.77 196.782 C 432.963 198.18 432.963 199.902 433.77 201.3 C 434.577 202.697 436.068 203.558 437.682 203.558 L 455.751 203.558 C 457.365 203.558 458.856 202.697 459.663 201.3 C 460.47 199.902 460.47 198.18 459.663 196.782 C 458.856 195.385 457.365 194.523 455.751 194.523 L 437.682 194.523 Z " fill="rgb(255,153,0)"/><rect x="251.681" y="185.762" width="208.588" height="1.189" transform="matrix(1,0,0,1,0,0)" fill="rgb(230,230,230)"/><circle vector-effect="non-scaling-stroke" cx="208.08007500000002" cy="169.71651500000004" r="26.311000000000007" fill="rgb(255,153,0)"/><path d=" M 252.013 179.124 L 251.354 178.135 L 273.029 163.685 L 287.892 170.82 L 309.271 157.161 L 309.56 157.284 L 351.8 175.303 L 385.667 158.666 L 418.554 171.999 L 459.877 180.399 L 460.665 181.289 L 418.79 173.378 L 385.713 159.967 L 351.833 176.609 L 309.381 158.5 L 287.973 172.177 L 273.123 165.049 L 252.013 179.124 Z " fill="rgb(255,153,0)"/><path d=" M 255.544 195.146 C 253.435 195.18 251.743 196.9 251.743 199.009 C 251.743 201.118 253.435 202.838 255.544 202.871 L 295.954 202.871 C 298.085 202.903 299.839 201.202 299.874 199.071 C 299.908 196.94 298.209 195.183 296.078 195.146 Q 296.016 195.145 295.954 195.146 L 255.544 195.146 Z " fill="rgb(255,153,0)"/><path d=" M 218.663 169.39 C 218.047 168.774 217.048 168.773 216.432 169.39 L 216.432 169.39 L 209.658 176.163 L 209.658 159.46 C 209.651 158.594 208.946 157.895 208.08 157.895 C 207.214 157.895 206.509 158.594 206.502 159.46 L 206.502 176.163 L 199.728 169.39 C 199.113 168.774 198.116 168.773 197.499 169.387 C 196.882 170 196.879 170.997 197.491 171.615 L 197.497 171.621 L 206.964 181.089 C 207.581 181.705 208.58 181.705 209.196 181.089 L 218.663 171.621 C 219.28 171.005 219.28 170.006 218.663 169.39 Z " fill="rgb(255,255,255)"/><path d=" M 288.405 269.446 C 286.9 269.448 285.68 270.668 285.678 272.173 L 285.678 365.185 C 285.68 366.691 286.9 367.911 288.405 367.912 L 605.562 367.912 C 607.067 367.911 608.287 366.691 608.289 365.185 L 608.289 272.173 C 608.287 270.668 607.067 269.448 605.562 269.446 L 288.405 269.446 Z " fill="rgb(230,230,230)"/><path d=" M 292.512 361.079 L 601.455 361.079 L 601.455 276.279 L 292.512 276.279 L 292.512 361.079 Z " fill="rgb(255,255,255)"/><path d=" M 562.458 343.488 C 559.963 343.488 557.941 345.511 557.941 348.006 C 557.941 350.501 559.963 352.523 562.458 352.523 L 580.525 352.523 C 583.02 352.523 585.043 350.501 585.043 348.006 C 585.043 345.511 583.02 343.488 580.525 343.488 L 562.458 343.488 Z " fill="rgb(94,120,146)"/><rect x="376.457" y="334.726" width="208.588" height="1.189" transform="matrix(1,0,0,1,0,0)" fill="rgb(230,230,230)"/><circle vector-effect="non-scaling-stroke" cx="332.8550650000001" cy="318.680515" r="26.31099999999998" fill="rgb(94,120,146)"/><path d=" M 376.755 328.709 L 376.095 327.72 L 397.77 313.27 L 412.634 320.405 L 434.013 306.746 L 434.302 306.869 L 476.541 324.888 L 510.409 308.251 L 543.296 321.583 L 584.619 284.983 L 585.407 285.873 L 543.532 322.959 L 510.455 309.549 L 476.576 326.191 L 434.124 308.082 L 412.716 321.759 L 397.87 314.634 L 376.755 328.709 Z " fill="rgb(63,61,86)"/><path d=" M 380.32 344.109 C 378.187 344.075 376.429 345.776 376.395 347.909 C 376.36 350.042 378.061 351.8 380.194 351.834 L 380.194 351.834 Q 380.257 351.835 380.32 351.834 L 420.73 351.834 C 422.839 351.801 424.531 350.081 424.531 347.972 C 424.531 345.863 422.839 344.143 420.73 344.109 L 380.32 344.109 Z " fill="rgb(230,230,230)"/><path d=" M 322.272 319.007 C 322.568 319.303 322.969 319.469 323.387 319.469 C 323.806 319.47 324.207 319.303 324.503 319.007 L 324.503 319.007 L 331.277 312.233 L 331.277 328.937 C 331.277 329.809 331.984 330.515 332.855 330.515 C 333.727 330.515 334.433 329.809 334.433 328.937 L 334.433 312.233 L 341.207 319.007 C 341.605 319.406 342.187 319.562 342.731 319.416 C 343.276 319.27 343.701 318.845 343.847 318.3 C 343.993 317.755 343.837 317.174 343.438 316.776 L 333.971 307.308 C 333.355 306.692 332.356 306.692 331.739 307.308 L 322.272 316.776 C 321.655 317.392 321.655 318.391 322.272 319.007 Z " fill="rgb(255,255,255)"/><path d=" M 122.332 418.411 C 120.826 418.412 119.606 419.632 119.605 421.138 L 119.605 514.15 C 119.606 515.655 120.826 516.875 122.332 516.877 L 439.488 516.877 C 440.993 516.875 442.213 515.655 442.215 514.15 L 442.215 421.138 C 442.213 419.632 440.993 418.412 439.488 418.411 L 122.332 418.411 Z " fill="rgb(230,230,230)"/><path d=" M 126.438 510.043 L 435.381 510.043 L 435.381 425.243 L 126.438 425.243 L 126.438 510.043 Z " fill="rgb(255,255,255)"/><path d=" M 396.383 492.451 C 393.888 492.451 391.866 494.474 391.866 496.969 C 391.866 499.464 393.888 501.486 396.383 501.486 L 414.452 501.486 C 416.947 501.486 418.97 499.464 418.97 496.969 C 418.97 494.474 416.947 492.451 414.452 492.451 L 396.383 492.451 Z " fill="rgb(230,230,230)"/><rect x="210.382" y="483.69" width="208.588" height="1.189" transform="matrix(1,0,0,1,0,0)" fill="rgb(230,230,230)"/><path d=" M 140.48 466.909 C 140.886 452.393 153 440.937 167.516 441.343 C 182.031 441.748 193.487 453.862 193.082 468.378 C 192.676 482.894 180.562 494.35 166.047 493.944 C 151.531 493.539 140.075 481.425 140.48 466.909 Z " fill="rgb(230,230,230)"/><path d=" M 210.712 477.052 L 210.053 476.063 L 231.728 461.612 L 246.591 468.747 L 267.971 455.084 L 310.499 473.225 L 344.366 456.588 L 377.249 469.925 L 418.572 453.325 L 419.36 454.215 L 377.49 471.304 L 344.413 457.894 L 310.534 474.536 L 268.082 456.427 L 246.675 470.105 L 231.825 462.977 L 210.712 477.052 Z " fill="rgb(230,230,230)"/><path d=" M 214.245 493.072 C 212.136 493.106 210.444 494.826 210.444 496.935 C 210.444 499.044 212.136 500.764 214.245 500.797 L 254.655 500.797 C 256.788 500.832 258.546 499.131 258.58 496.998 C 258.615 494.865 256.914 493.107 254.781 493.072 Q 254.718 493.071 254.655 493.072 L 214.245 493.072 Z " fill="rgb(230,230,230)"/><path d=" M 166.436 457.056 C 166.141 457.352 165.975 457.754 165.976 458.172 C 165.976 458.591 166.143 458.992 166.439 459.287 L 166.439 459.287 L 173.224 466.051 L 156.52 466.076 C 155.653 466.082 154.953 466.785 154.952 467.652 C 154.95 468.518 155.648 469.224 156.515 469.232 L 173.228 469.207 L 166.465 475.991 C 165.848 476.606 165.847 477.606 166.463 478.222 C 167.078 478.839 168.077 478.84 168.694 478.225 L 168.7 478.219 L 178.153 468.737 C 178.768 468.12 178.767 467.121 178.15 466.505 L 168.668 457.052 C 168.371 456.757 167.97 456.591 167.551 456.592 C 167.133 456.592 166.731 456.759 166.436 457.056 L 166.436 457.056 Z " fill="rgb(255,255,255)"/><path d=" M 122.332 418.411 C 120.826 418.412 119.606 419.632 119.605 421.138 L 119.605 514.15 C 119.606 515.655 120.826 516.875 122.332 516.877 L 439.489 516.877 C 440.994 516.875 442.214 515.655 442.216 514.15 L 442.216 421.138 C 442.214 419.632 440.994 418.412 439.489 418.411 L 122.332 418.411 Z " fill="rgb(230,230,230)"/><path d=" M 126.439 510.044 L 435.382 510.044 L 435.382 425.244 L 126.439 425.244 L 126.439 510.044 Z " fill="rgb(255,255,255)"/><path d=" M 396.385 492.453 C 393.89 492.453 391.867 494.475 391.867 496.97 C 391.867 499.465 393.89 501.488 396.385 501.488 L 414.452 501.488 C 416.947 501.488 418.969 499.465 418.969 496.97 C 418.969 494.475 416.947 492.453 414.452 492.453 L 396.385 492.453 Z " fill="rgb(94,120,146)"/><rect x="210.384" y="483.69" width="208.588" height="1.189" transform="matrix(1,0,0,1,0,0)" fill="rgb(230,230,230)"/><circle vector-effect="non-scaling-stroke" cx="166.78159411132816" cy="467.644575498047" r="26.311000000000007" fill="rgb(94,120,146)"/><path d=" M 210.682 477.673 L 210.022 476.684 L 231.697 462.234 L 246.561 469.369 L 267.94 455.71 L 268.229 455.833 L 310.468 473.852 L 344.336 457.215 L 377.223 470.547 L 418.546 433.947 L 419.334 434.837 L 377.458 471.923 L 344.382 458.513 L 310.502 475.155 L 268.051 457.046 L 246.643 470.723 L 231.797 463.598 L 210.682 477.673 Z " fill="rgb(63,61,86)"/><path d=" M 214.247 493.074 C 212.113 493.039 210.356 494.74 210.321 496.873 C 210.286 499.006 211.988 500.764 214.121 500.799 L 214.121 500.799 Q 214.184 500.8 214.247 500.799 L 254.657 500.799 C 256.766 500.765 258.457 499.045 258.457 496.936 C 258.457 494.827 256.766 493.107 254.657 493.074 L 214.247 493.074 Z " fill="rgb(94,120,146)"/><path d=" M 156.198 467.971 C 156.494 468.267 156.895 468.434 157.314 468.434 C 157.732 468.434 158.134 468.267 158.43 467.971 L 158.43 467.971 L 165.204 461.198 L 165.204 477.901 C 165.204 478.773 165.91 479.479 166.782 479.479 C 167.653 479.479 168.36 478.773 168.36 477.901 L 168.36 461.198 L 175.133 467.971 C 175.532 468.37 176.113 468.526 176.658 468.38 C 177.202 468.234 177.628 467.809 177.773 467.264 C 177.919 466.719 177.764 466.138 177.365 465.74 L 167.897 456.272 C 167.281 455.656 166.282 455.656 165.666 456.272 L 156.198 465.74 C 155.582 466.356 155.582 467.355 156.198 467.971 Z " fill="rgb(255,255,255)"/><path d=" M 288.406 269.446 C 286.901 269.448 285.681 270.668 285.679 272.173 L 285.679 365.185 C 285.681 366.691 286.901 367.911 288.406 367.912 L 605.562 367.912 C 607.067 367.911 608.287 366.691 608.289 365.185 L 608.289 272.173 C 608.287 270.668 607.067 269.448 605.562 269.446 L 288.406 269.446 Z " fill="rgb(230,230,230)"/><path d=" M 292.513 361.079 L 601.456 361.079 L 601.456 276.279 L 292.513 276.279 L 292.513 361.079 Z " fill="rgb(255,255,255)"/><path d=" M 306.555 317.945 C 306.96 303.429 319.074 291.973 333.59 292.379 C 348.106 292.784 359.562 304.898 359.156 319.414 C 358.751 333.93 346.637 345.386 332.121 344.98 C 317.605 344.575 306.149 332.461 306.555 317.945 Z " fill="rgb(230,230,230)"/><path d=" M 376.787 328.088 L 376.128 327.099 L 397.803 312.648 L 412.666 319.783 L 434.046 306.12 L 476.574 324.261 L 510.441 307.624 L 543.324 320.961 L 584.647 304.361 L 585.435 305.251 L 543.565 322.34 L 510.488 308.93 L 476.609 325.572 L 434.157 307.463 L 412.75 321.141 L 397.9 314.013 L 376.787 328.088 Z " fill="rgb(230,230,230)"/><path d=" M 332.51 308.092 C 332.215 308.388 332.049 308.79 332.05 309.208 C 332.051 309.627 332.217 310.028 332.514 310.323 L 332.514 310.323 L 339.298 317.087 L 322.595 317.112 C 321.728 317.117 321.028 317.821 321.026 318.688 C 321.025 319.554 321.723 320.26 322.589 320.268 L 339.303 320.243 L 332.539 327.027 C 331.923 327.642 331.922 328.641 332.537 329.258 C 333.153 329.875 334.152 329.876 334.769 329.261 L 334.774 329.255 L 344.227 319.773 C 344.843 319.156 344.841 318.157 344.224 317.541 L 334.742 308.088 C 334.446 307.793 334.044 307.627 333.626 307.628 C 333.207 307.628 332.806 307.795 332.51 308.092 L 332.51 308.092 Z " fill="rgb(255,255,255)"/></g></svg>