<?xml version="1.0" encoding="UTF-8" standalone="no"?><!-- Generator: Gravit.io --><svg xmlns="http://www.w3.org/2000/svg" xmlns:xlink="http://www.w3.org/1999/xlink" style="isolation:isolate" viewBox="0 0 698.284 608.579" width="698.284pt" height="608.579pt"><defs><clipPath id="_clipPath_oOdLh8g9pZo1mPeolIXvE0vC9tUlUlZw"><rect width="698.284" height="608.579"/></clipPath></defs><g clip-path="url(#_clipPath_oOdLh8g9pZo1mPeolIXvE0vC9tUlUlZw)"><path d=" M 231.933 186.997 C 233.887 183.062 237.011 179.796 238.921 175.84 C 240.832 171.884 241.204 166.589 238.021 163.561 C 235.318 160.99 231.085 160.954 227.852 159.092 C 219.618 154.348 219.628 139.278 210.214 137.976 C 205.637 137.343 201.495 140.776 198.728 144.477 C 195.961 148.179 193.757 152.498 189.92 155.073 C 185.576 157.988 179.96 158.115 175.137 160.14 C 165.889 164.022 161.041 174.004 156.987 183.178 C 154.375 189.088 151.704 195.462 152.915 201.809 C 150.282 203.447 151.455 207.855 154.084 209.502 C 156.714 211.148 160.015 211.112 163.034 211.825 C 169.379 213.324 174.575 218.375 177.037 224.411 C 178.957 229.116 179.35 234.282 179.72 239.35 Q 180.684 252.54 181.648 265.731 C 181.934 269.644 182.309 273.801 184.691 276.919 C 187.072 280.036 192.229 281.342 194.906 278.475 C 197.464 275.734 196.312 271.396 196.26 267.647 C 196.208 263.899 199.597 259.231 202.792 261.192 L 203.919 258.635 C 218.825 253.298 229.23 239.734 230.521 223.954 C 231.338 211.509 226.386 198.166 231.933 186.997 Z " fill="rgb(230,230,230)"/><path d=" M 239.391 265.909 C 240.83 264.552 241.351 262.483 240.726 260.607 C 240.1 258.731 238.443 257.388 236.477 257.166 L 236.489 257.588 C 235.116 258.39 233.549 258.802 231.959 258.779 C 230.374 258.754 228.797 259.004 227.297 259.517 C 225.771 260.072 224.744 261.509 224.712 263.132 C 224.889 264.366 225.657 265.436 226.77 265.998 C 227.87 266.54 229.052 266.899 230.268 267.06 C 233.402 267.65 237.071 268.096 239.391 265.909 Z " fill="rgb(230,230,230)"/><path d=" M 300.508 187.205 C 301.821 186.312 302.935 185.158 303.781 183.815 C 304.621 182.424 304.52 180.661 303.526 179.375 C 302.538 178.518 301.266 178.058 299.958 178.086 C 296.406 177.821 292.836 178.242 289.443 179.326 Q 294.669 183.956 299.895 188.586 L 300.508 187.205 Z " fill="rgb(230,230,230)"/><path d=" M 283.085 195.233 C 284.493 196.787 284.044 199.198 283.645 201.257 C 283.247 203.316 283.196 205.889 284.967 207.013 C 286.502 207.986 288.657 207.192 289.779 205.762 C 290.783 204.238 291.395 202.488 291.56 200.67 C 292.111 198.028 292.361 195.332 292.303 192.633 C 292.236 189.914 291.277 187.293 289.573 185.173 C 287.094 182.347 283.091 181.412 279.616 182.847 L 281.235 182.767 C 280.058 184.278 279.166 185.99 278.601 187.82 C 278.051 189.693 278.561 191.716 279.932 193.105 C 280.892 193.94 282.23 194.29 283.085 195.233 Z " fill="rgb(230,230,230)"/><path d=" M 362.505 169.165 L 362.792 168.279 C 360.312 169.714 359.174 172.689 360.063 175.413 C 361.948 173.926 362.882 171.536 362.505 169.165 L 362.505 169.165 Z " fill="rgb(230,230,230)"/><path d=" M 346.859 181.851 C 349.967 180.091 352.057 176.963 352.494 173.418 C 352.66 172.331 352.534 171.219 352.129 170.197 C 351.707 169.166 350.797 168.415 349.705 168.196 L 349.05 169.227 C 348.109 168.418 346.531 169.25 346.135 170.426 C 345.88 171.647 345.986 172.915 346.44 174.076 C 346.893 175.245 346.873 176.544 346.383 177.697 C 345.854 178.375 345.26 179 344.609 179.561 C 343.952 180.158 343.81 181.137 344.27 181.896 C 344.887 182.601 346.041 182.305 346.859 181.851 Z " fill="rgb(230,230,230)"/><path d=" M 340.189 176.087 C 340.75 175.078 341.015 173.93 340.953 172.777 L 339.519 172.327 C 338.603 172.699 337.79 173.286 337.151 174.04 C 336.62 174.573 336.46 175.372 336.747 176.068 C 337.033 176.764 337.709 177.219 338.462 177.223 C 339.214 177.228 339.895 176.78 340.189 176.087 L 340.189 176.087 Z " fill="rgb(230,230,230)"/><path d=" M 410.255 168.833 C 410.385 168.941 410.513 169.053 410.643 169.163 C 410.757 169.139 410.866 169.095 410.983 169.081 L 410.255 168.833 Z " fill="rgb(230,230,230)"/><path d=" M 407.958 181.413 Q 409.932 179.816 411.906 178.219 C 412.605 177.725 413.201 177.098 413.66 176.375 C 414.298 174.984 414.178 173.363 413.342 172.081 C 412.614 170.962 411.701 169.976 410.643 169.163 C 408.238 169.732 406.637 172.01 406.918 174.467 C 407.156 175.976 408.104 177.59 407.33 178.908 C 407.029 179.421 406.511 179.77 406.163 180.254 C 405.816 180.737 405.703 181.506 406.181 181.861 C 406.71 182.256 407.444 181.829 407.958 181.413 Z " fill="rgb(230,230,230)"/><path d=" M 410.836 187.931 C 411.826 187.984 412.791 187.604 413.479 186.89 C 415.239 185.449 416.778 183.758 418.048 181.871 Q 413.606 183.278 409.164 184.685 L 410.087 185.765 C 409.267 186.3 409.874 187.747 410.836 187.931 Z " fill="rgb(230,230,230)"/><path d=" M 419.136 194.026 C 419.507 194.975 420.466 195.561 421.48 195.457 C 422.475 195.325 423.359 194.758 423.896 193.911 C 424.813 192.559 424.926 190.817 424.191 189.358 C 423.456 187.9 421.989 186.954 420.357 186.886 L 421.174 188.135 C 421.383 190.267 418.484 191.985 419.136 194.026 Z " fill="rgb(230,230,230)"/><path d=" M 476.649 217.379 C 478.294 218.606 480.552 218.601 482.191 217.366 C 483.237 216.472 483.863 215.183 483.919 213.809 C 483.975 212.434 483.456 211.098 482.486 210.123 L 480.974 210.967 C 479.23 209.846 476.913 210.307 475.73 212.009 C 474.675 213.781 475.065 216.058 476.649 217.379 Z " fill="rgb(230,230,230)"/><path d=" M 494.236 219.37 C 495.734 218.935 496.898 217.752 497.309 216.248 L 494.369 215.862 C 493.551 215.244 492.599 214.828 491.59 214.648 C 490.547 214.492 489.538 215.086 489.169 216.074 C 489.042 216.903 489.354 217.739 489.993 218.282 C 491.122 219.358 492.729 219.77 494.236 219.37 L 494.236 219.37 Z " fill="rgb(230,230,230)"/><path d=" M 482.094 225.248 C 482.2 226.225 482.86 227.052 483.789 227.372 C 484.806 227.855 486.014 227.667 486.837 226.9 C 487.198 226.493 487.339 225.938 487.218 225.408 C 487.097 224.879 486.728 224.44 486.226 224.231 L 484.021 223.83 C 483.17 223.389 482.08 224.289 482.094 225.248 Z " fill="rgb(230,230,230)"/><line x1="354.151" y1="240.753" x2="352.445" y2="239.194"/><path d=" M 341.116 231.576 C 342.166 236.456 347.422 240.431 352.193 238.964 L 352.445 239.194 C 350.926 237.115 350.668 234.039 351.023 231.364 C 352.361 222.048 358.357 214.058 366.929 210.171 C 368.084 209.811 369.117 209.138 369.914 208.227 C 370.593 207.232 370.34 205.527 369.168 205.246 C 368.532 205.174 367.889 205.322 367.35 205.667 L 358.483 210.031 C 354.005 212.235 349.438 214.502 345.92 218.044 C 342.403 221.585 340.065 226.697 341.116 231.576 Z " fill="rgb(230,230,230)"/><path d=" M 197.994 399.359 C 189.734 393.445 180.685 388.717 171.114 385.311 C 165.23 383.22 158.909 381.624 152.779 382.812 C 145.961 384.222 140.225 388.801 137.339 395.137 C 134.562 401.511 134.837 408.802 138.086 414.949 C 140.913 420.246 145.808 424.464 147.444 430.241 C 148.548 434.136 148.025 438.282 147.494 442.295 Q 145.866 454.596 144.238 466.896 C 143.25 474.362 142.287 482.132 144.651 489.283 C 147.015 496.433 153.76 502.736 161.253 501.977 L 162.738 501.865 C 157.782 498.495 156.392 491.517 157.868 485.708 C 159.344 479.899 163.09 474.972 166.747 470.223 Q 183.026 449.085 199.305 427.946 C 203.696 422.245 208.34 415.197 205.999 408.393 C 204.668 404.524 201.32 401.741 197.994 399.359 Z " fill="rgb(230,230,230)"/><path d=" M 124.033 363.734 C 122.934 363.361 121.773 364.189 121.127 365.153 C 120.605 366.188 119.991 367.175 119.293 368.101 C 117.603 369.843 114.522 369.497 112.698 367.894 C 110.875 366.291 110.085 363.811 109.731 361.409 C 109.307 358.527 109.49 355.312 111.392 353.105 C 113.35 350.834 116.569 350.224 119.53 349.752 C 122.59 349.265 126.017 348.859 128.523 350.679 C 130.102 351.826 131.022 353.677 132.484 354.968 C 133.947 356.26 136.548 356.75 137.649 355.138 C 138.233 353.979 138.214 352.607 137.596 351.466 C 136.977 350.345 136.605 349.105 136.504 347.829 C 136.578 346.058 138 344.65 139.455 343.638 C 140.91 342.626 142.554 341.752 143.508 340.258 C 144.683 338.421 144.558 336.055 145.287 333.999 C 147.05 329.025 153.342 326.813 155.175 321.864 C 155.617 320.823 155.666 319.657 155.315 318.582 C 154.547 316.611 152.474 316.998 152.347 314.589 C 152.225 312.284 154.147 310.024 156.101 309.062 C 158.794 307.734 161.934 307.842 164.935 307.761 C 167.936 307.681 171.17 307.282 173.372 305.242 C 174.814 303.755 175.554 301.725 175.406 299.659 C 175.258 297.594 174.237 295.689 172.599 294.423 C 170.958 293.29 168.883 292.896 167.286 291.701 C 165.297 290.212 164.355 287.733 162.806 285.791 C 161.517 284.312 160.042 283.006 158.419 281.906 Q 156.425 280.427 154.431 278.947 C 152.027 277.164 149.527 275.336 146.603 274.7 C 143.679 274.065 140.196 274.964 138.732 277.573 C 138.154 278.737 137.839 280.012 137.808 281.31 C 137.674 284.367 137.802 287.429 138.189 290.464 Q 138.551 294.128 138.913 297.793 C 139.129 299.983 138.897 302.87 136.771 303.438 C 132.055 304.699 133.646 297.726 132.6 295.59 C 130.999 292.32 123.643 290.749 120.498 289.387 C 118.534 288.536 116.462 287.596 115.276 285.814 C 113.8 283.596 114.103 280.578 115.26 278.178 C 116.418 275.779 118.303 273.826 120.017 271.786 C 121.763 269.706 123.353 267.501 124.942 265.299 Q 127.705 261.467 130.468 257.635 C 132.831 254.358 135.315 250.36 133.973 246.55 C 133.378 245.508 132.217 244.923 131.026 245.067 C 129.834 245.211 128.845 246.054 128.515 247.208 C 127.927 249.265 129.496 251.891 127.995 253.415 C 126.934 254.27 125.413 254.241 124.384 253.348 C 123.412 252.45 122.671 251.33 122.226 250.084 C 120.407 246.042 118.635 241.975 116.768 237.956 C 116.178 236.685 115.562 234.509 113.773 234.723 C 112.221 234.909 111.382 237.172 111.436 238.486 C 111.515 240.397 112.571 242.105 113.378 243.839 C 114.186 245.573 114.75 247.655 113.864 249.35 C 112.741 251.497 109.899 251.979 107.478 251.908 C 102.915 251.77 98.443 250.59 94.406 248.459 Q 94.248 251.823 94.089 255.187 Q 89.269 253.17 84.449 251.152 Q 83.513 250.76 82.577 250.369 C 79.866 249.234 77.152 248.098 74.362 247.177 C 72.778 246.654 71.172 246.201 69.566 245.749 Q 68.102 245.336 66.638 244.923 C 64.712 244.241 62.669 243.95 60.629 244.066 C 58.486 244.335 56.574 245.487 54.592 246.347 C 50.169 248.267 44.449 246.336 39.71 246.301 C 35.891 240.725 29.501 237.469 22.744 237.656 C 15.988 237.844 9.788 241.448 6.283 247.228 C 5.45 248.669 4.708 250.161 4.062 251.695 Q 3.097 253.856 2.133 256.018 C 1.189 258.132 0.225 260.359 0.411 262.666 C 0.596 264.974 2.365 267.331 4.68 267.31 C -0.779 269.781 -1.915 278.428 2.72 282.225 C 4.004 283.276 5.578 283.964 6.733 285.155 C 8.518 286.997 9.007 289.738 7.968 292.083 C 6.929 294.429 4.57 295.908 2.006 295.823 C 8.665 298.396 16.219 296.03 20.22 290.118 C 22.202 287.015 23.063 283.139 25.759 280.632 C 29.329 277.311 35.226 277.569 39.343 280.18 C 43.461 282.791 46.066 287.236 47.858 291.77 C 50.206 297.713 51.708 304.503 56.711 308.477 C 59.129 310.399 62.193 311.48 64.33 313.71 C 67.375 316.886 67.902 321.679 67.833 326.078 C 67.764 330.477 67.291 335.041 68.893 339.139 C 70.495 343.236 75.089 346.606 79.209 345.061 C 76.779 352.27 79.622 360.202 86.078 364.226 Q 84.952 357.244 83.826 350.261 C 87.567 351.314 89.991 354.942 91.391 358.567 C 92.791 362.192 93.531 366.113 95.561 369.426 C 98.757 374.645 104.544 376.893 110.431 376.873 C 116.791 376.852 119.206 373.82 123.397 369.354 C 124.239 368.592 124.878 367.632 125.257 366.562 C 125.611 365.446 125.089 364.24 124.033 363.734 L 124.033 363.734 Z " fill="rgb(230,230,230)"/><path d=" M 142.042 363.502 Q 136.71 362.664 131.378 361.826 Q 134.173 363.506 136.968 365.187 C 138.522 366.221 140.212 367.035 141.989 367.606 C 143.791 368.172 145.747 367.966 147.391 367.037 L 146.936 366.167 C 146.219 364.355 143.968 363.805 142.042 363.502 Z " fill="rgb(230,230,230)"/><path d=" M 139.627 383.262 L 139.651 383.2 C 139.211 382.471 138.373 382.082 137.532 382.218 C 136.713 382.364 135.876 382.378 135.052 382.258 C 133.991 381.843 133.197 380.94 132.921 379.835 C 132.567 378.772 132.463 377.635 132.061 376.589 C 131.468 374.903 129.981 373.691 128.211 373.449 C 126.397 373.303 124.803 374.641 124.632 376.452 C 124.7 377.349 124.985 378.215 125.462 378.977 Q 126.037 380.083 126.612 381.189 C 126.935 381.85 127.307 382.486 127.724 383.092 C 129.101 384.989 131.29 386.125 133.633 386.158 C 135.976 386.191 138.197 385.118 139.627 383.262 L 139.627 383.262 Z " fill="rgb(230,230,230)"/><path d=" M 118.865 194.087 C 121.572 195.683 124.962 196.783 126.248 199.65 L 126.99 199.889 Q 125.776 201.398 124.562 202.906 C 123.562 204.149 122.51 205.534 122.534 207.129 C 122.566 209.326 124.679 210.983 126.814 211.501 C 131.534 212.472 136.223 209.709 137.659 205.109 C 137.913 204.183 138.018 203.222 138.24 202.288 C 138.889 200.073 139.869 197.968 141.146 196.046 Q 151.928 177.907 162.71 159.768 C 163.605 158.262 164.528 156.46 163.855 154.843 C 163.12 153.443 161.607 152.631 160.034 152.792 C 158.5 152.979 157.02 153.477 155.685 154.255 C 154.482 152.14 152.316 150.752 149.892 150.541 C 147.504 150.357 145.102 150.566 142.782 151.16 C 137.541 151.951 132.486 153.687 127.865 156.284 C 125.337 157.562 122.555 159.141 121.822 161.877 C 120.92 165.242 123.827 168.672 127.175 169.64 C 130.522 170.607 134.095 169.795 137.483 168.981 C 138.27 172.354 136.738 175.842 133.721 177.545 C 130.704 179.248 126.926 178.757 124.445 176.341 C 122.016 173.976 120.827 169.871 117.492 169.26 C 114.169 168.652 111.527 172.197 110.793 175.495 C 109.324 182.772 112.546 190.193 118.865 194.087 Z " fill="rgb(230,230,230)"/><path d=" M 160.554 252.275 C 158.953 247.763 156.85 243.447 154.283 239.406 C 152.337 236.211 149.936 233.317 147.154 230.816 C 144.612 228.621 141.69 226.909 138.533 225.766 C 135.468 224.657 132.055 224.11 128.957 225.12 C 125.858 226.131 123.222 229.012 123.285 232.271 C 123.354 235.874 126.507 238.692 129.792 240.172 C 133.078 241.653 136.733 242.297 139.833 244.135 C 144.113 246.731 146.822 251.285 147.061 256.285 L 147.842 257.576 C 146.073 258.162 144.423 259.06 142.971 260.227 C 141.507 261.435 140.802 263.334 141.122 265.205 C 141.663 267.387 143.891 268.639 145.906 269.636 Q 151.489 272.402 157.073 275.167 C 155.177 269.516 161.383 264.257 161.726 258.306 C 161.739 256.238 161.341 254.188 160.554 252.275 L 160.554 252.275 Z " fill="rgb(230,230,230)"/><path d=" M 66.956 237.016 C 69.214 238.77 72.686 237.949 74.755 235.976 C 76.823 234.002 77.831 231.194 78.77 228.494 C 78.427 231.167 78.46 233.874 78.867 236.538 C 79.296 239.231 80.833 241.621 83.106 243.127 C 84.127 243.687 85.227 244.088 86.369 244.315 C 91.677 245.523 97.224 245.127 102.306 243.176 L 102.352 241.439 C 99.799 241.73 97.867 238.93 97.698 236.366 C 97.529 233.802 98.46 231.287 98.542 228.719 C 98.624 226.15 97.386 223.15 94.857 222.693 C 95.763 224.513 95.448 226.703 94.066 228.195 C 92.684 229.686 90.524 230.166 88.64 229.4 C 85.713 228.21 84.65 224.644 82.388 222.438 C 79.53 219.896 75.426 219.319 71.978 220.974 C 68.608 222.693 66.162 225.804 65.286 229.484 C 64.599 232.122 64.803 235.344 66.956 237.016 Z " fill="rgb(230,230,230)"/><path d=" M 136.645 218.716 L 136.75 218.546 C 136.12 216.725 134.166 215.658 132.259 215.387 C 130.336 215.26 128.406 215.324 126.496 215.578 C 124.568 215.827 122.614 215.397 120.969 214.36 C 119.656 213.379 118.908 211.835 117.859 210.576 C 116.809 209.317 115.111 208.281 113.586 208.883 C 111.936 209.535 111.495 211.849 112.296 213.432 C 113.24 214.952 114.663 216.114 116.341 216.734 C 122.696 219.651 129.847 220.349 136.645 218.716 Z " fill="rgb(230,230,230)"/><path d=" M 114.954 224.172 C 113.857 224.976 113.589 226.502 114.347 227.63 C 115.106 228.759 116.619 229.089 117.778 228.377 L 118.335 228.927 C 119.076 227.601 119.381 225.824 118.434 224.636 C 117.562 223.617 116.063 223.417 114.954 224.172 L 114.954 224.172 Z " fill="rgb(230,230,230)"/><path d=" M 108.437 228.93 C 108.454 227.96 107.872 227.08 106.973 226.715 C 106.369 226.611 105.749 226.759 105.257 227.124 C 104.764 227.488 104.442 228.038 104.364 228.646 C 104.271 229.885 104.697 231.107 105.539 232.02 C 106.029 232.756 106.811 233.248 107.687 233.37 C 108.559 233.398 109.449 232.486 109.095 231.687 L 107.763 231.661 C 108.173 230.807 108.403 229.877 108.437 228.93 L 108.437 228.93 Z " fill="rgb(230,230,230)"/><path d=" M 82.378 215.283 Q 83.112 215.878 83.847 216.473 C 84.694 217.206 85.61 217.856 86.581 218.415 C 88.28 219.356 90.278 219.6 92.154 219.097 C 94.036 218.56 95.514 217.101 96.076 215.227 C 96.661 213.022 95.706 210.732 94.772 208.651 C 94.559 208.056 94.207 207.519 93.746 207.087 C 93.259 206.655 92.535 206.627 92.015 207.019 C 91.644 207.481 91.538 208.104 91.737 208.663 C 91.937 209.211 92.029 209.793 92.007 210.377 C 91.914 210.952 91.31 211.496 90.778 211.258 L 90.693 213.217 C 88.152 211.931 86.808 208.51 83.98 208.172 C 82.686 208.018 81.414 208.597 80.681 209.674 C 79.948 210.752 79.876 212.147 80.495 213.294 C 80.986 214.075 81.626 214.75 82.378 215.283 L 82.378 215.283 Z " fill="rgb(230,230,230)"/><path d=" M 76.326 206.826 C 77.525 206.004 78.162 204.581 77.976 203.139 C 77.834 202.446 77.39 201.853 76.766 201.519 C 76.141 201.186 75.401 201.148 74.746 201.416 C 74.02 201.959 73.51 202.741 73.307 203.625 Q 72.302 206.458 71.298 209.292 L 72.423 208.473 C 73.816 208.173 75.14 207.614 76.326 206.826 L 76.326 206.826 Z " fill="rgb(230,230,230)"/><path d=" M 89.369 195.233 C 89.776 194.72 89.935 194.053 89.803 193.411 C 89.671 192.769 89.262 192.219 88.685 191.908 L 87.278 191.776 C 86.4 191.999 85.761 192.756 85.691 193.659 C 85.62 194.562 86.133 195.409 86.965 195.766 C 87.798 196.122 88.765 195.908 89.369 195.233 L 89.369 195.233 Z " fill="rgb(230,230,230)"/><path d=" M 102.317 197.405 C 103.63 198.034 105.293 198.633 106.435 197.73 C 107.124 197.107 107.428 196.163 107.231 195.255 C 107.026 194.365 106.63 193.53 106.07 192.809 C 104.322 190.301 102.102 188.157 99.534 186.499 L 98.899 187.324 C 98.012 189.627 97.156 192.315 98.393 194.451 C 99.227 195.89 100.816 196.687 102.317 197.405 Z " fill="rgb(230,230,230)"/><line x1="112.101" y1="199.455" x2="114.557" y2="200.566"/><path d=" M 105.483 207.182 L 104.322 207.564 C 103.336 209.186 103.764 211.259 104.223 213.101 C 104.513 214.266 105.139 215.698 106.338 215.645 C 107.504 215.594 108.02 214.179 108.244 213.033 C 108.594 211.789 108.631 210.477 108.354 209.214 C 108.028 207.922 106.81 207.06 105.483 207.182 Z " fill="rgb(230,230,230)"/><path d=" M 86.977 201.724 L 87.836 202.07 C 88.25 202.011 88.572 201.681 88.623 201.266 C 88.673 200.851 88.438 200.454 88.05 200.298 C 87.662 200.142 87.218 200.266 86.967 200.6 C 86.715 200.934 86.72 201.395 86.977 201.724 Z " fill="rgb(230,230,230)"/><path d=" M 130.265 267.381 C 129.421 267.4 128.639 267.826 128.165 268.524 C 127.69 269.223 127.583 270.107 127.877 270.899 C 128.721 272.714 131.624 272.722 132.915 271.192 C 133.583 270.313 133.853 269.194 133.66 268.107 C 133.466 267.02 132.827 266.063 131.896 265.469 L 130.265 267.381 Z " fill="rgb(230,230,230)"/><path d=" M 172.091 310.392 C 171.409 310.574 170.83 311.024 170.485 311.64 C 170.14 312.255 170.058 312.984 170.259 313.661 L 172.67 313.828 Q 173.894 313.213 175.119 312.599 C 175.019 311.9 174.641 311.271 174.071 310.856 C 173.501 310.44 172.786 310.273 172.091 310.392 L 172.091 310.392 Z " fill="rgb(230,230,230)"/><path d=" M 162.291 313.374 C 160.889 314.37 160.1 316.019 160.203 317.736 C 160.364 319.464 161.625 320.89 163.322 321.26 C 165.053 321.531 166.699 320.415 167.087 318.706 C 167.495 316.212 164.815 314.386 163.852 312.05 L 162.291 313.374 Z " fill="rgb(230,230,230)"/><path d=" M 255.927 296.905 C 256.182 298.777 254.495 300.417 254.432 302.306 C 254.358 304.546 256.797 306.289 259.027 306.069 C 261.272 305.68 263.204 304.261 264.247 302.235 L 264.295 302.025 Q 262.665 300.183 261.035 298.341 C 259.701 296.833 258.287 295.116 258.339 293.103 C 258.365 292.11 258.756 291.149 258.734 290.156 C 258.681 289.442 258.522 288.74 258.261 288.074 C 257.967 287.196 257.566 286.207 256.689 285.91 C 255.591 285.539 254.483 286.512 253.958 287.546 C 253.001 289.483 253.073 291.769 254.15 293.642 C 254.784 294.719 255.759 295.667 255.927 296.905 Z " fill="rgb(230,230,230)"/><path d=" M 245.681 303.492 C 246.162 303.751 246.732 303.788 247.242 303.592 C 248.21 303.427 249.141 303.089 249.989 302.594 C 250.847 302.078 251.36 301.141 251.333 300.141 C 251.033 298.877 250.001 297.919 248.719 297.713 C 247.835 297.402 246.854 297.552 246.104 298.113 C 245.294 298.872 245.391 300.161 245.549 301.26 L 245.379 301.546 C 245.226 302.225 245.129 303.069 245.681 303.492 Z " fill="rgb(230,230,230)"/><path d=" M 416.707 383.495 Q 416.354 382.618 416.001 381.742 C 415.679 382.535 415.799 383.347 416.707 383.495 Z " fill="rgb(230,230,230)"/><path d=" M 557.784 260.568 C 554.768 257.296 552.921 255.409 551.016 251.353 C 548.911 246.81 544.669 243.624 539.719 242.869 C 533.462 241.839 527.069 243.471 520.736 243.144 C 510.592 242.62 501.446 237.179 491.732 234.212 C 486.294 232.688 480.755 231.546 475.157 230.793 Q 470.319 230.028 465.48 229.263 C 454.907 227.591 444.266 225.914 433.564 226.136 C 430.478 226.2 426.179 225.273 426.426 222.196 C 426.733 218.374 433.608 218.876 434.931 215.277 C 435.749 213.051 433.791 210.714 431.643 209.708 C 429.496 208.701 427.017 208.399 425.068 207.047 C 423.12 205.696 422.052 202.563 423.843 201.009 Q 416.396 204.826 408.949 208.644 C 404.821 210.76 400.209 213.513 399.48 218.094 C 396.993 218.751 394.816 220.263 393.332 222.365 C 390.54 222.379 388.345 225.061 387.884 227.815 C 387.424 230.569 388.261 233.357 389.089 236.024 C 388.076 234.084 387 232.07 385.214 230.804 C 383.429 229.538 380.711 229.296 379.189 230.869 C 377.627 232.483 377.992 235.191 379.097 237.147 C 380.202 239.102 381.899 240.68 382.942 242.67 C 386.199 248.883 380.298 257.631 373.317 256.939 Q 374.019 247.315 374.722 237.691 C 375.018 235.717 374.852 233.702 374.237 231.803 C 373.476 229.967 371.526 228.458 369.585 228.892 C 366.096 229.672 366.394 234.782 367.846 238.05 C 369.297 241.317 370.744 245.86 367.781 247.861 C 365.868 249.153 363.274 248.355 361.208 247.324 C 359.143 246.293 356.933 245.022 354.675 245.503 C 352.418 245.985 350.998 249.437 352.993 250.599 Q 348.03 249.736 343.068 248.874 C 342.737 250.843 341.587 252.58 339.903 253.654 C 338.22 254.729 336.16 255.039 334.234 254.51 Q 333.747 252.491 333.26 250.472 Q 332.534 250.27 331.808 250.068 C 333.327 250.491 330.95 256.899 328.818 261.795 C 325.953 261.459 321.765 261.394 321.288 260.573 C 319 256.641 319.271 247.276 315.296 245.064 Q 312.306 243.4 309.163 242.031 C 308.063 241.507 306.9 241.125 305.703 240.895 C 303.261 240.51 300.8 241.267 298.445 242.015 C 295.661 242.899 292.813 243.817 290.508 245.61 C 288.54 247.318 286.853 249.324 285.509 251.556 Q 278.683 261.658 271.857 271.76 C 270.501 273.558 269.435 275.558 268.695 277.685 C 267.991 279.826 268.254 282.167 269.416 284.098 C 270.662 286.024 273.065 286.845 275.228 286.085 C 276.547 285.514 277.868 284.22 279.175 284.817 C 280.165 285.27 280.412 286.571 280.309 287.654 C 280.057 288.715 280.037 289.818 280.25 290.887 C 280.846 292.573 283.135 293.16 284.767 292.43 C 286.355 291.564 287.544 290.116 288.085 288.39 C 289.659 284.356 289.498 279.891 289.89 275.578 C 290.282 271.265 291.461 266.652 294.861 263.971 C 295.879 263.168 297.374 262.589 298.422 263.353 C 299.226 264.084 299.478 265.245 299.048 266.243 C 298.61 267.206 298.039 268.104 297.351 268.908 C 295.003 272.212 294.132 276.343 294.947 280.314 L 295.642 280.744 C 298.294 280.056 301.842 281.288 305.362 282.469 C 302.807 283.228 300.557 284.776 298.934 286.89 C 294.865 292.599 291.92 298.001 283.871 297.933 C 281.962 297.917 280.068 297.54 278.159 297.536 C 276.232 297.417 274.333 298.049 272.862 299.3 C 271.414 300.717 270.967 302.875 269.728 304.479 C 268.1 306.587 265.378 307.444 262.892 308.402 C 261.076 309.102 259.161 310.046 258.326 311.804 C 257.801 313.247 257.68 314.805 257.976 316.311 C 258.256 318.974 258.751 322.003 261.011 323.441 C 262.717 324.332 264.71 324.5 266.542 323.909 C 268.892 323.337 271.191 322.261 273.604 322.422 C 277.394 322.674 280.515 326.312 280.553 330.109 C 280.572 332.032 280.012 334.237 281.286 335.676 C 282.483 337.029 284.858 336.788 286.098 335.475 C 287.269 334.056 287.661 332.15 287.144 330.384 C 286.617 328.653 285.807 327.02 284.746 325.554 C 287.347 324.88 290.061 326.135 291.233 328.553 C 292.075 330.423 291.803 332.581 292.071 334.614 C 292.34 336.647 293.577 338.906 295.625 339.024 C 297.006 339.062 298.219 338.111 298.509 336.76 C 298.531 335.728 298.474 334.696 298.341 333.673 C 298.486 331.581 300.239 329.967 302.335 329.992 C 301.051 332.366 301.63 335.318 303.716 337.03 C 305.274 338.236 307.334 338.505 309.275 338.842 C 311.216 339.179 313.286 339.712 314.539 341.233 C 316.626 343.765 314.073 344.906 313.675 347.051 C 313.187 349.684 315.387 353.573 316.231 356.092 Q 322.055 364.239 327.879 372.386 C 328.745 373.706 329.767 374.918 330.923 375.995 C 334.756 379.286 341.074 378.962 344.749 375.496 C 348.407 371.795 349.223 366.141 346.762 361.556 C 344.49 357.422 339.99 354.861 337.768 350.701 C 341.467 353.763 346.008 355.63 350.791 356.056 C 359.253 357.776 367.293 361.148 374.451 365.979 C 374.787 373.457 377.656 380.598 382.587 386.23 C 383.474 379.848 386.449 373.94 391.048 369.427 C 394.039 366.51 398.126 364.159 402.229 364.943 C 406.333 365.727 409.446 370.96 406.964 374.321 Q 410.084 374.553 413.203 374.785 Q 414.602 378.263 416.001 381.742 C 416.342 380.741 417.295 380.08 418.351 380.11 C 420.298 380.404 421.664 382.216 423.516 382.884 C 427.007 384.145 430.739 380.653 431.19 376.969 C 431.641 373.285 429.889 369.728 428.186 366.43 C 435.872 367.853 443.672 364.59 448.055 358.118 C 452.438 351.646 452.573 343.193 448.399 336.584 C 452.446 332.333 457.209 328.826 462.47 326.224 C 467.339 323.819 472.664 322.168 476.92 318.794 C 481.175 315.42 484.159 309.561 482.112 304.53 C 480.666 300.977 477.04 298.565 475.955 294.886 C 474.384 289.559 479.156 284.05 484.548 282.719 C 489.939 281.388 495.57 283.024 500.881 284.647 C 500.065 279.182 506.399 274.059 511.573 275.999 Q 514.823 274.683 518.073 273.367 C 515.562 278.905 510.119 282.428 506.117 287.006 C 502.115 291.584 499.731 299.039 503.912 303.455 Q 512.9 295.308 521.889 287.161 Q 531.291 278.64 540.693 270.118 Q 540.244 268.799 539.795 267.481 C 545.725 265.228 552.111 263.365 557.784 260.568 Z " fill="rgb(230,230,230)"/><path d=" M 246.541 333.664 C 246.044 334.378 246.049 335.327 246.552 336.036 C 247.216 336.6 248.187 336.613 248.866 336.067 C 249.51 335.517 250.012 334.822 250.331 334.038 C 250.969 335.272 252.311 335.974 253.688 335.796 C 255.031 335.594 256.303 335.063 257.391 334.252 C 258.255 333.746 259.017 333.084 259.64 332.301 C 260.265 331.501 260.474 330.452 260.205 329.473 C 259.882 328.733 259.38 328.085 258.744 327.587 Q 256.365 325.39 253.987 323.193 L 253.45 323.032 C 252.885 322.431 252.099 322.086 251.274 322.077 C 250.449 322.068 249.656 322.396 249.078 322.985 C 248.093 324.088 248.089 325.734 248.239 327.204 C 248.39 328.675 248.624 330.241 247.969 331.566 C 247.594 332.326 246.959 332.927 246.541 333.664 Z " fill="rgb(230,230,230)"/><path d=" M 338.536 383.694 C 325.954 380.894 316.147 371.036 313.411 358.441 C 312.827 355.53 312.562 352.349 310.625 350.098 C 308.75 347.92 305.687 347.133 302.813 347.133 C 299.938 347.134 297.105 347.795 294.236 347.974 C 289.22 348.287 283.906 346.962 280.319 343.442 C 278.62 341.775 277.334 339.658 275.35 338.343 C 272.684 336.576 269.15 336.577 266.112 337.578 C 262.728 338.694 260.02 341.745 256.32 341.325 C 252.472 340.888 248.013 339.528 246.504 344.595 C 246.07 346.054 246.218 347.654 245.668 349.073 C 244.82 351.26 242.569 352.493 240.789 354.021 C 237.204 357.099 235.298 361.775 234.656 366.456 C 234.014 371.138 234.51 375.892 235.008 380.591 C 235.276 383.126 235.629 385.853 237.37 387.715 C 239.797 390.31 243.869 390.209 247.41 389.917 Q 253.58 389.407 259.751 388.898 C 261.968 388.715 264.495 388.637 266.073 390.205 C 267.019 391.145 267.42 392.504 268.251 393.546 C 269.79 395.371 272.384 395.894 274.509 394.808 C 272.814 397.834 272.742 401.506 274.315 404.597 C 275.889 407.688 278.902 409.789 282.346 410.199 L 282.663 410.399 C 280.029 414.909 277.297 419.973 278.389 425.08 C 279.325 429.459 282.952 432.969 283.545 437.408 C 284.089 441.48 281.964 445.645 282.904 449.644 C 283.856 453.695 287.946 456.518 292.096 456.82 C 296.246 457.121 300.323 455.28 303.537 452.639 C 306.751 449.997 309.236 446.594 311.685 443.231 C 313.198 441.154 314.748 438.993 315.267 436.477 C 315.82 433.8 315.179 430.833 316.481 428.429 C 317.983 425.657 321.546 424.618 323.345 422.029 C 325.675 418.676 324.302 414.111 324.817 410.061 C 326.092 400.039 338.825 393.793 338.536 383.694 Z " fill="rgb(230,230,230)"/><path d=" M 336.697 417.909 C 336.349 419.474 334.883 420.504 333.487 421.292 C 332.091 422.079 330.555 422.874 329.844 424.311 C 329.115 425.782 329.448 427.535 329.829 429.133 Q 331.019 434.116 332.631 438.986 C 334.715 435.049 336.534 430.978 338.077 426.799 C 338.73 425.243 339.133 423.594 339.272 421.913 C 339.401 420.211 338.804 418.533 337.629 417.295 L 336.697 417.909 Z " fill="rgb(230,230,230)"/><path d=" M 422.387 400.479 Q 419.762 397.449 417.138 394.419 C 415.941 393.038 414.576 391.563 412.763 391.332 L 412.017 391.809 Q 414.293 397.227 416.568 402.646 C 417.105 404.295 418.051 405.782 419.316 406.968 C 420.674 408.036 422.876 408.24 424.009 406.937 C 424.752 405.942 424.909 404.626 424.42 403.485 C 423.927 402.37 423.238 401.352 422.387 400.479 L 422.387 400.479 Z " fill="rgb(230,230,230)"/><path d=" M 439.341 404.347 C 440.678 403.882 441.757 402.876 442.315 401.574 C 442.857 400.285 443.215 398.926 443.378 397.537 Q 443.827 394.824 444.275 392.111 L 443.884 392.01 C 443.098 391.633 442.155 391.895 441.676 392.623 C 441.235 393.341 440.901 394.12 440.686 394.935 C 440.461 395.759 439.873 396.436 439.087 396.773 C 437.683 397.197 436.352 395.708 434.887 395.766 C 433.667 395.922 432.716 396.898 432.592 398.121 C 432.507 399.32 432.847 400.511 433.552 401.485 C 434.802 403.426 437.122 404.985 439.341 404.347 Z " fill="rgb(230,230,230)"/><line x1="449.015" y1="407.776" x2="453.047" y2="397.156"/><path d=" M 469.593 399.215 L 468.778 399.249 C 468.039 400.71 468.023 402.432 468.733 403.906 C 469.449 405.357 470.49 406.623 471.775 407.604 C 473.767 409.249 476.041 410.518 478.486 411.352 C 482.072 412.397 485.779 412.968 489.513 413.05 Q 492.715 413.26 495.917 413.469 C 496.934 413.536 498.249 413.407 498.532 412.428 C 498.765 411.619 498.077 410.859 497.434 410.316 C 491.786 405.564 484.939 402.456 477.643 401.334 C 474.876 400.913 471.94 400.74 469.593 399.215 Z " fill="rgb(230,230,230)"/><path d=" M 492.378 427.399 Q 490.076 425.166 487.773 422.933 C 486.28 421.486 484.043 419.951 482.332 421.133 C 481.349 421.813 481.045 423.138 480.212 423.995 C 479.18 424.919 477.752 425.259 476.414 424.899 C 475.103 424.53 473.864 423.943 472.748 423.161 L 468.939 420.797 Q 466.967 419.574 464.996 418.35 L 462.029 421.233 C 462.158 419.815 460.266 418.893 458.957 419.454 C 457.696 420.161 456.826 421.404 456.594 422.831 C 456.376 424.239 455.995 425.617 455.46 426.938 C 453.954 429.822 450.297 430.676 447.08 431.159 C 443.862 431.642 440.218 432.322 438.496 435.082 C 437.061 437.381 437.491 440.333 437.97 443 L 439.783 453.09 C 439.869 454.313 440.359 455.472 441.177 456.384 C 442.77 457.79 445.237 456.936 447.182 456.078 C 451.245 454.123 455.606 452.86 460.086 452.338 C 464.604 451.832 469.152 452.997 472.871 455.613 C 475.176 457.368 476.935 459.799 479.377 461.358 C 482.787 463.409 486.953 463.773 490.666 462.343 C 494.34 460.88 497.38 458.169 499.252 454.687 C 502.634 448.439 502.47 440.87 498.819 434.776 C 496.987 432.059 494.823 429.581 492.378 427.399 Z " fill="rgb(230,230,230)"/><path d=" M 487.852 468.508 C 487.096 469.426 487.026 470.729 487.68 471.723 C 488.349 472.682 489.368 473.338 490.518 473.55 C 491.656 473.754 492.817 473.807 493.969 473.708 L 494.004 472.847 C 493.697 471.336 493 469.932 491.983 468.774 C 490.871 467.717 488.906 467.392 487.852 468.508 Z " fill="rgb(230,230,230)"/><path d=" M 527.384 469.428 L 526.834 469.227 Q 524.869 472.188 522.904 475.15 C 522.199 476.212 521.464 477.488 521.894 478.688 C 522.403 480.109 524.284 480.525 525.746 480.15 C 528.023 479.531 529.736 477.651 530.14 475.326 C 530.469 472.988 529.389 470.676 527.384 469.428 L 527.384 469.428 Z " fill="rgb(230,230,230)"/><path d=" M 537.371 463.162 L 533.754 460.287 Q 533.682 462.288 533.609 464.289 L 533.473 464.291 C 534.307 465.022 535.095 465.805 535.831 466.635 C 536.677 467.355 538.097 467.684 538.821 466.841 C 539.264 466.224 539.294 465.402 538.899 464.753 C 538.501 464.126 537.981 463.585 537.371 463.162 L 537.371 463.162 Z " fill="rgb(230,230,230)"/><path d=" M 472.036 338.083 C 470.519 338.035 468.839 337.943 467.663 338.903 C 467.276 339.249 466.937 339.645 466.654 340.08 L 466.239 340.66 C 465.619 341.473 465.078 342.343 464.624 343.258 C 464.144 344.127 464.064 345.16 464.404 346.092 C 464.601 346.538 464.986 346.873 465.454 347.008 C 465.922 347.142 466.426 347.062 466.829 346.788 C 467.478 346.188 467.326 345.098 467.817 344.362 C 468.254 343.801 468.931 343.477 469.643 343.489 C 470.343 343.507 471.041 343.586 471.728 343.725 C 475.612 344.257 479.451 342.484 481.565 339.182 C 483.679 335.88 483.682 331.651 481.573 328.346 L 481.451 327.973 C 479.282 327.89 477.365 329.369 476.893 331.487 C 476.554 333.255 477.273 335.309 476.201 336.755 C 475.298 337.975 473.554 338.13 472.036 338.083 Z " fill="rgb(230,230,230)"/><path d=" M 485.62 319.338 L 485.389 319.318 C 484.032 319.566 482.729 320.052 481.541 320.752 C 481.151 320.933 480.839 321.249 480.664 321.641 C 480.559 322.064 480.674 322.512 480.97 322.832 C 481.265 323.143 481.61 323.403 481.99 323.6 C 482.558 323.978 483.185 324.259 483.845 324.429 C 484.518 324.595 485.23 324.412 485.738 323.94 C 486.213 323.287 486.376 322.457 486.182 321.673 C 486.074 320.878 485.885 320.096 485.62 319.338 Z " fill="rgb(230,230,230)"/><path d=" M 462.231 338.533 C 462.594 337.952 462.851 337.312 462.992 336.641 Q 463.205 335.86 463.417 335.08 L 461.904 334.161 C 461.182 334.537 460.515 335.012 459.924 335.572 C 459.329 336.143 459 336.936 459.016 337.76 C 459.059 338.599 459.674 339.297 460.501 339.446 C 461.198 339.467 461.855 339.12 462.231 338.533 Z " fill="rgb(230,230,230)"/><path d=" M 297.445 197.869 C 296.847 198.242 297.016 199.143 297.259 199.805 Q 297.677 200.945 298.095 202.085 L 298.484 200.61 C 298.827 200.038 298.978 199.371 298.916 198.708 C 298.781 198.059 298.007 197.519 297.445 197.869 Z " fill="rgb(230,230,230)"/><path d=" M 675.284 333.539 L 422.284 333.539 C 409.587 333.525 399.298 323.236 399.284 310.539 L 399.284 129.539 C 399.298 116.843 409.587 106.554 422.284 106.539 L 675.284 106.539 C 687.98 106.554 698.269 116.843 698.284 129.539 L 698.284 310.539 C 698.269 323.236 687.98 333.525 675.284 333.539 L 675.284 333.539 Z " fill="rgb(255,255,255)"/><path d=" M 675.284 333.539 L 422.284 333.539 C 409.587 333.525 399.298 323.236 399.284 310.539 L 399.284 129.539 C 399.298 116.843 409.587 106.554 422.284 106.539 L 675.284 106.539 C 687.98 106.554 698.269 116.843 698.284 129.539 L 698.284 310.539 C 698.269 323.236 687.98 333.525 675.284 333.539 L 675.284 333.539 Z  M 422.284 108.539 C 410.691 108.552 401.297 117.947 401.284 129.539 L 401.284 310.539 C 401.297 322.132 410.691 331.526 422.284 331.539 L 675.284 331.539 C 686.876 331.526 696.27 322.132 696.284 310.539 L 696.284 129.539 C 696.271 117.947 686.876 108.552 675.284 108.539 L 422.284 108.539 Z " fill="rgb(63,61,86)"/><path d=" M 618.754 225.289 L 452.191 225.289 C 449.294 225.289 446.945 223.498 446.945 221.289 C 446.945 219.079 449.294 217.289 452.191 217.289 L 572.434 217.289 L 618.754 217.289 C 621.651 217.289 624 219.079 624 221.289 C 624 223.498 621.651 225.289 618.754 225.289 Z " fill="rgb(204,204,204)"/><circle vector-effect="non-scaling-stroke" cx="473.44101" cy="173.2176743922346" r="26.818899999999985" fill="rgb(255,153,0)"/><path d=" M 603.947 303.676 L 591.363 303.676 L 591.363 301.676 L 603.947 301.676 L 603.947 303.676 Z  M 578.78 303.676 L 566.196 303.676 L 566.196 301.676 L 578.78 301.676 L 578.78 303.676 Z  M 553.613 303.676 L 541.03 303.676 L 541.03 301.676 L 553.613 301.676 L 553.613 303.676 Z  M 528.446 303.676 L 515.863 303.676 L 515.863 301.676 L 528.446 301.676 L 528.446 303.676 Z  M 503.279 303.676 L 490.696 303.676 L 490.696 301.676 L 503.279 301.676 L 503.279 303.676 Z  M 478.112 303.676 L 465.529 303.676 L 465.529 301.676 L 478.112 301.676 L 478.112 303.676 Z " fill="rgb(63,61,86)"/><rect x="470.14" y="236.709" width="5" height="62.58" transform="matrix(1,0,0,1,0,0)" fill="rgb(255,153,0)"/><rect x="519.266" y="233.37" width="5" height="67.418" transform="matrix(1,0,0,1,0,0)" fill="rgb(255,153,0)"/><rect x="543.784" y="269.281" width="5" height="30.008" transform="matrix(1,0,0,1,0,0)" fill="rgb(94,120,146)"/><rect x="569" y="282.289" width="5" height="18" transform="matrix(1,0,0,1,0,0)" fill="rgb(94,120,146)"/><rect x="494.809" y="257.166" width="5" height="43.623" transform="matrix(1,0,0,1,0,0)" fill="rgb(94,120,146)"/><circle vector-effect="non-scaling-stroke" cx="89.78353000000001" cy="328.2885443922346" r="6" fill="rgb(255,153,0)"/><circle vector-effect="non-scaling-stroke" cx="105.78353000000001" cy="299.2885443922346" r="6" fill="rgb(255,153,0)"/><circle vector-effect="non-scaling-stroke" cx="281.78353000000004" cy="276.2885443922346" r="6" fill="rgb(255,153,0)"/><circle vector-effect="non-scaling-stroke" cx="195.90895323094674" cy="413.48367870104823" r="6" fill="rgb(255,153,0)"/><circle vector-effect="non-scaling-stroke" cx="263.8176685239278" cy="316.2885443922346" r="6" fill="rgb(255,153,0)"/><path d=" M 496.583 449.787 C 497.171 453.045 495.002 456.168 491.743 456.756 C 488.484 457.344 485.361 455.175 484.773 451.916 C 484.186 448.657 486.355 445.534 489.614 444.946 C 492.872 444.359 495.995 446.528 496.583 449.787 Z " fill="rgb(255,153,0)"/><circle vector-effect="non-scaling-stroke" cx="292.9292248586315" cy="446.7775477092638" r="6" fill="rgb(255,153,0)"/><circle vector-effect="non-scaling-stroke" cx="344.00118517995867" cy="367.4379660843258" r="6" fill="rgb(255,153,0)"/><rect x="595" y="293.619" width="5" height="6.669" transform="matrix(1,0,0,1,0,0)" fill="rgb(94,120,146)"/></g></svg>