<?xml version="1.0" encoding="UTF-8" standalone="no"?><!-- Generator: Gravit.io --><svg xmlns="http://www.w3.org/2000/svg" xmlns:xlink="http://www.w3.org/1999/xlink" style="isolation:isolate" viewBox="0 0 1000 540.802" width="1000pt" height="540.802pt"><defs><clipPath id="_clipPath_qQinPlkcggDpe5ZZV4njZmceJu8OnKYZ"><rect width="1000" height="540.802"/></clipPath></defs><g clip-path="url(#_clipPath_qQinPlkcggDpe5ZZV4njZmceJu8OnKYZ)"><circle vector-effect="non-scaling-stroke" cx="127.58920000000009" cy="71.33472637549895" r="46" fill="rgb(255,101,132)"/><ellipse vector-effect="non-scaling-stroke" cx="497.6962300000001" cy="522.8071463754989" rx="444.00318000000004" ry="18" fill="rgb(230,230,230)"/><circle vector-effect="non-scaling-stroke" cx="166.69305000000008" cy="184.22451637549898" r="113" fill="rgb(255,153,0)"/><path d=" M 177.585 524.586 L 154.44 524.586 L 164.991 167.206 L 177.585 524.586 L 177.585 524.586 Z " fill="rgb(63,61,86)"/><path d=" M 167.033 234.938 L 191.88 200.562 L 166.693 243.447 L 163.97 238.682 L 167.033 234.938 L 167.033 234.938 Z " fill="rgb(63,61,86)"/><path d=" M 164.31 269.655 L 139.464 235.279 L 164.651 278.164 L 167.374 273.399 L 164.31 269.655 L 164.31 269.655 Z " fill="rgb(63,61,86)"/><path d=" M 881.198 524.962 L 858.054 524.962 L 868.605 167.582 L 881.198 524.962 L 881.198 524.962 Z " fill="rgb(63,61,86)"/><path d=" M 870.647 235.314 L 895.494 200.938 L 870.307 243.823 L 867.584 239.058 L 870.647 235.314 L 870.647 235.314 Z " fill="rgb(63,61,86)"/><path d=" M 867.924 270.031 L 843.078 235.655 L 868.265 278.54 L 870.988 273.775 L 867.924 270.031 L 867.924 270.031 Z " fill="rgb(63,61,86)"/><circle vector-effect="non-scaling-stroke" cx="512.7486600000002" cy="314.3983863754989" r="210.50358000000003" fill="rgb(63,61,86)"/><circle vector-effect="non-scaling-stroke" cx="512.0516200000002" cy="315.095421375499" r="193.07779000000002" fill="rgb(255,255,255)"/><circle vector-effect="non-scaling-stroke" cx="512.0516200000002" cy="315.09541637549887" r="25.79016999999999" fill="rgb(63,61,86)"/><rect x="506.475" y="131.079" width="11.153" height="20.911" transform="matrix(1,0,0,1,0,0)" fill="rgb(63,61,86)"/><rect x="506.475" y="478.201" width="11.153" height="20.911" transform="matrix(1,0,0,1,0,0)" fill="rgb(63,61,86)"/><rect x="332.914" y="304.64" width="11.153" height="20.911" transform="matrix(0,1,-1,0,653.586,-23.395)" fill="rgb(63,61,86)"/><rect x="680.036" y="304.64" width="11.153" height="20.911" transform="matrix(0,1,-1,0,1000.708,-370.517)" fill="rgb(63,61,86)"/><path d=" M 504.617 326.291 L 514.148 304.498 L 633.573 370.64 L 504.617 326.291 L 504.617 326.291 Z " fill="rgb(63,61,86)"/><path d=" M 520.633 315.095 L 497.696 307.94 L 551.685 182.13 L 520.633 315.095 L 520.633 315.095 Z " fill="rgb(63,61,86)"/><rect x="485.564" y="53.011" width="54.368" height="62.733" transform="matrix(1,0,0,1,0,0)" fill="rgb(63,61,86)"/><ellipse vector-effect="non-scaling-stroke" cx="512.7486600000001" cy="53.01147637549894" rx="62.73285999999999" ry="17.42579" fill="rgb(63,61,86)"/><path d=" M 941.813 42.156 C 940.578 20.324 923.722 2.594 901.981 0.258 C 880.239 -2.078 860.001 11.666 854.156 32.737 C 853.615 32.717 853.074 32.696 852.528 32.696 C 832.703 32.699 815.251 45.764 809.662 64.785 C 796.507 59.005 781.11 62.835 772.196 74.104 L 911.558 74.104 C 919.773 74.127 927.644 70.805 933.357 64.902 C 939.071 59 942.135 51.025 941.844 42.815 Q 941.831 42.486 941.813 42.156 Z " fill="rgb(230,230,230)"/><circle vector-effect="non-scaling-stroke" cx="825.3069500000001" cy="124.18311637549894" r="12" fill="rgb(230,230,230)"/><circle vector-effect="non-scaling-stroke" cx="861.54" cy="95.89077637549894" r="9.991800000000012" fill="rgb(230,230,230)"/><circle vector-effect="non-scaling-stroke" cx="910.3069500000001" cy="150.18311637549894" r="12" fill="rgb(230,230,230)"/><circle vector-effect="non-scaling-stroke" cx="819.3069500000001" cy="205.183116375499" r="12" fill="rgb(230,230,230)"/><circle vector-effect="non-scaling-stroke" cx="910.3069500000001" cy="274.1831163754989" r="12" fill="rgb(230,230,230)"/><path d=" M 891.287 505.571 C 891.292 505.441 891.307 505.314 891.307 505.183 C 891.313 501.097 889.236 497.289 885.798 495.082 C 882.359 492.875 878.033 492.572 874.32 494.278 C 870.796 490.211 864.991 488.996 860.132 491.309 C 855.273 493.621 852.555 498.893 853.488 504.192 C 853.427 504.191 853.368 504.183 853.307 504.183 C 848.06 504.175 843.416 507.577 841.841 512.582 C 840.267 517.587 842.126 523.035 846.433 526.032 C 850.74 529.03 856.495 528.882 860.641 525.666 C 862.579 529.442 866.368 531.912 870.605 532.162 C 874.841 532.412 878.894 530.405 881.263 526.883 C 885.168 529.724 890.396 529.945 894.527 527.444 C 898.658 524.943 900.885 520.208 900.178 515.431 C 899.47 510.654 895.966 506.768 891.287 505.571 Z " fill="rgb(230,230,230)"/><circle vector-effect="non-scaling-stroke" cx="921.3069499999999" cy="226.18311637549888" r="5" fill="rgb(230,230,230)"/><circle vector-effect="non-scaling-stroke" cx="889.3069499999999" cy="106.18311637549891" r="5" fill="rgb(230,230,230)"/><circle vector-effect="non-scaling-stroke" cx="872.3069499999999" cy="230.18311637549894" r="5" fill="rgb(230,230,230)"/><circle vector-effect="non-scaling-stroke" cx="876.3069499999999" cy="225.18311637549894" r="5" fill="rgb(230,230,230)"/><circle vector-effect="non-scaling-stroke" cx="879.3069499999999" cy="220.18311637549894" r="5" fill="rgb(230,230,230)"/><circle vector-effect="non-scaling-stroke" cx="867.3069499999999" cy="262.1831163754989" r="5" fill="rgb(230,230,230)"/><circle vector-effect="non-scaling-stroke" cx="941.3069499999999" cy="318.1831163754989" r="5" fill="rgb(230,230,230)"/><circle vector-effect="non-scaling-stroke" cx="834.3069499999999" cy="321.1831163754989" r="5" fill="rgb(230,230,230)"/><circle vector-effect="non-scaling-stroke" cx="840.30695" cy="167.18311637549894" r="5" fill="rgb(230,230,230)"/><circle vector-effect="non-scaling-stroke" cx="863.3069499999999" cy="257.1831163754989" r="5" fill="rgb(230,230,230)"/><circle vector-effect="non-scaling-stroke" cx="858.3069499999999" cy="249.18311637549894" r="5" fill="rgb(230,230,230)"/></g></svg>