<?xml version="1.0" encoding="UTF-8" standalone="no"?><!-- Generator: Gravit.io --><svg xmlns="http://www.w3.org/2000/svg" xmlns:xlink="http://www.w3.org/1999/xlink" style="isolation:isolate" viewBox="0 0 851.034 527.71" width="851.034pt" height="527.71pt"><defs><clipPath id="_clipPath_4ggqGYiJ7oK1SHFxw6H1TH6ai4pWxWjt"><rect width="851.034" height="527.71"/></clipPath></defs><g clip-path="url(#_clipPath_4ggqGYiJ7oK1SHFxw6H1TH6ai4pWxWjt)"><path d=" M 309 435.132 L 543.523 435.132 C 546.475 435.132 548.869 432.738 548.869 429.785 L 548.869 97.925 C 548.869 94.972 546.475 92.579 543.523 92.579 L 309 92.579 C 306.047 92.579 303.654 94.972 303.654 97.925 L 303.654 429.785 C 303.654 432.738 306.047 435.132 309 435.132 Z " fill="rgb(255,255,255)"/><path d=" M 549.916 344.553 L 302.701 344.553 L 302.701 0 L 549.916 0 L 549.916 344.553 L 549.916 344.553 Z  M 304.701 342.553 L 547.916 342.553 L 547.916 2 L 304.701 2 L 304.701 342.553 L 304.701 342.553 Z " fill="rgb(230,230,230)"/><path d=" M 494.312 146.775 C 495.263 146.775 496.035 147.546 496.035 148.498 L 496.035 148.498 L 496.035 151.944 C 496.035 152.895 495.263 153.667 494.312 153.667 L 358.212 153.667 C 357.26 153.667 356.489 152.895 356.489 151.944 L 356.489 148.498 C 356.489 147.546 357.26 146.775 358.212 146.775 L 494.312 146.775 Z " fill="rgb(230,230,230)"/><path d=" M 494.312 163.141 C 495.263 163.141 496.035 163.912 496.035 164.864 L 496.035 164.864 L 496.035 168.31 C 496.035 169.261 495.263 170.033 494.312 170.033 L 358.212 170.033 C 357.26 170.033 356.489 169.261 356.489 168.31 L 356.489 164.864 C 356.489 163.912 357.26 163.141 358.212 163.141 L 494.312 163.141 Z " fill="rgb(230,230,230)"/><path d=" M 494.312 179.508 C 495.263 179.508 496.035 180.279 496.035 181.231 L 496.035 181.231 L 496.035 184.677 C 496.035 185.628 495.263 186.4 494.312 186.4 L 358.212 186.4 C 357.26 186.4 356.489 185.628 356.489 184.677 L 356.489 181.232 C 356.489 180.28 357.26 179.509 358.212 179.509 L 494.312 179.509" fill="rgb(255,153,0)"/><path d=" M 401.563 263.687 C 404.108 262.045 404.644 258.533 402.864 256.083 L 394.525 244.608 C 392.577 241.925 388.823 241.329 386.14 243.276 C 385.902 243.449 385.677 243.639 385.467 243.844 C 371.346 251.393 363.745 262.418 372.197 275.45 C 372.196 277.627 372.355 279.8 372.671 281.953 C 372.809 282.888 373.123 283.802 373.656 284.581 C 375.239 286.896 378.032 287.745 380.489 286.944 L 394.129 282.513 C 397.027 281.571 398.595 278.408 397.525 275.555 C 396.142 271.868 396.712 266.816 401.563 263.687 L 401.563 263.687 Z " fill="rgb(242,242,242)"/><path d=" M 433.935 297.537 C 430.011 297.149 426.66 300.383 426.66 304.326 L 426.66 316.092 C 426.661 316.397 426.684 316.702 426.73 317.003 C 427.235 320.281 430.301 322.531 433.58 322.026 C 452.695 324.382 465.757 316.07 466.543 297.832 C 466.668 297.577 466.775 297.312 466.863 297.041 C 467.881 293.89 466.153 290.509 463.001 289.49 L 451.582 285.78 C 447.642 284.5 443.547 287.058 442.858 291.142 C 442.235 294.832 439.8 298.116 433.935 297.537 L 433.935 297.537 Z " fill="rgb(230,230,230)"/><path d=" M 363.332 309.041 C 367.296 332.568 387.939 341.494 409.469 342.904 C 409.89 342.969 410.316 343.002 410.743 343.002 C 415.386 343.005 419.153 339.242 419.155 334.598 L 419.155 314.925 C 419.155 309.421 414.645 305.136 409.142 305.08 C 403.822 305.027 400.355 302.509 398.93 297.887 C 397.303 292.607 391.503 289.824 386.248 291.531 L 368.29 297.367 C 365.964 298.122 364.081 299.852 363.132 302.106 C 362.188 304.337 362.261 306.868 363.332 309.041 L 363.332 309.041 Z " fill="rgb(63,61,86)"/><path d=" M 473.966 227.691 C 470.652 224.444 465.333 224.499 462.087 227.813 C 461.798 228.108 461.531 228.424 461.289 228.759 L 445.332 250.721 C 443.292 253.53 444.458 257.442 447.647 258.814 C 455.117 262.025 454.332 269.236 451.9 273.648 C 450.708 275.81 451.692 278.517 454.04 279.28 L 480.929 288.017 C 485.353 289.445 490.097 287.016 491.525 282.593 C 491.669 282.147 491.775 281.691 491.843 281.228 C 492.305 278.149 492.537 275.041 492.537 271.928 C 497.085 254.966 490.791 238.977 473.966 227.691 L 473.966 227.691 Z " fill="rgb(255,153,0)"/><path d=" M 427.79 253.157 C 430.769 254.834 434.528 254.023 436.537 251.257 L 441.884 243.9 C 442.921 242.473 443.281 240.663 442.869 238.948 C 442.471 237.264 441.354 235.84 439.814 235.051 C 427.235 223.685 412.346 222.988 399.721 234.993 C 398.134 235.794 396.979 237.251 396.561 238.979 C 396.15 240.683 396.507 242.481 397.538 243.897 L 403.785 252.496 C 405.93 255.449 410.087 256.221 413.044 254.081 C 417.34 250.971 423.581 250.787 427.79 253.157 L 427.79 253.157 Z " fill="rgb(230,230,230)"/><path d=" M 357.362 401.371 C 357.842 399.339 360.096 398.671 361.939 398.748 C 363.103 398.826 364.258 399.009 365.39 399.294 C 366.574 399.559 367.747 399.873 368.914 400.205 C 371.054 400.815 373.171 401.553 375.346 402.03 C 377.17 402.529 379.092 402.557 380.93 402.112 C 382.699 401.626 384.09 400.261 384.61 398.502 C 385.138 396.821 384.378 395.005 382.81 394.202 C 381.359 393.402 379.534 393.93 378.734 395.381 C 378.723 395.402 378.711 395.424 378.7 395.446 C 378.028 397.235 378.555 399.254 380.017 400.487 C 380.766 401.19 381.587 401.813 382.466 402.347 C 383.358 402.954 384.351 403.399 385.398 403.66 C 387.179 404.132 389.062 403.397 390.052 401.843 C 390.249 401.471 390.367 401.062 390.4 400.643 C 390.452 400.072 389.56 400.075 389.508 400.643 C 389.358 402.279 387.442 403.043 386.008 402.865 C 385.041 402.704 384.118 402.346 383.296 401.812 C 382.503 401.349 381.751 400.819 381.049 400.227 C 379.834 399.175 378.695 397.445 379.511 395.804 C 380.146 394.749 381.516 394.409 382.57 395.044 C 382.711 395.129 382.842 395.229 382.961 395.343 C 384.237 396.387 384.009 398.28 383.168 399.52 C 382.157 400.814 380.597 401.558 378.955 401.529 C 377.223 401.532 375.502 401.262 373.855 400.729 C 371.8 400.146 369.766 399.493 367.702 398.943 C 366.53 398.631 365.349 398.35 364.156 398.131 C 363.028 397.882 361.869 397.802 360.717 397.893 C 358.772 397.984 357.09 399.276 356.499 401.131 C 356.37 401.692 357.23 401.93 357.362 401.371 L 357.362 401.371 Z " fill="rgb(63,61,86)"/><path d=" M 392.68 378.12 C 392.949 378.12 393.167 378.891 393.167 379.843 L 393.167 383.289 C 393.167 384.24 392.949 385.012 392.68 385.012 L 354.212 385.012 C 353.943 385.012 353.725 384.241 353.725 383.289 L 353.725 379.843 C 353.725 378.891 353.943 378.12 354.212 378.12 L 392.68 378.12 Z " fill="rgb(230,230,230)"/><path d=" M 495.548 378.12 C 495.817 378.12 496.035 378.891 496.035 379.843 L 496.035 383.289 C 496.035 384.24 495.817 385.012 495.548 385.012 L 457.08 385.012 C 456.811 385.012 456.593 384.241 456.593 383.289 L 456.593 379.843 C 456.593 378.891 456.811 378.12 457.08 378.12 L 495.548 378.12 Z " fill="rgb(230,230,230)"/><path d=" M 478.42 397.53 L 470.784 400.054 L 466.966 401.316 C 465.793 401.816 464.524 402.05 463.25 401.999 C 462.309 401.936 461.483 401.35 461.112 400.484 C 460.949 399.615 461.323 398.733 462.06 398.245 C 463.882 396.859 466.186 398.27 467.478 399.705 C 469.057 401.461 469.951 403.728 471.432 405.566 C 472.75 407.215 474.422 408.548 476.324 409.466 C 480.124 411.351 484.658 410.963 488.084 408.461 C 492.109 405.356 492.52 399.974 492.541 395.279 C 492.525 394.828 492.147 394.475 491.696 394.491 C 491.267 394.506 490.923 394.85 490.908 395.279 C 490.889 399.534 490.647 404.75 486.767 407.413 C 483.05 409.964 478.167 409.287 474.744 406.569 C 472.98 404.998 471.513 403.124 470.412 401.035 C 469.19 399.035 467.673 397.104 465.373 396.328 C 463.339 395.589 461.067 396.383 459.936 398.228 C 458.961 399.868 459.501 401.988 461.142 402.963 C 461.269 403.038 461.4 403.105 461.536 403.164 C 464.203 404.435 467.254 402.946 469.821 402.097 L 478.857 399.111 C 479.85 398.783 479.425 397.205 478.423 397.536 L 478.42 397.53 L 478.42 397.53 Z " fill="rgb(255,153,0)"/><rect x="496.501" y="243.706" width="109.307" height="2" transform="matrix(1,0,0,1,0,0)" fill="rgb(63,61,86)"/><path d=" M 627.856 166.099 C 620.136 166.099 613.856 159.818 613.856 152.099 C 613.856 144.379 620.136 138.099 627.856 138.099 C 635.575 138.099 641.856 144.379 641.856 152.099 C 641.856 159.818 635.575 166.099 627.856 166.099 Z  M 627.856 140.099 C 621.239 140.099 615.856 145.482 615.856 152.099 C 615.856 158.715 621.239 164.099 627.856 164.099 C 634.472 164.099 639.856 158.715 639.856 152.099 C 639.856 145.482 634.472 140.099 627.856 140.099 Z " fill="rgb(63,61,86)"/><circle vector-effect="non-scaling-stroke" cx="627.8084799999999" cy="243.67719499999998" r="7" fill="rgb(255,153,0)"/><rect x="246.808" y="317.706" width="109.307" height="2" transform="matrix(1,0,0,1,0,0)" fill="rgb(63,61,86)"/><path d=" M 210.856 226.099 C 210.856 218.379 217.136 212.099 224.856 212.099 C 232.575 212.099 238.856 218.379 238.856 226.099 C 238.856 233.818 232.575 240.099 224.856 240.099 C 217.136 240.099 210.856 233.818 210.856 226.099 Z  M 212.856 226.099 C 212.856 232.715 218.239 238.099 224.856 238.099 C 231.472 238.099 236.856 232.715 236.856 226.099 C 236.856 219.482 231.472 214.099 224.856 214.099 C 218.239 214.099 212.856 219.482 212.856 226.099 Z " fill="rgb(63,61,86)"/><circle vector-effect="non-scaling-stroke" cx="224.80847999999997" cy="317.677195" r="7" fill="rgb(255,153,0)"/></g></svg>