<?xml version="1.0" encoding="UTF-8" standalone="no"?><!-- Generator: Gravit.io --><svg xmlns="http://www.w3.org/2000/svg" xmlns:xlink="http://www.w3.org/1999/xlink" style="isolation:isolate" viewBox="0 0 974.755 674.095" width="974.755pt" height="674.095pt"><defs><clipPath id="_clipPath_REgJSMMW1jD0MaQnCEyIGkRfIwAroiI0"><rect width="974.755" height="674.095"/></clipPath></defs><g clip-path="url(#_clipPath_REgJSMMW1jD0MaQnCEyIGkRfIwAroiI0)"><path d=" M 215.435 401.167 C 213.068 401.17 211.15 403.088 211.147 405.455 L 211.147 551.7 C 211.15 554.067 213.068 555.985 215.435 555.988 L 714.104 555.988 C 716.471 555.985 718.389 554.067 718.392 551.7 L 718.392 405.455 C 718.389 403.088 716.471 401.17 714.104 401.167 L 215.435 401.167 Z " fill="rgb(230,230,230)"/><path d=" M 221.892 545.242 L 707.646 545.242 L 707.646 411.913 L 221.892 411.913 L 221.892 545.242 Z " fill="rgb(255,255,255)"/><path d=" M 646.332 517.583 C 643.793 517.58 641.445 518.933 640.174 521.131 C 638.903 523.33 638.903 526.04 640.174 528.239 C 641.445 530.438 643.793 531.791 646.332 531.788 L 674.743 531.788 C 677.28 531.788 679.625 530.434 680.894 528.237 C 682.162 526.039 682.162 523.331 680.894 521.134 C 679.625 518.936 677.28 517.583 674.743 517.583 L 646.332 517.583 Z " fill="rgb(94,120,146)"/><rect x="353.88" y="503.806" width="327.965" height="1.869" transform="matrix(1,0,0,1,0,0)" fill="rgb(230,230,230)"/><circle vector-effect="non-scaling-stroke" cx="285.32470975043907" cy="478.5774808022917" r="41.36917" fill="rgb(94,120,146)"/><path d=" M 354.398 493.371 L 353.362 491.816 L 387.442 469.095 L 410.812 480.313 L 444.427 458.837 L 511.295 487.361 L 564.545 461.203 L 616.253 482.166 L 681.226 424.619 L 682.465 426.018 L 616.625 484.334 L 564.618 463.249 L 511.349 489.416 L 444.601 460.943 L 410.942 482.449 L 387.593 471.242 L 354.398 493.371 L 354.398 493.371 Z " fill="rgb(63,61,86)"/><path d=" M 359.953 518.56 C 357.782 518.557 355.774 519.714 354.687 521.594 C 353.6 523.474 353.6 525.792 354.687 527.672 C 355.774 529.552 357.782 530.709 359.953 530.707 L 423.491 530.707 C 426.842 530.702 429.556 527.984 429.556 524.633 C 429.556 521.282 426.842 518.564 423.491 518.56 L 359.953 518.56 Z " fill="rgb(230,230,230)"/><path d=" M 301.125 460.07 L 307.589 460.07 L 294.138 473.381 C 289.249 478.2 281.397 478.2 276.507 473.381 L 263.059 460.07 L 269.523 460.07 L 279.74 470.182 C 282.837 473.235 287.811 473.235 290.907 470.182 L 301.125 460.07 Z  M 269.441 497.085 L 262.976 497.085 L 276.509 483.692 C 281.398 478.873 289.251 478.873 294.14 483.692 L 307.673 497.085 L 301.209 497.085 L 290.907 486.891 C 287.811 483.838 282.837 483.838 279.74 486.891 L 269.441 497.085 Z " fill="rgb(255,255,255)"/><path d=" M 218.886 215.568 C 216.519 215.571 214.601 217.489 214.598 219.856 L 214.598 366.101 C 214.601 368.468 216.519 370.386 218.886 370.389 L 717.555 370.389 C 719.921 370.386 721.84 368.468 721.842 366.101 L 721.842 219.856 C 721.84 217.489 719.922 215.571 717.555 215.568 L 218.886 215.568 Z " fill="rgb(230,230,230)"/><path d=" M 225.343 359.644 L 711.097 359.644 L 711.097 226.314 L 225.343 226.314 L 225.343 359.644 Z " fill="rgb(255,255,255)"/><path d=" M 649.783 331.984 C 645.86 331.984 642.68 335.164 642.68 339.086 C 642.68 343.009 645.86 346.189 649.783 346.189 L 678.193 346.189 C 682.116 346.189 685.296 343.009 685.296 339.086 C 685.296 335.164 682.116 331.984 678.193 331.984 L 649.783 331.984 Z " fill="rgb(255,153,0)"/><rect x="357.331" y="318.207" width="327.965" height="1.869" transform="matrix(1,0,0,1,0,0)" fill="rgb(230,230,230)"/><circle vector-effect="non-scaling-stroke" cx="288.77554676358943" cy="292.9786450977725" r="41.36917" fill="rgb(255,153,0)"/><path d=" M 357.849 307.771 L 356.813 306.216 L 390.893 283.496 L 414.263 294.714 L 447.878 273.238 L 448.332 273.431 L 514.746 301.762 L 567.996 275.604 L 619.704 296.567 L 684.677 239.019 L 685.916 240.418 L 620.076 298.734 L 568.069 277.65 L 514.801 303.817 L 448.053 275.344 L 414.393 296.849 L 391.044 285.641 L 357.849 307.771 L 357.849 307.771 Z " fill="rgb(63,61,86)"/><path d=" M 363.404 332.961 C 360.053 332.965 357.338 335.683 357.338 339.034 C 357.338 342.385 360.053 345.103 363.404 345.108 L 426.942 345.108 C 430.296 345.108 433.015 342.389 433.015 339.034 C 433.015 335.68 430.296 332.961 426.942 332.961 L 363.404 332.961 Z " fill="rgb(230,230,230)"/><path d=" M 305.421 288.15 C 306.194 282.973 302.252 280.19 296.863 278.334 L 298.611 271.321 L 294.341 270.257 L 292.639 277.085 C 291.518 276.805 290.365 276.542 289.22 276.28 L 290.934 269.407 L 286.668 268.343 L 284.919 275.354 C 283.99 275.142 283.078 274.933 282.193 274.713 L 282.198 274.691 L 276.311 273.221 L 275.175 277.78 C 275.175 277.78 278.342 278.506 278.275 278.551 C 279.504 278.698 280.389 279.803 280.264 281.034 L 278.273 289.023 C 278.424 289.061 278.572 289.108 278.717 289.165 L 278.267 289.053 L 275.474 300.245 C 275.35 300.639 275.074 300.968 274.707 301.159 C 274.34 301.349 273.912 301.385 273.518 301.259 C 273.56 301.321 270.415 300.484 270.415 300.484 L 268.296 305.372 L 273.852 306.757 C 274.886 307.016 275.898 307.287 276.894 307.542 L 275.128 314.636 L 279.391 315.7 L 281.142 308.683 C 282.306 308.999 283.436 309.29 284.543 309.565 L 282.799 316.55 L 287.068 317.614 L 288.835 310.534 C 296.114 311.912 301.588 311.356 303.89 304.774 C 305.746 299.473 303.799 296.415 299.969 294.42 C 302.758 293.774 304.859 291.94 305.419 288.15 L 305.421 288.15 Z  M 295.666 301.827 C 294.346 307.128 285.422 304.263 282.527 303.543 L 284.871 294.146 C 287.765 294.869 297.042 296.298 295.667 301.827 L 295.666 301.827 Z  M 296.985 288.073 C 295.782 292.895 288.353 290.445 285.942 289.845 L 288.067 281.322 C 290.478 281.923 298.24 283.044 296.985 288.073 L 296.985 288.073 Z " fill="rgb(255,255,255)"/><path d=" M 213.123 34.848 C 210.756 34.851 208.838 36.769 208.835 39.136 L 208.835 185.38 C 208.838 187.747 210.756 189.665 213.123 189.668 L 711.791 189.668 C 714.158 189.665 716.076 187.747 716.079 185.38 L 716.079 39.136 C 716.076 36.769 714.158 34.851 711.791 34.848 L 213.123 34.848 Z " fill="rgb(230,230,230)"/><path d=" M 219.58 178.923 L 705.334 178.923 L 705.334 45.593 L 219.58 45.593 L 219.58 178.923 Z " fill="rgb(255,255,255)"/><path d=" M 646.261 151.263 C 642.338 151.263 639.158 154.443 639.158 158.366 C 639.158 162.288 642.338 165.468 646.261 165.468 L 674.671 165.468 C 678.594 165.468 681.774 162.288 681.774 158.366 C 681.774 154.443 678.594 151.263 674.671 151.263 L 646.261 151.263 L 646.261 151.263 Z " fill="rgb(94,120,146)"/><rect x="351.567" y="137.486" width="327.965" height="1.869" transform="matrix(1,0,0,1,0,0)" fill="rgb(230,230,230)"/><circle vector-effect="non-scaling-stroke" cx="283.01235607062165" cy="112.25801626126233" r="41.36917" fill="rgb(94,120,146)"/><path d=" M 352.086 127.051 L 351.049 125.496 L 385.129 102.776 L 408.5 113.994 L 442.114 92.518 L 442.569 92.711 L 508.982 121.042 L 562.233 94.884 L 613.941 115.846 L 678.914 58.299 L 680.153 59.699 L 614.313 118.014 L 562.306 96.93 L 509.037 123.097 L 442.29 94.624 L 408.629 116.129 L 385.281 104.922 L 352.086 127.051 L 352.086 127.051 Z " fill="rgb(63,61,86)"/><path d=" M 357.641 152.24 C 354.287 152.24 351.567 154.959 351.567 158.314 C 351.567 161.668 354.287 164.387 357.641 164.387 L 421.178 164.387 C 424.533 164.387 427.252 161.668 427.252 158.314 C 427.252 154.959 424.533 152.24 421.178 152.24 L 357.641 152.24 Z " fill="rgb(230,230,230)"/><path d=" M 283.008 139.523 L 299.755 115.938 L 283.008 125.826 L 283.008 125.826 L 266.271 115.938 L 283.007 139.523 L 283.007 139.523 L 283.008 139.523 L 283.008 139.523 L 283.008 139.523 L 283.008 139.523 Z " fill="rgb(255,255,255)"/><path d=" M 283.007 122.657 L 283.007 122.657 L 283.008 122.657 L 283.008 122.657 L 299.745 112.764 L 283.008 84.993 L 283.008 84.993 L 283.008 84.993 L 283.007 84.993 L 283.007 84.993 L 266.271 112.764 L 283.007 122.657 L 283.007 122.657 Z " fill="rgb(255,255,255)"/></g></svg>