<?xml version="1.0" encoding="UTF-8" standalone="no"?><!-- Generator: Gravit.io --><svg xmlns="http://www.w3.org/2000/svg" xmlns:xlink="http://www.w3.org/1999/xlink" style="isolation:isolate" viewBox="0 0 600 555.674" width="600pt" height="555.674pt"><defs><clipPath id="_clipPath_OAtuZLo40Jm0ZihxGa1q9iax5lm8n7Fg"><rect width="600" height="555.674"/></clipPath></defs><g clip-path="url(#_clipPath_OAtuZLo40Jm0ZihxGa1q9iax5lm8n7Fg)"><path d=" M 481.749 179.117 C 471.085 150.842 468.578 121.973 476.876 92.316 C 476.674 88.658 479.472 85.527 483.13 85.317 L 548.684 81.637 C 552.342 81.435 555.473 84.233 555.683 87.891 L 560.556 174.692 C 560.758 178.35 557.96 181.481 554.302 181.691 L 488.748 185.371 C 485.09 185.573 481.959 182.775 481.749 179.117 Z " fill="rgb(230,230,230)"/><path d=" M 485.306 152.617 C 477.916 138.956 478.946 118.74 482.172 96.814 C 481.984 93.388 484.604 90.455 488.03 90.259 L 544.368 87.096 C 547.794 86.907 550.726 89.528 550.923 92.953 L 555.26 170.194 C 555.448 173.62 552.828 176.553 549.402 176.749 L 514.502 178.708 C 499.241 179.548 486.18 167.876 485.306 152.617 L 485.306 152.617 Z " fill="rgb(255,255,255)"/><circle vector-effect="non-scaling-stroke" cx="513.6894035770385" cy="157.3136493299353" r="5.80453" fill="rgb(255,153,0)"/><path d=" M 529.63 104.086 C 527.858 101.133 523.758 100.87 520.316 100.947 C 516.766 100.871 513.222 101.268 509.776 102.128 C 506.377 103.138 503.14 105.206 501.499 108.349 C 499.483 112.212 500.191 116.895 501.273 121.116 C 503.359 129.235 506.632 137.001 510.985 144.165 L 513.503 145.885 C 523.909 136.394 530.043 123.104 530.515 109.028 C 530.693 107.33 530.386 105.616 529.63 104.086 L 529.63 104.086 Z " fill="rgb(255,153,0)"/><path d=" M 158.345 402.975 C 137.035 323.408 140.468 234.23 158.345 139.44 C 158.351 134.553 162.311 130.593 167.198 130.587 L 430.623 130.587 C 435.51 130.593 439.471 134.553 439.476 139.44 L 439.476 402.975 C 439.471 407.862 435.51 411.822 430.623 411.828 L 167.198 411.828 C 162.311 411.822 158.351 407.862 158.345 402.975 L 158.345 402.975 Z " fill="rgb(242,242,242)"/><path d=" M 160.032 337.024 C 154.621 273.185 156.058 208.95 164.317 145.416 C 164.322 140.529 168.283 136.569 173.17 136.563 L 424.65 136.563 C 426.998 136.563 429.25 137.496 430.91 139.156 C 432.571 140.817 433.503 143.068 433.503 145.416 L 433.503 397.003 C 433.503 399.351 432.571 401.603 430.91 403.263 C 429.25 404.923 426.998 405.856 424.65 405.856 L 234.988 405.856 C 195.911 405.879 163.331 375.961 160.032 337.024 L 160.032 337.024 Z " fill="rgb(255,255,255)"/><path d=" M 321.051 186.245 L 215.174 186.245 C 214.357 186.246 213.602 185.812 213.193 185.105 C 212.784 184.397 212.784 183.526 213.193 182.819 C 213.602 182.111 214.357 181.677 215.174 181.678 L 321.051 181.678 C 322.31 181.681 323.329 182.702 323.329 183.962 C 323.329 185.221 322.31 186.242 321.051 186.245 Z " fill="rgb(255,153,0)"/><path d=" M 374.648 207.119 L 215.174 207.119 C 214.357 207.121 213.602 206.686 213.193 205.979 C 212.784 205.271 212.784 204.4 213.193 203.693 C 213.602 202.985 214.357 202.551 215.174 202.552 L 374.648 202.552 C 375.907 202.555 376.926 203.577 376.926 204.836 C 376.926 206.095 375.907 207.116 374.648 207.119 Z " fill="rgb(242,242,242)"/><path d=" M 374.651 223.423 L 215.171 223.423 C 213.909 223.423 212.886 224.446 212.886 225.708 C 212.886 226.97 213.909 227.993 215.171 227.993 L 374.651 227.993 C 375.913 227.993 376.936 226.97 376.936 225.708 C 376.936 224.446 375.913 223.423 374.651 223.423 L 374.651 223.423 Z " fill="rgb(242,242,242)"/><path d=" M 374.648 248.867 L 215.174 248.867 C 213.913 248.867 212.891 247.845 212.891 246.584 C 212.891 245.323 213.913 244.301 215.174 244.301 L 374.648 244.301 C 375.909 244.301 376.931 245.323 376.931 246.584 C 376.931 247.845 375.909 248.867 374.648 248.867 Z " fill="rgb(242,242,242)"/><path d=" M 374.648 269.741 L 215.174 269.741 C 214.357 269.743 213.602 269.308 213.193 268.601 C 212.784 267.894 212.784 267.022 213.193 266.315 C 213.602 265.608 214.357 265.173 215.174 265.175 L 374.648 265.175 C 375.907 265.177 376.926 266.199 376.926 267.458 C 376.926 268.717 375.907 269.739 374.648 269.741 Z " fill="rgb(242,242,242)"/><path d=" M 374.648 290.741 L 215.174 290.741 C 214.357 290.743 213.602 290.308 213.193 289.601 C 212.784 288.894 212.784 288.022 213.193 287.315 C 213.602 286.608 214.357 286.173 215.174 286.175 L 374.648 286.175 C 375.907 286.177 376.926 287.199 376.926 288.458 C 376.926 289.717 375.907 290.739 374.648 290.741 Z " fill="rgb(242,242,242)"/><path d=" M 374.648 311.741 L 215.174 311.741 C 214.357 311.743 213.602 311.308 213.193 310.601 C 212.784 309.894 212.784 309.022 213.193 308.315 C 213.602 307.608 214.357 307.173 215.174 307.175 L 374.648 307.175 C 375.907 307.177 376.926 308.199 376.926 309.458 C 376.926 310.717 375.907 311.739 374.648 311.741 Z " fill="rgb(242,242,242)"/><path d=" M 374.648 332.741 L 215.174 332.741 C 214.357 332.743 213.602 332.308 213.193 331.601 C 212.784 330.894 212.784 330.022 213.193 329.315 C 213.602 328.608 214.357 328.173 215.174 328.175 L 374.648 328.175 C 375.907 328.177 376.926 329.199 376.926 330.458 C 376.926 331.717 375.907 332.739 374.648 332.741 Z " fill="rgb(242,242,242)"/><path d=" M 374.648 353.741 L 215.174 353.741 C 214.357 353.743 213.602 353.308 213.193 352.601 C 212.784 351.894 212.784 351.022 213.193 350.315 C 213.602 349.608 214.357 349.173 215.174 349.175 L 374.648 349.175 C 375.907 349.177 376.926 350.199 376.926 351.458 C 376.926 352.717 375.907 353.739 374.648 353.741 Z " fill="rgb(242,242,242)"/><path d=" M 336.805 214.697 C 329.799 212.194 320.725 213.17 315.808 219.272 C 311.403 224.737 310.875 233.439 316.479 238.317 C 323.301 244.254 332.748 242.07 340.197 238.72 C 347.013 235.655 354.515 230.713 354.41 222.326 C 354.377 217.953 352.238 213.864 348.665 211.342 C 345.04 208.892 340.465 208.313 336.344 209.782 C 334.545 210.439 335.322 213.34 337.142 212.675 C 340.109 211.547 343.426 211.815 346.173 213.406 C 348.92 214.997 350.803 217.741 351.301 220.876 C 352.353 227.839 346.404 232.349 340.875 235.096 C 334.809 238.111 327.089 240.995 320.595 237.532 C 315.041 234.569 314.025 227.813 317.104 222.625 C 320.922 216.192 329.518 215.271 336.008 217.59 C 337.829 218.241 338.613 215.343 336.805 214.697 L 336.805 214.697 Z " fill="rgb(255,153,0)"/><path d=" M 242.805 256.697 C 235.799 254.194 226.725 255.17 221.808 261.272 C 217.403 266.737 216.875 275.439 222.479 280.317 C 229.301 286.254 238.748 284.07 246.197 280.72 C 253.013 277.655 260.515 272.713 260.41 264.326 C 260.377 259.953 258.238 255.864 254.665 253.342 C 251.04 250.892 246.465 250.313 242.344 251.782 C 240.545 252.439 241.322 255.34 243.142 254.675 C 246.109 253.547 249.426 253.815 252.173 255.406 C 254.92 256.997 256.803 259.741 257.301 262.876 C 258.353 269.839 252.404 274.349 246.875 277.096 C 240.809 280.111 233.089 282.995 226.595 279.532 C 221.041 276.569 220.025 269.813 223.104 264.625 C 226.922 258.192 235.518 257.271 242.008 259.59 C 243.829 260.241 244.613 257.343 242.805 256.697 L 242.805 256.697 Z " fill="rgb(94,120,146)"/><path d=" M 335.805 340.697 C 328.799 338.194 319.725 339.17 314.808 345.272 C 310.403 350.737 309.875 359.439 315.479 364.317 C 322.301 370.254 331.748 368.07 339.197 364.72 C 346.013 361.655 353.515 356.713 353.41 348.326 C 353.377 343.953 351.238 339.864 347.665 337.342 C 344.04 334.892 339.465 334.313 335.344 335.782 C 333.545 336.439 334.322 339.34 336.142 338.675 C 339.109 337.547 342.426 337.815 345.173 339.406 C 347.92 340.997 349.803 343.741 350.301 346.876 C 351.353 353.839 345.404 358.349 339.875 361.096 C 333.809 364.111 326.089 366.995 319.595 363.532 C 314.041 360.569 313.025 353.813 316.104 348.625 C 319.922 342.192 328.518 341.271 335.008 343.59 C 336.829 344.241 337.613 341.343 335.805 340.697 L 335.805 340.697 Z " fill="rgb(230,230,230)"/><path d=" M 332.412 369.076 C 334.679 383.659 341.545 397.136 352.009 407.542 C 368.231 423.389 391.262 430.151 413.477 425.589 C 415.346 425.198 415.104 422.206 413.214 422.6 C 399.856 425.367 385.969 423.938 373.453 418.508 C 353.141 409.496 338.805 390.773 335.401 368.814 C 335.111 366.912 332.12 367.163 332.412 369.076 L 332.412 369.076 Z " fill="rgb(230,230,230)"/><path d=" M 418.001 444.89 L 440.315 432.04 C 440.698 431.772 440.935 431.342 440.957 430.875 C 440.978 430.409 440.783 429.958 440.427 429.656 L 417.453 413.024 C 415.898 411.899 413.958 414.189 415.525 415.323 Q 427.012 423.639 438.499 431.955 L 438.611 429.57 L 416.297 442.42 C 414.621 443.385 416.339 445.847 418.001 444.89 Z " fill="rgb(230,230,230)"/><path d=" M 351.412 208.27 C 353.679 193.688 360.545 180.211 371.009 169.804 C 387.231 153.957 410.262 147.195 432.477 151.757 C 434.346 152.148 434.104 155.14 432.214 154.746 C 418.856 151.979 404.969 153.409 392.453 158.838 C 372.141 167.851 357.805 186.573 354.401 208.532 C 354.111 210.434 351.12 210.183 351.412 208.27 L 351.412 208.27 Z " fill="rgb(63,61,86)"/><path d=" M 437.001 132.456 L 459.315 145.306 C 459.698 145.574 459.935 146.004 459.957 146.471 C 459.978 146.937 459.783 147.388 459.427 147.69 L 436.453 164.322 C 434.898 165.447 432.958 163.157 434.525 162.023 L 457.499 145.391 L 457.611 147.776 L 435.297 134.926 C 433.621 133.961 435.339 131.499 437.001 132.456 L 437.001 132.456 Z " fill="rgb(63,61,86)"/><path d=" M 232.409 289.076 C 230.142 303.659 223.276 317.135 212.812 327.542 C 196.59 343.389 173.559 350.151 151.345 345.589 C 149.475 345.198 149.718 342.206 151.607 342.6 C 164.966 345.367 178.853 343.938 191.368 338.508 C 211.68 329.496 226.016 310.773 229.421 288.814 C 229.711 286.912 232.701 287.163 232.409 289.076 L 232.409 289.076 Z " fill="rgb(63,61,86)"/><path d=" M 146.82 364.89 L 124.506 352.04 C 124.124 351.772 123.887 351.342 123.865 350.875 C 123.843 350.409 124.039 349.958 124.395 349.656 L 147.369 333.024 C 148.923 331.899 150.863 334.189 149.296 335.323 L 126.322 351.955 L 126.211 349.57 L 148.525 362.42 C 150.2 363.385 148.483 365.847 146.82 364.89 L 146.82 364.89 Z " fill="rgb(230,230,230)"/><path d=" M 54.096 396.501 C 42.916 377.263 37.586 356.602 40.008 334.056 C 39.418 331.424 41.069 328.81 43.7 328.214 L 90.86 317.574 C 93.492 316.983 96.106 318.635 96.702 321.266 L 110.79 383.71 C 111.381 386.343 109.73 388.956 107.099 389.553 L 59.939 400.193 C 57.307 400.783 54.693 399.132 54.096 396.501 L 54.096 396.501 Z " fill="rgb(242,242,242)"/><path d=" M 137.46 376.824 C 130.433 367.801 128.725 352.994 128.403 336.679 C 127.85 334.214 129.397 331.766 131.86 331.207 L 172.39 322.063 C 174.855 321.51 177.303 323.056 177.862 325.52 L 190.399 381.088 C 190.952 383.553 189.405 386.001 186.941 386.56 L 161.834 392.224 C 150.853 394.688 139.949 387.799 137.46 376.824 L 137.46 376.824 Z " fill="rgb(255,255,255)"/><circle vector-effect="non-scaling-stroke" cx="158.6437935770386" cy="376.7853393299352" r="4.274010000000004" fill="rgb(242,242,242)"/><path d=" M 163.751 336.193 C 162.106 334.264 159.096 334.571 156.606 335.045 C 154.019 335.421 151.493 336.14 149.096 337.183 C 146.677 338.25 144.786 340.239 143.84 342.707 C 142.845 345.758 143.929 349.073 145.228 352.006 C 147.73 357.649 151.05 362.892 155.082 367.565 L 157.12 368.508 C 163.523 360.351 166.363 349.954 164.995 339.674 C 164.918 338.419 164.487 337.212 163.751 336.193 Z " fill="rgb(242,242,242)"/><circle vector-effect="non-scaling-stroke" cx="158.6437935770386" cy="376.7853393299352" r="4.274010000000004" fill="rgb(94,120,146)"/><path d=" M 163.751 336.193 C 162.106 334.264 159.096 334.571 156.606 335.045 C 154.019 335.421 151.493 336.14 149.096 337.183 C 146.677 338.25 144.786 340.239 143.84 342.707 C 142.845 345.758 143.929 349.073 145.228 352.006 C 147.73 357.649 151.05 362.892 155.082 367.565 L 157.12 368.508 C 163.523 360.351 166.363 349.954 164.995 339.674 C 164.918 338.419 164.487 337.212 163.751 336.193 Z " fill="rgb(94,120,146)"/><path d=" M 450.485 465.393 C 445.331 443.747 446.191 422.427 455.016 401.539 C 455.21 398.849 457.545 396.823 460.236 397.011 L 508.46 400.432 C 511.151 400.626 513.177 402.962 512.989 405.653 L 508.458 469.507 C 508.264 472.197 505.929 474.223 503.237 474.036 L 455.014 470.614 C 452.323 470.42 450.297 468.084 450.485 465.393 Z " fill="rgb(242,242,242)"/><path d=" M 455.552 446.369 C 451.428 435.703 454.065 421.032 458.465 405.318 C 458.647 402.798 460.834 400.901 463.354 401.077 L 504.799 404.018 C 507.319 404.199 509.216 406.386 509.04 408.907 L 505.008 465.728 C 504.827 468.248 502.639 470.145 500.119 469.969 L 474.445 468.147 C 463.22 467.338 454.769 457.596 455.552 446.369 Z " fill="rgb(255,255,255)"/><circle vector-effect="non-scaling-stroke" cx="475.84602357703847" cy="452.44509932993526" r="4.274009999999976" fill="rgb(242,242,242)"/><path d=" M 492.45 415.053 C 491.432 412.732 488.461 412.157 485.94 411.892 C 483.354 411.506 480.728 411.465 478.132 411.772 C 475.509 412.096 473.123 413.454 471.506 415.545 C 469.673 418.179 469.754 421.665 470.151 424.849 C 470.918 430.973 472.585 436.951 475.097 442.589 L 476.775 444.08 C 485.26 438.118 490.979 428.983 492.636 418.745 C 492.924 417.522 492.86 416.242 492.45 415.053 Z " fill="rgb(242,242,242)"/></g></svg>