<?xml version="1.0" encoding="UTF-8" standalone="no"?><!-- Generator: Gravit.io --><svg xmlns="http://www.w3.org/2000/svg" xmlns:xlink="http://www.w3.org/1999/xlink" style="isolation:isolate" viewBox="0 0 904.512 587.861" width="904.512pt" height="587.861pt"><defs><clipPath id="_clipPath_DbwK5Ukf317HI7jjslECnSBqP31qK0Ib"><rect width="904.512" height="587.861"/></clipPath></defs><g clip-path="url(#_clipPath_DbwK5Ukf317HI7jjslECnSBqP31qK0Ib)"><circle vector-effect="non-scaling-stroke" cx="358.952495" cy="249.96643516320265" r="169" fill="rgb(242,242,242)"/><circle vector-effect="non-scaling-stroke" cx="554.952495" cy="381.9664351632026" r="32" fill="rgb(242,242,242)"/><path d=" M 623.287 504.212 C 657.631 510.805 642.384 505.997 623.418 502.355 C 622.245 502.13 622.121 503.989 623.287 504.212 Z " fill="rgb(255,255,255)"/><path d=" M 660.284 515.308 C 658.112 519.536 653.958 522.388 649.232 522.898 C 648.039 523.023 648.391 524.852 649.576 524.728 C 654.793 524.141 659.38 521.006 661.822 516.359 C 662.095 515.93 661.988 515.364 661.578 515.065 C 661.153 514.777 660.576 514.886 660.284 515.308 L 660.284 515.308 Z " fill="rgb(255,255,255)"/><path d=" M 494.052 467.971 C 413.278 467.975 342.999 407.719 332.617 325.533 L 334.601 325.282 C 344.855 406.453 414.278 465.966 494.053 465.971 C 500.831 465.97 507.602 465.543 514.327 464.691 C 602.312 453.576 664.851 372.952 653.736 284.966 L 655.72 284.715 C 666.974 373.795 603.657 455.423 514.578 466.676 C 507.769 467.537 500.914 467.97 494.052 467.971 L 494.052 467.971 Z " fill="rgb(63,61,86)"/><path d=" M 498.389 501.419 L 466.585 501.419 C 465.209 501.422 463.906 500.795 463.051 499.716 C 462.205 498.666 461.887 497.286 462.188 495.971 C 465.206 482.652 465.027 468.807 461.668 455.57 C 461.198 453.695 461.984 451.729 463.619 450.696 C 474.621 443.88 486.602 444.093 500.247 451.348 C 501.504 452.01 502.38 453.222 502.615 454.623 C 504.875 468.836 504.954 483.311 502.849 497.547 C 502.54 499.772 500.635 501.425 498.389 501.419 L 498.389 501.419 Z " fill="rgb(94,120,146)"/><path d=" M 353.389 331.419 L 321.585 331.419 C 320.209 331.422 318.906 330.795 318.051 329.716 C 317.205 328.666 316.887 327.286 317.188 325.971 C 320.217 312.606 320.027 298.712 316.633 285.435 C 316.193 283.646 316.886 281.77 318.382 280.696 C 334.736 268.935 347.615 269.276 356.661 281.713 C 357.069 282.279 357.34 282.933 357.453 283.622 C 359.87 298.154 360.004 312.974 357.849 327.547 C 357.54 329.772 355.635 331.425 353.389 331.419 Z " fill="rgb(255,153,0)"/><path d=" M 483.529 471.57 L 472.589 471.57 C 471.331 471.568 470.312 470.547 470.312 469.289 C 470.312 468.031 471.331 467.011 472.589 467.008 L 483.529 467.008 C 484.789 467.008 485.81 468.029 485.81 469.289 C 485.81 470.549 484.789 471.57 483.529 471.57 Z " fill="rgb(255,255,255)"/><path d=" M 496.906 480.584 L 472.589 480.584 C 471.331 480.581 470.312 479.56 470.312 478.302 C 470.312 477.044 471.331 476.024 472.589 476.021 L 496.906 476.021 C 498.164 476.024 499.182 477.044 499.182 478.302 C 499.182 479.56 498.164 480.581 496.906 480.584 Z " fill="rgb(255,255,255)"/><path d=" M 343.529 299.57 L 332.589 299.57 C 331.331 299.568 330.312 298.547 330.312 297.289 C 330.312 296.031 331.331 295.011 332.589 295.008 L 343.529 295.008 C 344.787 295.011 345.805 296.031 345.805 297.289 C 345.805 298.547 344.787 299.568 343.529 299.57 L 343.529 299.57 Z " fill="rgb(255,255,255)"/><path d=" M 343.529 307.57 L 332.589 307.57 C 331.331 307.568 330.312 306.547 330.312 305.289 C 330.312 304.031 331.331 303.011 332.589 303.008 L 343.529 303.008 C 344.787 303.011 345.805 304.031 345.805 305.289 C 345.805 306.547 344.787 307.568 343.529 307.57 L 343.529 307.57 Z " fill="rgb(255,255,255)"/><path d=" M 343.529 315.57 L 332.589 315.57 C 331.331 315.568 330.312 314.547 330.312 313.289 C 330.312 312.031 331.331 311.011 332.589 311.008 L 343.529 311.008 C 344.787 311.011 345.805 312.031 345.805 313.289 C 345.805 314.547 344.787 315.568 343.529 315.57 L 343.529 315.57 Z " fill="rgb(255,255,255)"/><path d=" M 781.431 368.992 L 679.766 368.992 C 674.093 368.986 669.495 364.388 669.489 358.715 L 669.489 296.099 C 669.495 290.426 674.093 285.829 679.766 285.823 L 781.431 285.823 C 787.104 285.829 791.701 290.426 791.707 296.099 L 791.707 358.715 C 791.701 364.389 787.104 368.986 781.431 368.992 L 781.431 368.992 Z " fill="rgb(230,230,230)"/><path d=" M 741.038 360.927 L 686.912 360.927 C 681.599 360.921 677.293 356.615 677.287 351.302 L 677.287 303.512 C 677.293 298.199 681.599 293.894 686.912 293.888 L 774.285 293.888 C 779.598 293.894 783.903 298.199 783.909 303.512 L 783.909 318.056 C 783.882 341.722 764.704 360.9 741.038 360.927 L 741.038 360.927 Z " fill="rgb(255,255,255)"/><path d=" M 765.568 320.057 L 695.628 320.057 C 694.368 320.057 693.347 319.035 693.347 317.776 C 693.347 316.516 694.368 315.495 695.628 315.495 L 765.568 315.495 C 766.828 315.495 767.849 316.516 767.849 317.776 C 767.849 319.035 766.828 320.057 765.568 320.057 Z " fill="rgb(94,120,146)"/><path d=" M 706.568 329.07 L 695.628 329.07 C 694.37 329.067 693.352 328.047 693.352 326.789 C 693.352 325.531 694.37 324.51 695.628 324.508 L 706.568 324.508 C 707.826 324.51 708.845 325.531 708.845 326.789 C 708.845 328.047 707.826 329.067 706.568 329.07 L 706.568 329.07 Z " fill="rgb(94,120,146)"/><path d=" M 725.945 338.083 L 695.628 338.083 C 694.368 338.083 693.347 337.062 693.347 335.802 C 693.347 334.542 694.368 333.521 695.628 333.521 L 725.945 333.521 C 727.205 333.521 728.227 334.542 728.227 335.802 C 728.227 337.062 727.205 338.083 725.945 338.083 Z " fill="rgb(94,120,146)"/><circle vector-effect="non-scaling-stroke" cx="665.941045" cy="284.5754551632026" r="21.506169999999997" fill="rgb(63,61,86)"/><path d=" M 422.491 120.977 C 428.478 90.585 457.969 70.802 488.361 76.79 C 518.752 82.777 538.535 112.268 532.547 142.659 L 530.585 142.273 C 536.359 112.965 517.281 84.526 487.974 78.752 C 458.667 72.978 430.228 92.056 424.454 121.363 L 422.491 120.977 Z " fill="rgb(63,61,86)"/><path d=" M 443.789 156.361 L 412.012 157.677 C 410.637 157.737 409.31 157.164 408.41 156.122 C 407.522 155.107 407.147 153.742 407.393 152.415 C 409.832 139.119 409.121 125.435 405.318 112.463 C 404.713 110.417 405.637 108.228 407.526 107.236 C 420.542 100.474 432.737 100.131 443.772 106.216 C 444.942 106.852 445.773 107.971 446.043 109.276 C 448.916 123.432 449.604 137.944 448.085 152.308 C 447.868 154.543 446.033 156.274 443.789 156.361 L 443.789 156.361 Z " fill="rgb(94,120,146)"/><path d=" M 442.444 135.563 L 418.147 136.57 C 417.333 136.604 416.561 136.201 416.125 135.512 C 415.688 134.824 415.652 133.954 416.03 133.232 C 416.409 132.51 417.144 132.044 417.958 132.011 L 442.255 131.005 C 443.514 130.953 444.577 131.931 444.629 133.19 C 444.681 134.448 443.703 135.511 442.444 135.563 L 442.444 135.563 Z " fill="rgb(255,255,255)"/><path d=" M 442.113 127.57 L 417.816 128.576 C 416.557 128.629 415.495 127.65 415.443 126.392 C 415.391 125.133 416.369 124.07 417.627 124.018 L 441.924 123.012 C 443.183 122.96 444.246 123.938 444.298 125.197 C 444.35 126.455 443.372 127.518 442.113 127.57 L 442.113 127.57 Z " fill="rgb(255,255,255)"/><path d=" M 651.746 146.297 L 550.081 146.297 C 544.408 146.29 539.811 141.693 539.804 136.02 L 539.804 73.404 C 539.811 67.731 544.408 63.133 550.081 63.127 L 651.746 63.127 C 657.419 63.133 662.016 67.731 662.023 73.404 L 662.023 136.02 C 662.016 141.693 657.419 146.29 651.746 146.297 L 651.746 146.297 Z " fill="rgb(230,230,230)"/><path d=" M 611.353 138.231 L 557.227 138.231 C 551.914 138.225 547.609 133.92 547.602 128.607 L 547.602 80.817 C 547.609 75.504 551.914 71.198 557.227 71.192 L 644.6 71.192 C 649.913 71.198 654.219 75.504 654.225 80.817 L 654.225 95.36 C 654.198 119.026 635.019 138.205 611.353 138.231 L 611.353 138.231 Z " fill="rgb(255,255,255)"/><path d=" M 635.884 97.361 L 565.943 97.361 C 564.684 97.361 563.662 96.34 563.662 95.08 C 563.662 93.82 564.684 92.799 565.943 92.799 L 635.884 92.799 C 637.144 92.799 638.165 93.82 638.165 95.08 C 638.165 96.34 637.144 97.361 635.884 97.361 Z " fill="rgb(94,120,146)"/><path d=" M 576.884 106.374 L 565.943 106.374 C 564.685 106.372 563.667 105.351 563.667 104.093 C 563.667 102.835 564.685 101.815 565.943 101.812 L 576.884 101.812 C 578.142 101.815 579.16 102.835 579.16 104.093 C 579.16 105.351 578.142 106.372 576.884 106.374 L 576.884 106.374 Z " fill="rgb(94,120,146)"/><path d=" M 596.261 115.388 L 565.943 115.388 C 564.684 115.388 563.662 114.366 563.662 113.107 C 563.662 111.847 564.684 110.825 565.943 110.825 L 596.261 110.825 C 597.519 110.828 598.537 111.849 598.537 113.107 C 598.537 114.364 597.519 115.385 596.261 115.388 L 596.261 115.388 Z " fill="rgb(94,120,146)"/><path d=" M 522.269 164.047 C 512.188 157.781 509.091 144.509 515.357 134.429 C 521.624 124.348 534.895 121.251 544.976 127.518 C 555.057 133.784 558.154 147.056 551.887 157.136 C 545.621 167.217 532.349 170.314 522.269 164.047 Z " fill="rgb(63,61,86)"/><path d=" M 247.133 313.557 C 228.759 264.984 253.24 210.713 301.813 192.339 C 350.385 173.965 404.657 198.446 423.031 247.019 L 421.16 247.727 C 403.177 200.187 350.06 176.227 302.521 194.21 C 254.981 212.193 231.021 265.309 249.004 312.849 L 247.133 313.557 Z " fill="rgb(63,61,86)"/><path d=" M 329.389 220.419 L 297.585 220.419 C 296.209 220.422 294.906 219.795 294.051 218.716 C 293.205 217.666 292.887 216.286 293.188 214.971 C 296.199 201.683 296.028 187.872 292.691 174.662 C 292.205 172.742 293.043 170.731 294.748 169.724 C 306.269 163.018 318.572 163.223 331.314 170.334 C 332.536 171.001 333.382 172.194 333.607 173.568 C 335.875 187.799 335.957 202.292 333.849 216.547 C 333.54 218.772 331.635 220.425 329.389 220.419 Z " fill="rgb(94,120,146)"/><path d=" M 314.529 189.57 L 303.589 189.57 C 302.331 189.568 301.312 188.547 301.312 187.289 C 301.312 186.031 302.331 185.011 303.589 185.008 L 314.529 185.008 C 315.787 185.011 316.805 186.031 316.805 187.289 C 316.805 188.547 315.787 189.568 314.529 189.57 L 314.529 189.57 Z " fill="rgb(255,255,255)"/><path d=" M 327.906 198.584 L 303.589 198.584 C 302.329 198.584 301.307 197.562 301.307 196.302 C 301.307 195.043 302.329 194.021 303.589 194.021 L 327.906 194.021 C 329.164 194.024 330.182 195.044 330.182 196.302 C 330.182 197.56 329.164 198.581 327.906 198.584 L 327.906 198.584 Z " fill="rgb(255,255,255)"/><path d=" M 224.746 312.297 L 123.081 312.297 C 117.408 312.29 112.811 307.693 112.804 302.02 L 112.804 239.404 C 112.811 233.731 117.408 229.133 123.081 229.127 L 224.746 229.127 C 230.419 229.133 235.016 233.731 235.023 239.404 L 235.023 302.02 C 235.016 307.693 230.419 312.29 224.746 312.297 L 224.746 312.297 Z " fill="rgb(230,230,230)"/><path d=" M 184.353 304.231 L 130.227 304.231 C 124.914 304.225 120.609 299.92 120.602 294.607 L 120.602 246.817 C 120.609 241.504 124.914 237.198 130.227 237.192 L 217.6 237.192 C 222.913 237.198 227.219 241.504 227.225 246.817 L 227.225 261.36 C 227.198 285.026 208.019 304.205 184.353 304.231 L 184.353 304.231 Z " fill="rgb(255,255,255)"/><path d=" M 208.884 263.361 L 138.943 263.361 C 137.684 263.361 136.662 262.34 136.662 261.08 C 136.662 259.82 137.684 258.799 138.943 258.799 L 208.884 258.799 C 210.144 258.799 211.165 259.82 211.165 261.08 C 211.165 262.34 210.144 263.361 208.884 263.361 Z " fill="rgb(94,120,146)"/><path d=" M 149.884 272.374 L 138.943 272.374 C 137.685 272.372 136.667 271.351 136.667 270.093 C 136.667 268.835 137.685 267.815 138.943 267.812 L 149.884 267.812 C 151.142 267.815 152.16 268.835 152.16 270.093 C 152.16 271.351 151.142 272.372 149.884 272.374 L 149.884 272.374 Z " fill="rgb(94,120,146)"/><path d=" M 169.261 281.388 L 138.943 281.388 C 137.685 281.385 136.667 280.364 136.667 279.107 C 136.667 277.849 137.685 276.828 138.943 276.825 L 169.261 276.825 C 170.521 276.825 171.542 277.847 171.542 279.107 C 171.542 280.366 170.521 281.388 169.261 281.388 L 169.261 281.388 Z " fill="rgb(94,120,146)"/><path d=" M 235.269 328.047 C 225.188 321.781 222.091 308.509 228.357 298.429 C 234.624 288.348 247.895 285.251 257.976 291.518 C 268.057 297.784 271.154 311.056 264.887 321.136 C 258.621 331.217 245.349 334.314 235.269 328.047 Z " fill="rgb(63,61,86)"/><path d=" M 438.389 280.419 L 406.585 280.419 C 405.209 280.422 403.906 279.795 403.051 278.716 C 402.205 277.666 401.887 276.286 402.188 274.971 C 405.193 261.706 405.029 247.92 401.708 234.731 C 401.224 232.783 402.091 230.751 403.832 229.753 C 419.282 220.909 431.515 221.153 441.232 230.499 C 441.913 231.166 442.362 232.034 442.511 232.975 C 444.872 247.395 444.986 262.093 442.849 276.548 C 442.54 278.772 440.635 280.425 438.389 280.419 Z " fill="rgb(255,153,0)"/><path d=" M 425.529 250.57 L 414.589 250.57 C 413.331 250.568 412.312 249.547 412.312 248.289 C 412.312 247.031 413.331 246.011 414.589 246.008 L 425.529 246.008 C 426.787 246.011 427.805 247.031 427.805 248.289 C 427.805 249.547 426.787 250.568 425.529 250.57 L 425.529 250.57 Z " fill="rgb(255,255,255)"/><path d=" M 438.906 259.584 L 414.589 259.584 C 413.329 259.584 412.307 258.562 412.307 257.302 C 412.307 256.043 413.329 255.021 414.589 255.021 L 438.906 255.021 C 440.164 255.024 441.182 256.044 441.182 257.302 C 441.182 258.56 440.164 259.581 438.906 259.584 L 438.906 259.584 Z " fill="rgb(255,255,255)"/></g></svg>