<?xml version="1.0" encoding="UTF-8" standalone="no"?><!-- Generator: Gravit.io --><svg xmlns="http://www.w3.org/2000/svg" xmlns:xlink="http://www.w3.org/1999/xlink" style="isolation:isolate" viewBox="0 0 775.79 669.284" width="775.79pt" height="669.284pt"><defs><clipPath id="_clipPath_fCFvqGAYI6kYzKv6nIZlIzPLdLapWbhc"><rect width="775.79" height="669.284"/></clipPath></defs><g clip-path="url(#_clipPath_fCFvqGAYI6kYzKv6nIZlIzPLdLapWbhc)"><path d=" M 110.103 178.813 L 48.103 178.813 C 41.202 178.805 35.61 173.213 35.603 166.313 L 35.603 108.313 C 35.61 101.413 41.202 95.821 48.103 95.813 L 110.103 95.813 C 117.003 95.821 122.595 101.413 122.603 108.313 L 122.603 166.313 C 122.595 173.213 117.003 178.805 110.103 178.813 L 110.103 178.813 Z " fill="rgb(230,230,230)"/><path d=" M 259.603 179.313 L 197.603 179.313 C 190.702 179.305 185.11 173.713 185.103 166.813 L 185.103 108.813 C 185.11 101.913 190.702 96.321 197.603 96.313 L 259.603 96.313 C 266.503 96.321 272.095 101.913 272.103 108.813 L 272.103 166.813 C 272.095 173.713 266.503 179.305 259.603 179.313 L 259.603 179.313 Z " fill="rgb(230,230,230)"/><path d=" M 409.103 179.813 L 347.103 179.813 C 340.202 179.805 334.61 174.213 334.603 167.313 L 334.603 109.313 C 334.61 102.413 340.202 96.821 347.103 96.813 L 409.103 96.813 C 416.003 96.821 421.595 102.413 421.603 109.313 L 421.603 167.313 C 421.595 174.213 416.003 179.805 409.103 179.813 L 409.103 179.813 Z " fill="rgb(230,230,230)"/><path d=" M 110.103 308.813 L 48.103 308.813 C 41.202 308.805 35.61 303.213 35.603 296.313 L 35.603 238.313 C 35.61 231.413 41.202 225.821 48.103 225.813 L 110.103 225.813 C 117.003 225.821 122.595 231.413 122.603 238.313 L 122.603 296.313 C 122.595 303.213 117.003 308.805 110.103 308.813 L 110.103 308.813 Z " fill="rgb(230,230,230)"/><path d=" M 259.603 309.313 L 197.603 309.313 C 190.702 309.305 185.11 303.713 185.103 296.813 L 185.103 238.813 C 185.11 231.913 190.702 226.321 197.603 226.313 L 259.603 226.313 C 266.503 226.321 272.095 231.913 272.103 238.813 L 272.103 296.813 C 272.095 303.713 266.503 309.305 259.603 309.313 L 259.603 309.313 Z " fill="rgb(230,230,230)"/><path d=" M 409.103 309.813 L 347.103 309.813 C 340.202 309.805 334.61 304.213 334.603 297.313 L 334.603 239.313 C 334.61 232.413 340.202 226.821 347.103 226.813 L 409.103 226.813 C 416.003 226.821 421.595 232.413 421.603 239.313 L 421.603 297.313 C 421.595 304.213 416.003 309.805 409.103 309.813 L 409.103 309.813 Z " fill="rgb(230,230,230)"/><path d=" M 110.103 438.813 L 48.103 438.813 C 41.202 438.805 35.61 433.213 35.603 426.313 L 35.603 368.313 C 35.61 361.413 41.202 355.821 48.103 355.813 L 110.103 355.813 C 117.003 355.821 122.595 361.413 122.603 368.313 L 122.603 426.313 C 122.595 433.213 117.003 438.805 110.103 438.813 L 110.103 438.813 Z " fill="rgb(230,230,230)"/><path d=" M 259.603 439.313 L 197.603 439.313 C 190.702 439.305 185.11 433.713 185.103 426.813 L 185.103 368.813 C 185.11 361.913 190.702 356.321 197.603 356.313 L 259.603 356.313 C 266.503 356.321 272.095 361.913 272.103 368.813 L 272.103 426.813 C 272.095 433.713 266.503 439.305 259.603 439.313 L 259.603 439.313 Z " fill="rgb(230,230,230)"/><path d=" M 409.103 439.813 L 347.103 439.813 C 340.202 439.805 334.61 434.213 334.603 427.313 L 334.603 369.313 C 334.61 362.413 340.202 356.821 347.103 356.813 L 409.103 356.813 C 416.003 356.821 421.595 362.413 421.603 369.313 L 421.603 427.313 C 421.595 434.213 416.003 439.805 409.103 439.813 L 409.103 439.813 Z " fill="rgb(230,230,230)"/><path d=" M 560.878 537.29 L 512.901 576.562 C 507.557 580.927 499.688 580.142 495.311 574.807 L 458.573 529.926 C 454.208 524.581 454.993 516.712 460.328 512.336 L 508.304 473.064 C 513.649 468.699 521.518 469.484 525.895 474.819 L 562.633 519.7 C 566.997 525.044 566.212 532.914 560.878 537.29 L 560.878 537.29 Z " fill="rgb(255,153,0)"/><path d=" M 440.174 616.17 L 439.243 595.227 C 429.533 590.037 418.703 587.295 407.693 587.24 C 422.846 599.629 420.952 623.51 431.226 640.169 C 437.797 650.645 448.775 657.563 461.061 658.971 L 473.741 666.734 C 477.263 647.104 472.012 626.915 459.371 611.488 C 455.825 607.247 451.759 603.469 447.269 600.243 C 444.232 608.251 440.174 616.17 440.174 616.17 Z " fill="rgb(242,242,242)"/><path d=" M 520.358 473.62 C 522.459 471.9 523.69 469.338 523.721 466.622 C 523.751 463.907 522.577 461.318 520.515 459.552 L 541.255 405.329 L 524.68 408.84 L 507.081 460.995 C 504.281 464.739 504.724 469.984 508.112 473.205 C 511.499 476.426 516.76 476.604 520.358 473.62 Z " fill="rgb(255,184,184)"/><path d=" M 511.819 414.239 L 530.438 336.771 L 538.44 314.251 C 539.752 310.559 542.483 307.542 546.028 305.872 C 549.573 304.201 553.638 304.015 557.321 305.353 L 557.321 305.354 C 562.188 307.137 565.764 311.34 566.744 316.429 L 568.747 326.963 L 531.47 457.323 L 531.384 457.62 L 507.113 455.987 L 511.819 414.239 Z " fill="rgb(47,46,65)"/><path d=" M 587.389 284.907 L 545.931 368.75 L 519.703 457.902 C 574.959 468.676 644.29 491.726 649.28 458.669 C 646.205 366.505 636.517 337.107 616.518 297.152 L 587.389 284.907 Z " fill="rgb(47,46,65)"/><path d=" M 550.299 654.288 L 537.282 654.287 L 531.089 604.078 L 550.302 604.079 L 550.299 654.288 L 550.299 654.288 Z " fill="rgb(255,182,182)"/><path d=" M 553.619 666.906 L 511.646 666.905 L 511.646 666.374 C 511.647 657.351 518.961 650.037 527.983 650.037 L 527.984 650.037 L 535.651 644.22 L 549.956 650.038 L 553.62 650.038 L 553.619 666.906 Z " fill="rgb(47,46,65)"/><path d=" M 667.919 637.364 L 656.268 643.17 L 628.328 600.996 L 645.523 592.426 L 667.919 637.364 L 667.919 637.364 Z " fill="rgb(255,182,182)"/><path d=" M 676.519 647.176 L 638.953 665.899 L 638.716 665.423 C 634.692 657.348 637.975 647.54 646.05 643.514 L 646.051 643.514 L 650.318 634.888 L 665.715 633.713 L 668.995 632.079 L 676.519 647.176 Z " fill="rgb(47,46,65)"/><path d=" M 544.532 426.254 L 616.311 428.766 L 621.678 438.734 C 621.678 438.734 627.299 479.513 624.42 482.392 C 624.42 482.392 620.102 485.271 621.542 490.309 C 621.542 490.309 626.702 543.483 626.702 543.483 C 626.702 543.483 656.354 604.988 657.794 608.586 C 657.794 608.586 660.672 610.745 659.233 612.185 C 657.958 613.56 656.757 615.001 655.634 616.503 L 632.174 616.503 C 632.174 616.503 619.543 584.64 607.98 572.315 C 597.769 561.433 591.304 547.573 589.525 532.758 L 579.798 486.71 L 558.926 557.242 C 558.926 557.242 555.328 627.055 556.047 630.653 L 556.767 634.252 L 529.116 634.561 C 529.116 634.561 526.237 628.494 527.677 626.335 C 527.677 626.335 529.03 624.765 527.274 621.232 C 527.274 621.232 526.237 611.711 526.237 611.711 C 526.237 611.711 536.615 470.157 536.615 467.998 C 536.669 466.887 536.465 465.778 536.017 464.76 L 536.017 461.829 L 538.774 451.444 L 544.532 426.254 Z " fill="rgb(47,46,65)"/><path d=" M 592.247 297.341 L 587.361 285.652 L 572.24 285.917 L 556.473 308.221 L 539.923 377.819 C 539.923 377.819 533.979 428.66 539.923 431.344 C 539.923 431.344 617.844 432.6 617.844 432.6 C 614.512 405.144 612.028 377.213 609.41 360.528 C 600.759 305.383 596.676 316.988 592.247 297.341 Z " fill="rgb(255,153,0)"/><path d=" M 572.24 285.917 C 572.24 285.917 539.667 304.746 538.393 314.575 C 538.393 314.575 532.854 444.703 532.854 444.703 L 544.373 437.26 L 547.521 393.415 C 545.325 354.455 550.684 325.416 561.579 303.648 L 572.24 285.917 Z " fill="rgb(47,46,65)"/><circle vector-effect="non-scaling-stroke" cx="579.92954" cy="258.24117" r="22.199510000000032" fill="rgb(255,184,184)"/><path d=" M 607.283 256.923 C 606.291 261.421 604.503 265.705 602.003 269.573 C 601.339 270.892 600.347 272.018 599.123 272.843 C 597.843 273.664 596.16 273.453 595.123 272.343 L 594.583 271.903 C 595.642 271.25 596.587 270.43 597.383 269.473 C 598.181 268.499 598.461 267.199 598.133 265.983 C 597.734 264.754 596.435 264.061 595.193 264.413 C 593.893 264.923 593.103 266.803 591.743 266.513 C 590.643 266.273 590.413 264.823 590.413 263.683 C 590.453 257.723 587.573 249.253 585.343 249.513 C 583.09 249.636 580.834 249.334 578.693 248.623 C 576.549 247.911 574.287 247.622 572.033 247.773 C 571.873 247.793 571.713 247.823 571.543 247.853 C 571.181 246.721 570.684 245.636 570.063 244.623 C 570.133 245.846 570.072 247.073 569.883 248.283 C 568.089 249.022 566.236 249.608 564.343 250.033 C 562.283 250.323 557.753 256.483 557.543 255.853 C 557.181 254.721 556.684 253.636 556.063 252.623 C 556.133 253.846 556.072 255.073 555.883 256.283 C 555.873 256.333 555.873 256.373 555.863 256.423 C 554.863 255.093 554.253 253.473 554.593 254.713 C 551.243 247.133 552.543 241.703 557.813 235.313 C 558.84 233.939 560.199 232.848 561.763 232.143 C 563.355 231.443 565.198 231.625 566.623 232.623 C 571 228.61 577.209 227.285 582.843 229.163 C 588.333 231.073 592.563 232.193 593.403 237.953 C 597.943 237.223 602.613 239.803 605.113 243.653 C 607.479 247.646 608.254 252.384 607.283 256.923 L 607.283 256.923 Z " fill="rgb(47,46,65)"/><path d=" M 669.49 468.142 C 670.5 465.622 670.341 462.784 669.058 460.391 C 667.774 457.998 665.496 456.297 662.837 455.746 L 654.833 398.246 L 642.01 409.32 L 651.768 463.494 C 651.123 468.123 654.043 472.503 658.564 473.689 C 663.085 474.875 667.779 472.492 669.49 468.142 L 669.49 468.142 Z " fill="rgb(255,184,184)"/><path d=" M 645.863 447.03 L 598.287 319.736 L 599.45 309.076 C 600.025 303.925 603.258 299.453 607.968 297.29 C 611.534 295.665 615.601 295.529 619.267 296.914 C 622.932 298.299 625.894 301.09 627.494 304.667 L 637.265 326.521 L 661.949 402.282 L 669.93 443.483 L 645.863 447.03 Z " fill="rgb(47,46,65)"/><path d=" M 775.79 667.731 C 775.791 668.143 775.628 668.539 775.336 668.83 C 775.045 669.122 774.649 669.285 774.237 669.284 L 356.186 669.284 C 355.329 669.284 354.633 668.589 354.633 667.731 C 354.633 666.873 355.329 666.178 356.186 666.178 L 774.237 666.178 C 774.649 666.176 775.045 666.34 775.336 666.631 C 775.628 666.923 775.791 667.318 775.79 667.731 Z " fill="rgb(204,204,204)"/><path d=" M 456.06 34.484 L 1.767 34.484 C 0.784 34.463 -0.001 33.661 -0.001 32.678 C -0.001 31.695 0.784 30.892 1.767 30.871 L 456.06 30.871 C 457.043 30.892 457.829 31.695 457.829 32.678 C 457.829 33.661 457.043 34.463 456.06 34.484 Z " fill="rgb(202,202,202)"/><ellipse vector-effect="non-scaling-stroke" cx="32.69152" cy="10.82345" rx="10.587510000000002" ry="10.82345" fill="rgb(255,0,0)"/><ellipse vector-effect="non-scaling-stroke" cx="69.26654" cy="10.82345" rx="10.587509999999998" ry="10.82345" fill="rgb(255,153,0)"/><ellipse vector-effect="non-scaling-stroke" cx="105.84156" cy="10.82345" rx="10.587509999999995" ry="10.82345" fill="rgb(94,120,146)"/><path d=" M 434.039 2.683 L 408.058 2.683 C 406.987 2.704 406.129 3.578 406.129 4.65 C 406.129 5.721 406.987 6.596 408.058 6.617 L 434.039 6.617 C 435.11 6.596 435.968 5.721 435.968 4.65 C 435.968 3.578 435.11 2.704 434.039 2.683 Z " fill="rgb(94,120,146)"/><path d=" M 434.039 10.067 L 408.058 10.067 C 406.987 10.088 406.129 10.963 406.129 12.034 C 406.129 13.106 406.987 13.98 408.058 14.002 L 426 14.002 L 434.039 14.002 C 435.11 13.98 435.968 13.106 435.968 12.034 C 435.968 10.963 435.11 10.088 434.039 10.067 L 434.039 10.067 Z " fill="rgb(94,120,146)"/><path d=" M 434.039 17.442 L 408.058 17.442 C 406.987 17.463 406.129 18.337 406.129 19.409 C 406.129 20.48 406.987 21.355 408.058 21.376 L 434.039 21.376 C 435.11 21.355 435.968 20.48 435.968 19.409 C 435.968 18.337 435.11 17.463 434.039 17.442 L 434.039 17.442 Z " fill="rgb(94,120,146)"/></g></svg>