<?xml version="1.0" encoding="UTF-8" standalone="no"?><!-- Generator: Gravit.io --><svg xmlns="http://www.w3.org/2000/svg" xmlns:xlink="http://www.w3.org/1999/xlink" style="isolation:isolate" viewBox="0 0 866.36 454.167" width="866.36pt" height="454.167pt"><defs><clipPath id="_clipPath_p5D6gHAaRgfTM1NoxLtzQcohvTzK2gDC"><rect width="866.36" height="454.167"/></clipPath></defs><g clip-path="url(#_clipPath_p5D6gHAaRgfTM1NoxLtzQcohvTzK2gDC)"><path d=" M 739.757 352.462 L 137.119 352.462 C 127.669 352.452 120.011 344.793 120 335.343 L 120 102.119 C 120.011 92.669 127.669 85.011 137.119 85 L 739.757 85 C 749.207 85.011 756.865 92.669 756.876 102.119 L 756.876 335.343 C 756.865 344.793 749.207 352.452 739.757 352.462 L 739.757 352.462 Z " fill="rgb(209,209,209)"/><path d=" M 739.757 88.5 L 137.119 88.5 C 129.602 88.51 123.51 94.602 123.5 102.119 L 123.5 335.343 C 123.51 342.861 129.602 348.952 137.119 348.962 L 739.757 348.962 C 747.274 348.952 753.366 342.861 753.376 335.343 L 753.376 102.119 C 753.366 94.602 747.274 88.51 739.757 88.5 L 739.757 88.5 Z " fill="rgb(255,255,255)"/><path d=" M 753.376 126.454 L 753.376 335.343 C 753.366 342.861 747.274 348.952 739.757 348.962 L 137.119 348.962 C 129.602 348.952 123.51 342.861 123.5 335.343 L 123.5 312.702 C 125.849 303.049 135.187 294.648 145.367 292.273 C 159.029 289.09 173.184 293.542 186.53 297.883 C 199.868 302.224 214.1 306.548 227.702 303.109 C 267.18 293.159 271.691 229.201 310.99 218.603 C 334.006 212.398 356.631 228.188 375.246 243.083 C 393.861 257.971 416.409 273.82 439.46 267.734 C 456.339 263.274 467.863 248.267 479.303 235.082 C 490.743 221.898 505.758 208.764 523.148 210.287 C 541.355 211.879 554.599 228.962 572.304 233.491 C 595.584 239.432 618.6 222.025 632.346 202.32 C 646.084 182.615 655.218 159.259 673.041 143.163 C 694.329 123.935 725.449 119.126 753.376 126.454 Z " fill="rgb(94,120,146)"/></g></svg>