<?xml version="1.0" encoding="UTF-8" standalone="no"?><!-- Generator: Gravit.io --><svg xmlns="http://www.w3.org/2000/svg" xmlns:xlink="http://www.w3.org/1999/xlink" style="isolation:isolate" viewBox="0 0 965.998 966" width="965.998pt" height="966pt"><defs><clipPath id="_clipPath_K9G7SvZAskhmmKi5OswMaXdDtu4TgLoH"><rect width="965.998" height="966"/></clipPath></defs><g clip-path="url(#_clipPath_K9G7SvZAskhmmKi5OswMaXdDtu4TgLoH)"><path d=" M 622.109 303.006 L 618.111 303.006 L 618.111 193.461 C 618.111 158.445 589.725 130.059 554.709 130.059 L 322.622 130.059 C 305.807 130.059 289.68 136.739 277.79 148.629 C 265.9 160.519 259.22 176.645 259.22 193.46 L 259.22 794.435 C 259.22 811.25 265.9 827.377 277.79 839.267 C 289.68 851.157 305.807 857.837 322.622 857.837 L 554.709 857.837 C 589.724 857.837 618.111 829.451 618.111 794.435 L 618.111 380.982 L 622.109 380.982 L 622.109 303.006 Z " fill="rgb(63,61,86)"/><path d=" M 557.267 146.554 L 526.972 146.554 C 529.801 153.49 528.992 161.379 524.813 167.597 C 520.635 173.814 513.636 177.544 506.145 177.544 L 373.185 177.544 C 365.694 177.544 358.695 173.814 354.517 167.597 C 350.338 161.379 349.529 153.49 352.358 146.554 L 324.063 146.554 C 297.913 146.554 276.715 167.752 276.715 193.901 L 276.715 793.994 C 276.715 806.551 281.703 818.595 290.583 827.474 C 299.462 836.353 311.505 841.342 324.063 841.342 L 557.267 841.342 C 569.824 841.342 581.867 836.353 590.747 827.474 C 599.626 818.595 604.615 806.552 604.615 793.994 L 604.615 793.994 L 604.615 193.901 C 604.615 181.344 599.626 169.301 590.747 160.422 C 581.867 151.542 569.824 146.554 557.267 146.554 L 557.267 146.554 Z " fill="rgb(255,255,255)"/><ellipse vector-effect="non-scaling-stroke" cx="488.9719390982274" cy="402.7666451181979" rx="42" ry="4" fill="rgb(230,230,230)"/><path d=" M 861.112 229.927 L 474.46 229.927 L 474.46 356.858 L 489.106 356.858 L 489.106 390.056 L 522.303 356.858 L 861.112 356.858 L 861.112 229.927 L 861.112 229.927 Z " fill="rgb(255,153,0)"/><rect x="517.495" y="272.91" width="175.821" height="5.336" transform="matrix(1,0,0,1,0,0)" fill="rgb(255,255,255)"/><rect x="517.495" y="291.368" width="306.441" height="5.336" transform="matrix(1,0,0,1,0,0)" fill="rgb(255,255,255)"/><rect x="517.495" y="309.826" width="306.141" height="5.336" transform="matrix(1,0,0,1,0,0)" fill="rgb(255,255,255)"/><path d=" M 762.333 612.767 L 453.694 612.767 L 453.694 714.088 L 465.385 714.088 L 465.385 740.587 L 491.884 714.088 L 762.333 714.088 L 762.333 612.767 L 762.333 612.767 Z " fill="rgb(255,153,0)"/><rect x="488.046" y="647.078" width="140.346" height="4.259" transform="matrix(1,0,0,1,0,0)" fill="rgb(255,255,255)"/><rect x="488.046" y="661.812" width="244.612" height="4.259" transform="matrix(1,0,0,1,0,0)" fill="rgb(255,255,255)"/><rect x="488.046" y="676.545" width="244.372" height="4.259" transform="matrix(1,0,0,1,0,0)" fill="rgb(255,255,255)"/><ellipse vector-effect="non-scaling-stroke" cx="465.27737909822747" cy="750.733595118198" rx="33.52584999999999" ry="3.1929400000000214" fill="rgb(230,230,230)"/><ellipse vector-effect="non-scaling-stroke" cx="372.97193909822744" cy="550.7666451181979" rx="42" ry="4" fill="rgb(230,230,230)"/><path d=" M 115.549 428.953 L 387.456 428.953 L 387.456 518.216 L 377.156 518.216 L 377.156 541.561 L 353.811 518.216 L 115.549 518.216 L 115.549 428.953 L 115.549 428.953 Z " fill="rgb(255,153,0)"/><rect x="143.752" y="458.494" width="123.643" height="3.752" transform="matrix(1,0,0,1,0,0)" fill="rgb(255,255,255)"/><rect x="143.752" y="471.474" width="215.499" height="3.752" transform="matrix(1,0,0,1,0,0)" fill="rgb(255,255,255)"/><rect x="143.752" y="484.455" width="215.288" height="3.752" transform="matrix(1,0,0,1,0,0)" fill="rgb(255,255,255)"/></g></svg>