<?xml version="1.0" encoding="UTF-8" standalone="no"?><!-- Generator: Gravit.io --><svg xmlns="http://www.w3.org/2000/svg" xmlns:xlink="http://www.w3.org/1999/xlink" style="isolation:isolate" viewBox="0 0 464 464.019" width="464pt" height="464.019pt"><defs><clipPath id="_clipPath_JNoth2zKyY2Gd9pYZtsc8uMCQETTBEEZ"><rect width="464" height="464.019"/></clipPath></defs><g clip-path="url(#_clipPath_JNoth2zKyY2Gd9pYZtsc8uMCQETTBEEZ)"><path d=" M 324.837 144.431 C 323.375 140.958 319.985 138.69 316.217 138.663 L 144.144 138.663 C 138.994 138.666 134.819 142.841 134.816 147.991 L 134.816 365.679 C 134.819 370.829 138.994 375.004 144.144 375.007 L 316.223 375.007 C 321.372 375 325.544 370.828 325.551 365.679 L 325.551 147.991 C 325.555 146.769 325.314 145.559 324.844 144.431 L 324.837 144.431 Z  M 323.473 365.679 C 323.468 369.684 320.222 372.93 316.217 372.935 L 144.144 372.935 C 140.137 372.935 136.889 369.687 136.888 365.68 L 136.888 147.992 C 136.893 143.987 140.139 140.742 144.144 140.736 L 316.223 140.736 C 319.187 140.747 321.849 142.552 322.958 145.301 C 323.064 145.568 323.155 145.842 323.231 146.119 C 323.396 146.73 323.479 147.36 323.479 147.992 L 323.473 365.679 Z " fill="rgb(63,61,86)"/><path d=" M 288.928 190.059 L 237.097 190.059 C 235.614 190.061 234.243 189.271 233.501 187.987 C 232.759 186.703 232.759 185.121 233.501 183.837 C 234.243 182.553 235.614 181.763 237.097 181.766 L 288.928 181.766 C 290.411 181.763 291.782 182.553 292.525 183.837 C 293.267 185.121 293.267 186.703 292.525 187.987 C 291.782 189.271 290.411 190.061 288.928 190.059 Z " fill="rgb(63,61,86)"/><path d=" M 288.928 211.828 L 237.097 211.828 C 235.614 211.83 234.243 211.04 233.501 209.756 C 232.759 208.472 232.759 206.89 233.501 205.606 C 234.243 204.322 235.614 203.532 237.097 203.534 L 288.928 203.534 C 290.411 203.532 291.782 204.322 292.525 205.606 C 293.267 206.89 293.267 208.472 292.525 209.756 C 291.782 211.04 290.411 211.83 288.928 211.828 Z " fill="rgb(63,61,86)"/><path d=" M 202.64 213.953 L 164.762 213.953 C 162.187 213.95 160.1 211.863 160.097 209.287 L 160.097 164.589 C 160.1 162.014 162.187 159.926 164.762 159.924 L 202.64 159.924 C 205.215 159.926 207.302 162.014 207.305 164.589 L 207.305 209.287 C 207.302 211.863 205.215 213.95 202.64 213.953 L 202.64 213.953 Z " fill="rgb(94,120,146)"/><path d=" M 288.568 256.402 L 171.431 256.402 C 169.141 256.402 167.285 254.546 167.285 252.256 C 167.285 249.965 169.141 248.109 171.431 248.109 L 288.568 248.109 C 290.858 248.109 292.715 249.965 292.715 252.256 C 292.715 254.546 290.858 256.402 288.568 256.402 Z " fill="rgb(204,204,204)"/><path d=" M 288.568 278.171 L 171.431 278.171 C 169.144 278.167 167.291 276.312 167.291 274.024 C 167.291 271.737 169.144 269.881 171.431 269.878 L 288.568 269.878 C 290.051 269.875 291.423 270.665 292.165 271.949 C 292.907 273.233 292.907 274.816 292.165 276.1 C 291.423 277.383 290.051 278.173 288.568 278.171 Z " fill="rgb(204,204,204)"/><path d=" M 280.83 299.94 L 163.693 299.94 C 161.405 299.936 159.553 298.081 159.553 295.793 C 159.553 293.506 161.405 291.65 163.693 291.646 L 280.83 291.646 C 282.313 291.644 283.684 292.434 284.427 293.718 C 285.169 295.002 285.169 296.584 284.427 297.868 C 283.684 299.152 282.313 299.942 280.83 299.94 Z " fill="rgb(204,204,204)"/><path d=" M 280.83 321.709 L 163.693 321.709 C 161.405 321.705 159.553 319.85 159.553 317.562 C 159.553 315.274 161.405 313.419 163.693 313.415 L 280.83 313.415 C 282.313 313.413 283.684 314.203 284.427 315.487 C 285.169 316.771 285.169 318.353 284.427 319.637 C 283.684 320.921 282.313 321.711 280.83 321.709 Z " fill="rgb(204,204,204)"/><path d=" M 280.83 343.477 L 163.693 343.477 C 161.405 343.474 159.553 341.618 159.553 339.331 C 159.553 337.043 161.405 335.188 163.693 335.184 L 280.83 335.184 C 282.313 335.182 283.684 335.972 284.427 337.256 C 285.169 338.539 285.169 340.122 284.427 341.406 C 283.684 342.69 282.313 343.48 280.83 343.477 Z " fill="rgb(204,204,204)"/><circle vector-effect="non-scaling-stroke" cx="329.84475310099344" cy="118.13869734922281" r="59.36194999999998" fill="rgb(94,120,146)"/><circle vector-effect="non-scaling-stroke" cx="328.6954231009934" cy="152.01386734922283" r="6.9848499999999945" fill="rgb(255,255,255)"/><path d=" M 327.947 79.129 C 316.998 79.238 308.126 88.045 307.938 98.993 C 307.936 99.093 307.935 99.802 307.936 100.729 C 307.936 103.559 310.23 105.853 313.059 105.853 L 313.059 105.853 C 315.891 105.852 318.186 103.556 318.186 100.724 L 318.186 100.721 C 318.185 100.091 318.185 99.654 318.185 99.627 C 318.184 94.967 321.491 90.963 326.067 90.082 C 330.644 89.202 335.201 91.694 336.928 96.022 C 338.656 100.35 337.069 105.295 333.145 107.809 L 333.147 107.811 C 333.147 107.811 325.854 112.506 323.63 118.947 L 323.632 118.947 C 323.241 120.266 323.043 121.635 323.044 123.012 C 323.044 123.577 323.077 128.527 323.142 132.544 C 323.188 135.428 325.54 137.741 328.424 137.74 L 328.424 137.74 C 329.826 137.74 331.169 137.184 332.16 136.193 C 333.151 135.202 333.708 133.858 333.708 132.457 L 333.708 132.424 C 333.685 128.745 333.673 124.461 333.673 124.15 C 333.673 120.196 337.488 116.255 340.622 113.686 C 344.25 110.748 346.799 106.689 347.871 102.146 C 348.102 101.209 348.229 100.25 348.25 99.286 C 348.25 93.94 346.127 88.813 342.346 85.032 C 338.566 81.252 333.439 79.128 328.093 79.128 Q 328.02 79.128 327.947 79.129 Z " fill="rgb(255,255,255)"/></g></svg>