<?xml version="1.0" encoding="UTF-8" standalone="no"?><!-- Generator: Gravit.io --><svg xmlns="http://www.w3.org/2000/svg" xmlns:xlink="http://www.w3.org/1999/xlink" style="isolation:isolate" viewBox="0 0 955.953 639.224" width="955.953pt" height="639.224pt"><defs><clipPath id="_clipPath_79ASeHOZ9BxflJxGoaq8Ch9Y7JEG1pCi"><rect width="955.953" height="639.224"/></clipPath></defs><g clip-path="url(#_clipPath_79ASeHOZ9BxflJxGoaq8Ch9Y7JEG1pCi)"><rect x="126.339" y="94.511" width="703.576" height="450.601" transform="matrix(1,0,0,1,0,0)" fill="rgb(230,230,230)"/><rect x="146.457" y="151.028" width="663.339" height="171.773" transform="matrix(1,0,0,1,0,0)" fill="rgb(255,255,255)"/><rect x="311.456" y="175.839" width="140.281" height="8.053" transform="matrix(1,0,0,1,0,0)" fill="rgb(230,230,230)"/><rect x="311.456" y="205.213" width="216.625" height="8.053" transform="matrix(1,0,0,1,0,0)" fill="rgb(94,120,146)"/><rect x="311.456" y="232.888" width="176.544" height="8.053" transform="matrix(1,0,0,1,0,0)" fill="rgb(230,230,230)"/><rect x="311.456" y="260.458" width="103.064" height="8.053" transform="matrix(1,0,0,1,0,0)" fill="rgb(230,230,230)"/><rect x="311.456" y="288.028" width="155.55" height="8.053" transform="matrix(1,0,0,1,0,0)" fill="rgb(255,153,0)"/><rect x="247.519" y="172.976" width="17.177" height="17.177" transform="matrix(1,0,0,1,0,0)" fill="rgb(230,230,230)"/><rect x="247.519" y="200.651" width="17.177" height="17.177" transform="matrix(1,0,0,1,0,0)" fill="rgb(94,120,146)"/><rect x="247.519" y="228.325" width="17.177" height="17.177" transform="matrix(1,0,0,1,0,0)" fill="rgb(230,230,230)"/><rect x="247.519" y="256" width="17.177" height="17.177" transform="matrix(1,0,0,1,0,0)" fill="rgb(230,230,230)"/><rect x="247.519" y="283.674" width="17.177" height="17.177" transform="matrix(1,0,0,1,0,0)" fill="rgb(255,153,0)"/><rect x="659.774" y="212.102" width="57.258" height="57.258" transform="matrix(1,0,0,1,0,0)" fill="rgb(230,230,230)"/><rect x="146.457" y="346.658" width="663.339" height="171.773" transform="matrix(1,0,0,1,0,0)" fill="rgb(255,255,255)"/><rect x="277.102" y="361.924" width="17.177" height="17.177" transform="matrix(1,0,0,1,0,0)" fill="rgb(230,230,230)"/><rect x="247.519" y="361.924" width="17.177" height="17.177" transform="matrix(1,0,0,1,0,0)" fill="rgb(255,153,0)"/><path d=" M 538.762 399.488 C 528.142 381.507 509.534 369.719 488.74 367.798 C 467.946 365.877 447.494 374.057 433.759 389.788 L 429.573 386.13 C 444.479 369.052 466.679 360.17 489.251 362.255 C 511.823 364.339 532.02 377.137 543.546 396.656 L 538.762 399.488 Z " fill="rgb(230,230,230)"/><path d=" M 541.382 471.906 L 536.768 468.804 C 550.713 448.006 551.488 421.052 538.762 399.488 L 543.546 396.656 C 557.364 420.066 556.523 449.329 541.382 471.906 L 541.382 471.906 Z " fill="rgb(255,153,0)"/><path d=" M 430.152 479.651 C 406.374 453.095 406.126 412.978 429.573 386.13 L 433.759 389.788 C 412.16 414.521 412.389 451.477 434.293 475.942 L 430.152 479.651 Z " fill="rgb(255,153,0)"/><path d=" M 482.752 503.165 C 462.676 503.149 443.552 494.601 430.152 479.651 L 434.293 475.942 C 447.687 490.906 467.243 498.844 487.277 497.448 C 507.312 496.053 525.578 485.481 536.769 468.804 L 541.382 471.906 C 528.275 491.451 506.286 503.175 482.752 503.165 L 482.752 503.165 Z " fill="rgb(255,153,0)"/><rect x="659.774" y="399.144" width="57.258" height="57.258" transform="matrix(1,0,0,1,0,0)" fill="rgb(230,230,230)"/><rect x="245.133" y="436.362" width="57.258" height="57.258" transform="matrix(1,0,0,1,0,0)" fill="rgb(230,230,230)"/><circle vector-effect="non-scaling-stroke" cx="148.25048000000007" cy="109.39373000000002" r="5.539970000000011" fill="rgb(255,0,0)"/><circle vector-effect="non-scaling-stroke" cx="169.27882000000005" cy="109.39373000000002" r="5.539970000000011" fill="rgb(255,153,0)"/><circle vector-effect="non-scaling-stroke" cx="190.3071500000001" cy="109.39373000000002" r="5.539970000000011" fill="rgb(94,120,146)"/></g></svg>