<?xml version="1.0" encoding="UTF-8" standalone="no"?><!-- Generator: Gravit.io --><svg xmlns="http://www.w3.org/2000/svg" xmlns:xlink="http://www.w3.org/1999/xlink" style="isolation:isolate" viewBox="0 0 980.494 751.895" width="980.494pt" height="751.895pt"><defs><clipPath id="_clipPath_l2jsameKbayo8CCaGExeIOB87W03ggFl"><rect width="980.494" height="751.895"/></clipPath></defs><g clip-path="url(#_clipPath_l2jsameKbayo8CCaGExeIOB87W03ggFl)"><rect x="209.81" y="174.477" width="2" height="107" transform="matrix(1,0,0,1,0,0)" fill="rgb(63,61,86)"/><rect x="209.81" y="313.328" width="2" height="94.149" transform="matrix(1,0,0,1,0,0)" fill="rgb(63,61,86)"/><rect x="206.81" y="422.477" width="155" height="2" transform="matrix(1,0,0,1,0,0)" fill="rgb(63,61,86)"/><rect x="140.81" y="449.477" width="2" height="85" transform="matrix(1,0,0,1,0,0)" fill="rgb(63,61,86)"/><rect x="158.81" y="549.477" width="235" height="2" transform="matrix(1,0,0,1,0,0)" fill="rgb(63,61,86)"/><rect x="587.81" y="106.477" width="2" height="101" transform="matrix(1,0,0,1,0,0)" fill="rgb(63,61,86)"/><rect x="425.776" y="223.477" width="147.034" height="2" transform="matrix(1,0,0,1,0,0)" fill="rgb(63,61,86)"/><rect x="408.81" y="239.477" width="2" height="135" transform="matrix(1,0,0,1,0,0)" fill="rgb(63,61,86)"/><path d=" M 210.81 314.477 C 201.421 314.477 193.81 306.866 193.81 297.477 C 193.81 288.088 201.421 280.477 210.81 280.477 C 220.199 280.477 227.81 288.088 227.81 297.477 C 227.799 306.862 220.194 314.467 210.81 314.477 L 210.81 314.477 Z  M 210.81 282.477 C 202.525 282.477 195.81 289.193 195.81 297.477 C 195.81 305.761 202.525 312.477 210.81 312.477 C 219.094 312.477 225.81 305.761 225.81 297.477 C 225.801 289.197 219.09 282.486 210.81 282.477 L 210.81 282.477 Z " fill="rgb(63,61,86)"/><path d=" M 142.81 567.477 C 133.421 567.477 125.81 559.866 125.81 550.477 C 125.81 541.088 133.421 533.477 142.81 533.477 C 152.199 533.477 159.81 541.088 159.81 550.477 C 159.799 559.862 152.194 567.467 142.81 567.477 L 142.81 567.477 Z  M 142.81 535.477 C 134.525 535.477 127.81 542.193 127.81 550.477 C 127.81 558.761 134.525 565.477 142.81 565.477 C 151.094 565.477 157.81 558.761 157.81 550.477 C 157.801 542.197 151.09 535.486 142.81 535.477 L 142.81 535.477 Z " fill="rgb(63,61,86)"/><circle vector-effect="non-scaling-stroke" cx="211.8094331912314" cy="423.47722551355656" r="16" fill="rgb(255,153,0)"/><rect x="624.81" y="296.477" width="166" height="2" transform="matrix(1,0,0,1,0,0)" fill="rgb(63,61,86)"/><rect x="607.81" y="313.328" width="2" height="94.149" transform="matrix(1,0,0,1,0,0)" fill="rgb(63,61,86)"/><rect x="458.81" y="422.477" width="133" height="2" transform="matrix(1,0,0,1,0,0)" fill="rgb(63,61,86)"/><rect x="692.81" y="431.477" width="138" height="2" transform="matrix(1,0,0,1,0,0)" fill="rgb(63,61,86)"/><rect x="676.81" y="449.477" width="2" height="85" transform="matrix(1,0,0,1,0,0)" fill="rgb(63,61,86)"/><rect x="425.81" y="549.477" width="235" height="2" transform="matrix(1,0,0,1,0,0)" fill="rgb(63,61,86)"/><rect x="408.81" y="472.477" width="2" height="62" transform="matrix(1,0,0,1,0,0)" fill="rgb(63,61,86)"/><circle vector-effect="non-scaling-stroke" cx="608.8094331912314" cy="297.47722551355656" r="16" fill="rgb(255,153,0)"/><path d=" M 588.81 240.477 C 579.421 240.477 571.81 232.866 571.81 223.477 C 571.81 214.088 579.421 206.477 588.81 206.477 C 598.199 206.477 605.81 214.088 605.81 223.477 C 605.799 232.862 598.194 240.467 588.81 240.477 L 588.81 240.477 Z  M 588.81 208.477 C 580.525 208.477 573.81 215.193 573.81 223.477 C 573.81 231.761 580.525 238.477 588.81 238.477 C 597.094 238.477 603.81 231.761 603.81 223.477 C 603.801 215.197 597.09 208.486 588.81 208.477 L 588.81 208.477 Z " fill="rgb(63,61,86)"/><path d=" M 409.81 240.477 C 400.421 240.477 392.81 232.866 392.81 223.477 C 392.81 214.088 400.421 206.477 409.81 206.477 C 419.199 206.477 426.81 214.088 426.81 223.477 C 426.799 232.862 419.194 240.467 409.81 240.477 L 409.81 240.477 Z  M 409.81 208.477 C 401.525 208.477 394.81 215.193 394.81 223.477 C 394.81 231.761 401.525 238.477 409.81 238.477 C 418.094 238.477 424.81 231.761 424.81 223.477 C 424.801 215.197 418.09 208.486 409.81 208.477 L 409.81 208.477 Z " fill="rgb(63,61,86)"/><path d=" M 676.81 450.477 C 667.421 450.477 659.81 442.866 659.81 433.477 C 659.81 424.088 667.421 416.477 676.81 416.477 C 686.199 416.477 693.81 424.088 693.81 433.477 C 693.799 442.862 686.194 450.467 676.81 450.477 L 676.81 450.477 Z  M 676.81 418.477 C 668.525 418.477 661.81 425.193 661.81 433.477 C 661.81 441.761 668.525 448.477 676.81 448.477 C 685.094 448.477 691.81 441.761 691.81 433.477 C 691.801 425.197 685.09 418.486 676.81 418.477 L 676.81 418.477 Z " fill="rgb(63,61,86)"/><circle vector-effect="non-scaling-stroke" cx="676.8094331912314" cy="550.4772255135565" r="16" fill="rgb(255,153,0)"/><path d=" M 409.81 567.477 C 400.421 567.477 392.81 559.866 392.81 550.477 C 392.81 541.088 400.421 533.477 409.81 533.477 C 419.199 533.477 426.81 541.088 426.81 550.477 C 426.799 559.862 419.194 567.467 409.81 567.477 L 409.81 567.477 Z  M 409.81 535.477 C 401.525 535.477 394.81 542.193 394.81 550.477 C 394.81 558.761 401.525 565.477 409.81 565.477 C 418.094 565.477 424.81 558.761 424.81 550.477 C 424.801 542.197 418.09 535.486 409.81 535.477 L 409.81 535.477 Z " fill="rgb(63,61,86)"/><path d=" M 607.81 440.477 C 598.421 440.477 590.81 432.866 590.81 423.477 C 590.81 414.088 598.421 406.477 607.81 406.477 C 617.199 406.477 624.81 414.088 624.81 423.477 C 624.799 432.862 617.194 440.467 607.81 440.477 L 607.81 440.477 Z  M 607.81 408.477 C 599.525 408.477 592.81 415.193 592.81 423.477 C 592.81 431.761 599.525 438.477 607.81 438.477 C 616.094 438.477 622.81 431.761 622.81 423.477 C 622.801 415.197 616.09 408.486 607.81 408.477 L 607.81 408.477 Z " fill="rgb(63,61,86)"/><path d=" M 142.809 399.477 C 131.764 399.477 122.809 408.432 122.809 419.477 C 122.809 430.523 131.764 439.477 142.809 439.477 C 153.855 439.477 162.809 430.523 162.809 419.477 C 162.777 408.445 153.842 399.51 142.809 399.477 L 142.809 399.477 Z  M 142.809 405.477 C 146.123 405.477 148.809 408.164 148.809 411.477 C 148.809 414.791 146.123 417.477 142.809 417.477 C 139.496 417.477 136.809 414.791 136.809 411.477 C 136.82 408.168 139.5 405.488 142.809 405.477 L 142.809 405.477 Z  M 142.809 434.362 C 137.997 434.34 133.506 431.943 130.809 427.958 C 130.906 423.958 138.809 421.756 142.809 421.756 C 146.809 421.756 154.713 423.958 154.809 427.958 C 152.11 431.94 147.62 434.336 142.809 434.362 L 142.809 434.362 Z " fill="rgb(63,61,86)"/><path d=" M 211.809 126.477 C 200.764 126.477 191.809 135.432 191.809 146.477 C 191.809 157.523 200.764 166.477 211.809 166.477 C 222.855 166.477 231.809 157.523 231.809 146.477 C 231.777 135.445 222.842 126.51 211.809 126.477 L 211.809 126.477 Z  M 211.809 132.477 C 215.123 132.477 217.809 135.164 217.809 138.477 C 217.809 141.791 215.123 144.477 211.809 144.477 C 208.496 144.477 205.809 141.791 205.809 138.477 C 205.82 135.168 208.5 132.488 211.809 132.477 L 211.809 132.477 Z  M 211.809 161.362 C 206.997 161.34 202.506 158.943 199.809 154.958 C 199.906 150.958 207.809 148.756 211.809 148.756 C 215.809 148.756 223.713 150.958 223.809 154.958 C 221.11 158.94 216.62 161.336 211.809 161.362 Z " fill="rgb(63,61,86)"/><path d=" M 588.809 57.477 C 577.764 57.477 568.809 66.432 568.809 77.477 C 568.809 88.523 577.764 97.477 588.809 97.477 C 599.855 97.477 608.809 88.523 608.809 77.477 C 608.777 66.445 599.842 57.51 588.809 57.477 L 588.809 57.477 Z  M 588.809 63.477 C 592.123 63.477 594.809 66.164 594.809 69.477 C 594.809 72.791 592.123 75.477 588.809 75.477 C 585.496 75.477 582.809 72.791 582.809 69.477 C 582.82 66.168 585.5 63.488 588.809 63.477 Z  M 588.809 92.362 C 583.997 92.34 579.506 89.943 576.809 85.958 C 576.906 81.958 584.809 79.756 588.809 79.756 C 592.809 79.756 600.713 81.958 600.809 85.958 C 598.11 89.94 593.62 92.336 588.809 92.362 Z " fill="rgb(63,61,86)"/><path d=" M 818.809 276.477 C 807.764 276.477 798.809 285.432 798.809 296.477 C 798.809 307.523 807.764 316.477 818.809 316.477 C 829.855 316.477 838.809 307.523 838.809 296.477 C 838.777 285.445 829.842 276.51 818.809 276.477 L 818.809 276.477 Z  M 818.809 282.477 C 822.123 282.477 824.809 285.164 824.809 288.477 C 824.809 291.791 822.123 294.477 818.809 294.477 C 815.496 294.477 812.809 291.791 812.809 288.477 C 812.82 285.168 815.5 282.488 818.809 282.477 Z  M 818.809 311.362 C 813.997 311.34 809.506 308.943 806.809 304.958 C 806.906 300.958 814.809 298.756 818.809 298.756 C 822.809 298.756 830.713 300.958 830.809 304.958 C 828.11 308.94 823.62 311.336 818.809 311.362 L 818.809 311.362 Z " fill="rgb(63,61,86)"/><path d=" M 856.809 411.477 C 845.764 411.477 836.809 420.432 836.809 431.477 C 836.809 442.523 845.764 451.477 856.809 451.477 C 867.855 451.477 876.809 442.523 876.809 431.477 C 876.777 420.445 867.842 411.51 856.809 411.477 L 856.809 411.477 Z  M 856.809 417.477 C 860.123 417.477 862.809 420.164 862.809 423.477 C 862.809 426.791 860.123 429.477 856.809 429.477 C 853.496 429.477 850.809 426.791 850.809 423.477 C 850.82 420.168 853.5 417.488 856.809 417.477 Z  M 856.809 446.362 C 851.997 446.34 847.506 443.943 844.809 439.958 C 844.906 435.958 852.809 433.756 856.809 433.756 C 860.809 433.756 868.713 435.958 868.809 439.958 C 866.11 443.94 861.62 446.336 856.809 446.362 L 856.809 446.362 Z " fill="rgb(63,61,86)"/><path d=" M 411.087 411.144 L 409.038 419.359 C 411.361 419.938 418.521 422.3 419.681 417.651 C 420.89 412.804 413.41 411.723 411.087 411.144 Z " fill="rgb(255,153,0)"/><path d=" M 408.005 423.505 L 405.745 432.563 C 408.534 433.256 417.137 436.018 418.409 430.908 C 419.738 425.58 410.794 424.201 408.005 423.505 Z " fill="rgb(255,153,0)"/><path d=" M 420.349 386.689 C 400.258 381.679 379.91 393.905 374.9 413.997 C 369.89 434.088 382.116 454.436 402.207 459.446 C 422.298 464.457 442.647 452.231 447.657 432.14 C 450.065 422.491 448.54 412.281 443.419 403.757 C 438.297 395.233 429.999 389.093 420.349 386.689 Z  M 427.811 417.726 C 427.27 421.379 425.246 423.148 422.557 423.767 C 426.248 425.688 428.127 428.636 426.337 433.746 C 424.117 440.091 418.84 440.627 411.825 439.299 L 410.122 446.123 L 406.007 445.098 L 407.687 438.365 Q 406.043 437.958 404.408 437.515 L 402.722 444.279 L 398.612 443.253 L 400.315 436.417 C 399.354 436.171 398.378 435.909 397.382 435.66 L 392.028 434.324 L 394.07 429.615 C 394.07 429.615 397.102 430.422 397.061 430.362 C 397.441 430.484 397.854 430.449 398.207 430.265 C 398.561 430.082 398.827 429.764 398.946 429.384 L 401.637 418.597 C 401.788 418.634 401.935 418.67 402.071 418.705 C 401.932 418.65 401.789 418.604 401.644 418.568 L 403.563 410.867 C 403.682 409.68 402.83 408.617 401.646 408.475 C 401.711 408.431 398.658 407.732 398.658 407.732 L 399.753 403.337 L 405.428 404.754 L 405.423 404.775 C 406.276 404.987 407.155 405.188 408.051 405.392 L 409.737 398.635 L 413.849 399.66 L 412.197 406.285 C 413.301 406.537 414.412 406.791 415.494 407.06 L 417.135 400.479 L 421.249 401.504 L 419.564 408.264 C 424.758 410.053 428.557 412.735 427.811 417.726 L 427.811 417.726 Z " fill="rgb(255,153,0)"/></g></svg>