<?xml version="1.0" encoding="UTF-8" standalone="no"?><!-- Generator: Gravit.io --><svg xmlns="http://www.w3.org/2000/svg" xmlns:xlink="http://www.w3.org/1999/xlink" style="isolation:isolate" viewBox="0 0 618.5 567.882" width="618.5pt" height="567.882pt"><defs><clipPath id="_clipPath_Rh6eAhUaoFzjlMWSIkcSF33zrX9txDJt"><rect width="618.5" height="567.882"/></clipPath></defs><g clip-path="url(#_clipPath_Rh6eAhUaoFzjlMWSIkcSF33zrX9txDJt)"><path d=" M 617.662 30.177 L 40.106 30.177 C 39.644 30.175 39.271 29.801 39.271 29.339 C 39.271 28.877 39.644 28.502 40.106 28.501 L 617.662 28.501 C 618.124 28.502 618.497 28.877 618.497 29.339 C 618.497 29.801 618.124 30.175 617.662 30.177 Z " fill="rgb(202,202,202)"/><circle vector-effect="non-scaling-stroke" cx="58.97323999999999" cy="9.22077" r="9.220769999999998" fill="rgb(255,0,0)"/><circle vector-effect="non-scaling-stroke" cx="90.82683" cy="9.22077" r="9.220770000000002" fill="rgb(255,153,0)"/><circle vector-effect="non-scaling-stroke" cx="122.68041" cy="9.22077" r="9.220769999999995" fill="rgb(94,120,146)"/><path d=" M 598.577 5.64 L 575.944 5.64 C 575.018 5.64 574.267 4.889 574.267 3.964 C 574.267 3.038 575.018 2.287 575.944 2.287 L 598.577 2.287 C 599.503 2.287 600.253 3.038 600.253 3.964 C 600.253 4.889 599.503 5.64 598.577 5.64 Z " fill="rgb(94,120,146)"/><path d=" M 598.577 11.927 L 575.944 11.927 C 575.018 11.927 574.267 11.176 574.267 10.25 C 574.267 9.325 575.018 8.574 575.944 8.574 L 598.577 8.574 C 599.503 8.574 600.253 9.325 600.253 10.25 C 600.253 11.176 599.503 11.927 598.577 11.927 Z " fill="rgb(94,120,146)"/><path d=" M 598.577 18.214 L 575.944 18.214 C 575.018 18.214 574.267 17.463 574.267 16.537 C 574.267 15.611 575.018 14.861 575.944 14.861 L 598.577 14.861 C 599.5 14.864 600.247 15.614 600.247 16.537 C 600.247 17.461 599.5 18.211 598.577 18.214 Z " fill="rgb(94,120,146)"/><rect x="49.521" y="66.123" width="383.081" height="229.681" transform="matrix(1,0,0,1,0,0)" fill="rgb(240,240,240)"/><rect x="479.545" y="66.123" width="120.708" height="72.372" transform="matrix(1,0,0,1,0,0)" fill="rgb(240,240,240)"/><path d=" M 576.171 171.743 L 504.35 171.743 C 502.482 171.743 500.967 170.228 500.967 168.36 C 500.967 166.491 502.482 164.977 504.35 164.977 L 576.171 164.977 C 578.04 164.977 579.554 166.491 579.554 168.36 C 579.554 170.228 578.04 171.743 576.171 171.743 L 576.171 171.743 Z " fill="rgb(228,228,228)"/><path d=" M 564.591 160.163 L 515.93 160.163 C 514.062 160.163 512.547 158.648 512.547 156.78 C 512.547 154.912 514.062 153.397 515.93 153.397 L 564.591 153.397 C 566.46 153.397 567.974 154.912 567.974 156.78 C 567.974 158.648 566.46 160.163 564.591 160.163 L 564.591 160.163 Z " fill="rgb(228,228,228)"/><rect x="479.545" y="197.729" width="120.708" height="72.372" transform="matrix(1,0,0,1,0,0)" fill="rgb(240,240,240)"/><path d=" M 576.171 303.348 L 504.35 303.348 C 502.482 303.348 500.967 301.834 500.967 299.965 C 500.967 298.097 502.482 296.583 504.35 296.583 L 576.171 296.583 C 578.04 296.583 579.554 298.097 579.554 299.965 C 579.554 301.834 578.04 303.348 576.171 303.348 L 576.171 303.348 Z " fill="rgb(228,228,228)"/><path d=" M 564.591 291.768 L 515.93 291.768 C 514.062 291.768 512.547 290.254 512.547 288.386 C 512.547 286.517 514.062 285.003 515.93 285.003 L 564.591 285.003 C 566.457 285.006 567.968 286.519 567.968 288.386 C 567.968 290.252 566.457 291.765 564.591 291.768 Z " fill="rgb(228,228,228)"/><circle vector-effect="non-scaling-stroke" cx="247.71892000000003" cy="161.09572" r="28.58657000000001" fill="rgb(158,97,106)"/><path d=" M 295.884 295.804 L 224.205 295.804 L 228.228 205.164 L 228.723 204.644 L 235.84 197.133 L 258.473 197.133 L 266.872 205.264 L 267.534 205.91 L 285.406 223.035 L 295.884 295.804 L 295.884 295.804 Z " fill="rgb(255,153,0)"/><path d=" M 244.046 295.804 L 189.568 295.804 C 189.208 261.117 188.923 234.947 188.923 234.947 L 191.706 233.254 L 191.723 233.245 L 222.277 214.695 L 228.69 204.275 L 228.723 204.644 L 230.609 226.606 C 230.609 226.606 240.861 259.726 244.046 295.804 Z " fill="rgb(47,46,65)"/><path d=" M 318.173 295.804 L 269.697 295.804 C 267.106 284.052 265.757 272.861 266.344 263.531 C 268.724 225.416 263.234 204.275 265.615 204.275 L 266.872 205.264 L 281.826 217.075 L 301.517 224.293 L 315.18 229.305 L 317.561 230.177 L 317.561 231.326 C 317.569 237.093 317.628 263.875 318.173 295.804 Z " fill="rgb(47,46,65)"/><path d=" M 220.674 170.039 C 220.674 170.039 223.103 165.774 222.539 151.525 C 222.539 151.525 243.672 145.335 261.803 143.976 C 261.803 143.976 276.096 167.765 276.096 167.765 C 276.096 167.765 277.404 166.27 280.205 154.133 C 280.205 154.133 276.646 129.9 276.646 129.9 C 274.774 117.145 264.681 121.233 264.681 121.233 C 269.542 123.125 268.608 127.171 268.608 127.171 C 264.494 119.958 254.401 124.045 254.401 124.045 C 240.941 115.598 227.298 126.722 227.298 126.722 C 211.037 130.413 220.574 143.344 220.574 143.344 C 204.22 151.609 220.674 170.039 220.674 170.039 Z " fill="rgb(47,46,65)"/><path d=" M 173.784 295.804 C 175.175 267.982 176.24 246.154 175.821 244.469 C 174.647 239.784 191.203 233.438 191.706 233.254 L 191.714 233.245 L 191.723 233.245 L 194.883 234.947 L 197.196 295.804 L 173.784 295.804 Z " fill="rgb(47,46,65)"/><path d=" M 329.573 295.804 L 304.971 295.804 L 297.929 226.254 L 300.829 224.133 C 300.829 224.133 301.081 224.192 301.517 224.293 C 303.772 224.854 311.048 226.757 315.18 229.305 C 316.095 229.822 316.903 230.507 317.561 231.326 C 317.964 231.807 318.165 232.426 318.123 233.052 C 317.913 235.022 323.278 262.869 329.573 295.804 Z " fill="rgb(47,46,65)"/><path d=" M 370.991 323.885 L 111.133 323.885 C 109.052 323.889 107.367 325.577 107.367 327.658 C 107.367 329.739 109.052 331.426 111.133 331.43 L 370.991 331.43 C 372.34 331.432 373.588 330.713 374.263 329.545 C 374.938 328.377 374.938 326.938 374.263 325.77 C 373.588 324.602 372.34 323.883 370.991 323.885 L 370.991 323.885 Z " fill="rgb(202,202,202)"/><path d=" M 300.578 323.885 L 300.578 331.43 L 111.133 331.43 C 109.052 331.426 107.367 329.739 107.367 327.658 C 107.367 325.577 109.052 323.889 111.133 323.885 L 300.578 323.885 Z " fill="rgb(63,61,86)"/><circle vector-effect="non-scaling-stroke" cx="300.57799" cy="327.65761" r="7.544269999999983" fill="rgb(63,61,86)"/><path d=" M 241.062 390.527 C 232.461 390.527 225.489 383.554 225.489 374.953 C 225.489 366.352 232.461 359.38 241.062 359.38 C 249.663 359.38 256.635 366.352 256.635 374.953 C 256.626 383.55 249.659 390.517 241.062 390.527 L 241.062 390.527 Z  M 241.062 360.578 C 235.248 360.578 230.006 364.08 227.781 369.452 C 225.556 374.824 226.786 381.007 230.897 385.118 C 235.008 389.229 241.192 390.459 246.563 388.234 C 251.935 386.009 255.437 380.768 255.437 374.953 C 255.428 367.018 248.998 360.587 241.062 360.578 L 241.062 360.578 Z " fill="rgb(255,153,0)"/><path d=" M 239.005 383.339 C 238.846 383.339 238.694 383.276 238.582 383.163 C 238.469 383.051 238.406 382.899 238.406 382.74 L 238.406 367.167 C 238.404 366.951 238.518 366.751 238.704 366.643 C 238.89 366.535 239.12 366.535 239.307 366.643 C 239.493 366.751 239.606 366.951 239.604 367.167 L 239.604 382.74 C 239.604 383.071 239.336 383.339 239.005 383.339 L 239.005 383.339 Z " fill="rgb(255,153,0)"/><path d=" M 243.119 383.339 C 242.96 383.339 242.808 383.276 242.695 383.163 C 242.583 383.051 242.52 382.899 242.52 382.74 L 242.52 367.167 C 242.518 366.951 242.632 366.752 242.818 366.643 C 243.004 366.535 243.234 366.535 243.42 366.643 C 243.606 366.752 243.72 366.951 243.718 367.167 L 243.718 382.74 C 243.718 383.071 243.45 383.339 243.119 383.339 L 243.119 383.339 Z " fill="rgb(255,153,0)"/><path d=" M 169.733 374.953 C 169.733 368.654 173.527 362.976 179.346 360.565 C 185.166 358.155 191.864 359.487 196.318 363.941 C 200.772 368.395 202.104 375.094 199.694 380.913 C 197.283 386.732 191.605 390.527 185.306 390.527 C 176.709 390.517 169.742 383.55 169.733 374.953 L 169.733 374.953 Z  M 170.931 374.953 C 170.931 380.768 174.433 386.009 179.805 388.234 C 185.177 390.459 191.36 389.23 195.471 385.118 C 199.582 381.007 200.812 374.824 198.587 369.452 C 196.362 364.08 191.12 360.578 185.306 360.578 C 177.37 360.587 170.94 367.018 170.931 374.953 L 170.931 374.953 Z " fill="rgb(63,61,86)"/><path d=" M 192.033 380.196 C 192.258 380.197 192.456 380.045 192.514 379.827 C 192.573 379.61 192.477 379.38 192.282 379.267 L 184.81 374.953 L 192.282 370.64 C 192.52 370.502 192.602 370.197 192.464 369.959 C 192.327 369.721 192.022 369.639 191.784 369.777 L 183.565 374.522 C 183.411 374.611 183.316 374.775 183.316 374.953 C 183.316 375.131 183.411 375.296 183.565 375.385 L 191.784 380.13 C 191.859 380.174 191.945 380.197 192.033 380.196 Z " fill="rgb(63,61,86)"/><path d=" M 181.012 381.927 C 181.287 381.927 181.51 381.704 181.51 381.429 L 181.51 368.478 C 181.51 368.203 181.287 367.98 181.012 367.98 C 180.737 367.98 180.514 368.203 180.514 368.478 L 180.514 381.429 C 180.514 381.704 180.737 381.927 181.012 381.927 L 181.012 381.927 Z " fill="rgb(63,61,86)"/><path d=" M 296.818 390.527 C 288.217 390.527 281.245 383.554 281.245 374.953 C 281.245 366.352 288.217 359.38 296.818 359.38 C 305.419 359.38 312.391 366.352 312.391 374.953 C 312.382 383.55 305.415 390.517 296.818 390.527 L 296.818 390.527 Z  M 296.818 360.578 C 291.004 360.578 285.762 364.08 283.537 369.452 C 281.312 374.824 282.542 381.007 286.653 385.118 C 290.765 389.229 296.948 390.459 302.319 388.234 C 307.691 386.009 311.194 380.768 311.194 374.953 C 311.184 367.018 304.754 360.587 296.818 360.578 L 296.818 360.578 Z " fill="rgb(63,61,86)"/><path d=" M 290.092 380.196 C 289.866 380.197 289.669 380.045 289.61 379.827 C 289.552 379.61 289.647 379.38 289.842 379.267 L 297.314 374.953 L 289.842 370.64 C 289.605 370.501 289.524 370.198 289.661 369.96 C 289.798 369.722 290.102 369.64 290.34 369.777 L 298.559 374.522 C 298.713 374.611 298.808 374.775 298.808 374.953 C 298.808 375.131 298.713 375.296 298.559 375.385 L 290.34 380.13 C 290.265 380.174 290.179 380.197 290.092 380.196 Z " fill="rgb(63,61,86)"/><path d=" M 301.112 381.927 C 300.837 381.927 300.614 381.704 300.614 381.429 L 300.614 368.478 C 300.614 368.203 300.837 367.98 301.112 367.98 C 301.387 367.98 301.61 368.203 301.61 368.478 L 301.61 381.429 C 301.61 381.704 301.387 381.927 301.112 381.927 L 301.112 381.927 Z " fill="rgb(63,61,86)"/><path d=" M 91.243 386.691 C 89.577 385.021 88.736 382.7 88.946 380.35 C 89.156 378.001 90.396 375.865 92.332 374.518 L 84.67 347.251 L 98.69 351.728 L 103.817 376.934 C 105.911 380.413 105.072 384.908 101.864 387.397 C 98.656 389.886 94.093 389.583 91.243 386.691 L 91.243 386.691 Z " fill="rgb(255,182,182)"/><path d=" M 87.496 250.842 L 84.592 247.82 C 84.592 247.82 75.612 253.988 77.512 273.107 C 78.916 287.229 74.481 293.218 74.977 334.264 L 87.496 371.855 L 101.976 364.264 L 91.5 317.882 L 87.496 250.842 Z " fill="rgb(94,120,146)"/><path d=" M 98.359 555.931 L 108.742 555.931 L 113.682 515.882 L 98.357 515.883 L 98.359 555.931 L 98.359 555.931 Z " fill="rgb(255,182,182)"/><path d=" M 95.711 552.541 L 116.158 552.54 L 116.159 552.54 C 123.356 552.541 129.19 558.374 129.19 565.571 L 129.19 565.994 L 95.711 565.996 L 95.711 552.541 Z " fill="rgb(47,46,65)"/><path d=" M 128.639 552.254 L 138.945 553.517 L 148.723 514.368 L 133.513 512.503 L 128.639 552.254 L 128.639 552.254 Z " fill="rgb(255,182,182)"/><path d=" M 126.423 548.566 L 146.718 551.055 L 146.719 551.055 C 153.862 551.932 158.943 558.432 158.067 565.575 L 158.015 565.996 L 124.785 561.921 L 126.423 548.566 Z " fill="rgb(47,46,65)"/><path d=" M 92.977 350.595 C 92.977 350.595 72.976 364.264 82.976 401.264 L 96.5 544.882 L 112.567 544.768 L 119.372 473.902 L 123.997 424.012 L 139.451 475.603 L 126.74 538.907 L 145.5 540.882 L 167.976 467.264 L 157.137 362.45 L 92.977 350.595 Z " fill="rgb(47,46,65)"/><path d=" M 141.237 243.94 L 131.067 235.76 L 104.097 234.65 L 84.592 247.82 C 84.592 247.82 82.578 294.716 95.777 336.49 L 88.857 353.94 L 158.047 362.62 L 141.237 243.94 Z " fill="rgb(94,120,146)"/><circle vector-effect="non-scaling-stroke" cx="119.43162999999998" cy="201.47915" r="23.134019999999992" fill="rgb(255,182,182)"/><path d=" M 125.5 172.882 L 120.359 172.882 C 113.095 170.717 105.236 172.11 99.159 176.639 C 93.082 181.169 89.501 188.302 89.5 195.882 L 81.493 222.304 C 81.025 223.849 81.316 225.524 82.278 226.821 C 83.24 228.117 84.759 228.882 86.374 228.882 L 90.282 228.882 C 91.918 226.551 92.632 223.696 92.285 220.869 C 93.012 222.639 93.521 224.49 93.802 226.383 C 93.892 227.214 93.875 228.054 93.75 228.882 L 127.751 228.882 C 127.971 225.547 126.866 222.26 124.677 219.735 C 127.416 222.472 129.797 225.545 131.762 228.882 L 132.401 228.882 C 135.217 228.882 137.5 226.599 137.5 223.783 L 137.5 197.882 L 150.5 197.882 C 150.5 191.251 147.866 184.893 143.178 180.204 C 138.489 175.516 132.13 172.882 125.5 172.882 L 125.5 172.882 Z " fill="rgb(47,46,65)"/><path d=" M 151.243 384.691 C 149.577 383.021 148.736 380.7 148.946 378.35 C 149.156 376.001 150.396 373.865 152.332 372.518 L 144.67 345.251 L 158.69 349.728 L 163.817 374.934 C 165.911 378.413 165.072 382.908 161.864 385.397 C 158.656 387.886 154.093 387.583 151.243 384.691 L 151.243 384.691 Z " fill="rgb(255,182,182)"/><path d=" M 132.467 249.114 L 141.237 243.94 C 141.237 243.94 155.032 241.508 156.504 259.886 C 156.504 259.886 160.097 325.97 160.097 325.97 L 164.4 366.185 L 148.433 369.59 L 130.083 314.595 L 132.467 249.114 Z " fill="rgb(94,120,146)"/></g></svg>