<?xml version="1.0" encoding="UTF-8" standalone="no"?><!-- Generator: Gravit.io --><svg xmlns="http://www.w3.org/2000/svg" xmlns:xlink="http://www.w3.org/1999/xlink" style="isolation:isolate" viewBox="0 0 538.716 579.819" width="538.716pt" height="579.819pt"><defs><clipPath id="_clipPath_o2BfeZfV8nqWzb1MeZvxdEKSV1wwJZuX"><rect width="538.716" height="579.819"/></clipPath></defs><g clip-path="url(#_clipPath_o2BfeZfV8nqWzb1MeZvxdEKSV1wwJZuX)"><path d=" M 471.825 510.638 L 66.889 510.638 C 59.377 510.63 53.289 504.542 53.28 497.029 L 53.28 167.306 C 53.289 159.794 59.377 153.706 66.889 153.697 L 471.825 153.697 C 479.337 153.706 485.425 159.794 485.434 167.306 L 485.434 497.029 C 485.425 504.542 479.337 510.63 471.825 510.638 L 471.825 510.638 Z " fill="rgb(230,230,230)"/><path d=" M 432.48 501.459 L 76.071 501.459 C 68.558 501.45 62.47 495.362 62.462 487.85 L 62.462 176.493 C 62.47 168.981 68.558 162.893 76.071 162.884 L 462.645 162.884 C 470.158 162.893 476.245 168.981 476.254 176.493 L 476.254 457.685 C 476.227 481.849 456.645 501.432 432.48 501.459 L 432.48 501.459 Z " fill="rgb(255,255,255)"/><path d=" M 334.539 233.287 L 171.786 233.287 C 169.848 233.287 168.277 231.716 168.277 229.777 C 168.277 227.839 169.848 226.268 171.786 226.268 L 334.539 226.268 C 336.478 226.268 338.049 227.839 338.049 229.777 C 338.049 231.716 336.478 233.287 334.539 233.287 Z " fill="rgb(94,120,146)"/><path d=" M 416.928 270.734 L 171.786 270.734 C 169.848 270.734 168.277 269.163 168.277 267.224 C 168.277 265.286 169.848 263.715 171.786 263.715 L 416.928 263.715 C 418.866 263.715 420.438 265.286 420.438 267.224 C 420.438 269.163 418.866 270.734 416.928 270.734 L 416.928 270.734 Z " fill="rgb(230,230,230)"/><path d=" M 416.928 308.181 L 171.786 308.181 C 169.848 308.181 168.277 306.61 168.277 304.672 C 168.277 302.733 169.848 301.162 171.786 301.162 L 416.928 301.162 C 418.866 301.162 420.438 302.733 420.438 304.672 C 420.438 306.61 418.866 308.181 416.928 308.181 L 416.928 308.181 Z " fill="rgb(230,230,230)"/><path d=" M 416.928 345.628 L 171.786 345.628 C 169.848 345.628 168.277 344.057 168.277 342.119 C 168.277 340.18 169.848 338.609 171.786 338.609 L 416.928 338.609 C 418.866 338.609 420.438 340.18 420.438 342.119 C 420.438 344.057 418.866 345.628 416.928 345.628 L 416.928 345.628 Z " fill="rgb(230,230,230)"/><path d=" M 416.928 383.075 L 171.786 383.075 C 169.848 383.075 168.277 381.504 168.277 379.566 C 168.277 377.627 169.848 376.056 171.786 376.056 L 416.928 376.056 C 418.866 376.056 420.438 377.627 420.438 379.566 C 420.438 381.504 418.866 383.075 416.928 383.075 L 416.928 383.075 Z " fill="rgb(230,230,230)"/><path d=" M 405.904 442.749 C 396.089 442.749 388.132 434.793 388.132 424.978 C 388.132 415.162 396.089 407.206 405.904 407.206 C 415.719 407.206 423.676 415.162 423.676 424.978 L 423.676 424.978 C 423.676 434.793 415.719 442.749 405.904 442.749 Z " fill="rgb(255,153,0)"/><path d=" M 415.902 424.133 L 410.864 416.779 C 410.399 416.097 409.47 415.921 408.788 416.386 C 408.106 416.85 407.93 417.78 408.394 418.462 L 408.399 418.468 L 411.657 423.225 L 398.892 423.225 C 397.924 423.222 397.136 424.004 397.133 424.972 C 397.131 425.941 397.913 426.728 398.881 426.731 L 411.818 426.731 L 408.399 431.721 C 407.935 432.403 408.113 433.333 408.796 433.796 C 409.474 434.257 410.398 434.084 410.864 433.41 L 415.902 426.056 C 416.236 425.458 416.236 424.731 415.902 424.133 L 415.902 424.133 Z " fill="rgb(255,255,255)"/><path d=" M 502.004 105.073 L 36.711 105.073 C 35.714 105.052 34.922 104.226 34.943 103.228 C 34.964 102.26 35.744 101.48 36.711 101.46 L 502.004 101.46 C 503.002 101.481 503.794 102.307 503.772 103.305 C 503.752 104.273 502.972 105.052 502.004 105.073 Z " fill="rgb(202,202,202)"/><ellipse vector-effect="non-scaling-stroke" cx="54.94243941381994" cy="77.825455" rx="8.456609999999998" ry="8.645070000000004" fill="rgb(255,0,0)"/><ellipse vector-effect="non-scaling-stroke" cx="84.15619941381993" cy="77.825455" rx="8.456609999999998" ry="8.645070000000004" fill="rgb(255,153,0)"/><ellipse vector-effect="non-scaling-stroke" cx="113.36994941381991" cy="77.825455" rx="8.456609999999998" ry="8.645070000000004" fill="rgb(94,120,146)"/><path d=" M 146.681 84.658 C 146.422 84.658 146.162 84.558 145.967 84.357 L 140.26 78.524 C 139.88 78.136 139.88 77.515 140.26 77.126 L 145.967 71.293 C 146.354 70.899 146.988 70.893 147.381 71.278 C 147.776 71.664 147.782 72.297 147.396 72.692 L 142.374 77.825 L 147.396 82.959 C 147.782 83.354 147.776 83.987 147.381 84.373 C 147.186 84.564 146.934 84.658 146.681 84.658 Z " fill="rgb(202,202,202)"/><path d=" M 156.27 84.658 C 156.017 84.658 155.765 84.564 155.571 84.373 C 155.176 83.987 155.169 83.354 155.555 82.959 L 160.576 77.825 L 155.555 72.692 C 155.169 72.297 155.176 71.664 155.571 71.278 C 155.965 70.891 156.598 70.898 156.985 71.293 L 162.69 77.126 C 163.071 77.515 163.071 78.136 162.69 78.524 L 156.985 84.357 C 156.789 84.558 156.53 84.658 156.27 84.658 Z " fill="rgb(202,202,202)"/><path d=" M 454.78 70.181 L 444.17 70.181 C 442.96 70.181 441.98 71.161 441.98 72.371 L 441.98 82.991 C 441.98 84.201 442.96 85.181 444.17 85.181 L 454.78 85.181 C 455.99 85.181 456.98 84.201 456.98 82.991 L 456.98 72.371 C 456.98 71.161 455.99 70.181 454.78 70.181 Z " fill="rgb(202,202,202)"/><path d=" M 428.78 70.181 L 418.17 70.181 C 416.96 70.181 415.98 71.161 415.98 72.371 L 415.98 82.991 C 415.98 84.201 416.96 85.181 418.17 85.181 L 428.78 85.181 C 429.99 85.181 430.98 84.201 430.98 82.991 L 430.98 72.371 C 430.98 71.161 429.99 70.181 428.78 70.181 Z " fill="rgb(202,202,202)"/><path d=" M 479.28 70.681 L 468.67 70.681 C 467.46 70.681 466.48 71.661 466.48 72.871 L 466.48 83.491 C 466.48 84.701 467.46 85.681 468.67 85.681 L 479.28 85.681 C 480.49 85.681 481.48 84.701 481.48 83.491 L 481.48 72.871 C 481.48 71.661 480.49 70.681 479.28 70.681 Z " fill="rgb(202,202,202)"/><path d=" M 319.358 74.721 L 234.548 74.721 C 233.068 74.721 231.878 75.921 231.878 77.391 C 231.878 78.861 233.068 80.061 234.548 80.061 L 319.358 80.061 C 320.828 80.061 322.028 78.861 322.028 77.391 C 322.028 75.921 320.828 74.721 319.358 74.721 L 319.358 74.721 Z " fill="rgb(202,202,202)"/></g></svg>