<?xml version="1.0" encoding="UTF-8" standalone="no"?><!-- Generator: Gravit.io --><svg xmlns="http://www.w3.org/2000/svg" xmlns:xlink="http://www.w3.org/1999/xlink" style="isolation:isolate" viewBox="0 0 738.418 504.651" width="738.418pt" height="504.651pt"><defs><clipPath id="_clipPath_DJpWNYJrJv1uX4cnOKvrh6uTgMeBrTSW"><rect width="738.418" height="504.651"/></clipPath></defs><g clip-path="url(#_clipPath_DJpWNYJrJv1uX4cnOKvrh6uTgMeBrTSW)"><path d=" M 615.72 0 L 8.72 0 C 3.906 0.004 0.004 3.906 0 8.72 L 0 420.04 C 0.004 424.854 3.906 428.756 8.72 428.76 L 615.72 428.76 C 618.271 428.76 620.695 427.642 622.35 425.7 C 622.419 425.625 622.483 425.545 622.54 425.46 C 623.061 424.824 623.482 424.112 623.79 423.35 C 624.229 422.302 624.453 421.176 624.45 420.04 L 624.45 8.72 C 624.444 3.902 620.537 0 615.72 0 L 615.72 0 Z  M 621.96 420.04 C 621.961 421.257 621.603 422.446 620.93 423.46 C 620.332 424.352 619.521 425.081 618.57 425.58 C 617.689 426.035 616.711 426.272 615.72 426.27 L 8.72 426.27 C 5.281 426.266 2.494 423.479 2.49 420.04 L 2.49 8.72 C 2.494 5.281 5.281 2.494 8.72 2.49 L 615.72 2.49 C 619.162 2.49 621.955 5.277 621.96 8.72 L 621.96 420.04 Z " fill="rgb(63,61,86)"/><rect x="1.243" y="34.949" width="621.957" height="2.493" transform="matrix(1,0,0,1,0,0)" fill="rgb(63,61,86)"/><circle vector-effect="non-scaling-stroke" cx="22.43155" cy="18.6961" r="7.478439999999999" fill="rgb(255,0,0)"/><circle vector-effect="non-scaling-stroke" cx="43.93206" cy="18.6961" r="7.478439999999999" fill="rgb(255,153,0)"/><circle vector-effect="non-scaling-stroke" cx="65.43257" cy="18.6961" r="7.478440000000003" fill="rgb(94,120,146)"/><path d=" M 402.812 175.361 C 391.67 175.361 382.638 166.328 382.638 155.186 C 382.638 144.045 391.67 135.012 402.812 135.012 C 413.954 135.012 422.986 144.045 422.986 155.186 C 422.974 166.323 413.949 175.348 402.812 175.361 L 402.812 175.361 Z  M 402.812 136.924 C 392.726 136.924 384.55 145.1 384.55 155.186 C 384.55 165.272 392.726 173.449 402.812 173.449 C 412.898 173.449 421.074 165.272 421.074 155.186 C 421.063 145.105 412.893 136.936 402.812 136.924 L 402.812 136.924 Z " fill="rgb(230,230,230)"/><path d=" M 400.908 162.518 C 400.475 162.518 400.054 162.378 399.709 162.119 L 399.687 162.103 L 395.171 158.648 C 394.291 157.974 394.124 156.714 394.799 155.834 C 395.473 154.954 396.733 154.788 397.613 155.462 L 400.538 157.706 L 407.451 148.687 C 407.775 148.265 408.253 147.988 408.781 147.918 C 409.308 147.849 409.842 147.992 410.264 148.315 L 410.265 148.316 L 410.222 148.375 L 410.266 148.316 C 411.144 148.991 411.31 150.249 410.637 151.129 L 402.506 161.732 C 402.125 162.228 401.534 162.517 400.909 162.515 L 400.908 162.518 Z " fill="rgb(230,230,230)"/><path d=" M 460.537 175.361 C 449.395 175.361 440.363 166.328 440.363 155.186 C 440.363 144.045 449.395 135.012 460.537 135.012 C 471.679 135.012 480.711 144.045 480.711 155.186 C 480.699 166.323 471.674 175.348 460.537 175.361 L 460.537 175.361 Z  M 460.537 136.924 C 450.451 136.924 442.275 145.1 442.275 155.186 C 442.275 165.272 450.451 173.449 460.537 173.449 C 470.623 173.449 478.799 165.272 478.799 155.186 C 478.788 145.105 470.618 136.935 460.537 136.924 L 460.537 136.924 Z " fill="rgb(94,120,146)"/><path d=" M 467.799 162.167 C 467.294 162.67 466.477 162.67 465.973 162.167 L 461.132 157.326 C 460.907 157.101 460.543 157.101 460.318 157.326 L 455.477 162.167 C 454.972 162.671 454.155 162.671 453.65 162.167 C 453.146 161.662 453.146 160.845 453.65 160.34 L 458.491 155.499 C 458.716 155.274 458.716 154.91 458.492 154.686 L 453.65 149.844 C 453.146 149.34 453.146 148.523 453.65 148.018 C 454.155 147.514 454.972 147.514 455.476 148.018 L 460.318 152.86 C 460.542 153.084 460.906 153.084 461.131 152.86 L 465.972 148.019 C 466.477 147.514 467.294 147.514 467.799 148.019 C 468.303 148.523 468.303 149.341 467.799 149.845 L 462.958 154.686 C 462.733 154.911 462.733 155.275 462.958 155.5 L 467.799 160.341 C 468.302 160.845 468.302 161.662 467.799 162.167 L 467.799 162.167 Z " fill="rgb(94,120,146)"/><path d=" M 402.812 239.41 C 391.67 239.41 382.638 230.378 382.638 219.236 C 382.638 208.094 391.67 199.062 402.812 199.062 C 413.954 199.062 422.986 208.094 422.986 219.236 C 422.974 230.373 413.949 239.398 402.812 239.41 L 402.812 239.41 Z  M 402.812 200.974 C 392.726 200.974 384.55 209.15 384.55 219.236 C 384.55 229.322 392.726 237.498 402.812 237.498 C 412.898 237.498 421.074 229.322 421.074 219.236 C 421.063 209.155 412.893 200.985 402.812 200.974 L 402.812 200.974 Z " fill="rgb(255,153,0)"/><path d=" M 400.908 226.567 C 400.475 226.568 400.054 226.428 399.709 226.169 L 399.687 226.153 L 395.171 222.698 C 394.291 222.023 394.124 220.763 394.799 219.884 C 395.473 219.004 396.733 218.837 397.613 219.512 L 400.538 221.755 L 407.451 212.736 C 407.775 212.314 408.253 212.038 408.781 211.968 C 409.308 211.898 409.842 212.041 410.264 212.365 L 410.265 212.365 L 410.222 212.425 L 410.266 212.365 C 411.144 213.04 411.31 214.299 410.637 215.179 L 402.506 225.782 C 402.125 226.277 401.534 226.567 400.909 226.565 L 400.908 226.567 Z " fill="rgb(255,153,0)"/><path d=" M 460.537 239.41 C 449.395 239.41 440.363 230.378 440.363 219.236 C 440.363 208.094 449.395 199.062 460.537 199.062 C 471.679 199.062 480.711 208.094 480.711 219.236 C 480.699 230.373 471.674 239.398 460.537 239.41 L 460.537 239.41 Z  M 460.537 200.974 C 450.451 200.974 442.275 209.15 442.275 219.236 C 442.275 229.322 450.451 237.498 460.537 237.498 C 470.623 237.498 478.799 229.322 478.799 219.236 C 478.788 209.155 470.618 200.985 460.537 200.974 L 460.537 200.974 Z " fill="rgb(230,230,230)"/><path d=" M 467.799 226.216 C 467.294 226.72 466.477 226.72 465.973 226.216 L 461.132 221.375 C 460.907 221.151 460.543 221.151 460.318 221.375 L 455.477 226.216 C 454.972 226.721 454.155 226.721 453.65 226.216 C 453.146 225.712 453.146 224.894 453.65 224.39 L 458.491 219.549 C 458.716 219.324 458.716 218.96 458.492 218.735 L 453.65 213.894 C 453.146 213.39 453.146 212.572 453.65 212.068 C 454.155 211.564 454.972 211.564 455.476 212.068 L 460.318 216.909 C 460.542 217.134 460.906 217.134 461.131 216.909 L 465.972 212.068 C 466.477 211.564 467.294 211.564 467.799 212.068 C 468.303 212.572 468.303 213.39 467.799 213.894 L 462.958 218.735 C 462.733 218.96 462.733 219.324 462.958 219.549 L 467.799 224.39 C 468.302 224.895 468.302 225.712 467.799 226.216 Z " fill="rgb(230,230,230)"/><path d=" M 402.812 303.46 C 391.67 303.46 382.638 294.428 382.638 283.286 C 382.638 272.144 391.67 263.111 402.812 263.111 C 413.954 263.111 422.986 272.144 422.986 283.286 C 422.974 294.422 413.949 303.447 402.812 303.46 L 402.812 303.46 Z  M 402.812 265.023 C 392.726 265.023 384.55 273.2 384.55 283.286 C 384.55 293.372 392.726 301.548 402.812 301.548 C 412.898 301.548 421.074 293.372 421.074 283.286 C 421.063 273.204 412.893 265.035 402.812 265.023 L 402.812 265.023 Z " fill="rgb(230,230,230)"/><path d=" M 400.908 290.617 C 400.475 290.618 400.054 290.478 399.709 290.218 L 399.687 290.202 L 395.171 286.747 C 394.291 286.073 394.124 284.813 394.799 283.933 C 395.473 283.053 396.733 282.887 397.613 283.561 L 400.538 285.805 L 407.451 276.786 C 407.775 276.364 408.253 276.087 408.781 276.018 C 409.308 275.948 409.842 276.091 410.264 276.415 L 410.265 276.415 L 410.222 276.475 L 410.266 276.415 C 411.144 277.09 411.31 278.349 410.637 279.228 L 402.506 289.832 C 402.125 290.327 401.534 290.616 400.909 290.614 L 400.908 290.617 Z " fill="rgb(230,230,230)"/><path d=" M 460.537 303.46 C 449.395 303.46 440.363 294.428 440.363 283.286 C 440.363 272.144 449.395 263.111 460.537 263.111 C 471.679 263.111 480.711 272.144 480.711 283.286 C 480.699 294.422 471.674 303.447 460.537 303.46 L 460.537 303.46 Z  M 460.537 265.023 C 450.451 265.023 442.275 273.2 442.275 283.286 C 442.275 293.372 450.451 301.548 460.537 301.548 C 470.623 301.548 478.799 293.372 478.799 283.286 C 478.788 273.204 470.618 265.035 460.537 265.023 L 460.537 265.023 Z " fill="rgb(230,230,230)"/><path d=" M 467.799 290.266 C 467.294 290.769 466.477 290.769 465.973 290.266 L 461.132 285.425 C 460.907 285.201 460.543 285.2 460.318 285.425 L 455.477 290.266 C 454.972 290.77 454.155 290.77 453.65 290.266 C 453.146 289.761 453.146 288.944 453.65 288.439 L 458.491 283.598 C 458.716 283.374 458.716 283.01 458.492 282.785 L 453.65 277.944 C 453.146 277.439 453.146 276.622 453.65 276.118 C 454.155 275.613 454.972 275.613 455.476 276.118 L 460.318 280.959 C 460.542 281.183 460.906 281.183 461.131 280.959 L 465.972 276.118 C 466.477 275.615 467.293 275.616 467.797 276.12 C 468.3 276.623 468.301 277.439 467.799 277.944 L 462.958 282.785 C 462.733 283.01 462.733 283.374 462.958 283.599 L 467.799 288.44 C 468.302 288.944 468.302 289.761 467.799 290.266 L 467.799 290.266 Z " fill="rgb(230,230,230)"/><path d=" M 410.659 231.442 C 413.206 232.981 416.304 233.314 419.119 232.35 C 421.935 231.386 424.178 229.225 425.247 226.447 L 460.962 227.636 L 451.26 211.802 L 418.832 213.101 C 413.94 211.581 408.684 213.962 406.599 218.641 C 404.514 223.32 406.258 228.82 410.659 231.442 L 410.659 231.442 Z " fill="rgb(255,184,184)"/><path d=" M 612.033 308.802 C 613.995 306.564 614.865 303.572 614.409 300.631 C 613.953 297.691 612.218 295.103 609.67 293.564 L 617.095 258.609 L 599.807 265.388 L 595.407 297.543 C 593.054 302.093 594.477 307.684 598.719 310.557 C 602.961 313.429 608.68 312.675 612.033 308.802 L 612.033 308.802 Z " fill="rgb(255,184,184)"/><path d=" M 528.369 490.974 L 516.109 490.973 L 510.277 443.685 L 528.371 443.686 L 528.369 490.974 L 528.369 490.974 Z " fill="rgb(255,184,184)"/><path d=" M 531.495 502.858 L 491.965 502.857 L 491.965 502.357 C 491.965 498.276 493.586 494.362 496.471 491.477 C 499.357 488.591 503.27 486.97 507.351 486.97 L 507.352 486.97 L 531.496 486.971 L 531.495 502.858 Z " fill="rgb(47,46,65)"/><path d=" M 588.369 490.974 L 576.109 490.973 L 570.277 443.685 L 588.371 443.686 L 588.369 490.974 L 588.369 490.974 Z " fill="rgb(255,184,184)"/><path d=" M 591.495 502.858 L 551.965 502.857 L 551.965 502.357 C 551.965 498.276 553.586 494.362 556.471 491.477 C 559.357 488.591 563.27 486.97 567.351 486.97 L 567.352 486.97 L 591.496 486.971 L 591.495 502.858 Z " fill="rgb(47,46,65)"/><path d=" M 529.646 466.282 L 512.291 465.587 C 509.828 465.481 507.906 463.418 507.973 460.954 L 512.863 300.575 L 513.182 300.459 C 543.598 289.456 568.76 290.289 590.108 302.999 L 590.347 303.142 L 593.276 459.344 C 593.299 460.552 592.835 461.719 591.989 462.581 C 591.142 463.443 589.985 463.929 588.777 463.929 L 574.143 463.929 C 571.993 463.925 570.145 462.405 569.727 460.297 L 549.792 358.888 C 549.65 358.164 549.002 357.651 548.265 357.678 C 547.527 357.705 546.919 358.265 546.831 358.997 L 534.293 462.328 C 534.008 464.581 532.095 466.274 529.824 466.285 C 529.765 466.285 529.705 466.284 529.646 466.282 Z " fill="rgb(47,46,65)"/><circle vector-effect="non-scaling-stroke" cx="546.52944" cy="135.36613" r="24.56102999999996" fill="rgb(255,184,184)"/><path d=" M 431.063 225.638 C 430.789 224.764 430.789 223.827 431.061 222.952 L 433.606 214.799 C 434.175 212.992 435.811 211.732 437.703 211.644 L 469.926 210.22 L 522.204 183.421 C 527.142 181.844 532.547 183.023 536.379 186.515 C 540.211 190.006 541.887 195.277 540.775 200.341 C 539.662 205.404 535.931 209.488 530.989 211.052 L 498.951 229.634 C 489.228 235.276 477.787 237.194 466.756 235.031 L 434.492 228.709 C 433.237 228.463 432.147 227.695 431.492 226.597 C 431.311 226.295 431.167 225.973 431.063 225.638 L 431.063 225.638 Z " fill="rgb(204,204,204)"/><path d=" M 610.984 286.171 C 610.122 286.482 609.186 286.522 608.301 286.287 L 600.047 284.092 C 598.217 283.601 596.889 282.02 596.72 280.133 L 593.924 248 L 564.922 196.911 C 563.136 192.045 564.085 186.596 567.409 182.619 C 570.734 178.642 575.929 176.743 581.035 177.638 C 586.14 178.534 590.379 182.086 592.153 186.957 L 612.084 218.174 C 618.135 227.648 620.538 238.997 618.847 250.11 L 613.907 282.614 C 613.714 283.878 612.993 285.001 611.924 285.702 C 611.63 285.895 611.315 286.052 610.984 286.171 Z " fill="rgb(204,204,204)"/><path d=" M 519.665 178.983 C 528.21 169.613 540.545 164.625 553.202 165.424 Q 553.818 165.462 554.429 165.51 L 554.429 165.51 C 566.411 166.457 577.402 172.524 584.589 182.156 C 591.896 191.924 594.639 204.367 592.114 216.301 C 587.352 238.845 588.557 262.241 595.611 284.177 L 602.199 304.636 C 602.628 305.964 602.415 307.417 601.623 308.566 C 600.832 309.716 599.551 310.433 598.157 310.508 L 564.472 312.319 L 555.852 297.429 L 555.852 312.782 L 514.911 314.983 C 514.83 314.988 514.749 314.99 514.668 314.99 C 513.412 314.99 512.213 314.464 511.362 313.541 C 510.51 312.618 510.083 311.381 510.184 310.129 L 514.812 252.747 L 509.007 213.774 C 507.105 201.162 511.024 188.366 519.665 178.983 Z " fill="rgb(204,204,204)"/><path d=" M 563.599 158.813 C 561.325 160.122 552.337 160.989 551.697 158.445 L 551.683 158.389 C 551.237 156.525 551.607 154.578 551.735 152.666 C 551.863 150.753 551.676 148.653 550.373 147.247 C 547.945 144.625 543.626 146.015 540.115 145.352 C 535.86 144.402 532.974 140.44 533.375 136.099 C 533.425 135.702 533.503 135.304 533.591 134.906 C 534.036 132.863 533.498 130.73 532.138 129.143 C 530.777 127.555 528.751 126.697 526.664 126.825 C 523.116 127.028 519.286 128.103 516.351 125.475 C 514.081 123.442 513.527 118.152 514.524 115.273 C 516.201 110.435 526.938 107.902 531.626 106.51 C 543.368 103.117 556.014 105.192 566.057 112.159 C 569.018 114.246 571.783 116.869 573.045 120.265 C 574.307 123.661 573.698 127.945 570.853 130.187 C 575.342 134.94 576.96 141.725 575.099 147.993 C 573.693 152.523 566.984 156.865 563.599 158.813 Z " fill="rgb(47,46,65)"/><path d=" M 224.622 160.073 L 67.361 160.073 C 63.14 160.068 59.722 156.646 59.722 152.425 C 59.722 148.205 63.14 144.782 67.361 144.778 L 224.622 144.778 C 228.842 144.782 232.261 148.205 232.261 152.425 C 232.261 156.646 228.842 160.068 224.622 160.073 L 224.622 160.073 Z " fill="rgb(94,120,146)"/><path d=" M 321.713 166.595 L 51.713 166.595 C 51.161 166.595 50.713 166.147 50.713 165.595 C 50.713 165.043 51.161 164.595 51.713 164.595 L 321.713 164.595 C 322.265 164.595 322.713 165.043 322.713 165.595 C 322.713 166.147 322.265 166.595 321.713 166.595 Z " fill="rgb(63,61,86)"/><path d=" M 224.622 224.123 L 67.361 224.123 C 63.137 224.123 59.713 220.699 59.713 216.475 C 59.713 212.251 63.137 208.827 67.361 208.827 L 224.622 208.827 C 228.842 208.832 232.261 212.255 232.261 216.475 C 232.261 220.695 228.842 224.118 224.622 224.123 L 224.622 224.123 Z " fill="rgb(255,153,0)"/><path d=" M 321.713 230.645 L 51.713 230.645 C 51.161 230.645 50.713 230.197 50.713 229.645 C 50.713 229.093 51.161 228.645 51.713 228.645 L 321.713 228.645 C 322.265 228.645 322.713 229.093 322.713 229.645 C 322.713 230.197 322.265 230.645 321.713 230.645 Z " fill="rgb(63,61,86)"/><path d=" M 224.622 288.172 L 67.361 288.172 C 63.137 288.172 59.713 284.748 59.713 280.525 C 59.713 276.301 63.137 272.877 67.361 272.877 L 224.622 272.877 C 228.842 272.882 232.261 276.304 232.261 280.525 C 232.261 284.745 228.842 288.167 224.622 288.172 L 224.622 288.172 Z " fill="rgb(242,242,242)"/><path d=" M 321.713 294.694 L 51.713 294.694 C 51.161 294.694 50.713 294.247 50.713 293.694 C 50.713 293.142 51.161 292.694 51.713 292.694 L 321.713 292.694 C 322.265 292.694 322.713 293.142 322.713 293.694 C 322.713 294.247 322.265 294.694 321.713 294.694 Z " fill="rgb(63,61,86)"/></g></svg>