<?xml version="1.0" encoding="UTF-8" standalone="no"?><!-- Generator: Gravit.io --><svg xmlns="http://www.w3.org/2000/svg" xmlns:xlink="http://www.w3.org/1999/xlink" style="isolation:isolate" viewBox="0 0 522.708 519.891" width="522.708pt" height="519.891pt"><defs><clipPath id="_clipPath_DKxUPdOwcvpF5onyUxnYJJfxRlRlLtQd"><rect width="522.708" height="519.891"/></clipPath></defs><g clip-path="url(#_clipPath_DKxUPdOwcvpF5onyUxnYJJfxRlRlLtQd)"><path d=" M 420.925 516.891 L 101.782 516.891 C 86.033 516.873 73.269 504.11 73.251 488.36 L 73.251 25.531 C 73.269 9.781 86.033 -2.982 101.782 -3 L 420.925 -3 C 436.675 -2.982 449.438 9.781 449.456 25.531 L 449.456 488.36 C 449.438 504.11 436.675 516.873 420.925 516.891 L 420.925 516.891 Z " fill="rgb(63,61,86)"/><path d=" M 421.487 498.687 L 101.221 498.687 C 96.366 498.682 92.431 494.747 92.426 489.892 L 92.426 23.998 C 92.431 19.143 96.366 15.209 101.221 15.203 L 421.487 15.203 C 426.342 15.209 430.276 19.143 430.282 23.998 L 430.282 489.892 C 430.276 494.747 426.342 498.682 421.487 498.687 L 421.487 498.687 Z " fill="rgb(255,255,255)"/><path d=" M 262.205 9.114 C 261.355 8.078 261.506 6.548 262.541 5.698 C 263.576 4.847 265.107 4.998 265.957 6.033 C 266.807 7.068 266.657 8.599 265.622 9.449 C 264.586 10.299 263.056 10.149 262.205 9.114 Z " fill="rgb(255,255,255)"/><path d=" M 394.469 245.065 L 261.654 151.698 L 127.483 244.195 L 259.653 300.007 L 394.469 245.065 L 394.469 245.065 Z " fill="rgb(255,255,255)"/><path d=" M 127.995 244.109 L 128.091 244.109 L 182.944 267.532 L 257.995 299.579 C 258.587 299.828 259.254 299.832 259.849 299.589 L 337.279 267.465 L 393.48 244.148 L 393.566 244.109 L 393.662 244.109 C 395.508 244.111 397.004 245.608 397.006 247.454 L 397.006 392.711 C 397.004 394.557 395.508 396.053 393.662 396.055 L 127.995 396.055 C 126.149 396.053 124.653 394.557 124.651 392.711 L 124.651 247.454 C 124.653 245.608 126.149 244.111 127.995 244.109 L 127.995 244.109 Z " fill="rgb(255,255,255)"/><path d=" M 127.757 245.065 C 127.854 245.065 127.95 245.035 128.03 244.979 L 260.174 152.95 C 260.998 152.379 262.09 152.381 262.911 152.955 L 394.104 244.978 C 394.32 245.129 394.617 245.077 394.769 244.861 C 394.92 244.645 394.868 244.348 394.653 244.196 L 263.46 152.172 C 262.31 151.369 260.781 151.367 259.628 152.166 L 127.483 244.195 C 127.312 244.314 127.238 244.531 127.301 244.73 C 127.363 244.93 127.548 245.065 127.757 245.065 L 127.757 245.065 Z " fill="rgb(63,61,86)"/><path d=" M 386.607 248.327 L 261.413 155.543 L 135.27 254.929 L 254.963 325.885 L 319.946 311.073 L 386.607 248.327 L 386.607 248.327 Z " fill="rgb(230,230,230)"/><path d=" M 314.461 369.711 L 376.31 369.711 C 377.904 369.712 379.198 368.421 379.2 366.826 C 379.203 365.232 377.913 363.936 376.318 363.932 L 314.461 363.932 C 312.866 363.932 311.573 365.223 311.57 366.818 C 311.568 368.412 312.858 369.707 314.452 369.711 L 314.461 369.711 Z " fill="rgb(255,153,0)"/><path d=" M 354.12 357.288 L 376.31 357.288 C 377.904 357.289 379.198 355.997 379.2 354.403 C 379.203 352.808 377.913 351.513 376.318 351.509 L 354.12 351.509 C 352.525 351.509 351.232 352.8 351.229 354.394 C 351.227 355.989 352.517 357.284 354.111 357.288 L 354.12 357.288 Z " fill="rgb(255,153,0)"/><path d=" M 259.653 300.007 C 260.123 300.007 260.589 299.916 261.024 299.738 L 338.235 267.701 L 338.235 167.42 C 338.233 165.573 336.737 164.077 334.89 164.075 L 186.767 164.075 C 184.92 164.077 183.424 165.573 183.422 167.42 L 183.422 267.771 L 183.567 267.833 L 258.241 299.722 C 258.688 299.91 259.168 300.007 259.653 300.007 Z " fill="rgb(255,255,255)"/><path d=" M 258.147 299.942 L 183.183 267.929 L 183.183 167.42 C 183.185 165.441 184.789 163.838 186.767 163.836 L 334.89 163.836 C 336.869 163.838 338.472 165.441 338.474 167.42 L 338.474 267.861 L 261.115 299.959 C 260.162 300.347 259.095 300.34 258.147 299.942 L 258.147 299.942 Z  M 337.518 167.42 C 337.517 165.969 336.341 164.793 334.89 164.792 L 186.767 164.792 C 185.316 164.793 184.141 165.969 184.139 167.42 L 184.139 267.298 L 258.52 299.062 C 259.233 299.362 260.035 299.366 260.751 299.076 L 337.518 267.222 L 337.518 167.42 Z " fill="rgb(63,61,86)"/><path d=" M 125.367 247.454 L 125.367 392.711 C 125.369 394.557 126.866 396.053 128.712 396.055 L 394.379 396.055 C 396.225 396.053 397.721 394.557 397.723 392.711 L 397.723 247.454 C 397.721 245.608 396.225 244.111 394.379 244.109 L 394.283 244.109 L 394.197 244.148 L 337.996 267.465 L 260.566 299.589 C 259.971 299.832 259.304 299.828 258.712 299.579 L 183.661 267.532 L 128.808 244.109 L 128.712 244.109 C 126.866 244.111 125.369 245.608 125.367 247.454 Z  M 126.323 247.454 C 126.326 246.173 127.336 245.12 128.616 245.065 L 183.661 268.569 L 258.334 300.458 C 259.165 300.807 260.099 300.812 260.934 300.473 L 337.996 268.497 L 394.469 245.065 C 395.752 245.116 396.766 246.17 396.768 247.454 L 396.768 392.711 C 396.767 394.03 395.698 395.099 394.379 395.1 L 128.712 395.1 C 127.393 395.099 126.324 394.03 126.323 392.711 L 126.323 247.454 Z " fill="rgb(63,61,86)"/><path d=" M 199.734 201.56 L 252.294 201.56 C 254.405 201.56 256.116 199.849 256.116 197.738 C 256.116 195.627 254.405 193.915 252.294 193.915 L 199.734 193.915 C 197.623 193.915 195.911 195.627 195.911 197.738 C 195.911 199.849 197.623 201.56 199.734 201.56 Z " fill="rgb(255,153,0)"/><path d=" M 199.765 185.315 L 225.09 185.315 C 227.201 185.315 228.912 183.603 228.912 181.492 C 228.912 179.381 227.201 177.67 225.09 177.67 L 199.765 177.67 C 197.654 177.67 195.943 179.381 195.943 181.492 C 195.943 183.603 197.654 185.315 199.765 185.315 Z " fill="rgb(255,153,0)"/><path d=" M 221.518 239.786 L 301.791 239.786 C 303.902 239.786 305.614 238.074 305.614 235.963 C 305.614 233.852 303.902 232.141 301.791 232.141 L 221.518 232.141 C 219.407 232.141 217.695 233.852 217.695 235.963 C 217.695 238.074 219.407 239.786 221.518 239.786 Z " fill="rgb(204,204,204)"/><path d=" M 221.518 257.465 L 301.791 257.465 C 303.902 257.465 305.614 255.754 305.614 253.642 C 305.614 251.531 303.902 249.82 301.791 249.82 L 221.518 249.82 C 219.407 249.82 217.695 251.531 217.695 253.642 C 217.695 255.754 219.407 257.465 221.518 257.465 Z " fill="rgb(204,204,204)"/><g opacity="0.15"><path d=" M 315.622 192.388 C 315.683 192.381 321.749 191.625 324.339 187.183 C 326.083 184.19 325.908 180.159 323.817 175.204 L 325.436 174.522 C 327.755 180.02 327.894 184.581 325.849 188.079 C 322.807 193.281 316.106 194.1 315.822 194.133 L 315.622 192.388 Z " fill="rgb(0,0,0)"/></g></g></svg>