<?xml version="1.0" encoding="UTF-8" standalone="no"?><!-- Generator: Gravit.io --><svg xmlns="http://www.w3.org/2000/svg" xmlns:xlink="http://www.w3.org/1999/xlink" style="isolation:isolate" viewBox="0 0 843.317 590.961" width="843.317pt" height="590.961pt"><defs><clipPath id="_clipPath_xUGvyOzN62IBfFrW3jCYndZ88Yi9d6nY"><rect width="843.317" height="590.961"/></clipPath></defs><g clip-path="url(#_clipPath_xUGvyOzN62IBfFrW3jCYndZ88Yi9d6nY)"><path d=" M 119.57 505.735 C 112.008 503.899 106.889 496.855 107.479 489.096 C 107.539 488.336 108.723 488.394 108.663 489.155 C 108.1 496.382 112.887 502.941 119.941 504.61 C 120.683 504.786 120.307 505.91 119.57 505.735 Z " fill="rgb(255,255,255)"/><path d=" M 704.686 393.168 L 563.686 393.168 L 563.686 391.168 L 702.686 391.168 L 702.686 298.168 L 704.686 298.168 L 704.686 393.168 L 704.686 393.168 Z " fill="rgb(228,228,228)"/><path d=" M 247.686 432.168 L 245.686 432.168 L 245.686 337.168 L 386.686 337.168 L 386.686 339.168 L 247.686 339.168 L 247.686 432.168 L 247.686 432.168 Z " fill="rgb(228,228,228)"/><path d=" M 453.686 220.168 L 312.686 220.168 L 312.686 125.168 L 314.686 125.168 L 314.686 218.168 L 453.686 218.168 L 453.686 220.168 L 453.686 220.168 Z " fill="rgb(228,228,228)"/><path d=" M 284.629 85.207 C 283.055 85.21 281.78 86.488 281.78 88.062 C 281.78 89.637 283.055 90.915 284.629 90.918 L 342.548 90.918 C 344.123 90.915 345.398 89.637 345.398 88.062 C 345.398 86.488 344.123 85.21 342.548 85.207 L 284.629 85.207 Z " fill="rgb(94,120,146)"/><path d=" M 284.629 102.029 C 283.053 102.029 281.774 103.307 281.774 104.884 C 281.774 106.461 283.053 107.739 284.629 107.739 L 342.548 107.739 C 344.123 107.736 345.398 106.459 345.398 104.884 C 345.398 103.309 344.123 102.032 342.548 102.029 L 284.629 102.029 Z " fill="rgb(94,120,146)"/><path d=" M 733.034 285.381 C 734.609 285.378 735.884 284.101 735.884 282.526 C 735.884 280.951 734.609 279.674 733.034 279.671 L 675.109 279.671 C 674.088 279.669 673.144 280.213 672.632 281.097 C 672.121 281.981 672.121 283.071 672.632 283.955 C 673.144 284.839 674.088 285.383 675.109 285.381 L 733.034 285.381 Z " fill="rgb(94,120,146)"/><path d=" M 733.034 268.558 C 734.609 268.555 735.884 267.277 735.884 265.702 C 735.884 264.128 734.609 262.85 733.034 262.847 L 675.109 262.847 C 674.088 262.845 673.144 263.389 672.632 264.273 C 672.121 265.157 672.121 266.247 672.632 267.131 C 673.144 268.016 674.088 268.559 675.109 268.558 L 733.034 268.558 Z " fill="rgb(94,120,146)"/><path d=" M 487.687 421.168 C 428.592 421.168 380.687 373.262 380.687 314.168 C 380.687 255.073 428.592 207.168 487.687 207.168 C 546.781 207.168 594.687 255.073 594.687 314.168 C 594.62 373.234 546.753 421.101 487.687 421.168 L 487.687 421.168 Z  M 487.687 209.168 C 429.697 209.168 382.687 256.178 382.687 314.168 C 382.687 372.158 429.697 419.168 487.687 419.168 C 545.677 419.168 592.687 372.158 592.687 314.168 C 592.621 256.205 545.649 209.233 487.687 209.168 L 487.687 209.168 Z " fill="rgb(228,228,228)"/><circle vector-effect="non-scaling-stroke" cx="444.6866472293494" cy="220.16769341420166" r="12" fill="rgb(255,153,0)"/><circle vector-effect="non-scaling-stroke" cx="383.68664722934943" cy="339.16769341420166" r="12" fill="rgb(255,153,0)"/><circle vector-effect="non-scaling-stroke" cx="559.6866472293494" cy="393.16769341420166" r="12" fill="rgb(255,153,0)"/><path d=" M 217.339 444.954 C 215.762 444.954 214.484 446.233 214.484 447.81 C 214.484 449.386 215.762 450.665 217.339 450.665 L 275.264 450.665 C 276.839 450.662 278.114 449.384 278.114 447.81 C 278.114 446.235 276.839 444.957 275.264 444.954 L 217.339 444.954 Z " fill="rgb(94,120,146)"/><path d=" M 217.339 461.778 C 216.318 461.776 215.373 462.32 214.862 463.204 C 214.351 464.088 214.351 465.178 214.862 466.062 C 215.373 466.946 216.318 467.49 217.339 467.488 L 275.264 467.488 C 276.839 467.485 278.114 466.208 278.114 464.633 C 278.114 463.058 276.839 461.781 275.264 461.778 L 217.339 461.778 Z " fill="rgb(94,120,146)"/></g></svg>