<?xml version="1.0" encoding="UTF-8" standalone="no"?><!-- Generator: Gravit.io --><svg xmlns="http://www.w3.org/2000/svg" xmlns:xlink="http://www.w3.org/1999/xlink" style="isolation:isolate" viewBox="0 0 717.67 596.329" width="717.67pt" height="596.329pt"><defs><clipPath id="_clipPath_aVz9ifTCegi9lTm7a2Cy7H9H45sdJvL1"><rect width="717.67" height="596.329"/></clipPath></defs><g clip-path="url(#_clipPath_aVz9ifTCegi9lTm7a2Cy7H9H45sdJvL1)"><path d="M 265.578 2 L 474.122 2 C 506.535 2 532.85 28.315 532.85 60.728 L 532.85 537.272 C 532.85 569.685 506.535 596 474.122 596 L 265.578 596 C 233.165 596 206.85 569.685 206.85 537.272 L 206.85 60.728 C 206.85 28.315 233.165 2 265.578 2 Z" style="stroke:none;fill:#3F3D56;stroke-miterlimit:10;"/><path d=" M 527.355 60.732 L 527.355 537.272 C 527.321 566.656 503.509 590.468 474.125 590.502 L 265.585 590.502 C 236.201 590.468 212.389 566.656 212.355 537.272 L 212.355 60.732 C 212.389 31.348 236.201 7.536 265.585 7.502 L 292.855 7.502 L 292.855 16.922 C 292.856 25.803 300.055 33.002 308.935 33.002 L 430.775 33.002 C 439.656 33.002 446.855 25.803 446.855 16.922 L 446.855 7.502 L 474.125 7.502 C 503.509 7.536 527.321 31.348 527.355 60.732 L 527.355 60.732 Z " fill="rgb(255,255,255)"/><path d=" M 438.135 264.123 C 426.046 258.673 412.57 271.01 421.538 282.554 C 391.241 310.15 346.254 319.861 307.088 308.317 C 306.122 310.646 305.106 312.95 304.066 315.254 C 288.502 349.722 266.208 380.734 238.493 406.466 C 274.983 376.12 319.945 401.76 358.615 411.743 C 363.993 412.663 368.316 416.678 369.632 421.973 C 370.948 427.267 369.006 432.839 364.685 436.169 C 359.759 434.345 354.664 433.017 349.474 432.205 C 344.457 431.443 339.504 433.925 337.11 438.4 C 334.717 442.875 335.403 448.372 338.822 452.122 C 298.319 471.544 247.931 464.385 213.175 436.491 L 213.175 419.918 C 249.964 391.67 279.308 354.877 298.666 312.727 C 305.47 297.923 310.974 282.556 315.115 266.798 C 319.64 249.564 322.428 231.921 323.438 214.132 C 316.774 194.487 317.889 171.424 328.987 153.587 C 333.57 161.911 346.774 164.066 348.161 152.522 C 348.458 147.865 348.681 143.208 348.954 138.575 C 398.722 134.735 390.225 204.421 329.334 215.321 C 328.147 233.22 325.243 250.965 320.664 268.309 C 320.243 270.044 319.772 271.753 319.276 273.462 C 330.404 258.259 344.982 245.914 361.811 237.443 C 377.888 229.912 396.617 228.302 414.478 225.403 C 436.203 221.861 451.587 246.683 438.135 264.123 Z " fill="rgb(242,242,242)"/><path d=" M 205.355 122.5 C 203.147 122.497 201.357 120.708 201.355 118.5 L 201.355 110.5 C 201.355 108.291 203.146 106.5 205.355 106.5 C 207.564 106.5 209.355 108.291 209.355 110.5 L 209.355 118.5 C 209.352 120.708 207.563 122.497 205.355 122.5 Z " fill="rgb(63,61,86)"/><path d=" M 205.355 163.521 C 203.147 163.519 201.357 161.73 201.355 159.521 L 201.355 137.5 C 201.355 135.291 203.146 133.5 205.355 133.5 C 207.564 133.5 209.355 135.291 209.355 137.5 L 209.355 159.521 C 209.352 161.73 207.563 163.519 205.355 163.521 Z " fill="rgb(63,61,86)"/><path d=" M 205.355 196.5 C 203.147 196.497 201.357 194.708 201.355 192.5 L 201.355 170.479 C 201.355 168.269 203.146 166.479 205.355 166.479 C 207.564 166.479 209.355 168.269 209.355 170.479 L 209.355 192.5 C 209.352 194.708 207.563 196.497 205.355 196.5 L 205.355 196.5 Z " fill="rgb(63,61,86)"/><path d=" M 533.355 178.5 C 531.147 178.497 529.357 176.708 529.355 174.5 L 529.355 120.767 C 529.355 118.557 531.146 116.767 533.355 116.767 C 535.564 116.767 537.355 118.557 537.355 120.767 L 537.355 174.5 C 537.352 176.708 535.563 178.497 533.355 178.5 L 533.355 178.5 Z " fill="rgb(63,61,86)"/><path d=" M 366.447 17.346 L 335.447 17.346 C 334.067 17.346 332.947 16.227 332.947 14.846 C 332.947 13.465 334.067 12.346 335.447 12.346 L 366.447 12.346 C 367.828 12.346 368.947 13.465 368.947 14.846 C 368.947 16.227 367.828 17.346 366.447 17.346 Z " fill="rgb(255,255,255)"/><circle vector-effect="non-scaling-stroke" cx="291.44729" cy="15.8458" r="2" fill="rgb(255,255,255)"/><path d=" M 301.721 152.53 L 266.988 152.53 C 256.978 152.519 248.866 144.406 248.855 134.396 L 248.855 99.664 C 248.866 89.653 256.978 81.541 266.988 81.53 L 301.721 81.53 C 311.731 81.541 319.843 89.653 319.855 99.664 L 319.855 134.396 C 319.843 144.406 311.731 152.519 301.721 152.53 L 301.721 152.53 Z  M 266.988 83.53 C 258.082 83.54 250.865 90.757 250.855 99.664 L 250.855 134.396 C 250.865 143.302 258.082 150.52 266.988 150.53 L 301.721 150.53 C 310.627 150.52 317.844 143.302 317.855 134.396 L 317.855 99.664 C 317.844 90.757 310.627 83.54 301.721 83.53 L 266.988 83.53 Z " fill="rgb(230,230,230)"/><path d=" M 387.221 153.03 L 352.488 153.03 C 342.478 153.019 334.366 144.906 334.355 134.896 L 334.355 100.164 C 334.366 90.153 342.478 82.041 352.488 82.03 L 387.221 82.03 C 397.231 82.041 405.343 90.153 405.355 100.164 L 405.355 134.896 C 405.343 144.906 397.231 153.019 387.221 153.03 L 387.221 153.03 Z  M 352.488 84.03 C 343.582 84.04 336.365 91.257 336.355 100.164 L 336.355 134.896 C 336.365 143.802 343.582 151.02 352.488 151.03 L 387.221 151.03 C 396.127 151.02 403.344 143.802 403.355 134.896 L 403.355 100.164 C 403.344 91.257 396.127 84.04 387.221 84.03 L 352.488 84.03 Z " fill="rgb(230,230,230)"/><path d=" M 472.721 153.53 L 437.988 153.53 C 427.978 153.519 419.866 145.406 419.855 135.396 L 419.855 100.664 C 419.866 90.653 427.978 82.541 437.988 82.53 L 472.721 82.53 C 482.731 82.541 490.843 90.653 490.855 100.664 L 490.855 135.396 C 490.843 145.406 482.731 153.519 472.721 153.53 L 472.721 153.53 Z  M 437.988 84.53 C 429.082 84.54 421.865 91.757 421.855 100.664 L 421.855 135.396 C 421.865 144.302 429.082 151.52 437.988 151.53 L 472.721 151.53 C 481.627 151.52 488.845 144.302 488.855 135.396 L 488.855 100.664 C 488.845 91.757 481.627 84.54 472.721 84.53 L 437.988 84.53 Z " fill="rgb(230,230,230)"/><path d=" M 301.721 251.53 L 266.988 251.53 C 256.978 251.519 248.866 243.406 248.855 233.396 L 248.855 198.664 C 248.866 188.653 256.978 180.541 266.988 180.53 L 301.721 180.53 C 311.731 180.541 319.843 188.653 319.855 198.664 L 319.855 233.396 C 319.843 243.406 311.731 251.519 301.721 251.53 L 301.721 251.53 Z  M 266.988 182.53 C 258.082 182.54 250.865 189.757 250.855 198.664 L 250.855 233.396 C 250.865 242.302 258.082 249.52 266.988 249.53 L 301.721 249.53 C 310.627 249.52 317.844 242.302 317.855 233.396 L 317.855 198.664 C 317.844 189.757 310.627 182.54 301.721 182.53 L 266.988 182.53 Z " fill="rgb(230,230,230)"/><path d=" M 387.221 252.03 L 352.488 252.03 C 342.478 252.019 334.366 243.906 334.355 233.896 L 334.355 199.164 C 334.366 189.153 342.478 181.041 352.488 181.03 L 387.221 181.03 C 397.231 181.041 405.343 189.153 405.355 199.164 L 405.355 233.896 C 405.343 243.906 397.231 252.019 387.221 252.03 L 387.221 252.03 Z  M 352.488 183.03 C 343.582 183.04 336.365 190.257 336.355 199.164 L 336.355 233.896 C 336.365 242.802 343.582 250.02 352.488 250.03 L 387.221 250.03 C 396.127 250.02 403.344 242.802 403.355 233.896 L 403.355 199.164 C 403.344 190.257 396.127 183.04 387.221 183.03 L 352.488 183.03 Z " fill="rgb(230,230,230)"/><path d=" M 472.721 252.53 L 437.988 252.53 C 427.978 252.519 419.866 244.406 419.855 234.396 L 419.855 199.664 C 419.866 189.653 427.978 181.541 437.988 181.53 L 472.721 181.53 C 482.731 181.541 490.843 189.653 490.855 199.664 L 490.855 234.396 C 490.843 244.406 482.731 252.519 472.721 252.53 L 472.721 252.53 Z  M 437.988 183.53 C 429.082 183.54 421.865 190.757 421.855 199.664 L 421.855 234.396 C 421.865 243.302 429.082 250.52 437.988 250.53 L 472.721 250.53 C 481.627 250.52 488.845 243.302 488.855 234.396 L 488.855 199.664 C 488.845 190.757 481.627 183.54 472.721 183.53 L 437.988 183.53 Z " fill="rgb(230,230,230)"/><path d=" M 301.721 551.53 L 266.989 551.53 C 257.53 551.519 249.865 543.855 249.855 534.396 L 249.855 499.664 C 249.865 490.206 257.53 482.541 266.989 482.53 L 301.721 482.53 C 311.179 482.541 318.844 490.206 318.855 499.664 L 318.855 534.396 C 318.844 543.855 311.179 551.519 301.721 551.53 L 301.721 551.53 Z " fill="rgb(94,120,146)"/><path d=" M 387.221 552.03 L 352.489 552.03 C 343.03 552.019 335.365 544.355 335.355 534.896 L 335.355 500.164 C 335.365 490.706 343.03 483.041 352.489 483.03 L 387.221 483.03 C 396.679 483.041 404.344 490.706 404.355 500.164 L 404.355 534.896 C 404.344 544.355 396.679 552.019 387.221 552.03 L 387.221 552.03 Z " fill="rgb(230,230,230)"/><path d=" M 472.721 552.53 L 437.989 552.53 C 428.53 552.519 420.865 544.855 420.855 535.396 L 420.855 500.664 C 420.865 491.206 428.53 483.541 437.989 483.53 L 472.721 483.53 C 482.179 483.541 489.844 491.206 489.855 500.664 L 489.855 535.396 C 489.844 544.855 482.179 552.519 472.721 552.53 L 472.721 552.53 Z " fill="rgb(230,230,230)"/><circle vector-effect="non-scaling-stroke" cx="351.85476" cy="449.0300599999999" r="5" fill="rgb(204,204,204)"/><circle vector-effect="non-scaling-stroke" cx="369.85476" cy="449.0300599999999" r="5" fill="rgb(230,230,230)"/><circle vector-effect="non-scaling-stroke" cx="387.85476" cy="449.0300599999999" r="5" fill="rgb(230,230,230)"/><path d=" M 489.441 563.03 L 250.536 563.03 C 239.193 563.017 230.002 553.826 229.989 542.483 L 229.989 491.577 C 230.002 480.234 239.193 471.043 250.536 471.03 L 489.441 471.03 C 500.784 471.043 509.976 480.234 509.989 491.577 L 509.989 542.483 C 509.976 553.826 500.784 563.017 489.441 563.03 L 489.441 563.03 Z  M 250.536 473.03 C 240.297 473.042 232 481.338 231.989 491.577 L 231.989 542.483 C 232 552.722 240.297 561.019 250.536 561.03 L 489.441 561.03 C 499.68 561.019 507.977 552.722 507.989 542.483 L 507.989 491.577 C 507.977 481.338 499.68 473.042 489.441 473.03 L 250.536 473.03 Z " fill="rgb(230,230,230)"/><path d=" M 12 598.139 C 11.999 598.455 12.124 598.758 12.348 598.982 C 12.571 599.205 12.874 599.33 13.19 599.329 L 728.48 599.329 C 729.137 599.329 729.67 598.796 729.67 598.139 C 729.67 597.482 729.137 596.949 728.48 596.949 L 13.19 596.949 C 12.874 596.948 12.571 597.073 12.348 597.297 C 12.124 597.52 11.999 597.823 12 598.139 Z " fill="rgb(204,204,204)"/><path d=" M 268.941 28.073 L 241.941 28.073 C 239.179 28.073 236.941 25.834 236.941 23.073 C 236.941 20.312 239.179 18.073 241.941 18.073 L 268.941 18.073 C 271.702 18.073 273.941 20.312 273.941 23.073 C 273.941 25.834 271.702 28.073 268.941 28.073 Z " fill="rgb(230,230,230)"/><circle vector-effect="non-scaling-stroke" cx="445.94066" cy="23.07305" r="4.5" fill="rgb(230,230,230)"/><circle vector-effect="non-scaling-stroke" cx="459.94066" cy="23.07305" r="4.5" fill="rgb(230,230,230)"/><circle vector-effect="non-scaling-stroke" cx="473.94066000000004" cy="23.07305" r="4.5" fill="rgb(230,230,230)"/><circle vector-effect="non-scaling-stroke" cx="312.44066000000004" cy="186.57305" r="12" fill="rgb(204,204,204)"/><circle vector-effect="non-scaling-stroke" cx="399.44066" cy="490.57305" r="12" fill="rgb(204,204,204)"/><path d=" M 301.721 350.53 L 266.988 350.53 C 256.978 350.519 248.866 342.406 248.855 332.396 L 248.855 297.664 C 248.866 287.653 256.978 279.541 266.988 279.53 L 301.721 279.53 C 311.731 279.541 319.843 287.653 319.855 297.664 L 319.855 332.396 C 319.843 342.406 311.731 350.519 301.721 350.53 L 301.721 350.53 Z  M 266.988 281.53 C 258.082 281.54 250.865 288.757 250.855 297.664 L 250.855 332.396 C 250.865 341.302 258.082 348.52 266.988 348.53 L 301.721 348.53 C 310.627 348.52 317.845 341.302 317.855 332.396 L 317.855 297.664 C 317.844 288.757 310.627 281.54 301.721 281.53 L 266.988 281.53 Z " fill="rgb(230,230,230)"/><path d=" M 387.221 351.03 L 352.488 351.03 C 342.478 351.019 334.366 342.906 334.355 332.896 L 334.355 298.164 C 334.366 288.153 342.478 280.041 352.488 280.03 L 387.221 280.03 C 397.231 280.041 405.343 288.153 405.355 298.164 L 405.355 332.896 C 405.343 342.906 397.231 351.019 387.221 351.03 L 387.221 351.03 Z  M 352.488 282.03 C 343.582 282.04 336.365 289.257 336.355 298.164 L 336.355 332.896 C 336.365 341.802 343.582 349.02 352.488 349.03 L 387.221 349.03 C 396.127 349.02 403.345 341.802 403.355 332.896 L 403.355 298.164 C 403.344 289.257 396.127 282.04 387.221 282.03 L 352.488 282.03 Z " fill="rgb(230,230,230)"/><path d=" M 472.721 351.53 L 437.988 351.53 C 427.978 351.519 419.866 343.406 419.855 333.396 L 419.855 298.664 C 419.866 288.653 427.978 280.541 437.988 280.53 L 472.721 280.53 C 482.731 280.541 490.843 288.653 490.855 298.664 L 490.855 333.396 C 490.843 343.406 482.731 351.519 472.721 351.53 L 472.721 351.53 Z  M 437.988 282.53 C 429.082 282.54 421.865 289.757 421.855 298.664 L 421.855 333.396 C 421.865 342.302 429.082 349.52 437.988 349.53 L 472.721 349.53 C 481.627 349.52 488.845 342.302 488.855 333.396 L 488.855 298.664 C 488.845 289.757 481.627 282.54 472.721 282.53 L 437.988 282.53 Z " fill="rgb(230,230,230)"/><circle vector-effect="non-scaling-stroke" cx="399.44066" cy="287.57305" r="12" fill="rgb(204,204,204)"/></g></svg>