<?xml version="1.0" encoding="UTF-8" standalone="no"?><!-- Generator: Gravit.io --><svg xmlns="http://www.w3.org/2000/svg" xmlns:xlink="http://www.w3.org/1999/xlink" style="isolation:isolate" viewBox="0 0 847.997 727.305" width="847.997pt" height="727.305pt"><defs><clipPath id="_clipPath_KVWsQzi4cvPZfxXuOWX3o3LD6MjFXLHP"><rect width="847.997" height="727.305"/></clipPath></defs><g clip-path="url(#_clipPath_KVWsQzi4cvPZfxXuOWX3o3LD6MjFXLHP)"><path d=" M 126.881 123.234 L 503.199 123.234 C 529.766 123.264 551.295 144.793 551.324 171.36 L 551.324 377.235 C 551.295 403.802 529.766 425.331 503.199 425.36 L 126.881 425.36 C 100.315 425.331 78.786 403.802 78.756 377.235 L 78.756 171.36 C 78.786 144.793 100.315 123.264 126.881 123.234 L 126.881 123.234 Z " fill="rgb(242,242,242)"/><path d=" M 126.881 137.089 L 503.199 137.089 C 522.118 137.11 537.449 152.441 537.47 171.36 L 537.47 377.235 C 537.449 396.154 522.118 411.485 503.199 411.506 L 126.881 411.506 C 107.962 411.485 92.631 396.154 92.61 377.235 L 92.61 171.36 C 92.631 152.441 107.962 137.11 126.881 137.089 L 126.881 137.089 Z " fill="rgb(255,255,255)"/><path d=" M 130.553 499.071 C 129.417 499.068 128.293 498.84 127.246 498.402 C 124.046 497.116 121.962 493.998 121.999 490.549 L 121.999 419.38 L 216.881 416.187 L 136.509 496.56 C 134.939 498.159 132.794 499.064 130.553 499.071 L 130.553 499.071 Z " fill="rgb(242,242,242)"/><path d="M 173.094 188.3 L 456.066 188.3 C 467.388 188.3 476.58 197.49 476.58 208.81 L 476.58 208.81 C 476.58 220.13 467.388 229.32 456.066 229.32 L 173.094 229.32 C 161.772 229.32 152.58 220.13 152.58 208.81 L 152.58 208.81 C 152.58 197.49 161.772 188.3 173.094 188.3 Z" style="stroke:none;fill:#5E7892;stroke-miterlimit:10;"/><path d="M 173.554 253.78 L 456.526 253.78 C 467.848 253.78 477.04 262.972 477.04 274.295 L 477.04 274.295 C 477.04 285.618 467.848 294.81 456.526 294.81 L 173.554 294.81 C 162.232 294.81 153.04 285.618 153.04 274.295 L 153.04 274.295 C 153.04 262.972 162.232 253.78 173.554 253.78 Z" style="stroke:none;fill:#5E7892;stroke-miterlimit:10;"/><path d="M 174.014 319.27 L 456.986 319.27 C 468.308 319.27 477.5 328.462 477.5 339.785 L 477.5 339.785 C 477.5 351.108 468.308 360.3 456.986 360.3 L 174.014 360.3 C 162.692 360.3 153.5 351.108 153.5 339.785 L 153.5 339.785 C 153.5 328.462 162.692 319.27 174.014 319.27 Z" style="stroke:none;fill:#5E7892;stroke-miterlimit:10;"/><path d=" M 721.116 228.234 L 344.798 228.234 C 318.232 228.264 296.703 249.793 296.673 276.36 L 296.673 482.235 C 296.703 508.802 318.232 530.331 344.798 530.36 L 721.116 530.36 C 747.683 530.331 769.211 508.802 769.241 482.235 L 769.241 276.36 C 769.211 249.793 747.683 228.264 721.116 228.234 L 721.116 228.234 Z " fill="rgb(230,230,230)"/><path d=" M 721.117 242.089 L 344.798 242.089 C 325.879 242.11 310.548 257.441 310.527 276.36 L 310.527 482.235 C 310.548 501.154 325.879 516.485 344.798 516.506 L 721.117 516.506 C 740.035 516.485 755.366 501.154 755.387 482.235 L 755.387 276.36 C 755.366 257.441 740.035 242.11 721.117 242.089 L 721.117 242.089 Z " fill="rgb(255,255,255)"/><path d=" M 692.488 601.56 L 612.116 521.187 L 706.999 524.38 L 706.999 595.549 C 707.035 598.998 704.952 602.116 701.752 603.402 C 700.704 603.84 699.58 604.068 698.445 604.071 C 696.203 604.064 694.058 603.159 692.488 601.56 L 692.488 601.56 Z " fill="rgb(230,230,230)"/><circle vector-effect="non-scaling-stroke" cx="449.957165" cy="379.2974500000001" r="26" fill="rgb(255,153,0)"/><circle vector-effect="non-scaling-stroke" cx="532.957165" cy="379.2974500000001" r="26" fill="rgb(255,153,0)"/><circle vector-effect="non-scaling-stroke" cx="615.9571649999999" cy="379.2974500000001" r="26" fill="rgb(255,153,0)"/></g></svg>