<?xml version="1.0" encoding="UTF-8" standalone="no"?><!-- Generator: Gravit.io --><svg xmlns="http://www.w3.org/2000/svg" xmlns:xlink="http://www.w3.org/1999/xlink" style="isolation:isolate" viewBox="0 0 680.839 584.232" width="680.839pt" height="584.232pt"><defs><clipPath id="_clipPath_RXTcNj4LzZOiHdohiWOq9qn3nsZMxFAQ"><rect width="680.839" height="584.232"/></clipPath></defs><g clip-path="url(#_clipPath_RXTcNj4LzZOiHdohiWOq9qn3nsZMxFAQ)"><path d=" M 556.527 497.832 L 124.312 497.832 C 121.539 497.829 119.292 495.582 119.288 492.809 L 119.288 91.423 C 119.292 88.65 121.539 86.403 124.312 86.4 L 556.527 86.4 C 559.3 86.403 561.547 88.65 561.55 91.423 L 561.55 492.808 C 561.547 495.581 559.3 497.828 556.527 497.831 L 556.527 497.832 Z " fill="rgb(255,255,255)"/><path d=" M 556.527 497.832 L 124.312 497.832 C 121.539 497.829 119.292 495.582 119.288 492.809 L 119.288 91.423 C 119.292 88.65 121.539 86.403 124.312 86.4 L 556.527 86.4 C 559.3 86.403 561.547 88.65 561.55 91.423 L 561.55 492.808 C 561.547 495.581 559.3 497.828 556.527 497.831 L 556.527 497.832 Z  M 124.312 88.405 C 122.65 88.409 121.304 89.755 121.3 91.417 L 121.3 492.808 C 121.304 494.47 122.65 495.816 124.312 495.819 L 556.527 495.819 C 558.189 495.816 559.535 494.47 559.538 492.808 L 559.538 91.423 C 559.535 89.762 558.188 88.415 556.527 88.412 L 124.312 88.405 Z " fill="rgb(202,202,202)"/><path d=" M 328.541 190.701 C 326.66 190.704 325.137 192.23 325.137 194.112 C 325.137 195.993 326.66 197.519 328.541 197.522 L 515.684 197.522 C 517.565 197.519 519.089 195.993 519.089 194.112 C 519.089 192.23 517.565 190.704 515.684 190.701 L 328.541 190.701 Z " fill="rgb(228,228,228)"/><path d=" M 328.541 211.166 C 326.661 211.171 325.139 212.696 325.139 214.577 C 325.139 216.457 326.661 217.983 328.541 217.987 L 424.081 217.987 C 425.962 217.983 427.484 216.457 427.484 214.577 C 427.484 212.696 425.962 211.171 424.081 211.166 L 328.541 211.166 Z " fill="rgb(228,228,228)"/><path d=" M 164.972 321.22 C 163.092 321.225 161.57 322.751 161.57 324.631 C 161.57 326.511 163.092 328.037 164.972 328.041 L 515.866 328.041 C 517.746 328.037 519.268 326.511 519.268 324.631 C 519.268 322.751 517.746 321.225 515.866 321.22 L 164.972 321.22 Z " fill="rgb(228,228,228)"/><path d=" M 164.972 341.685 C 163.092 341.69 161.57 343.216 161.57 345.096 C 161.57 346.976 163.092 348.502 164.972 348.507 L 424.264 348.507 C 426.144 348.502 427.666 346.976 427.666 345.096 C 427.666 343.216 426.144 341.69 424.264 341.685 L 164.972 341.685 Z " fill="rgb(228,228,228)"/><path d=" M 164.972 361.688 C 163.092 361.692 161.57 363.218 161.57 365.098 C 161.57 366.978 163.092 368.504 164.972 368.509 L 515.866 368.509 C 517.746 368.504 519.268 366.978 519.268 365.098 C 519.268 363.218 517.746 361.692 515.866 361.688 L 164.972 361.688 Z " fill="rgb(228,228,228)"/><path d=" M 164.972 382.153 C 163.092 382.157 161.57 383.683 161.57 385.563 C 161.57 387.444 163.092 388.969 164.972 388.974 L 424.264 388.974 C 426.144 388.969 427.666 387.444 427.666 385.563 C 427.666 383.683 426.144 382.157 424.264 382.153 L 164.972 382.153 Z " fill="rgb(228,228,228)"/><path d=" M 164.972 402.688 C 163.092 402.692 161.57 404.218 161.57 406.098 C 161.57 407.978 163.092 409.504 164.972 409.509 L 515.866 409.509 C 517.746 409.504 519.268 407.978 519.268 406.098 C 519.268 404.218 517.746 402.692 515.866 402.688 L 164.972 402.688 Z " fill="rgb(228,228,228)"/><path d=" M 164.972 423.153 C 163.092 423.157 161.57 424.683 161.57 426.563 C 161.57 428.444 163.092 429.969 164.972 429.974 L 424.264 429.974 C 426.144 429.969 427.666 428.444 427.666 426.563 C 427.666 424.683 426.144 423.157 424.264 423.153 L 164.972 423.153 Z " fill="rgb(228,228,228)"/><path d=" M 220.55 253.344 C 200.732 253.344 182.864 241.406 175.28 223.096 C 167.696 204.786 171.888 183.71 185.902 169.696 C 199.915 155.682 220.991 151.49 239.301 159.074 C 257.611 166.658 269.55 184.525 269.55 204.344 C 269.519 231.393 247.599 253.313 220.55 253.344 L 220.55 253.344 Z " fill="rgb(255,153,0)"/><path d=" M 217.721 222.851 C 216.837 222.852 215.986 222.518 215.339 221.916 L 199.182 206.908 C 197.768 205.592 197.688 203.38 199.002 201.964 C 200.317 200.549 202.529 200.466 203.946 201.779 L 217.631 214.491 L 244.708 187.415 C 245.591 186.525 246.883 186.176 248.094 186.499 C 249.306 186.822 250.252 187.768 250.574 188.98 C 250.897 190.191 250.547 191.482 249.657 192.365 L 220.196 221.826 C 219.54 222.483 218.649 222.852 217.721 222.851 L 217.721 222.851 Z " fill="rgb(255,255,255)"/></g></svg>