<?xml version="1.0" encoding="UTF-8" standalone="no"?><!-- Generator: Gravit.io --><svg xmlns="http://www.w3.org/2000/svg" xmlns:xlink="http://www.w3.org/1999/xlink" style="isolation:isolate" viewBox="0 0 562.675 591.739" width="562.675pt" height="591.739pt"><defs><clipPath id="_clipPath_mHJn4WYmcfIjTgxTnZeJPg3cP4Zoks9b"><rect width="562.675" height="591.739"/></clipPath></defs><g clip-path="url(#_clipPath_mHJn4WYmcfIjTgxTnZeJPg3cP4Zoks9b)"><clipPath id="_clipPath_2gZ01HvmjXJKFmjpZLJhhjA3DjzIjMBR"><rect x="0" y="0" width="562.675" height="591.739" transform="matrix(1,0,0,1,0,0)" fill="rgb(255,255,255)"/></clipPath><g clip-path="url(#_clipPath_2gZ01HvmjXJKFmjpZLJhhjA3DjzIjMBR)"><g><circle vector-effect="non-scaling-stroke" cx="352.65265" cy="120.99999999999997" r="58" fill="rgb(242,242,242)"/><circle vector-effect="non-scaling-stroke" cx="228.65265" cy="271.99999999999994" r="58" fill="rgb(242,242,242)"/><circle vector-effect="non-scaling-stroke" cx="351.65265" cy="432.9999999999999" r="58" fill="rgb(242,242,242)"/><path d=" M 269.589 296.442 C 262.625 296.442 256.98 290.797 256.98 283.834 C 256.98 276.87 262.625 271.225 269.589 271.225 C 276.552 271.225 282.197 276.87 282.197 283.834 C 282.19 290.794 276.549 296.434 269.589 296.442 L 269.589 296.442 Z  M 269.589 273.518 C 265.417 273.518 261.655 276.031 260.058 279.886 C 258.461 283.741 259.344 288.178 262.294 291.128 C 265.245 294.078 269.682 294.961 273.537 293.364 C 277.392 291.768 279.905 288.006 279.905 283.834 C 279.898 278.139 275.284 273.524 269.589 273.518 L 269.589 273.518 Z " fill="rgb(47,46,65)"/><path d=" M 269.589 301.6 C 262.403 301.6 255.925 297.271 253.175 290.633 C 250.425 283.994 251.945 276.352 257.026 271.271 C 262.107 266.19 269.749 264.67 276.388 267.42 C 283.027 270.169 287.355 276.648 287.355 283.834 C 287.344 293.641 279.397 301.589 269.589 301.6 L 269.589 301.6 Z  M 269.589 268.36 C 263.33 268.36 257.688 272.13 255.293 277.912 C 252.898 283.694 254.222 290.35 258.647 294.775 C 263.073 299.201 269.728 300.525 275.511 298.13 C 281.293 295.735 285.063 290.092 285.063 283.834 C 285.053 275.292 278.131 268.369 269.589 268.36 L 269.589 268.36 Z " fill="rgb(47,46,65)"/><path d=" M 269.589 321.086 C 254.522 321.086 240.938 312.01 235.172 298.089 C 229.406 284.169 232.593 268.146 243.248 257.492 C 253.902 246.838 269.925 243.651 283.845 249.417 C 297.765 255.183 306.841 268.766 306.841 283.834 C 306.818 304.398 290.153 321.063 269.589 321.086 L 269.589 321.086 Z  M 269.589 248.874 C 255.449 248.874 242.701 257.391 237.29 270.455 C 231.879 283.519 234.87 298.556 244.869 308.554 C 254.867 318.552 269.904 321.543 282.968 316.132 C 296.031 310.721 304.549 297.974 304.549 283.834 C 304.527 264.535 288.888 248.895 269.589 248.874 L 269.589 248.874 Z " fill="rgb(47,46,65)"/><rect x="245.377" y="262.478" width="2.292" height="28.654" transform="matrix(0.855,-0.519,0.519,0.855,-107.847,168.103)" fill="rgb(47,46,65)"/><rect x="260.435" y="307.169" width="26.854" height="2.294" transform="matrix(0.49,-0.872,0.872,0.49,-129.084,396.028)" fill="rgb(47,46,65)"/><rect x="273.194" y="266.338" width="28.446" height="2.293" transform="matrix(1,-0.014,0.014,1,-3.716,4.05)" fill="rgb(47,46,65)"/><path d=" M 313.685 415.817 L 312.454 413.883 C 315.524 411.93 319.08 410.878 322.718 410.847 L 322.74 413.139 C 319.531 413.167 316.393 414.095 313.685 415.817 L 313.685 415.817 Z " fill="rgb(47,46,65)"/><path d=" M 324.404 466.998 C 308.806 467.148 294.819 457.415 289.538 442.737 C 284.258 428.059 288.838 411.647 300.955 401.825 L 302.4 403.605 C 287.673 415.542 285.385 437.145 297.284 451.902 C 309.183 466.659 330.781 469.002 345.568 457.141 C 360.355 445.28 362.754 423.689 350.931 408.871 L 352.721 407.44 C 357.857 413.83 360.68 421.77 360.729 429.968 C 360.901 450.216 344.651 466.781 324.404 466.998 L 324.404 466.998 Z " fill="rgb(47,46,65)"/><path d=" M 309.358 433.166 L 307.159 432.517 C 308.013 429.482 310.423 427.134 313.479 426.359 L 313.664 426.337 L 320.534 426.072 L 323.167 422.86 L 321.142 422.207 L 311.295 414.968 L 311.222 407.368 L 300.973 414.344 L 300.862 402.803 L 303.154 402.781 L 303.224 410.038 L 313.473 403.062 L 313.577 413.8 L 322.2 420.14 L 327.074 421.713 L 321.652 428.322 L 313.862 428.623 C 311.672 429.25 309.966 430.971 309.358 433.166 L 309.358 433.166 Z " fill="rgb(47,46,65)"/><path d=" M 356.164 422.833 L 334.645 392.525 C 323.8 395.294 323.395 411.846 323.392 412.017 L 321.101 411.978 C 321.114 411.191 321.576 392.675 334.924 390.115 L 335.647 389.976 L 351.298 412.02 L 350.223 407.392 L 352.456 406.874 L 356.164 422.833 Z " fill="rgb(47,46,65)"/><path d=" M 323.644 447.519 C 315.05 447.554 307.828 441.069 306.943 432.521 L 309.224 432.3 C 309.974 439.931 316.598 445.618 324.254 445.206 C 331.91 444.794 337.885 438.429 337.811 430.762 C 337.782 425.746 335.116 421.115 330.791 418.573 L 325.749 415.577 L 335.664 417.076 C 332.039 414.16 327.431 412.75 322.795 413.138 L 322.664 410.848 C 334.161 410.187 339.559 417.74 339.783 418.062 L 341.303 420.247 L 335.465 419.365 C 340.063 424.149 341.376 431.209 338.808 437.327 C 336.239 443.445 330.279 447.451 323.644 447.519 L 323.644 447.519 Z " fill="rgb(47,46,65)"/><path d=" M 353.63 113.481 C 353.447 113.297 353.275 113.125 353.092 112.942 C 338.722 98.893 315.721 99.029 301.519 113.247 C 287.316 127.465 287.206 150.466 301.271 164.82 C 301.431 164.992 301.603 165.164 301.775 165.336 C 316.129 179.45 339.178 179.353 353.413 165.118 C 367.647 150.884 367.744 127.835 353.63 113.481 L 353.63 113.481 Z  M 327.473 173.566 C 318.626 173.574 310.118 170.157 303.735 164.029 C 303.345 163.663 302.967 163.284 302.612 162.895 C 289.708 149.399 289.944 128.068 303.144 114.861 C 316.344 101.655 337.675 101.408 351.177 114.306 Q 351.762 114.856 352.312 115.441 C 361.837 125.382 364.507 140.05 359.096 152.71 C 353.686 165.37 341.241 173.578 327.473 173.566 L 327.473 173.566 Z " fill="rgb(47,46,65)"/><path d=" M 353.092 112.942 L 351.177 114.306 L 323.141 134.17 L 322.063 134.927 L 302.612 162.895 L 301.271 164.82 C 301.431 164.992 301.603 165.164 301.775 165.336 L 303.735 164.029 L 331.772 145.334 L 332.884 144.589 L 352.312 115.441 L 353.63 113.481 C 353.447 113.297 353.275 113.125 353.092 112.942 Z  M 331.829 142.045 L 331.233 142.939 L 330.178 143.638 L 308.939 157.794 L 323.095 137.448 L 323.714 136.554 L 324.734 135.832 L 346.008 120.771 L 331.829 142.045 Z " fill="rgb(47,46,65)"/><rect x="326.548" y="133.585" width="2.293" height="12.193" transform="matrix(0.659,-0.753,0.753,0.659,6.771,294.286)" fill="rgb(47,46,65)"/><rect x="325.754" y="106.512" width="2.292" height="5.37" transform="matrix(1,0,0,1,0,0)" fill="rgb(47,46,65)"/><rect x="325.754" y="164.969" width="2.292" height="5.37" transform="matrix(1,0,0,1,0,0)" fill="rgb(47,46,65)"/><rect x="325.754" y="106.512" width="2.292" height="5.37" transform="matrix(1,0,0,1,0,0)" fill="rgb(0,0,0)"/><rect x="325.754" y="164.969" width="2.292" height="5.37" transform="matrix(1,0,0,1,0,0)" fill="rgb(0,0,0)"/><rect x="335.094" y="110.003" width="5.372" height="2.294" transform="matrix(0.371,-0.929,0.929,0.371,109.283,383.618)" fill="rgb(47,46,65)"/><rect x="313.407" y="164.286" width="5.372" height="2.294" transform="matrix(0.371,-0.929,0.929,0.371,45.228,397.628)" fill="rgb(47,46,65)"/><rect x="335.094" y="110.003" width="5.372" height="2.294" transform="matrix(0.371,-0.929,0.929,0.371,109.283,383.618)" fill="rgb(0,0,0)"/><rect x="313.407" y="164.286" width="5.372" height="2.294" transform="matrix(0.371,-0.929,0.929,0.371,45.228,397.628)" fill="rgb(0,0,0)"/><rect x="341.58" y="113.783" width="5.37" height="2.293" transform="matrix(0.592,-0.806,0.806,0.592,47.842,324.359)" fill="rgb(47,46,65)"/><rect x="306.973" y="160.913" width="5.37" height="2.293" transform="matrix(0.592,-0.806,0.806,0.592,-4.264,315.697)" fill="rgb(47,46,65)"/><rect x="341.58" y="113.783" width="5.37" height="2.293" transform="matrix(0.592,-0.806,0.806,0.592,47.842,324.359)" fill="rgb(0,0,0)"/><rect x="306.973" y="160.913" width="5.37" height="2.293" transform="matrix(0.592,-0.806,0.806,0.592,-4.264,315.697)" fill="rgb(0,0,0)"/><rect x="348.551" y="120.952" width="5.371" height="2.292" transform="matrix(0.832,-0.555,0.555,0.832,-8.712,215.437)" fill="rgb(47,46,65)"/><rect x="299.928" y="153.398" width="5.371" height="2.292" transform="matrix(0.832,-0.555,0.555,0.832,-34.891,193.909)" fill="rgb(47,46,65)"/><rect x="348.551" y="120.952" width="5.371" height="2.292" transform="matrix(0.832,-0.555,0.555,0.832,-8.712,215.437)" fill="rgb(0,0,0)"/><rect x="299.928" y="153.398" width="5.371" height="2.292" transform="matrix(0.832,-0.555,0.555,0.832,-34.891,193.909)" fill="rgb(0,0,0)"/><rect x="352.104" y="128.114" width="5.371" height="2.293" transform="matrix(0.951,-0.31,0.31,0.951,-22.591,116.322)" fill="rgb(47,46,65)"/><rect x="296.521" y="146.239" width="5.371" height="2.293" transform="matrix(0.951,-0.31,0.31,0.951,-30.946,99.988)" fill="rgb(47,46,65)"/><rect x="352.104" y="128.114" width="5.371" height="2.293" transform="matrix(0.951,-0.31,0.31,0.951,-22.591,116.322)" fill="rgb(0,0,0)"/><rect x="296.521" y="146.239" width="5.371" height="2.293" transform="matrix(0.951,-0.31,0.31,0.951,-30.946,99.988)" fill="rgb(0,0,0)"/><rect x="353.498" y="136.762" width="5.371" height="2.293" transform="matrix(1,-0.019,0.019,1,-2.556,6.791)" fill="rgb(47,46,65)"/><rect x="295.04" y="137.872" width="5.371" height="2.293" transform="matrix(1,-0.019,0.019,1,-2.587,5.681)" fill="rgb(47,46,65)"/><rect x="353.498" y="136.762" width="5.371" height="2.293" transform="matrix(1,-0.019,0.019,1,-2.556,6.791)" fill="rgb(0,0,0)"/><rect x="295.04" y="137.872" width="5.371" height="2.293" transform="matrix(1,-0.019,0.019,1,-2.587,5.681)" fill="rgb(0,0,0)"/><rect x="354.318" y="142.29" width="2.292" height="5.37" transform="matrix(0.222,-0.975,0.975,0.222,135.191,459.383)" fill="rgb(47,46,65)"/><rect x="297.305" y="129.314" width="2.292" height="5.37" transform="matrix(0.222,-0.975,0.975,0.222,103.487,393.697)" fill="rgb(47,46,65)"/><rect x="354.318" y="142.29" width="2.292" height="5.37" transform="matrix(0.222,-0.975,0.975,0.222,135.191,459.383)" fill="rgb(0,0,0)"/><rect x="297.305" y="129.314" width="2.292" height="5.37" transform="matrix(0.222,-0.975,0.975,0.222,103.487,393.697)" fill="rgb(0,0,0)"/><rect x="351.87" y="149.167" width="2.292" height="5.37" transform="matrix(0.456,-0.89,0.89,0.456,56.898,396.787)" fill="rgb(47,46,65)"/><rect x="299.821" y="122.51" width="2.292" height="5.37" transform="matrix(0.456,-0.89,0.89,0.456,52.307,335.963)" fill="rgb(47,46,65)"/><rect x="351.87" y="149.167" width="2.292" height="5.37" transform="matrix(0.456,-0.89,0.89,0.456,56.898,396.787)" fill="rgb(0,0,0)"/><rect x="299.821" y="122.51" width="2.292" height="5.37" transform="matrix(0.456,-0.89,0.89,0.456,52.307,335.963)" fill="rgb(0,0,0)"/><rect x="348.266" y="154.559" width="2.293" height="5.374" transform="matrix(0.646,-0.764,0.764,0.646,3.731,322.532)" fill="rgb(47,46,65)"/><rect x="303.593" y="116.818" width="2.293" height="5.374" transform="matrix(0.646,-0.764,0.764,0.646,16.722,275.047)" fill="rgb(47,46,65)"/><rect x="348.266" y="154.559" width="2.293" height="5.374" transform="matrix(0.646,-0.764,0.764,0.646,3.731,322.532)" fill="rgb(0,0,0)"/><rect x="303.593" y="116.818" width="2.293" height="5.374" transform="matrix(0.646,-0.764,0.764,0.646,16.722,275.047)" fill="rgb(0,0,0)"/><rect x="343.501" y="158.796" width="2.293" height="5.37" transform="matrix(0.794,-0.608,0.608,0.794,-27.164,242.807)" fill="rgb(47,46,65)"/><rect x="307.968" y="112.394" width="2.293" height="5.37" transform="matrix(0.794,-0.608,0.608,0.794,-6.275,211.643)" fill="rgb(47,46,65)"/><rect x="343.501" y="158.796" width="2.293" height="5.37" transform="matrix(0.794,-0.608,0.608,0.794,-27.164,242.807)" fill="rgb(0,0,0)"/><rect x="307.968" y="112.394" width="2.293" height="5.37" transform="matrix(0.794,-0.608,0.608,0.794,-6.275,211.643)" fill="rgb(0,0,0)"/><rect x="338.293" y="162.125" width="2.293" height="5.371" transform="matrix(0.905,-0.426,0.426,0.905,-37.868,160.259)" fill="rgb(47,46,65)"/><rect x="313.387" y="109.229" width="2.293" height="5.371" transform="matrix(0.905,-0.426,0.426,0.905,-17.712,144.615)" fill="rgb(47,46,65)"/><rect x="338.293" y="162.125" width="2.293" height="5.371" transform="matrix(0.905,-0.426,0.426,0.905,-37.868,160.259)" fill="rgb(0,0,0)"/><rect x="313.387" y="109.229" width="2.293" height="5.371" transform="matrix(0.905,-0.426,0.426,0.905,-17.712,144.615)" fill="rgb(0,0,0)"/><rect x="331.722" y="164.124" width="2.292" height="5.368" transform="matrix(0.978,-0.207,0.207,0.978,-27.326,72.542)" fill="rgb(47,46,65)"/><rect x="319.624" y="106.956" width="2.292" height="5.368" transform="matrix(0.978,-0.207,0.207,0.978,-15.751,68.798)" fill="rgb(47,46,65)"/><rect x="331.722" y="164.124" width="2.292" height="5.368" transform="matrix(0.978,-0.207,0.207,0.978,-27.326,72.542)" fill="rgb(0,0,0)"/><rect x="319.624" y="106.956" width="2.292" height="5.368" transform="matrix(0.978,-0.207,0.207,0.978,-15.751,68.798)" fill="rgb(0,0,0)"/><rect x="318.541" y="165.793" width="5.371" height="2.292" transform="matrix(0.19,-0.982,0.982,0.19,96.306,450.605)" fill="rgb(47,46,65)"/><rect x="329.662" y="108.433" width="5.371" height="2.292" transform="matrix(0.19,-0.982,0.982,0.19,161.631,415.059)" fill="rgb(47,46,65)"/><rect x="318.541" y="165.793" width="5.371" height="2.292" transform="matrix(0.19,-0.982,0.982,0.19,96.306,450.605)" fill="rgb(0,0,0)"/><rect x="329.662" y="108.433" width="5.371" height="2.292" transform="matrix(0.19,-0.982,0.982,0.19,161.631,415.059)" fill="rgb(0,0,0)"/></g></g></g></svg>