<?xml version="1.0" encoding="UTF-8" standalone="no"?><!-- Generator: Gravit.io --><svg xmlns="http://www.w3.org/2000/svg" xmlns:xlink="http://www.w3.org/1999/xlink" style="isolation:isolate" viewBox="0 0 1058 434.745" width="1058pt" height="434.745pt"><defs><clipPath id="_clipPath_vM5KO28mVF2eFdDEdtO8N30sXChzP17k"><rect width="1058" height="434.745"/></clipPath></defs><g clip-path="url(#_clipPath_vM5KO28mVF2eFdDEdtO8N30sXChzP17k)"><path d=" M 634.488 285.411 L 696.421 223.667 L 634.488 161.923 L 653.37 143.104 L 734.185 223.667 L 653.37 304.23 L 634.488 285.411 L 634.488 285.411 L 634.488 285.411 Z " fill="rgb(230,230,230)"/><rect x="457.626" y="198.897" width="25.176" height="25.176" transform="matrix(1,0,0,1,0,0)" fill="rgb(230,230,230)"/><rect x="558.833" y="198.897" width="25.176" height="25.176" transform="matrix(1,0,0,1,0,0)" fill="rgb(230,230,230)"/><rect x="508.229" y="198.897" width="25.176" height="25.176" transform="matrix(1,0,0,1,0,0)" fill="rgb(230,230,230)"/><path d=" M 423.513 284.782 L 361.516 223.038 L 423.449 161.294 L 404.567 142.475 L 323.816 223.038 L 404.631 303.601 L 423.513 284.782 L 423.513 284.782 Z " fill="rgb(230,230,230)"/><path d=" M 634.488 273.453 L 696.421 211.709 L 634.488 149.964 L 653.37 131.145 L 734.185 211.709 L 653.37 292.272 L 634.488 273.453 L 634.488 273.453 L 634.488 273.453 Z " fill="rgb(255,153,0)"/><path d=" M 457.626 216.114 L 482.802 216.114 L 482.802 190.938 L 457.626 190.938 L 457.626 216.114 Z  M 584.009 190.938 L 558.833 190.938 L 558.833 216.114 L 584.009 216.114 L 584.009 190.938 Z  M 508.229 216.114 L 533.405 216.114 L 533.405 190.938 L 508.229 190.938 L 508.229 216.114 Z " fill="rgb(255,153,0)"/><path d=" M 423.513 272.823 L 361.516 211.079 L 423.449 149.335 L 404.567 130.516 L 323.816 211.079 L 404.631 291.642 L 423.513 272.823 L 423.513 272.823 Z " fill="rgb(255,153,0)"/></g></svg>