<?xml version="1.0" encoding="UTF-8" standalone="no"?><!-- Generator: Gravit.io --><svg xmlns="http://www.w3.org/2000/svg" xmlns:xlink="http://www.w3.org/1999/xlink" style="isolation:isolate" viewBox="0 0 728 486.494" width="728pt" height="486.494pt"><defs><clipPath id="_clipPath_joqOT2VqzA4nWGL0HQrukU5lrYRRs0KG"><rect width="728" height="486.494"/></clipPath></defs><g clip-path="url(#_clipPath_joqOT2VqzA4nWGL0HQrukU5lrYRRs0KG)"><path d=" M 571.972 87.994 L 554.697 87.994 C 556.31 91.95 555.849 96.449 553.466 99.994 C 551.083 103.54 547.092 105.666 542.82 105.667 L 467 105.667 C 462.729 105.666 458.737 103.54 456.354 99.994 C 453.972 96.449 453.51 91.95 455.124 87.994 L 438.988 87.994 C 424.076 87.994 411.988 100.083 411.988 114.994 L 411.988 457.196 C 411.988 472.108 424.076 484.196 438.988 484.196 L 571.972 484.196 C 586.884 484.196 598.972 472.108 598.972 457.196 L 598.972 457.196 L 598.972 114.994 C 598.972 100.083 586.884 87.994 571.972 87.994 L 571.972 87.994 Z " fill="rgb(240,240,240)"/><path d=" M 572.127 219.046 C 562.905 192.553 538.867 174.037 510.897 171.883 C 482.927 169.729 456.337 184.345 443.167 209.114 C 429.997 233.883 432.748 264.101 450.174 286.085 C 450.807 286.883 451.466 287.681 452.138 288.453 C 452.188 288.504 452.226 288.555 452.277 288.605 C 453.928 290.508 455.683 292.318 457.534 294.027 C 458.016 294.471 458.522 294.927 459.029 295.357 C 459.991 296.219 460.98 297.042 462.006 297.828 C 462.411 298.144 462.804 298.461 463.222 298.765 C 464.843 299.994 466.528 301.134 468.264 302.223 L 468.34 302.261 C 468.833 302.566 469.341 302.87 469.847 303.161 C 470.759 303.706 471.697 304.225 472.634 304.719 L 473.229 305.023 C 474.598 305.733 475.991 306.404 477.423 307.025 C 477.714 307.151 478.031 307.278 478.322 307.405 C 478.347 307.417 478.36 307.417 478.385 307.43 C 479.057 307.709 479.728 307.975 480.412 308.228 C 482.659 309.086 484.951 309.822 487.278 310.432 C 493.216 312.015 499.336 312.816 505.482 312.814 C 507.724 312.814 509.941 312.712 512.133 312.497 C 517.14 312.035 522.084 311.037 526.878 309.52 C 526.89 309.52 526.903 309.508 526.916 309.508 C 529.945 308.543 532.903 307.37 535.771 305.999 C 535.783 305.986 535.809 305.986 535.822 305.973 C 536.467 305.669 537.089 305.34 537.722 305.023 C 537.823 304.972 537.924 304.922 538.026 304.871 C 538.532 304.605 539.039 304.339 539.546 304.06 C 540.813 303.364 542.054 302.629 543.283 301.843 C 543.625 301.641 543.954 301.425 544.296 301.197 C 544.778 300.881 545.259 300.551 545.728 300.209 C 546.348 299.779 546.969 299.335 547.577 298.879 C 547.767 298.74 547.97 298.601 548.16 298.449 C 572.507 279.968 582.184 247.911 572.127 219.046 L 572.127 219.046 Z " fill="rgb(255,255,255)"/><path d=" M 554.31 368.14 L 456.857 368.14 C 450.403 368.134 445.174 362.9 445.174 356.445 C 445.174 349.991 450.403 344.757 456.857 344.751 L 554.31 344.751 C 560.769 344.751 566.005 349.987 566.005 356.445 C 566.005 362.904 560.769 368.14 554.31 368.14 Z " fill="rgb(94,120,146)"/><path d=" M 555.31 258.694 L 457.857 258.694 C 451.403 258.687 446.174 252.21 446.174 244.223 C 446.174 236.235 451.403 229.758 457.857 229.751 L 555.31 229.751 C 561.769 229.751 567.005 236.23 567.005 244.223 C 567.005 252.215 561.769 258.694 555.31 258.694 Z " fill="rgb(240,240,240)"/><path d=" M 554.31 404.197 L 456.857 404.197 C 450.403 404.191 445.174 398.957 445.174 392.503 C 445.174 386.048 450.403 380.814 456.857 380.808 L 554.31 380.808 C 560.769 380.808 566.005 386.044 566.005 392.503 C 566.005 398.961 560.769 404.197 554.31 404.197 Z " fill="rgb(94,120,146)"/><path d=" M 223.768 87.994 L 206.492 87.994 C 208.105 91.95 207.644 96.449 205.261 99.994 C 202.879 103.54 198.887 105.666 194.616 105.667 L 118.796 105.667 C 114.524 105.666 110.533 103.54 108.15 99.994 C 105.767 96.449 105.306 91.95 106.919 87.994 L 90.784 87.994 C 75.872 87.994 63.784 100.083 63.784 114.994 L 63.784 457.196 C 63.784 472.108 75.872 484.196 90.784 484.196 L 223.768 484.196 C 238.679 484.196 250.768 472.108 250.768 457.196 L 250.768 457.196 L 250.768 114.994 C 250.768 100.083 238.679 87.994 223.768 87.994 L 223.768 87.994 Z " fill="rgb(240,240,240)"/><path d=" M 223.923 219.046 C 214.701 192.553 190.662 174.037 162.693 171.883 C 134.723 169.729 108.133 184.345 94.963 209.114 C 81.793 233.883 84.543 264.101 101.969 286.085 C 102.603 286.883 103.261 287.681 103.933 288.453 C 103.984 288.504 104.022 288.555 104.072 288.605 C 105.723 290.508 107.478 292.318 109.329 294.027 C 109.811 294.471 110.318 294.927 110.824 295.357 C 111.787 296.219 112.775 297.042 113.801 297.828 C 114.206 298.144 114.599 298.461 115.017 298.765 C 116.639 299.994 118.324 301.134 120.059 302.223 L 120.135 302.261 C 120.629 302.566 121.136 302.87 121.643 303.161 C 122.554 303.706 123.492 304.225 124.429 304.719 L 125.025 305.023 C 126.393 305.733 127.787 306.404 129.218 307.025 C 129.509 307.151 129.826 307.278 130.117 307.405 C 130.143 307.417 130.155 307.417 130.18 307.43 C 130.852 307.709 131.523 307.975 132.207 308.228 C 134.455 309.086 136.747 309.822 139.073 310.432 C 145.012 312.015 151.132 312.816 157.277 312.814 C 159.52 312.814 161.736 312.712 163.928 312.497 C 168.935 312.035 173.879 311.037 178.674 309.52 C 178.686 309.52 178.699 309.508 178.711 309.508 C 181.74 308.543 184.699 307.37 187.566 305.999 C 187.579 305.986 187.604 305.986 187.617 305.973 C 188.263 305.669 188.884 305.34 189.517 305.023 C 189.619 304.972 189.72 304.922 189.821 304.871 C 190.328 304.605 190.835 304.339 191.341 304.06 C 192.608 303.364 193.85 302.629 195.078 301.843 C 195.42 301.641 195.75 301.425 196.092 301.197 C 196.573 300.881 197.054 300.551 197.523 300.209 C 198.144 299.779 198.765 299.335 199.373 298.879 C 199.563 298.74 199.765 298.601 199.955 298.449 C 224.303 279.968 233.979 247.911 223.923 219.046 L 223.923 219.046 Z " fill="rgb(255,255,255)"/><path d=" M 206.106 368.14 L 108.653 368.14 C 102.194 368.14 96.959 362.904 96.959 356.445 C 96.959 349.987 102.194 344.751 108.653 344.751 L 206.106 344.751 C 212.56 344.757 217.789 349.991 217.789 356.445 C 217.789 362.9 212.56 368.134 206.106 368.14 L 206.106 368.14 Z " fill="rgb(94,120,146)"/><path d=" M 202.604 256.258 L 105.151 256.258 C 98.692 256.258 93.456 250.458 93.456 243.303 C 93.456 236.149 98.692 230.349 105.151 230.349 L 202.604 230.349 C 209.058 230.355 214.287 236.153 214.287 243.303 C 214.287 250.454 209.058 256.252 202.604 256.258 L 202.604 256.258 Z " fill="rgb(240,240,240)"/><path d=" M 206.106 404.197 L 108.653 404.197 C 104.472 404.201 100.608 401.973 98.516 398.353 C 96.425 394.733 96.425 390.272 98.516 386.653 C 100.608 383.033 104.472 380.805 108.653 380.808 L 206.106 380.808 C 212.564 380.808 217.8 386.044 217.8 392.503 C 217.8 398.961 212.564 404.197 206.106 404.197 L 206.106 404.197 Z " fill="rgb(94,120,146)"/><path d=" M 411.662 484.362 L 250.094 484.362 C 231.157 484.34 215.812 468.995 215.791 450.058 L 215.791 34.304 C 215.812 15.367 231.157 0.022 250.094 0 L 271.93 0 L 271.087 2.066 C 269.315 6.409 269.822 11.349 272.438 15.242 C 275.054 19.136 279.436 21.471 284.127 21.471 L 376.243 21.471 C 380.934 21.471 385.316 19.136 387.932 15.242 C 390.549 11.349 391.056 6.41 389.284 2.066 L 388.441 0 L 411.662 0 C 430.599 0.021 445.944 15.367 445.966 34.304 L 445.966 450.058 C 445.944 468.995 430.599 484.34 411.662 484.362 L 411.662 484.362 Z " fill="rgb(255,255,255)"/><path d=" M 411.662 484.362 L 250.094 484.362 C 231.157 484.34 215.812 468.995 215.791 450.058 L 215.791 34.304 C 215.812 15.367 231.157 0.022 250.094 0 L 271.93 0 L 271.087 2.066 C 269.315 6.409 269.822 11.349 272.438 15.242 C 275.054 19.136 279.436 21.471 284.127 21.471 L 376.243 21.471 C 380.934 21.471 385.316 19.136 387.932 15.242 C 390.549 11.349 391.056 6.41 389.284 2.066 L 388.441 0 L 411.662 0 C 430.599 0.021 445.944 15.367 445.966 34.304 L 445.966 450.058 C 445.944 468.995 430.599 484.34 411.662 484.362 L 411.662 484.362 Z  M 250.094 3 C 232.813 3.02 218.81 17.023 218.791 34.304 L 218.791 450.058 C 218.81 467.338 232.813 481.342 250.094 481.362 L 411.662 481.362 C 428.943 481.342 442.946 467.339 442.966 450.058 L 442.966 34.304 C 442.946 17.023 428.943 3.02 411.662 3 L 392.758 3 C 394.119 8.128 393.021 13.596 389.786 17.801 C 386.552 22.006 381.548 24.471 376.243 24.471 L 284.127 24.471 C 278.823 24.469 273.82 22.004 270.586 17.8 C 267.353 13.595 266.255 8.127 267.615 3 L 250.094 3 Z " fill="rgb(63,61,86)"/><path d=" M 416.376 147.072 C 405.172 114.884 375.967 92.388 341.985 89.771 C 308.003 87.154 275.698 104.912 259.697 135.005 C 243.696 165.098 247.038 201.81 268.209 228.519 C 268.979 229.489 269.779 230.459 270.595 231.398 C 270.656 231.459 270.702 231.521 270.764 231.582 C 272.77 233.894 274.903 236.093 277.152 238.169 C 277.736 238.708 278.352 239.262 278.967 239.785 C 280.137 240.832 281.337 241.832 282.584 242.787 C 285.018 244.705 287.557 246.488 290.187 248.127 L 290.28 248.173 C 291.988 249.235 293.727 250.22 295.497 251.159 L 296.22 251.529 C 297.883 252.39 299.576 253.206 301.315 253.96 C 301.669 254.114 302.053 254.268 302.407 254.422 C 302.438 254.437 302.454 254.437 302.485 254.453 C 305.999 255.914 309.609 257.133 313.289 258.1 C 320.504 260.023 327.938 260.996 335.405 260.994 C 338.129 260.994 340.823 260.871 343.485 260.609 C 349.569 260.048 355.575 258.835 361.4 256.992 C 361.416 256.992 361.431 256.977 361.446 256.977 C 365.126 255.805 368.72 254.38 372.204 252.714 C 372.219 252.698 372.251 252.698 372.266 252.683 C 373.051 252.314 373.805 251.913 374.575 251.529 Q 374.76 251.436 374.944 251.344 C 375.56 251.021 376.175 250.697 376.791 250.359 C 378.33 249.512 379.838 248.62 381.331 247.666 C 381.747 247.419 382.147 247.158 382.562 246.881 C 383.917 245.988 385.256 245.034 386.548 244.064 C 386.78 243.895 387.026 243.726 387.257 243.541 C 416.836 221.088 428.592 182.141 416.376 147.072 L 416.376 147.072 Z " fill="rgb(255,255,255)"/><path d=" M 394.576 328.086 L 276.176 328.086 C 268.334 328.079 261.98 321.72 261.98 313.878 C 261.98 306.036 268.334 299.677 276.176 299.67 L 394.576 299.67 C 399.655 299.666 404.35 302.373 406.89 306.771 C 409.431 311.168 409.431 316.588 406.89 320.985 C 404.35 325.383 399.655 328.09 394.576 328.086 Z " fill="rgb(255,153,0)"/><path d=" M 394.576 183.841 L 276.176 183.841 C 268.334 183.835 261.98 177.476 261.98 169.633 C 261.98 161.791 268.334 155.432 276.176 155.425 L 394.576 155.425 C 399.655 155.421 404.35 158.128 406.89 162.526 C 409.431 166.924 409.431 172.343 406.89 176.741 C 404.35 181.139 399.655 183.846 394.576 183.841 Z " fill="rgb(240,240,240)"/><path d=" M 394.576 371.894 L 276.176 371.894 C 268.334 371.887 261.98 365.528 261.98 357.686 C 261.98 349.844 268.334 343.484 276.176 343.478 L 394.576 343.478 C 399.655 343.474 404.35 346.181 406.89 350.578 C 409.431 354.976 409.431 360.395 406.89 364.793 C 404.35 369.191 399.655 371.898 394.576 371.894 L 394.576 371.894 Z " fill="rgb(255,153,0)"/><circle vector-effect="non-scaling-stroke" cx="331.2322" cy="419.84549" r="14.207929999999976" fill="rgb(63,61,86)"/><path d=" M 400.855 419.844 C 394.13 417.351 385.787 413.094 380.615 408.585 L 384.26 418.66 L 358.464 418.66 L 358.464 421.028 L 384.26 421.028 L 380.615 431.106 C 385.787 426.597 394.13 422.34 400.855 419.844 Z " fill="rgb(63,61,86)"/><path d=" M 261.61 419.844 C 268.334 417.351 276.678 413.094 281.85 408.585 L 278.205 418.66 L 304 418.66 L 304 421.028 L 278.205 421.028 L 281.85 431.106 C 276.678 426.597 268.334 422.34 261.61 419.844 Z " fill="rgb(63,61,86)"/></g></svg>