<?xml version="1.0" encoding="UTF-8" standalone="no"?><!-- Generator: Gravit.io --><svg xmlns="http://www.w3.org/2000/svg" xmlns:xlink="http://www.w3.org/1999/xlink" style="isolation:isolate" viewBox="0 0 811.233 695.863" width="811.233pt" height="695.863pt"><defs><clipPath id="_clipPath_zUjZ8XymOKqBMSHUzKhod242Q7Uek0L0"><rect width="811.233" height="695.863"/></clipPath></defs><g clip-path="url(#_clipPath_zUjZ8XymOKqBMSHUzKhod242Q7Uek0L0)"><path d=" M 684.618 548.349 L 311.36 674.5 C 301.681 677.759 291.191 672.569 287.91 662.898 L 115.012 151.325 C 111.753 141.647 116.944 131.156 126.615 127.876 L 499.874 1.724 C 509.552 -1.535 520.042 3.656 523.323 13.327 L 696.221 524.9 C 699.48 534.578 694.289 545.068 684.618 548.349 L 684.618 548.349 Z " fill="rgb(230,230,230)"/><path d=" M 675.092 538.902 L 313.202 661.211 C 306.662 663.413 299.574 659.906 297.357 653.371 L 128.302 153.167 C 126.1 146.628 129.607 139.54 136.141 137.323 L 498.032 15.014 C 504.571 12.812 511.659 16.319 513.876 22.853 L 682.931 523.058 C 685.133 529.597 681.626 536.685 675.092 538.902 Z " fill="rgb(255,255,255)"/><path d=" M 584.117 695.112 L 190.117 695.112 C 179.904 695.101 171.628 686.825 171.617 676.612 L 171.617 136.612 C 171.628 126.4 179.904 118.124 190.117 118.112 L 584.117 118.112 C 594.329 118.124 602.605 126.4 602.617 136.612 L 602.617 676.612 C 602.605 686.825 594.329 695.101 584.117 695.112 L 584.117 695.112 Z " fill="rgb(204,204,204)"/><path d=" M 578.117 683.112 L 196.117 683.112 C 189.216 683.105 183.624 677.513 183.617 670.612 L 183.617 142.612 C 183.624 135.712 189.216 130.12 196.117 130.112 L 578.117 130.112 C 585.017 130.12 590.609 135.712 590.617 142.612 L 590.617 670.612 C 590.609 677.513 585.017 683.105 578.117 683.112 L 578.117 683.112 Z " fill="rgb(255,255,255)"/><path d=" M 496.738 279.889 L 244.437 279.889 C 240.011 279.889 236.422 276.301 236.422 271.875 C 236.422 267.449 240.011 263.861 244.437 263.861 L 496.738 263.861 C 501.164 263.861 504.752 267.449 504.752 271.875 C 504.752 276.301 501.164 279.889 496.738 279.889 Z " fill="rgb(209,209,209)"/><path d=" M 529.797 306.937 L 244.437 306.937 C 241.573 306.937 238.928 305.409 237.496 302.93 C 236.065 300.45 236.065 297.395 237.496 294.916 C 238.928 292.436 241.573 290.909 244.437 290.909 L 529.796 290.909 C 534.223 290.909 537.811 294.497 537.811 298.923 C 537.811 303.349 534.223 306.937 529.796 306.937 L 529.797 306.937 Z " fill="rgb(204,204,204)"/><path d=" M 496.738 401.103 L 244.437 401.103 C 240.014 401.098 236.431 397.511 236.431 393.089 C 236.431 388.666 240.014 385.079 244.437 385.074 L 496.738 385.074 C 501.164 385.074 504.752 388.662 504.752 393.089 C 504.752 397.515 501.164 401.103 496.738 401.103 Z " fill="rgb(94,120,146)"/><path d=" M 529.797 428.15 L 244.437 428.15 C 240.014 428.145 236.431 424.559 236.431 420.136 C 236.431 415.714 240.014 412.127 244.437 412.122 L 529.796 412.122 C 534.223 412.122 537.811 415.71 537.811 420.136 C 537.811 424.562 534.223 428.15 529.796 428.15 L 529.797 428.15 Z " fill="rgb(204,204,204)"/><path d=" M 496.738 522.316 L 244.437 522.316 C 240.014 522.311 236.431 518.725 236.431 514.302 C 236.431 509.879 240.014 506.293 244.437 506.288 L 496.738 506.288 C 501.164 506.288 504.752 509.876 504.752 514.302 C 504.752 518.728 501.164 522.316 496.738 522.316 Z " fill="rgb(204,204,204)"/><path d=" M 529.797 549.364 L 244.437 549.364 C 240.011 549.364 236.422 545.776 236.422 541.35 C 236.422 536.924 240.011 533.336 244.437 533.336 L 529.796 533.336 C 534.223 533.336 537.811 536.924 537.811 541.35 C 537.811 545.776 534.223 549.364 529.796 549.364 L 529.797 549.364 Z " fill="rgb(255,153,0)"/></g></svg>