<?xml version="1.0" encoding="UTF-8" standalone="no"?><!-- Generator: Gravit.io --><svg xmlns="http://www.w3.org/2000/svg" xmlns:xlink="http://www.w3.org/1999/xlink" style="isolation:isolate" viewBox="0 0 973.461 587.025" width="973.461pt" height="587.025pt"><defs><clipPath id="_clipPath_gfPPWIlyRxZg0yLIEui4zjAE75WmYooh"><rect width="973.461" height="587.025"/></clipPath></defs><g clip-path="url(#_clipPath_gfPPWIlyRxZg0yLIEui4zjAE75WmYooh)"><clipPath id="_clipPath_Tagu1vqi8uIEZqBDBq4zT6lES3iqqFzb"><rect x="0" y="0" width="973.461" height="587.025" transform="matrix(1,0,0,1,0,0)" fill="rgb(255,255,255)"/></clipPath><g clip-path="url(#_clipPath_Tagu1vqi8uIEZqBDBq4zT6lES3iqqFzb)"><g><line x1="311.049" y1="465" x2="310.211" y2="464.89"/><path d=" M 690.911 270.204 L 441.018 270.204 C 438.258 270.201 436.021 267.978 436.018 265.236 L 436.018 218.435 L 438.018 218.435 L 438.018 265.236 C 438.02 266.881 439.362 268.215 441.018 268.217 L 690.911 268.217 C 692.567 268.215 693.909 266.881 693.911 265.236 L 693.911 218.108 L 695.911 218.108 L 695.911 265.236 C 695.908 267.978 693.671 270.201 690.911 270.204 L 690.911 270.204 Z " fill="rgb(63,61,86)"/><rect x="194.278" y="217.441" width="587.22" height="1.987" transform="matrix(1,0,0,1,0,0)" fill="rgb(63,61,86)"/><ellipse vector-effect="non-scaling-stroke" cx="194.32069999999993" cy="218.27984823137103" rx="17.201999999999998" ry="17.092829027828458" fill="rgb(255,153,0)"/><ellipse vector-effect="non-scaling-stroke" cx="369.1256899999999" cy="218.27984823137103" rx="17.201999999999998" ry="17.092829027828458" fill="rgb(255,153,0)"/><ellipse vector-effect="non-scaling-stroke" cx="487.75770999999986" cy="268.51997725150375" rx="17.201999999999998" ry="17.092829027828472" fill="rgb(94,120,146)"/><ellipse vector-effect="non-scaling-stroke" cx="577.9446599999994" cy="268.51997725150375" rx="17.201999999999998" ry="17.092829027828472" fill="rgb(204,204,204)"/><ellipse vector-effect="non-scaling-stroke" cx="534.2416499999998" cy="218.27984823137103" rx="17.201999999999998" ry="17.092829027828458" fill="rgb(255,153,0)"/><ellipse vector-effect="non-scaling-stroke" cx="779.1406999999995" cy="218.27984823137103" rx="17.201999999999998" ry="17.092829027828458" fill="rgb(255,153,0)"/><ellipse vector-effect="non-scaling-stroke" cx="694.91066" cy="218.27984823137103" rx="17.201999999999998" ry="17.092829027828458" fill="rgb(255,153,0)"/><path d=" M 247.663 219.428 C 247.111 219.428 246.663 218.983 246.663 218.435 L 246.663 169.386 C 246.667 166.644 248.903 164.421 251.663 164.418 L 300.338 164.418 C 300.891 164.418 301.338 164.863 301.338 165.411 C 301.338 165.96 300.891 166.405 300.338 166.405 L 251.663 166.405 C 250.007 166.407 248.665 167.741 248.663 169.386 L 248.663 218.435 C 248.663 218.983 248.216 219.428 247.663 219.428 L 247.663 219.428 Z " fill="rgb(63,61,86)"/><ellipse vector-effect="non-scaling-stroke" cx="302.62568999999985" cy="165.03987902782845" rx="17.201999999999998" ry="17.092829027828458" fill="rgb(230,230,230)"/><path d=" M 632.663 218.435 L 630.663 218.435 L 630.663 169.386 C 630.667 166.644 632.903 164.421 635.663 164.418 L 684.338 164.418 L 684.338 166.405 L 635.663 166.405 C 634.007 166.407 632.665 167.741 632.663 169.386 L 632.663 218.435 Z " fill="rgb(63,61,86)"/><ellipse vector-effect="non-scaling-stroke" cx="686.6256899999998" cy="165.03987902782845" rx="17.201999999999998" ry="17.092829027828458" fill="rgb(230,230,230)"/></g></g></g></svg>