<?xml version="1.0" encoding="UTF-8" standalone="no"?><!-- Generator: Gravit.io --><svg xmlns="http://www.w3.org/2000/svg" xmlns:xlink="http://www.w3.org/1999/xlink" style="isolation:isolate" viewBox="0 0 810.804 685.857" width="810.804pt" height="685.857pt"><defs><clipPath id="_clipPath_zw7zdy2ZbTOvTkBkNbwgIFC9pxqLZvYm"><rect width="810.804" height="685.857"/></clipPath></defs><g clip-path="url(#_clipPath_zw7zdy2ZbTOvTkBkNbwgIFC9pxqLZvYm)"><path d=" M 522.179 513.437 L 303.646 513.437 C 291.451 513.423 281.569 503.541 281.556 491.347 L 281.556 201.984 C 281.569 189.79 291.451 179.908 303.646 179.894 L 522.179 179.894 C 534.373 179.908 544.255 189.79 544.269 201.984 L 544.269 491.347 C 544.255 503.541 534.373 513.423 522.179 513.437 L 522.179 513.437 Z " fill="rgb(230,230,230)"/><path d=" M 506.818 495.026 L 319.007 495.026 C 308.18 495.014 299.405 486.239 299.393 475.412 L 299.393 217.919 C 299.405 207.091 308.18 198.317 319.007 198.305 L 506.818 198.305 C 517.645 198.317 526.419 207.091 526.432 217.919 L 526.432 475.412 C 526.419 486.239 517.645 495.014 506.818 495.026 L 506.818 495.026 Z " fill="rgb(255,255,255)"/><path d=" M 488.082 247.239 L 337.742 247.239 C 335.989 247.241 334.368 246.307 333.49 244.789 C 332.613 243.271 332.613 241.4 333.49 239.882 C 334.368 238.364 335.989 237.43 337.742 237.433 L 488.082 237.433 C 489.836 237.43 491.457 238.364 492.334 239.882 C 493.212 241.4 493.212 243.271 492.334 244.789 C 491.457 246.307 489.836 247.241 488.082 247.239 L 488.082 247.239 Z " fill="rgb(228,228,228)"/><path d=" M 488.082 266.613 L 337.742 266.613 C 335.034 266.613 332.839 264.418 332.839 261.71 C 332.839 259.002 335.034 256.807 337.742 256.807 L 488.082 256.807 C 490.79 256.807 492.986 259.002 492.986 261.71 C 492.986 264.418 490.79 266.613 488.082 266.613 Z " fill="rgb(228,228,228)"/><path d=" M 402.911 285.988 L 337.742 285.988 C 335.034 285.988 332.839 283.793 332.839 281.085 C 332.839 278.377 335.034 276.181 337.742 276.181 L 402.911 276.181 C 405.619 276.181 407.814 278.377 407.814 281.085 C 407.814 283.793 405.619 285.988 402.911 285.988 Z " fill="rgb(228,228,228)"/><path d=" M 488.082 326.565 L 337.742 326.565 C 335.989 326.568 334.368 325.634 333.49 324.116 C 332.613 322.598 332.613 320.727 333.49 319.209 C 334.368 317.691 335.989 316.757 337.742 316.759 L 488.082 316.759 C 489.836 316.757 491.457 317.691 492.334 319.209 C 493.212 320.727 493.212 322.598 492.334 324.116 C 491.457 325.634 489.836 326.568 488.082 326.565 L 488.082 326.565 Z " fill="rgb(228,228,228)"/><path d=" M 488.082 345.94 L 337.742 345.94 C 335.034 345.94 332.839 343.745 332.839 341.037 C 332.839 338.328 335.034 336.133 337.742 336.133 L 488.082 336.133 C 490.79 336.133 492.986 338.328 492.986 341.037 C 492.986 343.745 490.79 345.94 488.082 345.94 Z " fill="rgb(228,228,228)"/><path d=" M 402.911 365.314 L 337.742 365.314 C 335.037 365.31 332.846 363.116 332.846 360.411 C 332.846 357.706 335.037 355.512 337.742 355.508 L 402.911 355.508 C 405.619 355.508 407.814 357.703 407.814 360.411 C 407.814 363.119 405.619 365.314 402.911 365.314 L 402.911 365.314 Z " fill="rgb(228,228,228)"/><path d=" M 488.082 405.892 L 337.742 405.892 C 335.989 405.894 334.368 404.96 333.49 403.442 C 332.613 401.924 332.613 400.053 333.49 398.535 C 334.368 397.017 335.989 396.083 337.742 396.086 L 488.082 396.086 C 489.836 396.083 491.457 397.017 492.334 398.535 C 493.212 400.053 493.212 401.924 492.334 403.442 C 491.457 404.96 489.836 405.894 488.082 405.892 L 488.082 405.892 Z " fill="rgb(228,228,228)"/><path d=" M 488.082 425.266 L 337.742 425.266 C 335.034 425.266 332.839 423.071 332.839 420.363 C 332.839 417.655 335.034 415.46 337.742 415.46 L 488.082 415.46 C 490.79 415.46 492.986 417.655 492.986 420.363 C 492.986 423.071 490.79 425.266 488.082 425.266 Z " fill="rgb(228,228,228)"/><path d=" M 402.911 444.641 L 337.742 444.641 C 335.034 444.641 332.839 442.446 332.839 439.737 C 332.839 437.029 335.034 434.834 337.742 434.834 L 402.911 434.834 C 405.619 434.834 407.814 437.029 407.814 439.737 C 407.814 442.446 405.619 444.641 402.911 444.641 Z " fill="rgb(228,228,228)"/><path d=" M 369.608 345.215 L 206.272 205.506 L 96.539 205.506 L 96.539 203.448 L 207.032 203.448 L 370.946 343.651 L 369.608 345.215 L 369.608 345.215 Z " fill="rgb(47,46,65)"/><circle vector-effect="non-scaling-stroke" cx="96.53869" cy="204.47711999999996" r="16.465450000000004" fill="rgb(255,153,0)"/><path d=" M 155.243 259.86 L 4.903 259.86 C 3.152 259.86 1.533 258.926 0.657 257.409 C -0.219 255.892 -0.219 254.023 0.657 252.506 C 1.533 250.989 3.152 250.054 4.903 250.054 L 155.243 250.054 C 156.995 250.054 158.614 250.989 159.489 252.506 C 160.365 254.023 160.365 255.892 159.489 257.409 C 158.614 258.926 156.995 259.86 155.243 259.86 L 155.243 259.86 Z " fill="rgb(255,153,0)"/><path d=" M 155.243 279.235 L 4.903 279.235 C 2.195 279.235 0 277.039 0 274.331 C 0 271.623 2.195 269.428 4.903 269.428 L 155.243 269.428 C 157.951 269.428 160.146 271.623 160.146 274.331 C 160.146 277.039 157.951 279.235 155.243 279.235 Z " fill="rgb(255,153,0)"/><path d=" M 70.072 298.609 L 4.903 298.609 C 2.195 298.609 0 296.414 0 293.706 C 0 290.998 2.195 288.803 4.903 288.803 L 70.072 288.803 C 72.78 288.803 74.975 290.998 74.975 293.706 C 74.975 296.414 72.78 298.609 70.072 298.609 Z " fill="rgb(255,153,0)"/><path d=" M 412.912 256.639 L 576.826 116.436 L 687.319 116.436 L 687.319 118.494 L 577.586 118.494 L 414.25 258.203 L 412.912 256.639 L 412.912 256.639 Z " fill="rgb(47,46,65)"/><circle vector-effect="non-scaling-stroke" cx="687.31936" cy="117.46545" r="16.465450000000033" fill="rgb(255,153,0)"/><path d=" M 799.275 172.271 L 648.935 172.271 C 647.182 172.274 645.56 171.34 644.683 169.822 C 643.806 168.304 643.806 166.433 644.683 164.915 C 645.56 163.397 647.182 162.463 648.935 162.465 L 799.275 162.465 C 801.028 162.463 802.65 163.397 803.527 164.915 C 804.404 166.433 804.404 168.304 803.527 169.822 C 802.65 171.34 801.028 172.274 799.275 172.271 L 799.275 172.271 Z " fill="rgb(255,153,0)"/><path d=" M 799.275 191.646 L 648.935 191.646 C 646.227 191.646 644.032 189.45 644.032 186.742 C 644.032 184.034 646.227 181.839 648.935 181.839 L 799.275 181.839 C 801.027 181.839 802.645 182.774 803.521 184.291 C 804.397 185.808 804.397 187.677 803.521 189.194 C 802.645 190.711 801.027 191.646 799.275 191.646 L 799.275 191.646 Z " fill="rgb(255,153,0)"/><path d=" M 714.104 211.02 L 648.935 211.02 C 646.227 211.02 644.032 208.825 644.032 206.117 C 644.032 203.409 646.227 201.214 648.935 201.214 L 714.104 201.214 C 715.856 201.214 717.474 202.148 718.35 203.665 C 719.226 205.182 719.226 207.051 718.35 208.569 C 717.474 210.086 715.856 211.02 714.104 211.02 L 714.104 211.02 Z " fill="rgb(255,153,0)"/></g></svg>