<?xml version="1.0" encoding="UTF-8" standalone="no"?><!-- Generator: Gravit.io --><svg xmlns="http://www.w3.org/2000/svg" xmlns:xlink="http://www.w3.org/1999/xlink" style="isolation:isolate" viewBox="0 0 618.726 633.214" width="618.726pt" height="633.214pt"><defs><clipPath id="_clipPath_E9Pkn0qQDqlNwUhbsEt4NGKLcJhhwd5B"><rect width="618.726" height="633.214"/></clipPath></defs><g clip-path="url(#_clipPath_E9Pkn0qQDqlNwUhbsEt4NGKLcJhhwd5B)"><path d="M 206.778 18.822 L 415.311 20.415 C 447.723 20.663 473.836 47.179 473.588 79.591 L 469.947 556.12 C 469.699 588.533 443.184 614.646 410.772 614.398 L 202.239 612.805 C 169.827 612.557 143.714 586.041 143.962 553.629 L 147.603 77.1 C 147.851 44.687 174.366 18.574 206.778 18.822 Z" style="stroke:none;fill:#3F3D56;stroke-miterlimit:10;"/><path d=" M 415.271 25.912 L 388.001 25.704 L 387.929 35.125 C 387.861 44.005 380.607 51.148 371.727 51.08 L 249.888 50.149 C 241.009 50.081 233.865 42.828 233.933 33.948 L 234.005 24.527 L 206.734 24.319 C 177.352 24.127 153.359 47.757 153.101 77.139 L 149.459 553.668 C 149.268 583.051 172.897 607.044 202.279 607.302 L 410.816 608.895 C 440.199 609.087 464.192 585.458 464.45 556.075 L 468.091 79.546 C 468.283 50.163 444.654 26.17 415.271 25.912 Z " fill="rgb(255,255,255)"/><path d=" M 145.629 138.855 C 143.421 138.836 141.645 137.033 141.66 134.825 L 141.721 126.825 C 141.738 124.616 143.542 122.839 145.751 122.856 C 147.96 122.872 149.737 124.677 149.72 126.886 L 149.659 134.886 C 149.64 137.094 147.837 138.869 145.629 138.855 Z " fill="rgb(63,61,86)"/><path d=" M 145.315 179.875 C 143.107 179.856 141.332 178.053 141.346 175.845 L 141.514 153.824 C 141.525 152.395 142.298 151.08 143.541 150.375 C 144.784 149.67 146.308 149.682 147.541 150.406 C 148.773 151.13 149.525 152.456 149.514 153.885 L 149.346 175.906 C 149.326 178.114 147.523 179.89 145.315 179.875 L 145.315 179.875 Z " fill="rgb(63,61,86)"/><path d=" M 145.063 212.853 C 142.855 212.834 141.08 211.031 141.094 208.822 L 141.262 186.802 C 141.279 184.593 143.084 182.815 145.293 182.832 C 147.502 182.849 149.279 184.654 149.262 186.863 L 149.094 208.884 C 149.074 211.092 147.271 212.867 145.063 212.853 L 145.063 212.853 Z " fill="rgb(63,61,86)"/><path d=" M 473.191 197.36 C 470.983 197.341 469.208 195.538 469.222 193.329 L 469.633 139.598 C 469.649 137.389 471.454 135.611 473.663 135.628 C 475.872 135.645 477.649 137.45 477.632 139.659 L 477.222 193.391 C 477.202 195.599 475.399 197.374 473.191 197.36 L 473.191 197.36 Z " fill="rgb(63,61,86)"/><path d=" M 220.994 151.638 C 220.624 151.636 220.269 151.497 219.996 151.248 L 204.065 136.754 C 203.77 136.486 203.594 136.112 203.576 135.715 C 203.557 135.318 203.697 134.929 203.965 134.635 L 218.459 118.703 C 219.016 118.09 219.965 118.046 220.578 118.603 C 221.191 119.161 221.235 120.109 220.678 120.722 L 207.193 135.544 L 222.015 149.029 C 222.475 149.447 222.629 150.106 222.403 150.685 C 222.176 151.264 221.616 151.643 220.994 151.638 L 220.994 151.638 Z " fill="rgb(255,153,0)"/><path d=" M 232.487 151.687 C 231.855 151.682 231.294 151.282 231.084 150.687 C 230.873 150.091 231.058 149.428 231.546 149.027 L 247.038 136.317 L 234.329 120.825 C 233.988 120.411 233.894 119.846 234.083 119.343 C 234.272 118.841 234.714 118.478 235.244 118.391 C 235.774 118.304 236.309 118.507 236.649 118.923 L 250.309 135.575 C 250.562 135.882 250.681 136.278 250.642 136.673 C 250.603 137.069 250.408 137.433 250.101 137.686 L 233.449 151.346 C 233.178 151.569 232.837 151.69 232.487 151.687 L 232.487 151.687 Z " fill="rgb(255,153,0)"/><path d=" M 431.014 173.537 L 192.737 171.716 C 185.088 171.649 178.936 165.402 178.985 157.752 L 179.339 111.47 C 179.406 103.82 185.653 97.668 193.303 97.718 L 431.579 99.539 C 439.229 99.606 445.381 105.853 445.331 113.503 L 444.978 159.785 C 444.911 167.435 438.664 173.587 431.014 173.537 L 431.014 173.537 Z  M 193.288 99.718 C 186.742 99.676 181.397 104.94 181.339 111.486 L 180.985 157.767 C 180.943 164.313 186.207 169.659 192.753 169.716 L 431.029 171.537 C 437.575 171.579 442.92 166.315 442.978 159.77 L 443.331 113.488 C 443.374 106.942 438.11 101.597 431.564 101.539 L 193.288 99.718 Z " fill="rgb(63,61,86)"/><path d=" M 320.074 128.688 L 280.075 128.382 C 277.866 128.365 276.089 126.561 276.106 124.352 C 276.123 122.143 277.927 120.366 280.136 120.382 L 320.135 120.688 C 322.344 120.705 324.121 122.509 324.104 124.719 C 324.087 126.928 322.283 128.705 320.074 128.688 L 320.074 128.688 Z " fill="rgb(230,230,230)"/><path d=" M 405.903 151.344 L 278.907 150.374 C 276.698 150.357 274.921 148.553 274.938 146.343 C 274.954 144.134 276.759 142.357 278.968 142.374 L 405.964 143.345 C 407.393 143.356 408.708 144.128 409.413 145.371 C 410.118 146.614 410.106 148.139 409.382 149.371 C 408.659 150.603 407.332 151.355 405.903 151.344 L 405.903 151.344 Z " fill="rgb(230,230,230)"/><path d=" M 217.442 467.743 C 217.073 467.741 216.718 467.602 216.445 467.353 L 200.513 452.858 C 200.219 452.591 200.043 452.217 200.024 451.82 C 200.005 451.422 200.145 451.034 200.413 450.739 L 214.907 434.808 C 215.465 434.195 216.414 434.15 217.026 434.708 C 217.639 435.265 217.684 436.214 217.126 436.827 L 203.642 451.649 L 218.464 465.134 C 218.924 465.552 219.078 466.211 218.851 466.79 C 218.625 467.369 218.064 467.748 217.442 467.743 L 217.442 467.743 Z " fill="rgb(255,153,0)"/><path d=" M 228.935 467.792 C 228.304 467.787 227.743 467.388 227.532 466.792 C 227.321 466.197 227.506 465.533 227.994 465.132 L 243.487 452.422 L 230.778 436.929 C 230.254 436.288 230.348 435.344 230.988 434.82 C 231.627 434.295 232.572 434.387 233.097 435.027 L 246.758 451.679 C 247.283 452.32 247.19 453.265 246.55 453.79 L 229.898 467.451 C 229.627 467.674 229.286 467.795 228.935 467.792 Z " fill="rgb(255,153,0)"/><path d=" M 428.125 551.526 L 189.849 549.705 C 182.199 549.638 176.047 543.391 176.097 535.741 L 177.008 416.461 C 177.075 408.811 183.322 402.659 190.972 402.709 L 429.249 404.53 C 436.898 404.597 443.05 410.844 443.001 418.494 L 442.089 537.774 C 442.022 545.424 435.775 551.576 428.125 551.526 Z  M 190.957 404.709 C 184.411 404.667 179.066 409.931 179.008 416.477 L 178.097 535.756 C 178.054 542.302 183.318 547.648 189.864 547.705 L 428.14 549.526 C 434.686 549.569 440.032 544.304 440.089 537.759 L 441.001 418.479 C 441.043 411.933 435.779 406.588 429.233 406.53 L 190.957 404.709 Z " fill="rgb(63,61,86)"/><path d=" M 316.522 444.792 L 276.524 444.487 C 275.093 444.478 273.776 443.706 273.07 442.462 C 272.364 441.218 272.375 439.692 273.101 438.459 C 273.826 437.226 275.154 436.474 276.585 436.487 L 316.584 436.793 C 318.79 436.813 320.564 438.616 320.547 440.823 C 320.53 443.03 318.729 444.806 316.522 444.792 L 316.522 444.792 Z " fill="rgb(230,230,230)"/><path d=" M 402.352 467.449 L 275.356 466.478 C 273.925 466.469 272.609 465.697 271.903 464.453 C 271.197 463.21 271.208 461.684 271.933 460.451 C 272.658 459.218 273.987 458.466 275.417 458.479 L 402.413 459.449 C 404.622 459.466 406.399 461.271 406.382 463.48 C 406.365 465.689 404.561 467.466 402.352 467.449 L 402.352 467.449 Z " fill="rgb(230,230,230)"/><path d="M 182.298 231.77 L 193.972 231.859 C 195.561 231.872 196.842 233.173 196.83 234.764 L 196.804 238.129 C 196.792 239.72 195.492 241.002 193.902 240.99 L 182.228 240.901 C 180.639 240.888 179.358 239.587 179.37 237.996 L 179.396 234.631 C 179.408 233.04 180.708 231.758 182.298 231.77 Z" style="stroke:none;fill:#E6E6E6;stroke-miterlimit:10;"/><path d="M 277.328 232.5 L 289.002 232.589 C 290.591 232.601 291.872 233.901 291.86 235.491 L 291.834 238.853 C 291.822 240.442 290.522 241.722 288.932 241.71 L 277.258 241.621 C 275.669 241.609 274.388 240.309 274.4 238.719 L 274.426 235.357 C 274.438 233.768 275.738 232.488 277.328 232.5 Z" style="stroke:none;fill:#FF9900;stroke-miterlimit:10;"/><path d="M 304.248 232.71 L 315.922 232.799 C 317.511 232.811 318.792 234.111 318.78 235.701 L 318.754 239.063 C 318.742 240.652 317.442 241.932 315.852 241.92 L 304.178 241.831 C 302.589 241.819 301.308 240.519 301.32 238.929 L 301.346 235.567 C 301.358 233.978 302.658 232.698 304.248 232.71 Z" style="stroke:none;fill:#E6E6E6;stroke-miterlimit:10;"/><path d="M 208.157 231.21 L 263.152 231.63 C 264.742 231.642 266.022 232.942 266.01 234.531 L 265.984 237.893 C 265.972 239.482 264.672 240.762 263.083 240.75 L 208.088 240.33 C 206.498 240.318 205.218 239.018 205.23 237.429 L 205.256 234.067 C 205.268 232.478 206.568 231.198 208.157 231.21 Z" style="stroke:none;fill:#E6E6E6;stroke-miterlimit:10;"/><path d="M 334.858 232.18 L 389.862 232.6 C 391.451 232.612 392.732 233.912 392.72 235.501 L 392.694 238.863 C 392.682 240.452 391.382 241.732 389.792 241.72 L 334.788 241.3 C 333.199 241.288 331.918 239.988 331.93 238.399 L 331.956 235.037 C 331.968 233.448 333.268 232.168 334.858 232.18 Z" style="stroke:none;fill:#F2F2F2;stroke-miterlimit:10;"/><path d="M 182.486 252.37 L 194.153 252.459 C 195.742 252.471 197.022 253.771 197.01 255.361 L 196.984 258.723 C 196.972 260.312 195.672 261.592 194.084 261.58 L 182.417 261.491 C 180.828 261.479 179.548 260.179 179.56 258.589 L 179.586 255.227 C 179.598 253.638 180.898 252.358 182.486 252.37 Z" style="stroke:none;fill:#E6E6E6;stroke-miterlimit:10;"/><path d="M 277.508 253.09 L 289.182 253.179 C 290.771 253.191 292.052 254.491 292.04 256.081 L 292.014 259.443 C 292.002 261.032 290.702 262.312 289.112 262.3 L 277.438 262.211 C 275.849 262.199 274.568 260.899 274.58 259.309 L 274.606 255.947 C 274.618 254.358 275.918 253.078 277.508 253.09 Z" style="stroke:none;fill:#FF9900;stroke-miterlimit:10;"/><path d="M 304.436 253.3 L 316.103 253.389 C 317.692 253.401 318.972 254.701 318.96 256.291 L 318.934 259.653 C 318.922 261.242 317.622 262.522 316.034 262.51 L 304.367 262.421 C 302.778 262.409 301.498 261.109 301.51 259.519 L 301.536 256.157 C 301.548 254.568 302.848 253.288 304.436 253.3 Z" style="stroke:none;fill:#E6E6E6;stroke-miterlimit:10;"/><path d="M 208.338 251.8 L 263.342 252.221 C 264.931 252.233 266.212 253.534 266.2 255.125 L 266.174 258.49 C 266.162 260.081 264.862 261.362 263.272 261.35 L 208.268 260.929 C 206.679 260.917 205.398 259.616 205.41 258.025 L 205.436 254.66 C 205.448 253.069 206.748 251.788 208.338 251.8 Z" style="stroke:none;fill:#E6E6E6;stroke-miterlimit:10;"/><path d="M 335.038 252.77 L 390.042 253.19 C 391.631 253.202 392.912 254.502 392.9 256.091 L 392.874 259.453 C 392.862 261.042 391.562 262.322 389.972 262.31 L 334.968 261.89 C 333.379 261.878 332.098 260.578 332.11 258.989 L 332.136 255.627 C 332.148 254.038 333.448 252.758 335.038 252.77 Z" style="stroke:none;fill:#F2F2F2;stroke-miterlimit:10;"/><path d="M 232.668 273.34 L 244.342 273.429 C 245.931 273.441 247.212 274.741 247.2 276.331 L 247.174 279.693 C 247.162 281.282 245.862 282.562 244.272 282.55 L 232.598 282.461 C 231.009 282.449 229.728 281.149 229.74 279.559 L 229.766 276.197 C 229.778 274.608 231.078 273.328 232.668 273.34 Z" style="stroke:none;fill:#E6E6E6;stroke-miterlimit:10;"/><path d="M 327.688 274.07 L 339.362 274.159 C 340.951 274.171 342.232 275.471 342.22 277.061 L 342.194 280.423 C 342.182 282.012 340.882 283.292 339.292 283.28 L 327.618 283.191 C 326.029 283.179 324.748 281.879 324.76 280.289 L 324.786 276.927 C 324.798 275.338 326.098 274.058 327.688 274.07 Z" style="stroke:none;fill:#FF9900;stroke-miterlimit:10;"/><path d="M 354.618 274.27 L 366.292 274.359 C 367.881 274.371 369.162 275.671 369.15 277.261 L 369.124 280.623 C 369.112 282.212 367.812 283.492 366.222 283.48 L 354.548 283.391 C 352.959 283.379 351.678 282.079 351.69 280.489 L 351.716 277.127 C 351.728 275.538 353.028 274.258 354.618 274.27 Z" style="stroke:none;fill:#E6E6E6;stroke-miterlimit:10;"/><path d="M 258.518 272.78 L 313.522 273.2 C 315.111 273.212 316.392 274.512 316.38 276.101 L 316.354 279.463 C 316.342 281.052 315.042 282.332 313.452 282.32 L 258.448 281.9 C 256.859 281.888 255.578 280.588 255.59 278.999 L 255.616 275.637 C 255.628 274.048 256.928 272.768 258.518 272.78 Z" style="stroke:none;fill:#E6E6E6;stroke-miterlimit:10;"/><path d="M 385.228 273.74 L 440.232 274.161 C 441.821 274.173 443.102 275.474 443.09 277.065 L 443.064 280.43 C 443.052 282.021 441.752 283.302 440.162 283.29 L 385.158 282.869 C 383.569 282.857 382.288 281.556 382.3 279.965 L 382.326 276.6 C 382.338 275.009 383.638 273.728 385.228 273.74 Z" style="stroke:none;fill:#F2F2F2;stroke-miterlimit:10;"/><path d="M 181.556 333.3 L 193.223 333.389 C 194.812 333.401 196.092 334.701 196.08 336.291 L 196.054 339.653 C 196.042 341.242 194.742 342.522 193.154 342.51 L 181.487 342.421 C 179.898 342.409 178.618 341.109 178.63 339.519 L 178.656 336.157 C 178.668 334.568 179.968 333.288 181.556 333.3 Z" style="stroke:none;fill:#FF9900;stroke-miterlimit:10;"/><path d="M 208.478 333.5 L 220.152 333.589 C 221.741 333.601 223.022 334.901 223.01 336.491 L 222.984 339.853 C 222.972 341.442 221.672 342.722 220.082 342.71 L 208.408 342.621 C 206.819 342.609 205.538 341.309 205.55 339.719 L 205.576 336.357 C 205.588 334.768 206.888 333.488 208.478 333.5 Z" style="stroke:none;fill:#E6E6E6;stroke-miterlimit:10;"/><path d="M 239.068 334.5 L 294.072 334.92 C 295.661 334.932 296.942 336.232 296.93 337.821 L 296.904 341.183 C 296.892 342.772 295.592 344.052 294.002 344.04 L 238.998 343.62 C 237.409 343.608 236.128 342.308 236.14 340.719 L 236.166 337.357 C 236.178 335.768 237.478 334.488 239.068 334.5 Z" style="stroke:none;fill:#F2F2F2;stroke-miterlimit:10;"/><path d="M 251.048 313.24 L 262.722 313.329 C 264.311 313.341 265.592 314.641 265.58 316.231 L 265.554 319.593 C 265.542 321.182 264.242 322.462 262.652 322.45 L 250.978 322.361 C 249.389 322.349 248.108 321.049 248.12 319.459 L 248.146 316.097 C 248.158 314.508 249.458 313.228 251.048 313.24 Z" style="stroke:none;fill:#FF9900;stroke-miterlimit:10;"/><path d="M 277.978 313.44 L 289.652 313.529 C 291.241 313.541 292.522 314.841 292.51 316.431 L 292.484 319.793 C 292.472 321.382 291.172 322.662 289.582 322.65 L 277.908 322.561 C 276.319 322.549 275.038 321.249 275.05 319.659 L 275.076 316.297 C 275.088 314.708 276.388 313.428 277.978 313.44 Z" style="stroke:none;fill:#FF9900;stroke-miterlimit:10;"/><path d="M 181.868 313.47 L 236.872 313.89 C 238.461 313.902 239.742 315.202 239.73 316.791 L 239.704 320.153 C 239.692 321.742 238.392 323.022 236.802 323.01 L 181.798 322.59 C 180.209 322.578 178.928 321.278 178.94 319.689 L 178.966 316.327 C 178.978 314.738 180.278 313.458 181.868 313.47 Z" style="stroke:none;fill:#E6E6E6;stroke-miterlimit:10;"/><path d="M 308.568 314.44 L 363.572 314.86 C 365.161 314.872 366.442 316.172 366.43 317.761 L 366.404 321.123 C 366.392 322.712 365.092 323.992 363.502 323.98 L 308.498 323.56 C 306.909 323.548 305.628 322.248 305.64 320.659 L 305.666 317.297 C 305.678 315.708 306.978 314.428 308.568 314.44 Z" style="stroke:none;fill:#F2F2F2;stroke-miterlimit:10;"/><path d="M 232.518 292.51 L 244.192 292.599 C 245.781 292.611 247.062 293.911 247.05 295.501 L 247.024 298.863 C 247.012 300.452 245.712 301.732 244.122 301.72 L 232.448 301.631 C 230.859 301.619 229.578 300.319 229.59 298.729 L 229.616 295.367 C 229.628 293.778 230.928 292.498 232.518 292.51 Z" style="stroke:none;fill:#E6E6E6;stroke-miterlimit:10;"/><path d="M 327.546 293.23 L 339.213 293.319 C 340.802 293.331 342.082 294.631 342.07 296.221 L 342.044 299.583 C 342.032 301.172 340.732 302.452 339.144 302.44 L 327.477 302.351 C 325.888 302.339 324.608 301.039 324.62 299.449 L 324.646 296.087 C 324.658 294.498 325.958 293.218 327.546 293.23 Z" style="stroke:none;fill:#FF9900;stroke-miterlimit:10;"/><path d="M 354.468 293.44 L 366.142 293.529 C 367.731 293.541 369.012 294.841 369 296.431 L 368.974 299.793 C 368.962 301.382 367.662 302.662 366.072 302.65 L 354.398 302.561 C 352.809 302.549 351.528 301.249 351.54 299.659 L 351.566 296.297 C 351.578 294.708 352.878 293.428 354.468 293.44 Z" style="stroke:none;fill:#E6E6E6;stroke-miterlimit:10;"/><path d="M 258.358 293.46 L 313.362 293.881 C 314.951 293.893 316.232 295.194 316.22 296.785 L 316.194 300.15 C 316.182 301.741 314.882 303.022 313.292 303.01 L 258.288 302.589 C 256.699 302.577 255.418 301.276 255.43 299.685 L 255.456 296.32 C 255.468 294.729 256.768 293.448 258.358 293.46 Z" style="stroke:none;fill:#E6E6E6;stroke-miterlimit:10;"/><path d="M 385.067 294.43 L 440.062 294.851 C 441.652 294.863 442.932 296.164 442.92 297.755 L 442.894 301.12 C 442.882 302.711 441.582 303.992 439.993 303.98 L 384.998 303.559 C 383.408 303.547 382.128 302.246 382.14 300.655 L 382.166 297.29 C 382.178 295.699 383.478 294.418 385.067 294.43 Z" style="stroke:none;fill:#F2F2F2;stroke-miterlimit:10;"/><path d=" M 210.114 295.102 C 210.822 292.721 213.33 291.364 215.711 292.072 C 218.091 292.781 219.449 295.289 218.74 297.669 C 218.032 300.049 215.524 301.407 213.143 300.698 C 210.763 299.99 209.406 297.482 210.114 295.102 Z " fill="rgb(255,153,0)"/><path d=" M 210.259 276.102 C 210.968 273.722 213.475 272.365 215.856 273.073 C 218.236 273.781 219.594 276.289 218.885 278.67 C 218.177 281.05 215.669 282.407 213.289 281.699 C 210.908 280.991 209.551 278.483 210.259 276.102 Z " fill="rgb(255,153,0)"/><path d=" M 319.497 38.027 L 288.498 37.79 C 287.121 37.774 286.016 36.648 286.027 35.271 C 286.037 33.894 287.159 32.785 288.536 32.79 L 319.535 33.027 C 320.431 33.03 321.256 33.512 321.699 34.29 C 322.142 35.069 322.134 36.025 321.68 36.796 C 321.225 37.568 320.392 38.037 319.497 38.027 L 319.497 38.027 Z " fill="rgb(255,255,255)"/><path d=" M 333.599 35.078 C 333.914 34.02 335.028 33.417 336.086 33.732 C 337.144 34.047 337.747 35.161 337.432 36.219 C 337.118 37.277 336.003 37.881 334.945 37.566 C 333.887 37.251 333.284 36.136 333.599 35.078 Z " fill="rgb(255,255,255)"/><path d=" M 289.162 523.446 C 282.254 523.393 276.059 519.185 273.464 512.783 C 270.869 506.381 272.387 499.047 277.308 494.2 C 282.23 489.353 289.587 487.948 295.948 490.64 C 302.31 493.332 306.423 499.591 306.37 506.499 C 306.298 515.931 298.593 523.518 289.162 523.446 Z " fill="rgb(230,230,230)"/><path d=" M 296.043 504.735 L 290.99 504.696 L 291.028 499.642 C 291.033 499.041 290.716 498.482 290.197 498.177 C 289.678 497.872 289.036 497.867 288.512 498.164 C 287.989 498.461 287.663 499.015 287.659 499.617 L 287.62 504.671 L 282.566 504.632 C 281.637 504.626 280.879 505.374 280.871 506.304 C 280.864 507.233 281.611 507.993 282.541 508.001 L 287.594 508.04 L 287.556 513.094 C 287.551 513.696 287.868 514.254 288.387 514.559 C 288.906 514.864 289.548 514.869 290.072 514.572 C 290.595 514.275 290.921 513.722 290.925 513.12 L 290.964 508.066 L 296.018 508.104 C 296.947 508.11 297.705 507.362 297.713 506.433 C 297.72 505.503 296.973 504.744 296.043 504.735 L 296.043 504.735 Z " fill="rgb(255,255,255)"/><path d=" M 339.127 523.828 C 332.219 523.775 326.024 519.567 323.429 513.165 C 320.835 506.763 322.352 499.429 327.274 494.582 C 332.195 489.735 339.552 488.33 345.913 491.022 C 352.275 493.714 356.388 499.973 356.335 506.881 C 356.263 516.312 348.559 523.9 339.127 523.828 Z " fill="rgb(230,230,230)"/><path d=" M 346.009 505.117 L 340.955 505.078 L 337.585 505.053 L 332.532 505.014 C 331.601 505.007 330.841 505.755 330.834 506.686 C 330.827 507.616 331.575 508.376 332.506 508.383 L 337.56 508.422 L 340.929 508.448 L 345.983 508.486 C 346.585 508.492 347.145 508.175 347.451 507.656 C 347.756 507.136 347.761 506.494 347.463 505.97 C 347.166 505.446 346.611 505.121 346.009 505.117 L 346.009 505.117 Z " fill="rgb(255,255,255)"/><path d=" M 389.092 524.21 C 382.185 524.157 375.989 519.949 373.394 513.547 C 370.8 507.145 372.317 499.81 377.239 494.964 C 382.16 490.117 389.517 488.712 395.879 491.404 C 402.24 494.096 406.353 500.355 406.301 507.262 C 406.228 516.694 398.524 524.282 389.092 524.21 Z " fill="rgb(230,230,230)"/><path d=" M 398.836 506.394 L 394.049 499.29 C 393.606 498.633 392.713 498.459 392.056 498.902 C 391.398 499.345 391.224 500.238 391.667 500.895 L 394.764 505.489 L 390.92 505.46 L 387.551 505.434 L 382.497 505.396 C 381.566 505.389 380.806 506.137 380.799 507.067 C 380.792 507.998 381.541 508.758 382.471 508.765 L 387.525 508.804 L 390.894 508.829 L 394.892 508.86 L 391.57 513.63 C 391.119 514.281 391.28 515.174 391.93 515.626 C 392.579 516.079 393.473 515.92 393.927 515.271 L 398.822 508.241 C 399.147 507.67 399.153 506.971 398.836 506.394 L 398.836 506.394 Z " fill="rgb(255,255,255)"/></g></svg>