<?xml version="1.0" encoding="UTF-8" standalone="no"?><!-- Generator: Gravit.io --><svg xmlns="http://www.w3.org/2000/svg" xmlns:xlink="http://www.w3.org/1999/xlink" style="isolation:isolate" viewBox="0 0 856.385 559.94" width="856.385pt" height="559.94pt"><defs><clipPath id="_clipPath_AIsVvkug4bpctC3b5yK2BazNZerPsKA3"><rect width="856.385" height="559.94"/></clipPath></defs><g clip-path="url(#_clipPath_AIsVvkug4bpctC3b5yK2BazNZerPsKA3)"><g><rect x="520.012" y="199.425" width="94.644" height="1.803" transform="matrix(1,-0.001,0.001,1,-0.236,0.669)" fill="rgb(204,204,204)"/><rect x="145.941" y="199.745" width="300.158" height="1.803" transform="matrix(1,-0.001,0.001,1,-0.236,0.349)" fill="rgb(204,204,204)"/><path d=" M 108.985 200.867 C 108.961 180.47 125.501 163.891 145.898 163.867 C 166.294 163.843 182.873 180.383 182.897 200.78 C 182.921 221.176 166.382 237.755 145.985 237.779 C 125.588 237.803 109.01 221.263 108.985 200.867 Z " fill="rgb(255,153,0)"/><path d=" M 108.985 200.867 C 108.961 180.47 125.501 163.891 145.898 163.867 C 166.294 163.843 182.873 180.383 182.897 200.78 C 182.921 221.176 166.382 237.755 145.985 237.779 C 125.588 237.803 109.01 221.263 108.985 200.867 Z " fill="rgb(255,153,0)"/><path d=" M 483.096 238.285 C 467.784 238.303 453.968 229.095 448.092 214.956 C 442.216 200.816 445.435 184.529 456.25 173.689 C 467.065 162.849 483.344 159.59 497.498 165.433 C 511.651 171.276 520.891 185.07 520.909 200.382 C 520.934 221.29 504.004 238.26 483.096 238.285 Z  M 483.009 164.372 C 468.426 164.389 455.289 173.189 449.724 186.668 C 444.16 200.148 447.263 215.652 457.587 225.952 C 467.91 236.251 483.422 239.317 496.888 233.721 C 510.354 228.124 519.123 214.967 519.106 200.384 C 519.083 180.472 502.921 164.348 483.009 164.372 L 483.009 164.372 Z " fill="rgb(204,204,204)"/><path d=" M 143.238 212.267 C 142.589 212.268 141.957 212.058 141.438 211.669 L 141.406 211.645 L 134.616 206.465 C 133.294 205.454 133.042 203.562 134.053 202.24 C 135.065 200.917 136.957 200.665 138.279 201.677 L 142.676 205.04 L 153.041 191.484 C 154.052 190.163 155.942 189.911 157.264 190.921 L 157.264 190.921 L 157.2 191.01 L 157.266 190.921 C 158.586 191.933 158.838 193.823 157.828 195.146 L 145.636 211.083 C 145.064 211.828 144.177 212.263 143.237 212.261 L 143.238 212.267 Z " fill="rgb(255,255,255)"/><path d=" M 607.926 201.18 C 607.902 180.784 624.442 164.205 644.839 164.181 C 665.235 164.157 681.814 180.697 681.838 201.093 C 681.862 221.49 665.322 238.069 644.926 238.093 C 624.529 238.117 607.95 221.577 607.926 201.18 Z " fill="rgb(255,0,0)"/><path d=" M 374.509 360.775 C 373.091 360.777 371.782 361.535 371.074 362.764 C 370.367 363.993 370.368 365.506 371.079 366.733 C 371.789 367.96 373.1 368.715 374.518 368.713 L 455.031 368.619 C 456.449 368.617 457.759 367.859 458.466 366.63 C 459.174 365.401 459.172 363.888 458.461 362.661 C 457.751 361.434 456.44 360.679 455.022 360.681 L 374.509 360.775 Z " fill="rgb(230,230,230)"/></g><g><path d=" M 586.037 401.001 L 270.348 401.001 C 267.121 400.997 264.506 398.382 264.502 395.155 L 264.502 316.846 C 264.506 313.619 267.121 311.004 270.348 311 L 586.037 311 C 589.264 311.004 591.879 313.619 591.883 316.846 L 591.883 395.155 C 591.879 398.382 589.264 400.997 586.037 401.001 L 586.037 401.001 Z  M 270.348 313.339 C 268.411 313.341 266.842 314.91 266.84 316.847 L 266.84 395.156 C 266.842 397.093 268.411 398.662 270.348 398.664 L 586.037 398.664 C 587.974 398.662 589.543 397.093 589.545 395.156 L 589.545 316.846 C 589.543 314.909 587.974 313.34 586.037 313.338 L 270.348 313.339 Z " fill="rgb(230,230,230)"/><path d=" M 374.399 337.119 C 372.981 337.119 371.671 337.875 370.962 339.103 C 370.253 340.332 370.253 341.844 370.962 343.073 C 371.671 344.301 372.981 345.057 374.399 345.057 L 561.507 345.057 C 563.699 345.057 565.476 343.28 565.476 341.088 C 565.476 338.896 563.699 337.119 561.507 337.119 L 374.399 337.119 Z " fill="rgb(230,230,230)"/><path d=" M 632.692 195.954 L 625.307 195.954 C 624.624 195.954 623.993 196.816 623.651 198.216 C 623.31 199.615 623.31 201.339 623.651 202.739 C 623.993 204.138 624.624 205 625.307 205 L 664.088 205 C 664.771 205 665.402 204.138 665.744 202.739 C 666.085 201.339 666.085 199.615 665.744 198.216 C 665.402 196.816 664.771 195.954 664.088 195.954 L 632.692 195.954 Z " fill="rgb(255,255,255)"/><g><circle vector-effect="non-scaling-stroke" cx="319.624" cy="352.815" r="23.81400000000002" fill="rgb(230,230,230)"/><path d=" M 315.881 366.05 C 315.081 366.051 314.302 365.792 313.662 365.312 L 313.622 365.282 L 305.264 358.888 C 303.635 357.64 303.326 355.307 304.574 353.678 C 305.822 352.049 308.155 351.74 309.784 352.988 L 315.198 357.139 L 327.991 340.449 C 329.238 338.822 331.569 338.514 333.196 339.761 L 333.196 339.761 L 333.117 339.871 L 333.199 339.761 C 334.824 341.01 335.132 343.339 333.886 344.967 L 318.839 364.601 C 318.133 365.517 317.041 366.052 315.885 366.049 L 315.881 366.05 Z " fill="rgb(255,153,0)"/></g></g><path d=" M 268 200.088 C 267.976 179.691 284.516 163.112 304.912 163.088 C 325.309 163.064 341.888 179.604 341.912 200 C 341.936 220.397 325.396 236.976 305 237 C 284.603 237.024 268.024 220.484 268 200.088 Z " fill="rgb(94,120,146)"/><path d=" M 446.088 200.088 C 446.064 179.691 462.604 163.112 483 163.088 C 503.397 163.064 519.976 179.604 520 200 C 520.024 220.397 503.484 236.976 483.088 237 C 462.691 237.024 446.112 220.484 446.088 200.088 Z " fill="rgb(94,120,146)"/></g></svg>