<?xml version="1.0" encoding="UTF-8" standalone="no"?><!-- Generator: Gravit.io --><svg xmlns="http://www.w3.org/2000/svg" xmlns:xlink="http://www.w3.org/1999/xlink" style="isolation:isolate" viewBox="0 0 1176.606 873.979" width="1176.606pt" height="873.979pt"><defs><clipPath id="_clipPath_axMt3zt83sszxDqJzxyyNhKndruIbOF0"><rect width="1176.606" height="873.979"/></clipPath></defs><g clip-path="url(#_clipPath_axMt3zt83sszxDqJzxyyNhKndruIbOF0)"><path d=" M 309.732 249.217 C 309.358 246.264 308.603 243.372 307.484 240.613 C 307.196 239.558 306.477 238.673 305.504 238.174 C 304.861 238.007 304.186 237.999 303.54 238.152 L 293.452 239.696 C 292.608 239.734 291.8 240.048 291.151 240.59 C 289.837 241.972 291.131 244.196 291.09 246.103 C 291.045 248.246 289.141 249.986 287.075 250.562 C 284.967 250.988 282.793 250.961 280.696 250.483 L 266.591 248.291 C 270.745 246.964 274.442 244.497 277.261 241.17 C 279.117 238.971 280.105 234.866 277.422 233.824 C 276.625 233.606 275.794 233.539 274.973 233.628 C 268.582 233.677 263.553 228.342 257.57 226.094 C 249.716 223.335 240.977 225.94 235.916 232.55 L 243.43 232.912 C 244.137 232.873 244.838 233.06 245.431 233.446 C 247.078 234.799 245.031 237.398 245.263 239.516 C 245.564 242.269 249.219 242.856 251.974 243.135 C 254.729 243.413 258.224 245.651 256.898 248.083 C 243.052 252.852 228.961 238.759 214.419 240.494 C 210.739 240.933 207.264 242.379 203.67 243.288 C 181.719 248.842 159.026 234.024 136.602 237.162 C 131.617 238.012 126.718 239.304 121.962 241.023 C 118.91 242.025 115.727 243.108 113.509 245.432 C 111.292 247.756 110.448 251.731 112.548 254.161 C 106.758 254.638 100.929 254.084 95.333 252.524 C 98.415 254.238 100.317 257.498 100.291 261.025 C 91.251 262.499 82.449 265.183 74.124 269.003 C 75.678 271.587 77.493 274.005 79.54 276.218 L 68.095 283.571 C 71.962 284.545 73.961 289.818 71.712 293.111 C 75.721 291.328 78.206 286.713 82.494 285.778 C 85.303 285.165 88.161 286.314 90.825 287.393 C 93.49 288.473 96.418 289.519 99.177 288.709 C 101.935 287.899 103.97 284.323 102.217 282.044 C 114.007 278.604 126.192 276.7 138.47 276.38 C 139.417 276.261 140.378 276.443 141.215 276.901 C 142.814 278.01 142.393 280.405 142.307 282.348 C 142.221 284.291 143.736 286.845 145.472 285.969 C 143.429 287.741 145.176 291.077 147.136 292.94 C 149.097 294.804 151.46 297.375 150.259 299.798 C 149.946 300.431 149.415 300.937 149.113 301.575 C 148.224 303.46 149.636 305.656 151.302 306.907 C 152.968 308.159 155.009 309.033 156.167 310.766 C 157.324 312.498 156.798 315.531 154.729 315.773 L 148.847 308.305 C 146.837 310.389 145.459 313 144.873 315.835 C 151.111 320.934 152.049 331.313 146.827 337.448 C 144.158 340.583 140.363 342.489 137.051 344.934 C 133.738 347.379 130.674 350.862 130.682 354.979 C 130.696 362.092 130.115 368.7 132.78 375.295 C 137.696 387.455 143.37 399.295 149.771 410.743 C 151.452 413.749 153.624 417.044 157.029 417.561 Q 150.574 401.847 145.408 385.644 C 147.651 385.653 150.244 385.831 151.559 387.648 C 152.648 389.153 152.414 391.2 152.752 393.026 C 153.183 394.796 153.9 396.483 154.877 398.021 L 175.426 434.625 C 177.13 437.66 179.084 440.917 182.339 442.146 C 184.421 442.932 186.829 442.784 188.745 443.915 C 190.247 444.801 191.258 446.375 192.789 447.21 C 197.118 449.572 203.138 445.043 207.183 447.862 C 208.34 448.669 209.076 449.949 210.142 450.872 C 213.878 454.108 220.007 451.943 224.32 454.357 C 227.1 455.913 228.541 459.024 230.023 461.843 C 233.737 468.905 239.747 475.824 247.706 476.386 C 250.206 476.563 252.76 476.089 255.204 476.645 C 257.648 477.201 260.054 479.334 259.661 481.809 C 258.989 486.053 261.086 490.701 260.522 494.96 C 259.497 502.72 248.49 506.13 247.545 513.9 C 247.338 515.601 247.662 517.357 247.257 519.022 C 246.76 521.063 245.228 522.724 244.683 524.753 C 243.651 528.597 246.405 532.423 249.431 535.009 C 252.456 537.595 256.065 539.825 257.72 543.446 C 259.468 547.272 258.609 551.734 259.178 555.903 C 260.419 565.003 268.279 571.75 276.369 576.1 C 278.833 577.425 281.479 578.708 283.075 581.007 C 285.157 584.008 284.949 587.964 285.645 591.55 C 287.347 600.331 294.74 607.567 294.95 616.51 C 295.099 622.866 291.566 628.632 289.455 634.629 C 285.451 646.257 286.711 659.052 292.906 669.675 C 294.485 672.341 296.373 674.855 297.49 677.745 C 299.483 682.902 298.836 688.765 300.674 693.98 C 303.104 700.875 309.78 706.57 309.141 713.852 C 312.172 720.146 318.864 723.238 325.594 725.112 L 337.656 728.469 C 339.965 729.112 342.379 729.76 344.73 729.295 C 347.082 728.829 349.326 726.876 349.266 724.48 C 343.351 723.146 337.246 721.727 332.371 718.123 C 327.495 714.519 324.155 708.1 326.005 702.326 C 326.862 699.649 328.687 696.557 326.952 694.344 C 325.959 693.078 324.142 692.747 323.022 691.591 C 321.274 689.788 321.875 686.76 323.131 684.586 C 324.388 682.412 326.204 680.47 326.71 678.011 C 327.234 675.193 325.952 672.347 323.495 670.873 C 325.731 670.028 327.765 668.723 329.465 667.042 C 331.035 665.249 331.76 662.485 330.525 660.447 C 334.192 660.912 338.522 661.14 340.93 658.334 C 342.852 656.094 342.72 652.745 341.961 649.892 C 341.201 647.039 339.917 644.268 339.877 641.316 C 348.337 641.717 356.816 641.43 365.23 640.457 C 364.013 636.359 361.248 632.897 357.522 630.803 C 361.332 630.158 364.804 625.596 366.008 621.924 C 367.212 618.251 366.905 614.251 366.161 610.459 C 365.875 609.482 365.836 608.45 366.047 607.455 C 366.476 606.088 367.819 605.253 369.062 604.539 L 387.976 593.677 C 389.105 593.111 390.128 592.356 391.001 591.444 C 392.983 589.116 392.689 585.602 391.674 582.719 C 390.66 579.835 389.034 577.123 388.643 574.091 C 387.474 565.024 397.181 558.518 400.457 549.982 C 401.742 546.633 402.004 542.992 402.253 539.412 C 402.52 535.568 402.54 531.103 399.589 528.625 C 396.759 526.251 392.338 526.78 389.377 524.571 C 386.663 522.546 385.726 518.613 382.761 516.977 C 380.068 515.492 376.691 516.437 373.696 515.738 C 368.423 514.508 365.104 508.43 359.718 507.867 C 356.679 507.55 353.24 509.035 350.749 507.265 C 348.555 505.706 348.467 502.572 348.049 499.912 C 346.549 491.446 339.935 484.811 331.474 483.284 C 328.341 482.781 324.931 482.972 322.265 481.25 C 319.566 479.507 318.329 476.243 316.209 473.828 C 312.792 469.937 307.41 468.554 302.369 467.369 L 281.863 462.548 C 278.223 461.693 273.531 461.239 271.578 464.428 C 271 465.642 270.59 466.929 270.361 468.254 C 268.859 473.172 264.358 476.56 259.217 476.642 C 257.498 473.711 254.714 471.557 251.445 470.629 C 249.366 470.05 247.14 469.985 245.157 469.133 C 242.974 468.067 241.327 466.15 240.602 463.832 C 239.877 461.514 240.138 458.999 241.325 456.88 C 243.755 452.553 242.985 447.134 239.446 443.655 C 235.959 440.524 230.914 439.768 226.238 440.081 C 225.014 437.409 227.061 434.394 229.268 432.452 C 231.475 430.51 234.154 428.601 234.635 425.701 C 235.39 421.14 229.57 417.675 225.151 419.035 C 220.732 420.396 217.912 424.688 216.047 428.919 C 214.977 431.347 214.068 433.903 212.38 435.95 C 210.693 437.997 207.976 439.463 205.405 438.806 C 201.767 437.876 200.361 433.553 199.556 429.884 C 198.475 424.962 197.389 419.972 197.615 414.938 C 197.841 409.905 199.538 404.736 203.25 401.328 C 209.299 395.775 218.578 396.319 226.742 397.205 C 224.813 395.032 225.29 391.37 227.353 389.325 C 229.565 387.36 232.604 386.613 235.474 387.33 C 237.934 387.842 240.15 389.167 241.765 391.091 C 244.085 393.92 244.745 397.738 246.498 400.949 C 248.252 404.159 252.194 406.897 255.421 405.175 C 258.209 403.687 258.651 399.822 257.958 396.74 C 257.264 393.657 255.79 390.66 256.042 387.51 C 256.521 381.501 262.751 377.883 268.248 375.408 C 273.745 372.933 280.04 369.605 280.911 363.639 C 280.941 362.471 281.161 361.316 281.563 360.219 C 282.173 359.25 283.02 358.453 284.025 357.904 C 300.069 347.301 316.379 336.569 334.717 330.776 C 335.671 330.474 335.783 330.809 336.755 330.573 C 338.116 329.786 337.214 327.611 335.91 326.734 C 334.605 325.858 332.861 325.186 332.53 323.65 C 332.287 322.52 332.952 321.411 333.125 320.269 C 333.55 317.462 330.192 314.87 327.584 315.992 C 326.111 314.042 329.026 311.775 331.383 311.126 C 338.46 309.178 345.724 307.992 353.053 307.586 C 353.899 307.452 354.765 307.599 355.519 308.005 C 356.75 308.858 356.593 310.814 355.72 312.031 C 354.848 313.248 353.491 314.012 352.404 315.042 C 349.983 317.4 349.077 320.912 350.056 324.147 C 353.882 326.093 358.041 328.096 362.279 327.411 C 366.516 326.725 370.277 321.964 368.285 318.162 C 366.431 314.621 360.859 313.822 359.901 309.941 C 358.779 305.397 365.211 301.356 363.763 296.906 C 363.128 294.956 361.185 293.809 359.694 292.402 C 356.091 288.87 355.028 283.486 357.02 278.85 C 352.093 279.717 347.051 278.139 343.497 274.619 C 340.263 271.354 337.682 266.205 333.089 266.351 C 328.875 266.485 325.244 271.402 321.303 269.902 C 320.333 269.533 319.311 268.782 318.372 269.222 C 317.748 269.627 317.345 270.296 317.278 271.037 C 316.277 275.825 318 281.281 315.39 285.419 C 312.55 289.922 305.981 290.546 302.538 294.606 C 300.669 296.81 299.945 299.78 298.227 302.104 C 296.51 304.428 292.863 305.905 290.802 303.88 C 292.888 299.591 291.735 294.429 288.022 291.435 C 286.107 290.186 284.044 289.183 281.88 288.448 C 279.462 287.424 277.162 286.142 275.02 284.624 C 273.946 283.977 273.074 283.044 272.501 281.929 C 272.047 280.534 272.108 279.022 272.673 277.668 C 274.804 271.559 280.143 267.134 286.54 266.174 C 289.285 265.8 292.48 265.932 294.296 263.841 C 295.258 262.734 295.762 261.061 297.157 260.611 C 298.049 260.432 298.976 260.546 299.798 260.937 L 310.043 264.543 C 311.187 265.059 312.445 265.267 313.693 265.146 C 314.977 264.973 315.91 263.839 315.833 262.546 C 315.505 260.845 312.887 260.028 313.126 258.312 C 313.259 257.756 313.558 257.253 313.983 256.871 C 321.469 248.903 332.124 244.695 343.034 245.398 C 344.328 247.522 342.282 250.037 340.581 251.85 C 338.879 253.663 337.512 256.903 339.569 258.298 C 340.413 258.729 341.351 258.94 342.297 258.913 C 344.82 259.254 347.271 259.998 349.558 261.115 Q 354.869 263.426 359.975 266.172 C 359.675 263.927 359.388 261.563 360.238 259.464 C 361.089 257.365 363.507 255.719 365.62 256.536 C 367.655 257.324 368.699 260.019 370.868 260.266 C 373.76 260.595 374.902 256.322 373.693 253.673 C 372.485 251.024 370.093 248.806 369.893 245.901 C 369.759 243.942 370.504 241.511 368.939 240.325 C 368.382 239.969 367.75 239.747 367.092 239.677 L 328.008 232.485 C 325.687 232.058 322.334 232.385 322.231 234.743 C 322.174 236.059 323.349 237.361 322.829 238.571 C 322.273 239.862 320.447 239.744 319.118 240.201 C 317.055 240.91 316.019 243.359 316.218 245.532 C 316.58 247.69 317.416 249.742 318.666 251.539 C 316.123 250.476 312.274 250.281 309.732 249.217 Z " fill="rgb(230,230,230)"/><path d=" M 278.547 216.04 C 273.498 214.369 267.944 216.033 264.644 220.204 C 264.001 221.051 263.46 222.219 263.999 223.136 C 264.772 224.452 266.74 223.932 268.191 223.462 C 270.323 222.7 272.645 222.644 274.811 223.304 C 276.174 223.772 277.393 224.598 278.761 225.049 C 280.119 225.616 281.679 225.388 282.817 224.456 C 283.756 223.498 283.815 222.009 283.817 220.667 C 283.949 219.758 283.663 218.838 283.04 218.163 C 282.493 217.846 281.877 217.664 281.245 217.632 C 279.829 217.37 278.549 216.622 277.625 215.517" fill="rgb(230,230,230)"/><path d=" M 292.64 212.116 C 291.518 212.055 290.446 212.583 289.81 213.509 C 289.174 214.436 289.068 215.626 289.528 216.651 C 291.222 217.113 292.991 217.228 294.731 216.99 C 296.505 216.714 297.94 215.399 298.368 213.656 C 296.32 214.028 294.206 213.625 292.44 212.524" fill="rgb(230,230,230)"/><path d=" M 339.923 205.563 C 335.313 206.543 330.834 208.065 326.581 210.095 C 330.697 211.678 333.296 215.765 332.983 220.164 C 332.803 220.987 332.824 221.84 333.044 222.653 C 333.534 223.841 334.954 224.287 336.202 224.592 C 338.445 225.274 340.787 225.573 343.129 225.476 C 345.51 225.351 347.666 224.034 348.863 221.972 C 349.203 221.009 349.601 220.068 350.055 219.154 C 353.048 214.597 361.937 220.107 365.149 215.702 C 366.281 214.151 366.177 211.815 367.653 210.586 C 368.416 210.05 369.3 209.713 370.226 209.604 C 376.687 208.32 383.213 207.391 389.775 206.82 C 392.884 206.549 396.936 205.433 396.962 202.312 C 385.251 200.012 373.108 201.645 362.421 206.958 C 358.571 208.887 353.478 212.944 349.769 210.387 C 348.381 209.43 348.449 206.852 346.538 205.775 C 344.584 204.675 341.997 205.122 339.923 205.563 Z " fill="rgb(230,230,230)"/><path d=" M 378.222 212.725 L 383.719 213.782 C 381.672 213.691 379.685 214.486 378.266 215.964 C 376.847 217.442 376.132 219.46 376.306 221.502 C 381.454 223.221 387.067 221.548 392.49 221.776 C 397.913 222.005 404.222 225.879 403.297 231.227 C 403.017 232.844 402.082 234.46 402.568 236.028 C 402.909 237.127 403.878 237.906 404.425 238.918 C 405.564 241.027 404.654 243.694 403.214 245.611 C 401.775 247.528 399.841 249.057 398.578 251.094 C 395.436 256.161 397.221 262.711 399.092 268.371 C 399.633 270.51 400.633 272.506 402.021 274.22 C 404.794 277.168 409.313 277.425 413.36 277.484 C 416.305 277.527 419.679 277.381 421.542 275.099 C 423.974 272.12 422.273 267.471 423.874 263.974 C 425.328 260.799 429.033 259.436 432.389 258.47 C 438.539 256.7 444.805 255.195 450.618 252.521 C 457.837 249.201 464.583 244.026 472.518 243.599 C 474.744 243.479 477.025 243.742 479.169 243.132 C 481.313 242.522 483.35 240.668 483.187 238.445 C 483.049 236.545 481.442 235.15 480.186 233.718 C 478.93 232.286 477.944 230.084 479.098 228.569 L 499.894 224.685 C 498.42 220.667 497.272 215.376 500.659 212.761 C 501.882 211.818 503.518 211.441 504.559 210.3 C 506.332 208.356 505.44 205.007 503.393 203.354 C 501.346 201.7 498.577 201.317 495.955 201.099 C 486.836 200.341 477.665 200.842 468.528 201.343 Q 441.738 202.811 414.949 204.28 C 411.353 204.477 407.202 204.176 403.905 205.402 C 401.113 206.441 399.128 208.347 395.936 209.016 C 390.042 210.253 383.555 209.416 378.222 212.725 Z " fill="rgb(230,230,230)"/><path d=" M 476.706 256.178 C 476.146 256.09 475.573 256.22 475.106 256.541 C 474.797 256.881 474.614 257.317 474.585 257.775 C 474.231 259.799 474.653 261.882 475.769 263.608 C 476.927 265.331 478.928 266.291 480.997 266.114 C 483.472 265.798 485.297 263.687 487.572 262.656 C 491.08 261.069 505.975 258.596 495.671 253.029 C 492.12 251.11 489.826 252.804 487.027 254.067 C 483.843 255.696 480.275 256.426 476.706 256.178 L 476.706 256.178 Z " fill="rgb(230,230,230)"/><path d=" M 566.956 209.583 C 565.753 210.074 564.747 210.95 564.094 212.074 C 563.469 213.26 563.884 214.726 565.037 215.409 C 565.486 215.572 565.962 215.648 566.44 215.632 L 571.332 215.778 C 573.411 215.84 576.007 216.283 576.565 218.286 C 576.98 219.773 576.052 221.684 577.172 222.746 C 577.652 223.119 578.23 223.344 578.836 223.395 C 580.447 223.809 582.13 223.864 583.765 223.555 C 587.325 222.6 585.454 220.427 586.575 218.493 C 588.291 215.533 587.994 217.325 591.016 215.628 C 593.248 214.376 596.133 212.103 594.27 208.91 C 591.03 203.358 571.737 207.197 566.956 209.583 Z " fill="rgb(230,230,230)"/><path d=" M 663.515 206.791 L 660.674 207.17 C 654.269 208.025 647.826 208.888 641.657 210.811 C 644.327 211.867 647.129 212.555 649.985 212.855 C 651.558 212.932 653.119 213.154 654.651 213.518 C 657.376 214.33 660.122 216.424 662.755 215.351 C 664.387 214.686 664.92 212.986 666.272 212.085 C 667.206 211.463 670.747 210.457 671.143 209.829 C 674.344 204.754 665.975 206.463 663.515 206.791 Z " fill="rgb(230,230,230)"/><path d=" M 675.989 219.702 C 672.195 221.824 668.674 224.402 665.506 227.379 C 664.171 228.634 662.808 230.194 662.929 232.022 C 663.09 234.452 665.678 235.861 667.92 236.81 L 677.001 240.655 C 678.103 239.102 677.094 236.959 675.956 235.433 C 674.817 233.907 673.464 232.141 673.967 230.305 C 674.541 228.21 677.096 227.496 679.239 227.135 C 682.729 226.547 692.146 226.594 691.015 220.968 C 689.681 214.339 679.493 217.743 675.989 219.702 Z " fill="rgb(230,230,230)"/><path d=" M 674.163 594.829 C 673.298 597.332 673.216 600.281 674.712 602.466 C 676.39 604.918 679.748 605.832 682.654 605.21 C 685.547 604.44 688.126 602.782 690.027 600.469 C 691.766 598.532 693.197 596.338 694.269 593.965 C 695.765 590.268 696.82 586.407 697.412 582.463 L 700.232 567.659 C 700.862 564.35 700.837 554.207 694.756 557.512 C 693.095 558.415 689.249 565.543 687.508 567.564 C 684.37 571.208 683.955 574.743 682.303 579.156 C 680.234 584.685 676.076 589.292 674.163 594.829 Z " fill="rgb(230,230,230)"/><path d=" M 995.345 670.587 C 993.355 669.81 991.424 668.891 989.567 667.836 C 987.704 672.956 986.714 678.353 986.637 683.801 L 1000.253 676.096 C 1002.301 674.937 1004.623 673.326 1004.579 670.973 C 1004.617 670.381 1004.328 669.816 1003.826 669.5 C 1003.524 669.378 1003.194 669.34 1002.872 669.388 C 1000.853 669.556 999.012 670.55 997.107 671.24 C 995.203 671.931 992.975 672.296 991.228 671.271" fill="rgb(230,230,230)"/><path d=" M 1067.172 675.161 C 1065.677 675.568 1064.217 676.092 1062.805 676.728 C 1059.681 678.318 1057.555 681.337 1054.743 683.431 C 1052.053 685.435 1048.813 686.535 1045.634 687.605 C 1044.698 688.432 1045.128 690.097 1046.144 690.823 C 1047.235 691.444 1048.487 691.726 1049.74 691.631 C 1053.043 691.704 1056.523 691.736 1059.417 690.141 C 1061.047 689.083 1062.573 687.872 1063.973 686.525 C 1067.356 683.702 1071.419 681.839 1075.44 680.04 C 1076.904 679.487 1078.258 678.678 1079.437 677.65 C 1081.964 675.16 1082.142 671.319 1078.498 670.472 C 1075.554 669.787 1069.975 674.254 1067.172 675.161 Z " fill="rgb(230,230,230)"/><path d=" M 1098.908 654.43 C 1099.239 650.959 1097.958 647.528 1095.433 645.124 C 1095.395 648.551 1095.291 652.203 1093.363 655.037 C 1091.99 657.057 1089.836 658.421 1088.331 660.345 C 1086.826 662.268 1086.158 665.318 1087.924 667.006 C 1089.052 667.864 1090.426 668.338 1091.844 668.356 C 1095.358 668.77 1099.425 669 1101.889 666.462 C 1103.234 665.076 1103.889 663.024 1105.529 662.005 C 1106.14 661.748 1106.686 661.358 1107.126 660.862 C 1107.804 659.785 1106.727 658.366 1105.516 657.978 C 1104.304 657.59 1102.969 657.773 1101.751 657.404 C 1100.534 657.036 1099.417 655.666 1100.041 654.558" fill="rgb(230,230,230)"/><path d=" M 1042.503 528.759 C 1040.659 529.208 1038.75 529.32 1036.867 529.092 C 1033.739 528.516 1031.304 526.159 1028.779 524.226 C 1022.775 519.654 1015.477 517.105 1007.933 516.942 C 1001.071 516.813 994.144 518.672 987.404 517.375 C 987.844 519.824 989.94 521.661 992.176 522.753 C 994.413 523.845 996.881 524.394 999.128 525.464 C 1002.726 527.194 1005.58 530.163 1007.167 533.827 C 1007.89 535.517 1008.346 537.355 1009.442 538.83 C 1011.683 541.845 1015.93 542.507 1019.678 542.26 C 1024.564 541.939 1029.668 540.533 1034.215 542.354 C 1037.692 543.747 1040.182 546.791 1043.086 549.158 C 1045.99 551.525 1050.08 553.281 1053.414 551.574 C 1046.305 549.272 1041.519 542.615 1041.6 535.144 C 1044.87 535.444 1054.29 535.328 1053.783 529.771 C 1053.353 525.062 1045.311 528.251 1042.503 528.759 Z " fill="rgb(230,230,230)"/><path d=" M 999.72 567.076 C 1000.3 563.892 1003.476 561.079 1002.487 557.997 C 1001.803 555.865 999.331 554.812 997.093 554.76 C 994.855 554.707 992.656 555.374 990.418 555.437 C 988.961 555.359 987.501 555.38 986.047 555.499 C 981.605 556.229 978.867 560.885 974.68 562.541 C 972.134 563.548 969.275 563.355 966.627 564.051 C 960.617 565.631 956.814 571.31 952.613 575.889 C 945.825 583.254 936.982 588.411 927.229 590.692 C 923.812 591.484 920.139 591.99 917.423 594.209 C 913.826 597.148 912.94 602.186 912.14 606.762 C 909.929 619.398 906.55 631.801 902.047 643.813 L 916.318 645.635 C 919.031 645.981 921.842 646.32 924.457 645.516 C 926.356 644.8 928.155 643.841 929.81 642.665 C 936.165 638.719 943.279 636.151 950.689 635.128 C 954.426 634.615 958.344 634.521 961.851 635.91 C 965.358 637.299 968.367 640.449 968.661 644.21 C 971.751 643.248 975.119 644.068 977.423 646.341 C 979.657 648.618 981.121 651.539 981.606 654.692 C 981.982 656.644 982.358 658.983 984.17 659.802 C 985.648 660.471 987.343 659.751 988.96 659.622 C 994.446 659.183 998.999 665.58 1004.392 664.478 C 1010.175 663.297 1011.595 654.635 1017.238 652.9 C 1020.478 651.904 1025.024 653.115 1026.575 650.101 C 1027.943 647.444 1025.214 644.378 1025.496 641.403 C 1025.842 637.74 1030.163 636.185 1033.494 634.622 C 1044.978 629.234 1050.428 613.777 1044.863 602.378 C 1041.566 595.623 1035.078 590.307 1033.88 582.887 C 1032.958 577.178 1035.208 570.521 1031.569 566.027 C 1029.717 563.742 1026.582 562.48 1025.48 559.752 C 1024.787 558.035 1025.066 556.087 1024.692 554.274 C 1024.319 552.46 1022.737 550.563 1020.946 551.033 C 1015.747 552.398 1014.088 568.458 1011.305 572.36 C 1007.073 578.292 998.387 574.384 999.72 567.076 Z " fill="rgb(230,230,230)"/><path d=" M 903.625 534.827 C 901.849 534.329 899.909 533.838 898.207 534.55 C 896.504 535.262 895.51 537.762 896.876 539.002 C 907.565 538.585 918.319 538.172 928.916 539.623 C 941.127 541.296 953.21 545.438 965.474 544.22 C 958.469 542.153 951.348 540.501 944.148 539.271 L 932.142 536.978 C 928.921 536.303 925.667 535.8 922.393 535.471 C 915.544 534.905 910.36 536.716 903.625 534.827 Z " fill="rgb(230,230,230)"/><path d=" M 914.326 497.601 C 913.438 497.527 912.339 497.464 911.88 498.226 C 911.442 498.955 911.944 499.918 911.708 500.736 C 911.386 501.853 909.923 502.138 908.771 501.986 C 907.619 501.834 906.373 501.47 905.352 502.025 C 904.288 502.752 903.832 504.093 904.231 505.317 C 904.649 506.501 905.324 507.577 906.208 508.467 C 907.717 510.37 909.438 512.095 911.335 513.611 C 915.009 516.322 919.986 517.629 922.3 521.565 C 922.626 522.328 923.128 523.004 923.764 523.536 C 924.875 524.24 926.323 523.705 927.519 523.158 L 931.711 521.243 C 932.466 520.971 933.14 520.512 933.671 519.91 C 934.628 518.611 934.04 516.763 933.236 515.363 C 932.433 513.963 931.404 512.514 931.576 510.909 C 931.884 508.048 935.563 506.953 937.076 504.504 C 938.601 502.036 937.608 498.857 937.784 495.96 C 937.99 492.574 940.118 488.168 936.694 485.638 C 933.784 483.487 931.003 485.475 928.914 487.849 C 924.508 492.856 922.425 498.278 914.326 497.601 Z " fill="rgb(230,230,230)"/><path d=" M 939.771 446.998 C 941.203 449.739 944.186 451.374 945.747 454.043 C 947.438 456.935 947.246 460.673 949.081 463.476 C 950.963 466.353 954.752 467.88 955.808 471.152 C 956.961 474.724 954.346 479.065 956.431 482.186 C 957.217 483.217 958.399 483.872 959.691 483.991 C 960.982 484.109 962.264 483.681 963.225 482.81 C 965.053 480.82 964.962 477.735 963.019 475.857 C 961.785 474.731 960.012 474.245 958.982 472.93 C 958.445 472.171 958.087 471.301 957.936 470.384 C 957.374 467.739 957.464 464.997 958.198 462.395 C 958.474 461.734 958.544 461.006 958.399 460.305 C 957.935 458.956 956.109 458.861 954.827 458.235 C 951.916 456.814 951.987 452.705 952.495 449.506 C 952.157 451.636 944.569 448.013 943.775 446.807 C 942.196 444.41 943.055 439.786 942.743 437.138 C 939.336 438.78 938.022 443.648 939.771 446.998 Z " fill="rgb(230,230,230)"/><path d=" M 863.335 489.16 C 861.934 487.593 859.825 485.953 857.947 486.898 C 856.515 487.619 856.121 489.601 856.682 491.104 C 857.366 492.563 858.419 493.818 859.737 494.746 C 863.65 497.972 867.863 500.885 871.276 504.636 C 877.385 511.348 880.62 520.406 887.264 526.59 C 888.599 528.024 890.367 528.981 892.298 529.314 C 894.233 529.494 896.406 528.256 896.629 526.325 C 896.812 524.734 895.703 523.31 894.619 522.131 C 892.039 519.325 889.214 516.741 886.778 513.808 C 885.652 512.681 884.945 511.205 884.773 509.622 C 884.761 508.042 886.201 506.39 887.731 506.781 C 885.87 506.305 884.49 503.205 881.759 502.622 C 879.476 502.135 878.924 503.548 876.208 502.383 C 871.027 500.161 866.963 493.222 863.335 489.16 Z " fill="rgb(230,230,230)"/><path d=" M 985.067 336.514 C 983.58 336.072 982.119 335.55 980.69 334.95 C 976.843 333.796 971.754 336.623 972.266 340.606 C 972.607 343.253 975.07 345.037 976.43 347.333 C 978.448 350.737 977.91 355.055 976.85 358.868 C 976.59 360.048 976.095 361.164 975.394 362.15 C 974.415 363.19 973.245 364.032 971.948 364.629 C 966.753 367.542 962.172 371.434 958.458 376.09 C 958.054 376.52 957.773 377.05 957.643 377.625 C 957.46 378.97 958.811 379.95 959.576 381.072 C 961.274 383.563 960.046 386.916 960.214 389.927 C 960.162 390.792 960.561 391.623 961.269 392.123 C 962.292 392.643 963.505 391.76 964.06 390.755 C 965.9 387.421 964.514 382.068 967.967 380.46 C 968.62 380.156 969.412 380.028 969.847 379.454 C 970.539 378.544 969.872 377.196 970.222 376.108 C 970.748 374.475 972.982 374.401 974.697 374.474 C 977.65 374.597 980.603 374.204 983.421 373.312 C 984.526 373.049 985.531 372.468 986.309 371.64 C 987.341 370.352 987.25 368.52 987.043 366.882 C 986.01 358.717 983.424 350.825 979.424 343.633 C 982.457 344.02 985.757 344.356 988.374 342.775 C 989.84 341.89 991.597 339.243 990.871 337.441 C 989.721 334.592 987.644 336.99 985.067 336.514 Z " fill="rgb(230,230,230)"/><path d=" M 596.218 381.42 C 596.581 383.367 596.937 385.417 596.299 387.292 C 595.661 389.167 593.654 390.733 591.759 390.159 C 590.288 389.713 589.439 388.234 588.394 387.106 C 582.586 380.836 569.482 384.466 565.894 376.709 C 564.43 373.543 565.425 369.75 564.426 366.408 C 563.13 362.435 559.312 359.841 555.141 360.1 C 553.291 360.367 551.491 360.905 549.798 361.695 C 538.453 366.238 526.544 369.217 514.396 370.549 C 512.088 370.69 509.804 371.105 507.594 371.787 C 502.606 373.595 499.198 378.219 496.773 382.938 C 494.348 387.657 492.557 392.765 489.306 396.957 C 485.888 401.363 481.099 404.449 476.633 407.786 C 474.912 408.895 473.479 410.396 472.452 412.167 C 471.483 414.156 471.538 416.468 471.613 418.678 L 472.526 445.522 C 472.644 448.975 472.791 452.551 474.336 455.641 C 476.266 459.499 480.078 462.026 482.723 465.435 C 485.422 468.938 486.827 473.265 486.702 477.685 C 486.646 479.462 486.47 481.564 487.854 482.68 C 488.696 483.226 489.681 483.51 490.684 483.494 L 526.996 486.466 C 533.383 486.989 540.462 487.849 544.632 492.715 C 546.6 495.012 548.181 498.315 551.196 498.561 C 552.489 498.667 553.747 498.136 555.041 498.033 C 558.304 497.775 561.17 500.252 562.979 502.98 C 565.717 507.137 566.96 512.103 566.504 517.06 C 566.207 520.172 565.242 523.197 565.034 526.316 C 564.243 538.184 574.304 548.495 574.499 560.387 C 574.613 567.382 571.293 573.918 568.055 580.12 C 573.28 588.036 569.002 598.577 571.082 607.831 C 573.055 616.611 580.376 623.484 582.2 632.296 C 583.035 636.33 583.083 641.295 586.641 643.372 C 588.201 644.133 589.932 644.48 591.665 644.378 C 602.121 644.502 612.458 642.149 621.83 637.511 C 626.229 635.328 630.788 632.07 631.556 627.22 C 632.175 623.309 630.192 618.934 632.21 615.527 C 634.589 611.512 640.684 611.83 644.184 608.743 C 649.863 603.734 645.435 594.183 647.736 586.969 C 649.804 580.485 656.923 577.041 660.452 571.221 C 661.841 568.718 662.837 566.017 663.407 563.212 C 665.023 556.508 666.03 549.671 666.413 542.786 C 666.507 538.602 666.816 534.426 667.338 530.274 C 671.142 506.637 694.511 490.808 702.098 468.1 C 702.822 465.932 703.163 463.043 701.233 461.816 C 700.089 461.27 698.792 461.134 697.559 461.432 L 680.82 463.542 C 678.741 463.804 676.537 464.049 674.628 463.185 C 672.719 462.322 671.35 459.906 672.363 458.072 C 675.206 452.922 669.358 446.415 666.76 441.137 C 659.763 426.927 651.43 413.414 641.875 400.78 C 641.264 400.131 640.881 399.299 640.784 398.412 L 645.535 398.57 C 643.931 392.816 641.285 386.519 635.694 384.414 C 632.544 383.227 629.055 383.638 625.694 383.821 C 616.067 384.347 605.746 382.894 596.218 381.42 Z " fill="rgb(230,230,230)"/><path d=" M 625.702 251.745 C 628.221 254.42 631.044 257.256 634.689 257.723 C 641.127 258.546 645.756 251.889 648.703 246.106 C 648.93 249.171 651.556 251.499 654.626 251.357 C 656.216 251.09 657.732 250.497 659.081 249.615 C 671.837 242.645 686.124 238.951 700.66 238.867 C 700.371 236.586 701.851 234.456 704.089 233.931 C 707.045 233.345 709.707 235.9 711.133 238.554 C 712.558 241.208 713.447 244.285 715.712 246.272 C 717.977 248.258 722.363 248.172 723.257 245.295 C 724.116 242.533 721.239 240.177 718.848 238.549 C 716.458 236.92 713.938 233.906 715.548 231.503 C 727.761 228.8 740.05 226.086 752.548 225.549 C 754.675 225.623 756.795 225.258 758.776 224.476 C 760.682 223.541 762.196 221.418 761.684 219.357 C 756.106 220.669 750.288 218.474 746.966 213.806 C 764.307 212.375 782.751 211.155 798.119 219.315 C 799.963 223.274 790.564 226.568 793.079 230.138 C 793.881 231.277 795.488 231.411 796.881 231.437 C 807.56 231.635 818.301 231.829 828.86 230.217 C 832.719 229.628 836.616 228.796 840.49 229.274 C 846.943 230.07 852.462 234.375 858.81 235.779 C 861.394 236.35 864.291 236.369 866.469 234.867 C 868.647 233.364 869.584 229.942 867.799 227.988 C 873.776 222.13 883.696 223.582 891.581 226.387 C 899.467 229.191 906.937 233.714 915.283 234.339 C 921.267 234.787 927.335 233.178 933.249 234.201 C 936.965 234.844 940.424 236.497 944.056 237.513 C 950.925 239.434 958.192 239.028 965.324 239.121 C 983.522 239.366 1001.521 242.942 1018.43 249.673 C 1020.63 250.389 1022.645 251.58 1024.334 253.161 C 1025.907 254.846 1026.709 257.464 1025.652 259.513 L 1008.179 256.96 C 1009.825 260.2 1014.084 260.753 1017.543 261.871 C 1021.002 262.989 1024.588 266.808 1022.509 269.79 C 1018.762 268.597 1015.366 272.344 1013.473 275.791 C 1011.58 279.239 1009.273 283.367 1005.345 283.577 C 1001.829 283.765 997.575 280.771 995.283 283.444 C 998.45 287.44 1001.162 291.775 1003.369 296.371 C 1005.633 301.089 1007.246 307.034 1004.185 311.279 C 1003.704 312.037 1002.973 312.603 1002.119 312.881 C 999.62 313.514 997.995 310.456 996.202 308.602 C 993.943 306.266 990.527 305.605 987.467 304.509 C 984.408 303.414 981.185 301.259 980.946 298.018 C 980.797 296.002 981.862 294.127 982.646 292.264 C 983.964 289.123 984.54 285.72 984.33 282.32 C 984.159 279.585 983.392 276.74 981.427 274.829 C 979.463 272.918 976.071 272.311 973.962 274.062 C 972.978 274.878 972.19 276.185 970.912 276.234 C 968.654 276.32 966.921 272.384 965.104 273.727 C 965.317 275.159 965.02 276.62 964.265 277.855 C 958.845 282.57 950.517 280.575 943.529 282.241 C 940.206 283.192 937.025 284.581 934.069 286.372 C 932.963 286.845 932.022 287.635 931.364 288.642 C 930.492 290.337 931.454 292.508 932.991 293.635 C 934.622 294.635 936.454 295.261 938.356 295.466 C 946.876 297.08 955.519 299.578 962.245 305.05 C 968.972 310.522 973.382 319.568 971.254 327.973 L 954.453 311.92 Q 955.41 322.031 955.54 332.197 C 955.648 333.521 955.466 334.852 955.007 336.098 C 953.809 338.743 950.563 339.633 947.718 340.217 C 946.118 340.521 944.724 341.494 943.887 342.892 C 943.049 344.289 942.849 345.977 943.336 347.532 C 944.346 350.826 946.866 353.395 949.174 355.954 C 951.481 358.513 953.752 361.422 954.054 364.854 C 954.356 368.287 951.766 372.156 948.329 371.917 C 945.723 371.736 943.789 369.404 942.678 367.04 C 941.566 364.676 940.905 362.042 939.235 360.034 C 934.18 353.954 922.826 356.559 918.297 350.078 C 915.951 352.74 915.149 356.427 916.18 359.824 C 918.286 358.505 921.17 359.73 922.753 361.646 C 924.336 363.563 925.083 366.02 926.326 368.172 C 928.003 371.076 930.673 373.651 930.907 376.997 C 930.845 378.262 930.866 379.53 930.971 380.792 C 931.386 382.819 933.1 384.275 934.288 385.969 C 937.052 389.912 936.916 395.328 935.134 399.802 C 933.352 404.275 930.151 408.013 926.981 411.637 C 921.443 417.967 915.792 424.26 909.227 429.517 C 907.354 431.017 905.354 432.492 904.188 434.589 C 903.021 436.686 902.961 439.63 904.754 441.225 C 903.471 441.289 901.17 441.92 899.888 441.984 C 899.437 436.838 899.339 431.667 899.594 426.507 C 894.532 424.076 889.081 430.586 889.734 436.164 C 890.387 441.742 894.422 446.218 897.294 451.044 C 899.394 454.573 900.955 458.688 900.254 462.734 C 899.553 466.781 895.941 470.514 891.849 470.157 C 885.342 469.589 882.62 460.247 876.175 459.178 C 875.607 459.044 875.011 459.103 874.479 459.346 C 873.523 459.871 873.357 461.151 873.303 462.241 C 873.039 467.59 872.811 473.152 874.899 478.084 C 877.954 485.299 885.846 491.358 884.19 499.016 C 875.272 494.871 870.636 484.87 868.53 475.264 C 866.425 465.658 866.074 455.573 862.301 446.492 C 859.435 450.164 853.412 447.128 850.794 443.275 C 848.312 439.622 846.784 435.397 844.376 431.695 C 841.967 427.993 838.278 424.678 833.867 424.474 C 829.241 424.261 825.23 427.435 821.702 430.434 C 818.801 432.9 815.822 435.463 814.127 438.873 C 811.659 443.833 812.305 449.682 812.186 455.221 C 812.057 461.21 810.788 467.528 806.706 471.912 C 802.625 476.297 795.091 477.824 790.589 473.872 C 788.239 471.81 787.101 468.728 786.087 465.769 C 781.201 451.509 777.132 436.982 773.899 422.258 C 773.143 425.619 770.192 429.95 767.373 427.971 C 766.74 427.438 766.228 426.778 765.869 426.033 C 760.611 417.121 750.873 411.776 741.034 408.57 C 731.195 405.365 720.844 403.87 711.114 400.347 C 705.661 398.373 700.454 395.779 695.593 392.616 C 693.068 396.325 692.782 401.12 694.847 405.103 C 697.005 408.924 701.889 411.136 706.07 409.8 C 708.23 409.109 710.055 407.61 712.198 406.869 C 714.342 406.128 717.219 406.492 718.157 408.557 C 719.054 410.534 717.698 412.925 718.37 414.99 C 719.395 418.133 724.136 418.375 725.794 421.236 C 727.028 423.365 726.013 426.191 724.252 427.909 C 722.49 429.626 720.14 430.568 717.99 431.764 C 711.014 435.643 706.053 442.265 699.956 447.417 C 693.86 452.57 685.258 456.331 677.992 453.026 C 679.724 444.256 669.277 437.818 667.355 429.087 C 666.722 426.213 667.05 423.161 666.147 420.361 C 664.839 416.306 661.242 413.518 658.291 410.446 C 651.061 402.835 647.212 392.626 647.619 382.136 C 647.778 378.528 648.441 374.861 647.619 371.344 C 646.797 367.827 643.885 364.423 640.277 364.582 C 632.036 364.946 621.654 365.559 617.33 358.534 C 615.787 356.027 615.115 352.354 617.347 350.433 C 618.921 349.078 621.244 349.206 623.311 349.409 L 641.879 351.236 C 646.222 351.663 650.916 352.016 654.643 349.745 C 658.37 347.475 659.985 341.448 656.534 338.777 C 654.012 336.825 649.495 336.931 648.762 333.828 C 648.152 331.244 651.012 328.311 649.467 326.152 C 648.36 324.603 645.869 325.033 644.36 326.194 C 642.851 327.355 641.756 329.052 640.067 329.931 C 637.104 331.473 633.563 330.006 630.376 329.008 C 627.188 328.011 622.914 327.926 621.368 330.887 C 619.639 334.198 622.902 338.537 621.186 341.855 C 618.917 346.242 611.233 343.744 608.047 347.518 C 604.39 351.848 610.535 358.304 609.302 363.835 C 606.099 365.421 602.299 365.208 599.295 363.273 C 596.335 361.26 594.721 357.783 595.094 354.223 C 595.399 351.734 596.696 349.194 595.827 346.843 C 595.124 344.942 593.216 343.81 591.441 342.829 L 573.397 332.858 C 571.722 335.966 573.84 339.819 576.489 342.153 C 579.137 344.487 582.455 346.245 584.195 349.317 C 586.48 353.735 584.929 359.169 580.657 361.715 C 580.135 362.075 579.481 362.189 578.868 362.027 C 578.286 361.685 577.868 361.123 577.708 360.467 C 574.524 352.32 569.744 344.287 562.102 340.031 C 554.46 335.775 543.479 336.65 538.468 343.819 C 537.277 345.522 536.479 347.463 535.442 349.264 C 529.933 358.829 518.122 363.359 507.088 363.063 C 506.009 363.122 504.935 362.87 503.995 362.336 C 502.212 361.104 502.292 358.491 502.565 356.341 L 503.723 347.216 C 503.956 345.384 504.293 343.359 505.743 342.215 C 507.787 340.603 510.736 341.62 513.339 341.583 C 517.379 341.394 520.87 338.7 522.077 334.839 C 523.149 330.961 521.986 326.808 519.057 324.05 C 517.863 322.929 516.262 321.522 516.892 320.011 C 517.401 319.165 518.259 318.588 519.234 318.434 C 523.91 317.076 528.851 316.72 533.449 315.118 C 538.047 313.516 542.506 310.238 543.595 305.492 C 543.929 304.037 544.081 302.276 545.387 301.554 C 546.043 301.278 546.747 301.134 547.458 301.131 C 552.625 300.396 556.376 295.838 556.102 290.626 C 558.306 289.086 561.393 290.218 563.525 291.856 C 565.657 293.494 567.539 295.658 570.133 296.364 C 574.967 297.679 579.639 293.399 584.649 293.379 C 586.756 293.371 588.937 294.116 590.919 293.402 C 592.928 292.678 594.128 290.677 595.67 289.2 C 597.213 287.722 599.918 286.821 601.342 288.412 L 600.13 279.43 C 605.07 280.679 610.309 279.731 614.5 276.832 L 598.828 271.537 C 598.283 271.401 597.779 271.132 597.363 270.754 C 596.223 269.527 597.355 267.615 598.282 266.22 C 600.498 262.884 600.87 257.388 597.225 255.727 C 594.737 254.593 591.882 255.954 589.494 257.285 L 578.055 263.663 C 577.692 265.838 580.351 267.07 581.998 268.534 C 584.039 270.348 584.754 273.229 583.8 275.787 C 582.845 278.345 580.417 280.053 577.687 280.086 C 579.213 282.07 579.754 284.639 579.158 287.07 L 571.462 287.624 C 570.598 287.797 569.701 287.622 568.966 287.136 C 568.143 286.405 568.254 285.124 568.064 284.04 C 567.603 281.423 565.041 279.589 562.425 279.119 C 559.81 278.648 557.135 279.251 554.545 279.846 C 553.446 280.242 552.238 280.214 551.158 279.768 C 550.539 279.366 550.068 278.772 549.818 278.077 C 548.683 275.324 549.744 272.088 551.567 269.734 C 553.391 267.38 555.887 265.659 558.129 263.7 C 563.49 258.996 567.428 252.887 569.5 246.062 C 573.737 244.287 578.123 241.875 582.36 240.1 C 588.892 236.793 596.217 235.373 603.511 236.002 L 617.859 236.276 C 622.107 236.357 626.47 236.461 630.398 238.08 C 634.326 239.7 637.777 243.203 638.049 247.443 C 638.215 248.419 637.867 249.411 637.129 250.07 C 636.574 250.373 635.946 250.515 635.315 250.479 C 631.353 250.618 629.664 251.605 625.702 251.745 Z " fill="rgb(230,230,230)"/><path d=" M 511.339 296.712 C 512.481 295.63 512.923 294 512.483 292.489 C 509.701 291.416 506.551 292.011 504.352 294.025 C 503.502 294.885 502.769 295.853 502.173 296.905 C 500.288 299.981 498.62 303.655 499.713 307.094 C 499.893 307.851 500.37 308.504 501.037 308.905 C 501.527 309.102 502.055 309.185 502.581 309.147 C 504.658 309.145 506.733 309.017 508.795 308.765 C 510.061 308.61 511.532 308.252 512.021 307.075 C 512.664 305.526 511.107 303.774 511.561 302.16 C 511.86 301.438 512.312 300.79 512.887 300.261 C 513.465 299.721 513.755 298.94 513.669 298.154 C 513.486 297.396 512.326 296.967 511.909 297.625" fill="rgb(230,230,230)"/><path d=" M 522.109 282.749 C 520.264 282.325 518.362 282.206 516.478 282.395 C 516.062 282.383 515.649 282.476 515.278 282.668 C 514.92 282.932 514.659 283.309 514.539 283.738 C 513.714 286.386 515.062 289.224 517.636 290.257 C 518.312 290.413 518.96 290.673 519.556 291.029 C 521.149 292.264 520.134 294.79 520.435 296.783 C 520.774 299.021 522.94 300.899 522.543 303.128 C 522.23 304.883 520.355 306.273 520.657 308.031 C 520.973 309.871 523.309 310.424 525.17 310.572 C 526.249 310.761 527.36 310.633 528.368 310.205 C 529.379 309.514 530.098 308.473 530.386 307.283 C 531.148 305.015 531.468 302.621 531.329 300.231 C 531.321 299.145 531.048 298.076 530.534 297.119 C 529.974 296.36 529.352 295.649 528.676 294.991 C 525.109 290.842 528.865 284.653 522.109 282.749 Z " fill="rgb(230,230,230)"/><g opacity="0.8"><mask id="_mask_F8pIPYWcGCoMmrHNL6CXdMxUwIncUd7x" x="-200%" y="-200%" width="400%" height="400%"><rect x="-200%" y="-200%" width="400%" height="400%" style="fill:white;"/><path d=" M 991.171 608.417 C 991.171 608.417 751.495 470.839 631.562 476.824 C 620.378 477.382 609.975 478.877 600.352 481.308 C 600.352 481.308 351.087 508.133 322.199 567.148 C 322.199 567.148 242.962 319.533 214.074 311.279" fill="black" stroke="none"/></mask><path d=" M 991.171 608.417 C 991.171 608.417 751.495 470.839 631.562 476.824 C 620.378 477.382 609.975 478.877 600.352 481.308 C 600.352 481.308 351.087 508.133 322.199 567.148 C 322.199 567.148 242.962 319.533 214.074 311.279" fill="none"/><path d=" M 991.171 608.417 C 991.171 608.417 751.495 470.839 631.562 476.824 C 620.378 477.382 609.975 478.877 600.352 481.308 C 600.352 481.308 351.087 508.133 322.199 567.148 C 322.199 567.148 242.962 319.533 214.074 311.279" fill="none" mask="url(#_mask_F8pIPYWcGCoMmrHNL6CXdMxUwIncUd7x)" vector-effect="non-scaling-stroke" stroke-width="4" stroke="rgb(94,120,146)" stroke-linejoin="miter" stroke-linecap="butt" stroke-miterlimit="10"/></g><g opacity="0.8"><mask id="_mask_CFWzsIlZKXfvMT1bsV6FFJja3VykUrWN" x="-200%" y="-200%" width="400%" height="400%"><rect x="-200%" y="-200%" width="400%" height="400%" style="fill:white;"/><path d=" M 322.199 566.515 C 368.007 444.359 780.698 308.996 780.698 308.996 C 722.096 323.853 600.352 480.675 600.352 480.675 C 600.352 480.675 342.833 293.314 214.074 310.647 C 214.074 310.647 781.111 329.218 991.171 607.784" fill="black" stroke="none"/></mask><path d=" M 322.199 566.515 C 368.007 444.359 780.698 308.996 780.698 308.996 C 722.096 323.853 600.352 480.675 600.352 480.675 C 600.352 480.675 342.833 293.314 214.074 310.647 C 214.074 310.647 781.111 329.218 991.171 607.784" fill="none"/><path d=" M 322.199 566.515 C 368.007 444.359 780.698 308.996 780.698 308.996 C 722.096 323.853 600.352 480.675 600.352 480.675 C 600.352 480.675 342.833 293.314 214.074 310.647 C 214.074 310.647 781.111 329.218 991.171 607.784" fill="none" mask="url(#_mask_CFWzsIlZKXfvMT1bsV6FFJja3VykUrWN)" vector-effect="non-scaling-stroke" stroke-width="4" stroke="rgb(94,120,146)" stroke-linejoin="miter" stroke-linecap="butt" stroke-miterlimit="10"/></g><circle vector-effect="non-scaling-stroke" cx="214.07353" cy="310.64667" r="11.968040000000002" fill="rgb(255,153,0)"/><circle vector-effect="non-scaling-stroke" cx="322.19856" cy="566.51505" r="11.968039999999974" fill="rgb(255,153,0)"/><circle vector-effect="non-scaling-stroke" cx="780.69818" cy="308.99591" r="11.968039999999974" fill="rgb(255,153,0)"/><circle vector-effect="non-scaling-stroke" cx="991.17056" cy="607.78414" r="11.968039999999974" fill="rgb(255,153,0)"/><circle vector-effect="non-scaling-stroke" cx="600.35225" cy="480.67534" r="11.968039999999974" fill="rgb(255,153,0)"/></g></svg>