<?xml version="1.0" encoding="UTF-8" standalone="no"?><!-- Generator: Gravit.io --><svg xmlns="http://www.w3.org/2000/svg" xmlns:xlink="http://www.w3.org/1999/xlink" style="isolation:isolate" viewBox="0 0 763.057 458" width="763.057pt" height="458pt"><defs><clipPath id="_clipPath_aUAvn5gQJMuT8VANYjv3lySa0S7F4TZz"><rect width="763.057" height="458"/></clipPath></defs><g clip-path="url(#_clipPath_aUAvn5gQJMuT8VANYjv3lySa0S7F4TZz)"><path d=" M 468.31 403.577 L 458.749 399.551 L 452.191 351.623 L 364.851 351.623 L 357.742 399.356 L 349.188 403.632 C 348.345 404.054 347.903 404.999 348.12 405.916 C 348.336 406.833 349.154 407.48 350.096 407.48 L 467.522 407.48 C 468.489 407.48 469.322 406.799 469.513 405.851 C 469.704 404.903 469.201 403.952 468.31 403.577 L 468.31 403.577 Z " fill="rgb(230,230,230)"/><path d=" M 623.519 358 L 194.481 358 C 189.794 357.989 186 354.187 186 349.5 L 186 289 L 632 289 L 632 349.5 C 632 354.187 628.206 357.989 623.519 358 L 623.519 358 Z " fill="rgb(204,204,204)"/><path d=" M 632.448 317.594 L 185.608 317.594 L 185.608 58.727 C 185.615 53.071 190.199 48.487 195.855 48.48 L 622.201 48.48 C 627.858 48.487 632.442 53.071 632.448 58.727 L 632.448 317.594 Z " fill="rgb(63,61,86)"/><path d=" M 605.76 298.805 L 212.296 298.805 C 207.936 298.8 204.402 295.267 204.397 290.906 L 204.397 75.168 C 204.402 70.808 207.936 67.274 212.296 67.269 L 605.76 67.269 C 610.121 67.274 613.655 70.808 613.66 75.168 L 613.66 290.906 C 613.655 295.267 610.121 298.8 605.76 298.805 L 605.76 298.805 Z " fill="rgb(255,255,255)"/><path d=" M 568.796 272 L 249.261 272 C 248.708 272 248.261 271.552 248.261 271 L 248.261 117.847 C 248.261 117.294 248.708 116.847 249.261 116.847 C 249.813 116.847 250.261 117.294 250.261 117.847 L 250.261 270 L 568.796 270 C 569.348 270 569.796 270.448 569.796 271 C 569.796 271.552 569.348 272 568.796 272 Z " fill="rgb(63,61,86)"/><path d=" M 317.531 261 L 288.468 261 C 286.83 260.998 285.502 259.67 285.5 258.032 L 285.5 217.968 C 285.502 216.33 286.83 215.002 288.468 215 L 317.531 215 C 319.17 215.002 320.498 216.33 320.5 217.968 L 320.5 258.032 C 320.498 259.67 319.17 260.998 317.531 261 L 317.531 261 Z " fill="rgb(255,153,0)"/><path d=" M 370.531 261 L 341.468 261 C 339.83 260.998 338.502 259.67 338.5 258.032 L 338.5 179.968 C 338.502 178.33 339.83 177.002 341.468 177 L 370.531 177 C 372.17 177.002 373.498 178.33 373.5 179.968 L 373.5 258.032 C 373.498 259.67 372.17 260.998 370.531 261 L 370.531 261 Z " fill="rgb(94,120,146)"/><path d=" M 423.531 261 L 394.468 261 C 392.83 260.998 391.502 259.67 391.5 258.032 L 391.5 217.968 C 391.502 216.33 392.83 215.002 394.468 215 L 423.531 215 C 425.17 215.002 426.498 216.33 426.5 217.968 L 426.5 258.032 C 426.498 259.67 425.17 260.998 423.531 261 L 423.531 261 Z " fill="rgb(255,153,0)"/><path d=" M 476.531 261 L 447.468 261 C 445.867 261.034 444.54 259.767 444.5 258.166 L 444.5 164.834 C 444.54 163.233 445.867 161.966 447.468 162 L 476.531 162 C 478.133 161.966 479.46 163.233 479.5 164.834 L 479.5 258.166 C 479.46 259.767 478.133 261.034 476.531 261 Z " fill="rgb(94,120,146)"/><path d=" M 529.531 261 L 500.468 261 C 498.83 260.998 497.502 259.67 497.5 258.032 L 497.5 137.968 C 497.502 136.33 498.83 135.002 500.468 135 L 529.531 135 C 531.17 135.002 532.498 136.33 532.5 137.968 L 532.5 258.032 C 532.498 259.67 531.17 260.998 529.531 261 L 529.531 261 Z " fill="rgb(94,120,146)"/><circle vector-effect="non-scaling-stroke" cx="303" cy="197.00000000000003" r="6" fill="rgb(209,209,209)"/><circle vector-effect="non-scaling-stroke" cx="356" cy="158" r="6" fill="rgb(209,209,209)"/><circle vector-effect="non-scaling-stroke" cx="409" cy="197.00000000000003" r="6" fill="rgb(209,209,209)"/><circle vector-effect="non-scaling-stroke" cx="462" cy="139" r="6" fill="rgb(209,209,209)"/><circle vector-effect="non-scaling-stroke" cx="515" cy="117" r="6" fill="rgb(209,209,209)"/><path d=" M 409.126 198.344 L 356 158.552 L 303.6 197.8 L 302.4 196.2 L 356 156.053 L 408.874 195.656 L 461.415 138.158 L 461.626 138.072 L 514.626 116.718 L 515.374 118.573 L 462.585 139.842 L 409.126 198.344 L 409.126 198.344 Z " fill="rgb(209,209,209)"/></g></svg>