<?xml version="1.0" encoding="UTF-8" standalone="no"?><!-- Generator: Gravit.io --><svg xmlns="http://www.w3.org/2000/svg" xmlns:xlink="http://www.w3.org/1999/xlink" style="isolation:isolate" viewBox="0 0 855.418 610.775" width="855.418pt" height="610.775pt"><defs><clipPath id="_clipPath_rYw1crfcdec5fHRnfOum6uvPGvBrpIgm"><rect width="855.418" height="610.775"/></clipPath></defs><g clip-path="url(#_clipPath_rYw1crfcdec5fHRnfOum6uvPGvBrpIgm)"><circle vector-effect="non-scaling-stroke" cx="39.53587" cy="110.72662" r="13.630569999999999" fill="rgb(230,230,230)"/><circle vector-effect="non-scaling-stroke" cx="80.42757" cy="110.72662" r="13.630570000000006" fill="rgb(230,230,230)"/><circle vector-effect="non-scaling-stroke" cx="121.31926999999999" cy="110.72662" r="13.630569999999999" fill="rgb(230,230,230)"/><circle vector-effect="non-scaling-stroke" cx="162.21097" cy="110.72662" r="13.630570000000006" fill="rgb(230,230,230)"/><circle vector-effect="non-scaling-stroke" cx="203.10267" cy="110.72662" r="13.630570000000006" fill="rgb(230,230,230)"/><circle vector-effect="non-scaling-stroke" cx="243.99437" cy="110.72662" r="13.630569999999992" fill="rgb(230,230,230)"/><circle vector-effect="non-scaling-stroke" cx="284.88607" cy="110.72662" r="13.630569999999977" fill="rgb(230,230,230)"/><path d=" M 316.384 127.326 L 8.038 127.326 C 4.976 127.322 2.495 124.841 2.491 121.779 L 2.491 99.675 C 2.495 96.613 4.976 94.131 8.038 94.128 L 316.384 94.128 C 319.446 94.131 321.927 96.613 321.931 99.675 L 321.931 121.779 C 321.927 124.841 319.446 127.322 316.384 127.326 L 316.384 127.326 Z  M 8.038 96.347 C 6.201 96.349 4.712 97.838 4.71 99.675 L 4.71 121.779 C 4.712 123.616 6.201 125.105 8.038 125.107 L 316.384 125.107 C 318.221 125.105 319.71 123.616 319.712 121.779 L 319.712 99.675 C 319.71 97.838 318.221 96.349 316.384 96.347 L 8.038 96.347 Z " fill="rgb(230,230,230)"/><path d=" M 74.026 3.187 C 75.785 3.189 77.211 4.615 77.213 6.374 L 77.213 75.437 C 77.211 77.196 75.785 78.622 74.026 78.624 L 6.374 78.624 C 4.615 78.622 3.189 77.196 3.187 75.437 L 3.187 6.374 C 3.189 4.615 4.615 3.189 6.374 3.187 L 74.026 3.187 M 74.026 0 L 6.374 0 C 2.854 0 0 2.854 0 6.374 L 0 75.437 C 0 78.957 2.854 81.811 6.374 81.811 L 74.026 81.811 C 77.546 81.811 80.4 78.957 80.4 75.437 L 80.4 6.374 C 80.4 2.854 77.546 0 74.026 0 L 74.026 0 Z " fill="rgb(230,230,230)"/><path d=" M 63.474 21.341 L 18.337 21.341 C 17.765 21.344 17.236 21.041 16.949 20.547 C 16.662 20.052 16.662 19.442 16.949 18.948 C 17.236 18.453 17.765 18.15 18.337 18.154 L 63.474 18.154 C 64.046 18.15 64.575 18.453 64.862 18.948 C 65.149 19.442 65.149 20.052 64.862 20.547 C 64.575 21.041 64.046 21.344 63.474 21.341 Z " fill="rgb(94,120,146)"/><path d=" M 63.474 32.625 L 18.337 32.625 C 17.765 32.629 17.236 32.326 16.949 31.831 C 16.662 31.337 16.662 30.727 16.949 30.232 C 17.236 29.738 17.765 29.435 18.337 29.438 L 63.474 29.438 C 64.046 29.435 64.575 29.738 64.862 30.232 C 65.149 30.727 65.149 31.337 64.862 31.831 C 64.575 32.326 64.046 32.629 63.474 32.625 Z " fill="rgb(94,120,146)"/><path d=" M 63.474 43.909 L 18.337 43.909 C 17.765 43.913 17.236 43.61 16.949 43.115 C 16.662 42.621 16.662 42.01 16.949 41.516 C 17.236 41.022 17.765 40.719 18.337 40.722 L 63.474 40.722 C 64.046 40.719 64.575 41.022 64.862 41.516 C 65.149 42.01 65.149 42.621 64.862 43.115 C 64.575 43.61 64.046 43.913 63.474 43.909 Z " fill="rgb(94,120,146)"/><path d=" M 63.474 55.194 L 18.337 55.194 C 17.765 55.197 17.236 54.894 16.949 54.4 C 16.662 53.905 16.662 53.295 16.949 52.801 C 17.236 52.306 17.765 52.003 18.337 52.007 L 63.474 52.007 C 64.046 52.003 64.575 52.306 64.862 52.801 C 65.149 53.295 65.149 53.905 64.862 54.4 C 64.575 54.894 64.046 55.197 63.474 55.194 Z " fill="rgb(94,120,146)"/><path d=" M 63.474 66.478 L 18.337 66.478 C 17.457 66.478 16.743 65.765 16.743 64.885 C 16.743 64.005 17.457 63.291 18.337 63.291 L 63.474 63.291 C 64.354 63.291 65.067 64.005 65.067 64.885 C 65.067 65.765 64.354 66.478 63.474 66.478 L 63.474 66.478 Z " fill="rgb(94,120,146)"/><path d=" M 305.087 3.187 C 306.847 3.189 308.272 4.615 308.274 6.374 L 308.274 75.437 C 308.272 77.196 306.847 78.622 305.087 78.624 L 237.435 78.624 C 235.676 78.622 234.25 77.196 234.248 75.437 L 234.248 6.374 C 234.25 4.615 235.676 3.189 237.435 3.187 L 305.087 3.187 M 305.087 0 L 237.435 0 C 233.915 0 231.061 2.854 231.061 6.374 L 231.061 75.437 C 231.061 78.957 233.915 81.811 237.435 81.811 L 305.087 81.811 C 308.608 81.811 311.461 78.957 311.461 75.437 L 311.461 6.374 C 311.461 2.854 308.608 0 305.087 0 L 305.087 0 Z " fill="rgb(230,230,230)"/><path d=" M 294.535 21.341 L 249.398 21.341 C 248.827 21.344 248.297 21.041 248.01 20.547 C 247.723 20.052 247.723 19.442 248.01 18.948 C 248.297 18.453 248.827 18.15 249.398 18.154 L 294.535 18.154 C 295.411 18.159 296.119 18.871 296.119 19.747 C 296.119 20.623 295.411 21.335 294.535 21.341 L 294.535 21.341 Z " fill="rgb(94,120,146)"/><path d=" M 294.535 32.625 L 249.398 32.625 C 248.827 32.629 248.297 32.326 248.01 31.831 C 247.723 31.337 247.723 30.727 248.01 30.232 C 248.297 29.738 248.827 29.435 249.398 29.438 L 294.535 29.438 C 295.411 29.444 296.119 30.155 296.119 31.032 C 296.119 31.908 295.411 32.62 294.535 32.625 L 294.535 32.625 Z " fill="rgb(94,120,146)"/><path d=" M 294.535 43.909 L 249.398 43.909 C 248.827 43.913 248.297 43.61 248.01 43.115 C 247.723 42.621 247.723 42.01 248.01 41.516 C 248.297 41.022 248.827 40.719 249.398 40.722 L 294.535 40.722 C 295.411 40.727 296.119 41.439 296.119 42.316 C 296.119 43.192 295.411 43.904 294.535 43.909 L 294.535 43.909 Z " fill="rgb(94,120,146)"/><path d=" M 294.535 55.194 L 249.398 55.194 C 248.827 55.197 248.297 54.894 248.01 54.4 C 247.723 53.905 247.723 53.295 248.01 52.801 C 248.297 52.306 248.827 52.003 249.398 52.007 L 294.535 52.007 C 295.411 52.012 296.119 52.724 296.119 53.6 C 296.119 54.476 295.411 55.188 294.535 55.194 L 294.535 55.194 Z " fill="rgb(94,120,146)"/><path d=" M 294.535 66.478 L 249.398 66.478 C 248.518 66.478 247.805 65.765 247.805 64.885 C 247.805 64.005 248.518 63.291 249.398 63.291 L 294.535 63.291 C 295.415 63.291 296.129 64.005 296.129 64.885 C 296.129 65.765 295.415 66.478 294.535 66.478 L 294.535 66.478 Z " fill="rgb(94,120,146)"/><path d=" M 535.026 135.978 C 536.785 135.98 538.211 137.406 538.213 139.165 L 538.213 208.228 C 538.211 209.987 536.785 211.413 535.026 211.415 L 467.374 211.415 C 465.615 211.413 464.189 209.987 464.187 208.228 L 464.187 139.165 C 464.189 137.406 465.615 135.981 467.374 135.978 L 535.026 135.978 M 535.026 132.791 L 467.374 132.791 C 463.854 132.791 461 135.645 461 139.166 L 461 208.228 C 461 211.748 463.854 214.602 467.374 214.602 L 535.026 214.602 C 538.547 214.602 541.4 211.748 541.4 208.228 L 541.4 139.165 C 541.4 135.645 538.547 132.791 535.026 132.791 L 535.026 132.791 Z " fill="rgb(94,120,146)"/><path d=" M 524.474 154.132 L 479.337 154.132 C 478.765 154.135 478.236 153.833 477.949 153.338 C 477.662 152.844 477.662 152.233 477.949 151.739 C 478.236 151.244 478.765 150.941 479.337 150.945 L 524.474 150.945 C 525.35 150.95 526.058 151.662 526.058 152.538 C 526.058 153.415 525.35 154.127 524.474 154.132 Z " fill="rgb(94,120,146)"/><path d=" M 524.474 165.417 L 479.337 165.417 C 478.457 165.417 477.744 164.703 477.744 163.823 C 477.744 162.943 478.457 162.23 479.337 162.23 L 524.474 162.23 C 525.354 162.23 526.067 162.943 526.067 163.823 C 526.067 164.703 525.354 165.417 524.474 165.417 L 524.474 165.417 Z " fill="rgb(94,120,146)"/><path d=" M 524.474 176.7 L 479.337 176.7 C 478.766 176.703 478.237 176.4 477.95 175.906 C 477.664 175.412 477.664 174.802 477.95 174.308 C 478.237 173.814 478.766 173.511 479.337 173.513 L 524.474 173.513 C 525.35 173.519 526.058 174.231 526.058 175.107 C 526.058 175.983 525.35 176.695 524.474 176.7 Z " fill="rgb(94,120,146)"/><path d=" M 524.474 187.985 L 479.337 187.985 C 478.765 187.989 478.236 187.686 477.949 187.191 C 477.662 186.697 477.662 186.086 477.949 185.592 C 478.236 185.098 478.765 184.795 479.337 184.798 L 524.474 184.798 C 525.35 184.803 526.058 185.515 526.058 186.392 C 526.058 187.268 525.35 187.98 524.474 187.985 Z " fill="rgb(94,120,146)"/><path d=" M 524.474 199.27 L 479.337 199.27 C 478.765 199.273 478.236 198.97 477.949 198.476 C 477.662 197.981 477.662 197.371 477.949 196.877 C 478.236 196.382 478.765 196.079 479.337 196.083 L 524.474 196.083 C 525.35 196.088 526.058 196.8 526.058 197.676 C 526.058 198.552 525.35 199.264 524.474 199.27 Z " fill="rgb(94,120,146)"/><path d=" M 190.442 81.811 L 121.019 81.811 C 117.11 81.806 113.942 78.638 113.937 74.729 L 113.937 25.053 C 113.941 21.144 117.109 17.976 121.019 17.971 L 190.442 17.971 C 194.352 17.975 197.52 21.143 197.524 25.053 L 197.524 74.729 C 197.519 78.639 194.351 81.807 190.442 81.811 L 190.442 81.811 Z  M 121.019 21.158 C 118.869 21.161 117.127 22.903 117.124 25.053 L 117.124 74.729 C 117.127 76.879 118.869 78.621 121.019 78.624 L 190.442 78.624 C 192.592 78.621 194.334 76.879 194.337 74.729 L 194.337 25.053 C 194.335 22.903 192.592 21.161 190.442 21.158 L 121.019 21.158 Z " fill="rgb(230,230,230)"/><path d=" M 178.299 40.2 L 133.162 40.2 C 132.286 40.195 131.578 39.483 131.578 38.607 C 131.578 37.73 132.286 37.019 133.162 37.013 L 178.299 37.013 C 178.871 37.01 179.401 37.313 179.687 37.807 C 179.974 38.302 179.974 38.912 179.687 39.406 C 179.401 39.901 178.871 40.204 178.299 40.2 Z " fill="rgb(94,120,146)"/><path d=" M 178.299 51.485 L 133.162 51.485 C 132.286 51.479 131.578 50.768 131.578 49.891 C 131.578 49.015 132.286 48.303 133.162 48.298 L 178.299 48.298 C 178.871 48.294 179.401 48.597 179.687 49.092 C 179.974 49.586 179.974 50.196 179.687 50.691 C 179.401 51.185 178.871 51.488 178.299 51.485 Z " fill="rgb(94,120,146)"/><path d=" M 178.299 62.769 L 133.162 62.769 C 132.286 62.763 131.578 62.051 131.578 61.175 C 131.578 60.299 132.286 59.587 133.162 59.582 L 178.299 59.582 C 178.871 59.578 179.401 59.881 179.687 60.376 C 179.974 60.87 179.974 61.48 179.687 61.975 C 179.401 62.469 178.871 62.772 178.299 62.769 Z " fill="rgb(94,120,146)"/><path d=" M 420.8 109.338 L 354.124 90.002 C 350.371 88.909 348.211 84.984 349.295 81.228 L 363.131 33.518 C 364.224 29.764 368.149 27.604 371.905 28.688 L 438.581 48.024 C 442.335 49.117 444.495 53.043 443.411 56.799 L 429.575 104.509 C 428.481 108.263 424.556 110.423 420.8 109.338 Z  M 371.017 31.749 C 368.952 31.153 366.793 32.341 366.192 34.405 L 352.356 82.116 C 351.76 84.181 352.948 86.34 355.012 86.941 L 421.688 106.277 C 423.754 106.874 425.912 105.686 426.514 103.622 L 440.35 55.911 C 440.946 53.845 439.758 51.687 437.694 51.085 L 371.017 31.749 Z " fill="rgb(230,230,230)"/><path d=" M 420.728 65.992 L 377.377 53.42 C 376.533 53.174 376.048 52.291 376.293 51.447 C 376.538 50.603 377.42 50.116 378.264 50.359 L 421.615 62.931 C 422.162 63.089 422.583 63.528 422.719 64.08 C 422.855 64.633 422.686 65.217 422.275 65.611 C 421.864 66.005 421.274 66.15 420.728 65.992 L 420.728 65.992 Z " fill="rgb(94,120,146)"/><path d=" M 417.585 76.83 L 374.234 64.258 C 373.388 64.013 372.902 63.129 373.147 62.284 C 373.392 61.439 374.276 60.952 375.121 61.197 L 418.472 73.769 C 419.316 74.015 419.801 74.898 419.556 75.742 C 419.311 76.586 418.429 77.073 417.585 76.83 L 417.585 76.83 Z " fill="rgb(94,120,146)"/><path d=" M 414.442 87.667 L 371.091 75.095 C 370.247 74.849 369.762 73.966 370.007 73.122 C 370.252 72.278 371.134 71.791 371.979 72.034 L 415.329 84.606 C 416.175 84.851 416.661 85.735 416.416 86.581 C 416.171 87.426 415.287 87.912 414.442 87.667 L 414.442 87.667 Z " fill="rgb(94,120,146)"/><path d=" M 562.14 603.085 L 448.421 603.085 L 452.276 552.973 L 558.285 552.973 L 562.14 603.085 L 562.14 603.085 Z " fill="rgb(230,230,230)"/><rect x="442.639" y="597.303" width="127.21" height="11.565" transform="matrix(1,0,0,1,0,0)" fill="rgb(230,230,230)"/><path d=" M 723.08 230.128 L 288.444 230.128 C 282.057 230.128 276.88 235.306 276.88 241.692 L 276.88 241.692 L 276.88 506.714 L 734.645 506.714 L 734.645 241.692 C 734.645 238.625 733.426 235.684 731.257 233.515 C 729.089 231.346 726.147 230.128 723.08 230.128 L 723.08 230.128 Z " fill="rgb(63,61,86)"/><path d=" M 276.88 506.714 L 276.88 550.081 C 276.88 553.148 278.098 556.09 280.267 558.259 C 282.436 560.428 285.377 561.646 288.444 561.646 L 723.08 561.646 C 729.467 561.646 734.645 556.468 734.645 550.081 L 734.645 550.081 L 734.645 506.714 L 276.88 506.714 Z " fill="rgb(230,230,230)"/><rect x="300.009" y="254.221" width="412.47" height="231.292" transform="matrix(1,0,0,1,0,0)" fill="rgb(230,230,230)"/><circle vector-effect="non-scaling-stroke" cx="506.244" cy="533.69821" r="11.564589999999981" fill="rgb(63,61,86)"/><circle vector-effect="non-scaling-stroke" cx="312.86987" cy="261.79534" r="2.194659999999999" fill="rgb(255,255,255)"/><circle vector-effect="non-scaling-stroke" cx="321.20026" cy="261.79534" r="2.194659999999999" fill="rgb(255,255,255)"/><circle vector-effect="non-scaling-stroke" cx="329.53064" cy="261.79534" r="2.194659999999999" fill="rgb(255,255,255)"/><rect x="310.675" y="269.253" width="389.916" height="194.247" transform="matrix(1,0,0,1,0,0)" fill="rgb(255,255,255)"/><path d=" M 336.594 298.799 C 335.833 298.8 335.216 299.416 335.216 300.177 L 335.216 369.853 C 335.216 370.614 335.833 371.231 336.594 371.231 L 417.058 371.231 C 417.819 371.231 418.436 370.614 418.437 369.853 L 418.437 300.177 C 418.436 299.416 417.819 298.8 417.058 298.799 L 336.594 298.799 Z " fill="rgb(230,230,230)"/><path d=" M 465.79 299.023 C 465.029 299.023 464.412 299.64 464.411 300.401 L 464.411 369.853 C 464.412 370.614 465.029 371.231 465.79 371.231 L 545.998 371.231 C 546.759 371.23 547.375 370.614 547.376 369.853 L 547.376 300.401 C 547.375 299.641 546.759 299.024 545.998 299.023 L 465.79 299.023 Z " fill="rgb(230,230,230)"/><path d=" M 593.631 298.295 C 592.87 298.296 592.253 298.912 592.253 299.673 L 592.253 369.853 C 592.253 370.614 592.87 371.23 593.631 371.231 L 674.673 371.231 C 675.434 371.23 676.05 370.614 676.051 369.853 L 676.051 299.673 C 676.05 298.912 675.434 298.296 674.673 298.295 L 593.631 298.295 Z " fill="rgb(230,230,230)"/><path d=" M 338.065 405.721 C 336.493 405.724 335.221 406.999 335.221 408.571 C 335.221 410.142 336.493 411.417 338.065 411.42 L 413.718 411.42 C 415.29 411.417 416.562 410.142 416.562 408.571 C 416.562 406.999 415.29 405.724 413.718 405.721 L 338.065 405.721 Z " fill="rgb(230,230,230)"/><path d=" M 338.065 419.276 C 336.493 419.279 335.221 420.554 335.221 422.126 C 335.221 423.698 336.493 424.974 338.065 424.977 L 372.127 424.977 C 373.699 424.974 374.972 423.698 374.972 422.126 C 374.972 420.554 373.699 419.279 372.127 419.276 L 338.065 419.276 Z " fill="rgb(255,153,0)"/><path d=" M 468.649 405.721 C 467.077 405.724 465.805 406.999 465.805 408.571 C 465.805 410.142 467.077 411.417 468.649 411.42 L 544.302 411.42 C 545.874 411.417 547.146 410.142 547.146 408.571 C 547.146 406.999 545.874 405.724 544.302 405.721 L 468.649 405.721 Z " fill="rgb(230,230,230)"/><path d=" M 468.649 419.276 C 467.077 419.279 465.805 420.554 465.805 422.126 C 465.805 423.698 467.077 424.974 468.649 424.977 L 502.712 424.977 C 504.284 424.974 505.557 423.698 505.557 422.126 C 505.557 420.554 504.284 419.279 502.712 419.276 L 468.649 419.276 Z " fill="rgb(255,153,0)"/><path d=" M 595.97 405.721 C 594.398 405.724 593.125 406.999 593.125 408.571 C 593.125 410.142 594.398 411.417 595.97 411.42 L 671.622 411.42 C 673.194 411.417 674.466 410.142 674.466 408.571 C 674.466 406.999 673.194 405.724 671.622 405.721 L 595.97 405.721 Z " fill="rgb(230,230,230)"/><path d=" M 338.065 391.721 C 336.493 391.724 335.221 392.999 335.221 394.571 C 335.221 396.142 336.493 397.417 338.065 397.42 L 413.718 397.42 C 415.29 397.417 416.562 396.142 416.562 394.571 C 416.562 392.999 415.29 391.724 413.718 391.721 L 338.065 391.721 Z " fill="rgb(230,230,230)"/><path d=" M 468.649 391.721 C 467.077 391.724 465.805 392.999 465.805 394.571 C 465.805 396.142 467.077 397.417 468.649 397.42 L 544.302 397.42 C 545.874 397.417 547.146 396.142 547.146 394.571 C 547.146 392.999 545.874 391.724 544.302 391.721 L 468.649 391.721 Z " fill="rgb(230,230,230)"/><path d=" M 595.97 391.721 C 594.398 391.724 593.125 392.999 593.125 394.571 C 593.125 396.142 594.398 397.417 595.97 397.42 L 671.622 397.42 C 673.194 397.417 674.466 396.142 674.466 394.571 C 674.466 392.999 673.194 391.724 671.622 391.721 L 595.97 391.721 Z " fill="rgb(230,230,230)"/><path d=" M 595.97 419.276 C 594.398 419.279 593.125 420.554 593.125 422.126 C 593.125 423.698 594.398 424.974 595.97 424.977 L 630.031 424.977 C 631.603 424.974 632.876 423.698 632.876 422.126 C 632.876 420.554 631.603 419.279 630.031 419.276 L 595.97 419.276 Z " fill="rgb(255,153,0)"/></g></svg>