<?xml version="1.0" encoding="UTF-8" standalone="no"?><!-- Generator: Gravit.io --><svg xmlns="http://www.w3.org/2000/svg" xmlns:xlink="http://www.w3.org/1999/xlink" style="isolation:isolate" viewBox="0 0 845.724 704.031" width="845.724pt" height="704.031pt"><defs><clipPath id="_clipPath_5IFbf7mhdweeCNlSMuMlxcBmzl8VGqJo"><rect width="845.724" height="704.031"/></clipPath></defs><g clip-path="url(#_clipPath_5IFbf7mhdweeCNlSMuMlxcBmzl8VGqJo)"><rect x="117.263" y="156.386" width="611.461" height="391.607" transform="matrix(1,0,0,1,0,0)" fill="rgb(230,230,230)"/><rect x="136.747" y="205.503" width="576.492" height="319.322" transform="matrix(1,0,0,1,0,0)" fill="rgb(255,255,255)"/><rect x="117.001" y="156.039" width="611.461" height="25.977" transform="matrix(1,0,0,1,0,0)" fill="rgb(230,230,230)"/><circle vector-effect="non-scaling-stroke" cx="136.30565500000003" cy="169.31967000000003" r="4.814999999999998" fill="rgb(255,0,0)"/><circle vector-effect="non-scaling-stroke" cx="154.58065500000004" cy="169.31967000000003" r="4.814999999999998" fill="rgb(255,153,0)"/><circle vector-effect="non-scaling-stroke" cx="172.855655" cy="169.31967000000003" r="4.814999999999998" fill="rgb(94,120,146)"/><path d=" M 237.606 250.26 L 199.473 287.917 L 237.606 325.573 L 246.186 316.993 L 217.351 288.154 L 246.427 259.078 L 237.606 250.26 Z " fill="rgb(255,153,0)"/><path d=" M 268.851 250.26 L 306.983 287.917 L 268.851 325.573 L 260.271 316.993 L 289.108 288.155 L 260.03 259.078 L 268.851 250.26 Z " fill="rgb(255,153,0)"/><path d=" M 392.195 259.71 C 389.076 259.71 386.548 261.504 386.548 263.716 C 386.548 265.928 389.076 267.722 392.195 267.722 L 658.409 267.722 C 661.528 267.722 664.056 265.928 664.056 263.716 C 664.056 261.504 661.528 259.71 658.409 259.71 L 392.195 259.71 Z " fill="rgb(230,230,230)"/><path d=" M 655.762 479.189 L 207.924 479.189 C 203.346 479.189 199.636 476.546 199.631 473.289 L 199.631 394.247 C 199.636 390.99 203.346 388.347 207.924 388.347 L 655.762 388.347 C 660.34 388.347 664.05 390.99 664.055 394.247 L 664.055 473.288 C 664.051 476.545 660.34 479.185 655.762 479.189 Z  M 207.924 390.705 C 205.177 390.705 202.951 392.291 202.948 394.245 L 202.948 473.286 C 202.948 475.24 205.177 476.824 207.924 476.826 L 655.762 476.826 C 658.509 476.826 660.735 475.24 660.738 473.286 L 660.738 394.247 C 660.738 392.293 658.509 390.709 655.762 390.707 L 207.924 390.705 Z " fill="rgb(230,230,230)"/><circle vector-effect="non-scaling-stroke" cx="254.04065500000002" cy="433.73367" r="20.036" fill="rgb(230,230,230)"/><path d=" M 310.551 417.71 C 308.338 417.707 306.542 419.498 306.539 421.71 C 306.537 423.923 308.328 425.719 310.54 425.722 L 499.412 425.722 C 501.624 425.722 503.418 423.928 503.418 421.716 C 503.418 419.503 501.624 417.71 499.412 417.71 L 310.551 417.71 Z " fill="rgb(94,120,146)"/><path d=" M 310.551 441.747 C 308.338 441.744 306.542 443.535 306.539 445.747 C 306.537 447.96 308.328 449.756 310.54 449.759 L 391.817 449.759 C 394.029 449.762 395.825 447.97 395.828 445.758 C 395.831 443.545 394.039 441.75 391.827 441.747 L 310.551 441.747 Z " fill="rgb(94,120,146)"/><path d=" M 390.251 283.71 C 388.163 283.878 386.555 285.621 386.555 287.716 C 386.555 289.81 388.163 291.553 390.251 291.722 L 564.721 291.722 C 566.808 291.553 568.417 289.81 568.417 287.716 C 568.417 285.621 566.808 283.878 564.721 283.71 L 390.251 283.71 Z " fill="rgb(230,230,230)"/><path d=" M 391.399 307.71 C 388.72 307.71 386.548 309.504 386.548 311.716 C 386.548 313.928 388.72 315.722 391.399 315.722 L 620.099 315.722 C 622.778 315.722 624.95 313.928 624.95 311.716 C 624.95 309.504 622.778 307.71 620.099 307.71 L 391.399 307.71 Z " fill="rgb(230,230,230)"/></g></svg>