<?xml version="1.0" encoding="UTF-8" standalone="no"?><!-- Generator: Gravit.io --><svg xmlns="http://www.w3.org/2000/svg" xmlns:xlink="http://www.w3.org/1999/xlink" style="isolation:isolate" viewBox="0 0 601.2 601.202" width="601.2pt" height="601.202pt"><defs><clipPath id="_clipPath_qCYMoRlHOt7TL3LXNYlqaxc6V2VFVBTS"><rect width="601.2" height="601.202"/></clipPath></defs><g clip-path="url(#_clipPath_qCYMoRlHOt7TL3LXNYlqaxc6V2VFVBTS)"><path d=" M 91.75 154.705 C 87.886 154.693 84.741 157.81 84.72 161.675 L 83.523 437.672 C 83.511 441.536 86.629 444.681 90.493 444.702 L 504.489 446.497 C 508.353 446.509 511.498 443.392 511.519 439.528 L 512.746 156.531 C 512.759 152.667 509.61 156.522 505.746 156.5 L 91.75 154.705 Z " fill="rgb(255,255,255)"/><g opacity="0.1"><path d=" M 455.586 215.882 C 446.066 212.165 435.801 221.487 433.57 231.461 C 431.34 241.435 434.194 251.75 434.823 261.95 C 435.451 272.151 432.777 283.997 423.676 288.647 C 413.211 293.995 400.935 287.043 389.23 285.984 C 377.354 285.041 365.825 290.263 358.702 299.813 C 349.049 313.056 349.54 332.286 338.117 344.036 C 328.192 354.246 312.019 355.575 298.135 352.418 C 284.25 349.261 271.488 342.402 257.836 338.359 C 244.184 334.315 228.381 333.471 216.682 341.586 C 204.468 350.059 199.033 366.665 185.625 373.082 C 176.144 377.62 164.922 375.889 154.777 373.141 C 144.632 370.394 134.402 366.687 123.928 367.569 C 113.455 368.451 102.536 375.677 101.706 386.155 L 461.167 385.151 Q 463.617 313.982 466.066 242.814 C 466.421 232.507 465.193 219.633 455.586 215.882 Z " fill="rgb(255,153,0)"/></g><path d=" M 99.987 384.987 C 98.882 384.987 97.987 384.092 97.987 382.987 C 97.987 381.883 98.882 380.987 99.987 380.987 C 192.402 380.987 280.537 362.484 348.157 328.884 C 411.564 297.377 451.97 254.653 459.013 211.664 C 459.127 210.958 459.609 210.366 460.277 210.112 C 460.946 209.858 461.699 209.98 462.253 210.433 C 462.807 210.885 463.077 211.599 462.961 212.305 L 462.961 212.311 C 459.302 234.641 447.426 256.546 427.665 277.417 C 408.174 298.002 382.023 316.523 349.937 332.466 C 281.775 366.335 193.007 384.987 99.987 384.987 Z " fill="rgb(255,153,0)"/><path d=" M 479.601 385.391 L 97.601 385.391 L 97.601 196.663 L 99.601 196.663 L 99.601 383.391 L 479.601 383.391 L 479.601 385.391 L 479.601 385.391 Z " fill="rgb(230,230,230)"/></g></svg>