<?xml version="1.0" encoding="UTF-8" standalone="no"?><!-- Generator: Gravit.io --><svg xmlns="http://www.w3.org/2000/svg" xmlns:xlink="http://www.w3.org/1999/xlink" style="isolation:isolate" viewBox="0 0 1097.1 807.9" width="1097.1pt" height="807.9pt"><defs><clipPath id="_clipPath_ZXrByTGAem1ZxHtf7GaiOw3yFXYq9RuB"><rect width="1097.1" height="807.9"/></clipPath></defs><g clip-path="url(#_clipPath_ZXrByTGAem1ZxHtf7GaiOw3yFXYq9RuB)"><rect x="365.51" y="184.9" width="7" height="99" transform="matrix(1,0,0,1,0,0)" fill="rgb(83,84,97)"/><rect x="365.51" y="317.9" width="7" height="56" transform="matrix(1,0,0,1,0,0)" fill="rgb(83,84,97)"/><path d="M 417.61 87.9 L 638.41 87.9 C 664.405 87.9 685.51 109.005 685.51 135 L 685.51 724.8 C 685.51 750.795 664.405 771.9 638.41 771.9 L 417.61 771.9 C 391.615 771.9 370.51 750.795 370.51 724.8 L 370.51 135 C 370.51 109.005 391.615 87.9 417.61 87.9 Z" style="stroke:none;fill:#535461;stroke-miterlimit:10;"/><path d="M 417.61 119.9 L 638.41 119.9 C 664.405 119.9 685.51 141.005 685.51 167 L 685.51 695.8 C 685.51 721.795 664.405 742.9 638.41 742.9 L 417.61 742.9 C 391.615 742.9 370.51 721.795 370.51 695.8 L 370.51 167 C 370.51 141.005 391.615 119.9 417.61 119.9 Z" style="stroke:none;fill:#5E7892;stroke-miterlimit:10;"/><path d="M 506.01 102.9 L 551.01 102.9 C 552.942 102.9 554.51 104.468 554.51 106.4 L 554.51 106.4 C 554.51 108.332 552.942 109.9 551.01 109.9 L 506.01 109.9 C 504.078 109.9 502.51 108.332 502.51 106.4 L 502.51 106.4 C 502.51 104.468 504.078 102.9 506.01 102.9 Z" style="stroke:none;fill:#EAEAF3;stroke-miterlimit:10;"/><circle vector-effect="non-scaling-stroke" cx="572.51" cy="106.9" r="5" fill="rgb(234,234,243)"/><path d=" M 446.31 396.1 L 446.31 469.1 C 446.361 473.724 444.556 478.174 441.298 481.456 C 438.041 484.738 433.604 486.576 428.98 486.56 C 419.34 486.56 409.98 478.75 409.98 469.1 L 409.98 396.1 C 409.98 386.58 419.31 378.77 428.98 378.77 C 438.535 378.808 446.272 386.545 446.31 396.1 L 446.31 396.1 Z  M 453.12 495.04 C 453.109 499.99 455.071 504.739 458.571 508.239 C 462.071 511.739 466.82 513.701 471.77 513.69 L 484.31 513.69 L 484.5 552.2 C 484.5 575.45 519.29 575.27 519.29 552.2 L 519.29 513.7 L 542.73 513.7 L 542.73 552.21 C 542.73 575.34 577.73 575.4 577.73 552.21 L 577.73 513.7 L 590.46 513.7 C 595.39 513.684 600.113 511.71 603.588 508.213 C 607.063 504.715 609.006 499.98 608.99 495.05 L 608.99 381.95 L 453.12 381.95 L 453.12 495.04 Z  M 609.41 375.87 L 452.41 375.87 C 452.41 348.87 468.54 325.45 492.49 313.23 L 480.49 290.98 C 478.73 287.89 483.2 285.98 484.71 288.59 L 496.94 311.03 C 518.695 301.513 543.435 301.513 565.19 311.03 L 577.35 288.66 C 578.93 285.95 583.35 287.97 581.57 291.05 L 569.57 313.23 C 593.28 325.45 609.41 348.9 609.41 375.87 Z  M 501.83 340.87 C 501.83 339.114 501.133 337.43 499.891 336.189 C 498.65 334.947 496.966 334.25 495.21 334.25 C 491.657 334.388 488.847 337.309 488.847 340.865 C 488.847 344.421 491.657 347.342 495.21 347.48 C 498.854 347.48 501.813 344.534 501.83 340.89 L 501.83 340.87 Z  M 573.3 340.87 C 573.244 337.271 570.283 334.398 566.684 334.451 C 563.085 334.505 560.21 337.465 560.261 341.064 C 560.313 344.663 563.271 347.539 566.87 347.49 C 570.453 347.408 573.312 344.474 573.3 340.89 L 573.3 340.87 Z  M 633.04 378.75 C 628.44 378.737 624.024 380.558 620.771 383.811 C 617.518 387.064 615.697 391.48 615.71 396.08 L 615.71 469.08 C 615.691 473.694 617.507 478.126 620.757 481.401 C 624.008 484.675 628.426 486.524 633.04 486.54 C 642.75 486.54 652.04 478.73 652.04 469.08 L 652.04 396.08 C 652.01 386.4 642.68 378.77 633.04 378.77 L 633.04 378.75 Z " fill="rgb(255,255,255)"/><rect x="454.01" y="569.46" width="65" height="3" transform="matrix(1,0,0,1,0,0)" fill="rgb(83,84,97)"/><rect x="543.01" y="569.46" width="43" height="3" transform="matrix(1,0,0,1,0,0)" fill="rgb(83,84,97)"/><rect x="397.01" y="569.46" width="43" height="3" transform="matrix(1,0,0,1,0,0)" fill="rgb(83,84,97)"/><rect x="611.01" y="569.46" width="43" height="3" transform="matrix(1,0,0,1,0,0)" fill="rgb(83,84,97)"/></g></svg>