<?xml version="1.0" encoding="UTF-8" standalone="no"?><!-- Generator: Gravit.io --><svg xmlns="http://www.w3.org/2000/svg" xmlns:xlink="http://www.w3.org/1999/xlink" style="isolation:isolate" viewBox="0 0 400.5 461.234" width="400.5pt" height="461.234pt"><defs><clipPath id="_clipPath_5PwEAn0IVVCI5yq7O1QPiNIFwgJCD466"><rect width="400.5" height="461.234"/></clipPath></defs><g clip-path="url(#_clipPath_5PwEAn0IVVCI5yq7O1QPiNIFwgJCD466)"><path d=" M 292.289 193.771 L 126.289 193.771 C 123.529 193.768 121.292 191.532 121.289 188.771 L 121.289 132.771 C 121.292 130.011 123.529 127.775 126.289 127.771 L 292.289 127.771 C 295.049 127.775 297.286 130.011 297.289 132.771 L 297.289 188.771 C 297.286 191.532 295.049 193.768 292.289 193.771 L 292.289 193.771 Z " fill="rgb(232,232,232)"/><rect x="147.289" y="142.771" width="44" height="5" transform="matrix(1,0,0,1,0,0)" fill="rgb(255,255,255)"/><circle vector-effect="non-scaling-stroke" cx="249.28871000000004" cy="145.77141500000002" r="3" fill="rgb(255,153,0)"/><circle vector-effect="non-scaling-stroke" cx="259.2887100000001" cy="145.77141500000002" r="3" fill="rgb(255,153,0)"/><circle vector-effect="non-scaling-stroke" cx="269.28871000000004" cy="145.77141500000002" r="3" fill="rgb(255,153,0)"/><path d=" M 292.289 264.771 L 126.289 264.771 C 123.529 264.768 121.292 262.532 121.289 259.771 L 121.289 203.771 C 121.292 201.011 123.529 198.775 126.289 198.771 L 292.289 198.771 C 295.049 198.775 297.286 201.011 297.289 203.771 L 297.289 259.771 C 297.286 262.532 295.049 264.768 292.289 264.771 L 292.289 264.771 Z " fill="rgb(232,232,232)"/><rect x="147.289" y="213.771" width="44" height="5" transform="matrix(1,0,0,1,0,0)" fill="rgb(255,255,255)"/><circle vector-effect="non-scaling-stroke" cx="249.28871000000004" cy="216.77141500000005" r="3" fill="rgb(255,153,0)"/><circle vector-effect="non-scaling-stroke" cx="259.2887100000001" cy="216.77141500000005" r="3" fill="rgb(255,153,0)"/><circle vector-effect="non-scaling-stroke" cx="269.28871000000004" cy="216.77141500000005" r="3" fill="rgb(255,153,0)"/><path d=" M 292.289 335.771 L 126.289 335.771 C 123.529 335.768 121.292 333.532 121.289 330.771 L 121.289 274.771 C 121.292 272.011 123.529 269.775 126.289 269.771 L 292.289 269.771 C 295.049 269.775 297.286 272.011 297.289 274.771 L 297.289 330.771 C 297.286 333.532 295.049 335.768 292.289 335.771 L 292.289 335.771 Z " fill="rgb(232,232,232)"/><rect x="147.289" y="284.771" width="44" height="5" transform="matrix(1,0,0,1,0,0)" fill="rgb(255,255,255)"/><circle vector-effect="non-scaling-stroke" cx="249.28871000000004" cy="287.77141500000005" r="3" fill="rgb(255,153,0)"/><circle vector-effect="non-scaling-stroke" cx="259.2887100000001" cy="287.77141500000005" r="3" fill="rgb(255,153,0)"/><circle vector-effect="non-scaling-stroke" cx="269.28871000000004" cy="287.77141500000005" r="3" fill="rgb(255,153,0)"/><path d=" M 231.75 379.234 L 63.75 379.234 L 63.75 313 L 65.75 313 L 65.75 377.234 L 231.75 377.234 L 231.75 379.234 L 231.75 379.234 Z " fill="rgb(204,204,204)"/><path d=" M 168.75 82 L 336.75 82 L 336.75 148.234 L 334.75 148.234 L 334.75 84 L 168.75 84 L 168.75 82 L 168.75 82 Z " fill="rgb(204,204,204)"/></g></svg>